<svg width="314" height="72" viewBox="0 0 314 72" fill="none" xmlns="http://www.w3.org/2000/svg">
<path d="M170.12 57.3473H167.414V63.9264H170.12V57.3473Z" stroke="black" stroke-width="0.5" stroke-miterlimit="10"/>
<path d="M19.3359 44.6381H72.2546H255.783C262.45 44.6381 269.123 45.312 275.651 46.6722C301.322 52.0224 314.084 56.946 313.938 61.4457C313.875 63.3612 311.477 65.1984 306.743 66.9574C303.172 68.2848 299.374 68.9284 295.563 68.9738L75.0028 71.7145L19.3359 44.6381Z" fill="url(#paint0_linear_93_6509)"/>
<path d="M14.5684 0.706238L70.8889 44.6381H17.9728L1.79614 0.706238H14.5684Z" fill="url(#paint1_linear_93_6509)"/>
<path d="M79.5627 52.1359V66.9296C64.3021 69.3523 52.5343 67.3435 50.2983 61.645C50.2125 61.428 49.458 59.4167 50.2983 57.2867C52.5368 51.6185 64.2971 49.6601 79.5627 52.1359Z" fill="#4B4B4D"/>
<path d="M79.6968 67.0104C80.5163 67.0104 81.1807 63.6806 81.1807 59.5731C81.1807 55.4657 80.5163 52.1359 79.6968 52.1359C78.8773 52.1359 78.2129 55.4657 78.2129 59.5731C78.2129 63.6806 78.8773 67.0104 79.6968 67.0104Z" fill="#CCCED0"/>
<path d="M186.432 58.9195V65.5466C177.342 66.6317 170.332 65.7308 169.002 63.1794C168.951 63.081 168.502 62.18 169.002 61.2286C170.334 58.6898 177.337 57.8116 186.432 58.9195Z" fill="#4B4B4D"/>
<path d="M186.511 65.5819C186.999 65.5819 187.394 64.0904 187.394 62.2507C187.394 60.4109 186.999 58.9195 186.511 58.9195C186.023 58.9195 185.627 60.4109 185.627 62.2507C185.627 64.0904 186.023 65.5819 186.511 65.5819Z" fill="#CCCED0"/>
<path d="M146.684 50.3592H212.426L98.7501 65.9984H89.3848L146.684 50.3592Z" fill="#818385"/>
<path d="M201.494 59.7144C202.426 59.7144 203.182 58.7213 203.182 57.4961C203.182 56.271 202.426 55.2778 201.494 55.2778C200.561 55.2778 199.805 56.271 199.805 57.4961C199.805 58.7213 200.561 59.7144 201.494 59.7144Z" fill="#818385"/>
<path d="M206.851 59.7144C207.784 59.7144 208.54 58.7212 208.54 57.4961C208.54 56.2709 207.784 55.2778 206.851 55.2778C205.919 55.2778 205.163 56.2709 205.163 57.4961C205.163 58.7212 205.919 59.7144 206.851 59.7144Z" fill="#818385"/>
<path d="M212.209 59.7144C213.142 59.7144 213.897 58.7212 213.897 57.4961C213.897 56.2709 213.142 55.2778 212.209 55.2778C211.277 55.2778 210.521 56.2709 210.521 57.4961C210.521 58.7212 211.277 59.7144 212.209 59.7144Z" fill="#818385"/>
<path d="M217.567 59.7144C218.499 59.7144 219.255 58.7212 219.255 57.4961C219.255 56.2709 218.499 55.2778 217.567 55.2778C216.635 55.2778 215.879 56.2709 215.879 57.4961C215.879 58.7212 216.635 59.7144 217.567 59.7144Z" fill="#818385"/>
<path d="M222.924 59.7144C223.857 59.7144 224.612 58.7212 224.612 57.4961C224.612 56.2709 223.857 55.2778 222.924 55.2778C221.992 55.2778 221.236 56.2709 221.236 57.4961C221.236 58.7212 221.992 59.7144 222.924 59.7144Z" fill="#818385"/>
<path d="M228.285 59.7144C229.217 59.7144 229.973 58.7212 229.973 57.4961C229.973 56.2709 229.217 55.2778 228.285 55.2778C227.352 55.2778 226.596 56.2709 226.596 57.4961C226.596 58.7212 227.352 59.7144 228.285 59.7144Z" fill="#818385"/>
<path d="M233.643 59.7144C234.575 59.7144 235.331 58.7212 235.331 57.4961C235.331 56.2709 234.575 55.2778 233.643 55.2778C232.71 55.2778 231.954 56.2709 231.954 57.4961C231.954 58.7212 232.71 59.7144 233.643 59.7144Z" fill="#818385"/>
<path d="M239.001 59.7144C239.933 59.7144 240.689 58.7212 240.689 57.4961C240.689 56.2709 239.933 55.2778 239.001 55.2778C238.068 55.2778 237.312 56.2709 237.312 57.4961C237.312 58.7212 238.068 59.7144 239.001 59.7144Z" fill="#818385"/>
<path d="M244.358 59.7144C245.291 59.7144 246.047 58.7212 246.047 57.4961C246.047 56.2709 245.291 55.2778 244.358 55.2778C243.426 55.2778 242.67 56.2709 242.67 57.4961C242.67 58.7212 243.426 59.7144 244.358 59.7144Z" fill="#818385"/>
<path d="M249.715 59.7144C250.648 59.7144 251.404 58.7212 251.404 57.4961C251.404 56.2709 250.648 55.2778 249.715 55.2778C248.783 55.2778 248.027 56.2709 248.027 57.4961C248.027 58.7212 248.783 59.7144 249.715 59.7144Z" fill="#818385"/>
<path d="M295.737 51.7548H264.391V50.2582H290.289L295.737 51.7548Z" fill="#818385"/>
<path d="M0.390625 0.706177L17.4506 44.6381H27.5578L4.01207 0.706177H0.390625Z" fill="#4B4B4D"/>
<path d="M17.9729 44.6381L5.23096 54.9448H20.6455L85.5565 44.6381H17.9729Z" fill="#818385"/>
<defs>
<linearGradient id="paint0_linear_93_6509" x1="19.3367" y1="58.1786" x2="313.937" y2="58.1786" gradientUnits="userSpaceOnUse">
<stop stop-color="#DADBDC"/>
<stop offset="1" stop-color="white"/>
</linearGradient>
<linearGradient id="paint1_linear_93_6509" x1="1.79698" y1="22.673" x2="70.89" y2="22.673" gradientUnits="userSpaceOnUse">
<stop stop-color="#DADBDC"/>
<stop offset="1" stop-color="white"/>
</linearGradient>
</defs>
</svg>
