<?xml version="1.0" encoding="utf-8"?>
<!-- Generator: Adobe Illustrator 26.0.2, SVG Export Plug-In . SVG Version: 6.00 Build 0)  -->
<svg version="1.1" id="Layer_1" xmlns="http://www.w3.org/2000/svg" xmlns:xlink="http://www.w3.org/1999/xlink" x="0px" y="0px"
	 viewBox="0 0 589 380" style="enable-background:new 0 0 589 380;" xml:space="preserve">
<style type="text/css">
	.st0{opacity:0.43;fill:url(#SVGID_1_);}
	.st1{fill:url(#SVGID_00000086650599967800459090000003044795406488690829_);}
	.st2{fill:url(#SVGID_00000072278816110142207110000015350680474397473947_);}
	.st3{fill:url(#SVGID_00000022547541020535781980000003964049119674366887_);}
	.st4{opacity:0.8;fill:none;stroke:#98A1D1;stroke-width:4;stroke-linecap:round;stroke-miterlimit:10;}
	.st5{opacity:0.8;fill:none;stroke:#FAB783;stroke-width:4;stroke-linecap:round;stroke-miterlimit:10;}
	.st6{fill:#5B5C5E;}
</style>
<g>
	<radialGradient id="SVGID_1_" cx="95.7698" cy="293.0356" r="86.5746" gradientUnits="userSpaceOnUse">
		<stop  offset="0" style="stop-color:#B1B3B5"/>
		<stop  offset="0.8382" style="stop-color:#656668"/>
	</radialGradient>
	<circle class="st0" cx="95.77" cy="293.04" r="86.57"/>
	
		<radialGradient id="SVGID_00000150084486512134425800000016842799903060559273_" cx="86.8155" cy="293.0356" r="86.5746" gradientUnits="userSpaceOnUse">
		<stop  offset="0" style="stop-color:#B1B3B5"/>
		<stop  offset="0.8382" style="stop-color:#656668"/>
	</radialGradient>
	<circle style="fill:url(#SVGID_00000150084486512134425800000016842799903060559273_);" cx="86.82" cy="293.04" r="86.57"/>
	
		<linearGradient id="SVGID_00000000187594714402116330000006956743556146514054_" gradientUnits="userSpaceOnUse" x1="69.8656" y1="255.2572" x2="103.7653" y2="255.2572">
		<stop  offset="0" style="stop-color:#737477"/>
		<stop  offset="1" style="stop-color:#656668"/>
	</linearGradient>
	<circle style="fill:url(#SVGID_00000000187594714402116330000006956743556146514054_);" cx="86.82" cy="255.26" r="16.95"/>
	
		<linearGradient id="SVGID_00000138575717512837623800000001220077418863323324_" gradientUnits="userSpaceOnUse" x1="110.86" y1="277.5573" x2="126.9951" y2="277.5573">
		<stop  offset="0" style="stop-color:#737477"/>
		<stop  offset="1" style="stop-color:#656668"/>
	</linearGradient>
	<circle style="fill:url(#SVGID_00000138575717512837623800000001220077418863323324_);" cx="118.93" cy="277.56" r="8.07"/>
	<line class="st4" x1="212.71" y1="151.16" x2="489.3" y2="-0.07"/>
	<line class="st4" x1="261.74" y1="145.75" x2="367.66" y2="87.84"/>
	<line class="st5" x1="127.44" y1="178.88" x2="343.47" y2="60.76"/>
	<polyline class="st5" points="207.94,188.44 330.63,121.36 421.04,71.93 	"/>
	<line class="st4" x1="227.19" y1="227.07" x2="296.28" y2="189.29"/>
	<line class="st4" x1="247.46" y1="179.41" x2="496.07" y2="43.48"/>
	<line class="st4" x1="305.17" y1="170.89" x2="581.75" y2="19.67"/>
	<line class="st4" x1="354.19" y1="165.49" x2="460.12" y2="107.57"/>
	<polyline class="st5" points="300.39,208.18 423.09,141.09 513.49,91.66 	"/>
	<polyline class="st5" points="233.36,267.67 356.06,200.58 446.46,151.16 	"/>
	<line class="st5" x1="173.39" y1="189.78" x2="242.49" y2="152"/>
	<line class="st4" x1="227.19" y1="293.04" x2="296.28" y2="255.26"/>
	<line class="st4" x1="339.91" y1="199.15" x2="588.53" y2="63.22"/>
	<g>
		<g>
			<path class="st6" d="M75.29,344.71c-1.89-1.57-3.51-3.46-4.9-5.52c-1.41-2.05-2.59-4.31-3.35-6.81c-0.36-1.26-0.6-2.59-0.54-4.03
				c0.02-0.36,0.08-0.73,0.13-1.1c0.1-0.38,0.17-0.75,0.33-1.14c0.27-0.76,0.79-1.55,1.52-2.16c0.74-0.62,1.7-0.96,2.6-1.06
				c0.92-0.11,1.75,0.04,2.53,0.24c1.53,0.45,2.76,1.25,3.86,2.11c2.14,1.78,3.74,3.97,4.9,6.34c1.15,2.37,1.89,4.93,2.1,7.54
				c0.1,1.31,0.04,2.64-0.25,3.93c-0.26,1.28-0.92,2.59-2.05,3.34c-1.16,0.75-2.56,0.62-3.71,0.21
				C77.28,346.17,76.25,345.48,75.29,344.71z M75.29,344.71c0.96,0.76,2.02,1.43,3.2,1.76c1.16,0.33,2.48,0.25,3.34-0.52
				c0.84-0.76,1.15-1.93,1.18-3.06c0.02-1.15-0.19-2.3-0.53-3.41c-0.71-2.21-1.81-4.29-3.12-6.17c-1.28-1.89-2.78-3.61-4.42-4.97
				c-0.82-0.67-1.69-1.23-2.5-1.54c-0.83-0.29-1.45-0.32-1.92-0.09c-0.48,0.24-1.04,0.99-1.26,2.01c-0.26,1-0.34,2.15-0.26,3.3
				C69.35,336.67,71.53,341.54,75.29,344.71z"/>
		</g>
		<g>
			<path class="st6" d="M70.14,325.1c-0.08-1.44,0.18-2.66,0.54-3.82c0.37-1.15,0.88-2.22,1.5-3.22c0.62-1,1.36-1.92,2.23-2.77
				c0.88-0.83,1.87-1.6,3.2-2.16c0.08,1.44-0.17,2.66-0.53,3.82c-0.37,1.15-0.88,2.22-1.51,3.22c-0.63,1-1.36,1.92-2.24,2.76
				C72.45,323.77,71.46,324.54,70.14,325.1z"/>
		</g>
		<g>
			<path class="st6" d="M82.2,345.74c1.07-0.74,2.12-1.09,3.15-1.31c1.03-0.21,2.05-0.26,3.05-0.18c1.01,0.08,2,0.3,2.98,0.67
				c0.98,0.39,1.95,0.9,2.89,1.82c-1.07,0.75-2.12,1.09-3.15,1.32c-1.03,0.21-2.05,0.26-3.05,0.18c-1.01-0.09-2-0.3-2.98-0.68
				C84.11,347.16,83.13,346.65,82.2,345.74z"/>
		</g>
	</g>
</g>
</svg>
