<svg width="423" height="260" viewBox="0 0 423 260" fill="none" xmlns="http://www.w3.org/2000/svg">
<path d="M121.556 67.3467H83.0874V101.565H121.556V67.3467Z" fill="url(#paint0_linear_93_5044)"/>
<path d="M216.021 40.1569C210.686 31.8086 200.422 18.403 183.138 9.20928C165.265 -0.297344 149.283 -0.100558 120.268 0.189663C100.748 0.383985 89.1793 0.633788 76.2682 7.34168C64.1269 13.6483 53.0783 24.4799 51.1124 26.4307C46.6354 30.8748 43.2411 34.9481 40.9017 37.9639C35.8392 41.5374 27.6903 48.268 21.0455 59.2307C15.3571 68.6137 13.0001 77.4212 11.9351 83.1701C10.0625 84.1039 7.27893 85.8275 4.91173 88.8761C-0.387951 95.7026 0.636684 103.718 0.904192 105.477C11.7509 105.648 22.595 105.82 33.4417 105.992H227.435C245.576 105.992 263.718 105.992 281.858 105.992C284.2 103.942 286.54 101.896 288.882 99.8465L298.098 99.4073V92.384H291.514C291.37 88.8534 290.759 83.5865 288.377 77.8149C281.005 59.9499 262.943 52.4169 251.748 47.7481C244.329 44.6566 232.117 40.644 216.021 40.1569Z" fill="url(#paint1_linear_93_5044)"/>
<path d="M237.931 58.9784C230.373 56.3765 218.895 52.9796 204.563 50.9455C198.973 50.1531 190.62 49.2344 161.5 49.2344C141.091 49.2319 130.888 49.232 122.355 49.8048C108.551 50.731 89.0882 52.9972 65.7393 58.9808L82.9557 105.994H208.023L237.931 58.9784Z" fill="#7B2F62"/>
<path d="M121.556 67.3467H80.5615V101.565H121.556V67.3467Z" fill="url(#paint2_linear_93_5044)"/>
<path d="M245.214 102.373L204.228 101.56L204.906 67.3467L245.893 68.1618L245.214 102.373Z" fill="url(#paint3_linear_93_5044)"/>
<path d="M80.5607 41.4416L209.007 40.2176C211.342 40.1949 212.493 37.3709 210.84 35.723L189.696 14.6303C187.41 12.3489 183.776 12.147 181.25 14.1608C181.055 14.3173 180.813 14.4006 180.563 14.4006H101.371C101.045 14.4006 100.737 14.5445 100.528 14.7943L79.7027 39.6346C79.1046 40.3539 79.6219 41.4492 80.5607 41.4416Z" fill="url(#paint4_linear_93_5044)"/>
<path d="M208.024 105.992C205.76 90.9457 211.645 75.8188 223.461 66.4207C235.852 56.5658 252.879 54.5141 267.431 61.1084L270.694 61.7393H279.559V81.6409H275.128" fill="url(#paint5_linear_93_5044)"/>
<path d="M98.8655 105.992C101.129 90.9457 94.7645 76.5154 82.9488 67.1173C70.5576 57.2624 53.5305 55.2106 38.979 61.8049L23.0421 69.8655H17.2705V89.6081H23.0421" fill="url(#paint6_linear_93_5044)"/>
<path d="M279.559 81.6408C281.057 81.6408 282.272 77.1856 282.272 71.69C282.272 66.1943 281.057 61.7393 279.559 61.7393C278.061 61.7393 276.846 66.1943 276.846 71.69C276.846 77.1856 278.061 81.6408 279.559 81.6408Z" fill="#FDB737" stroke="#FDB737" stroke-width="0.5" stroke-miterlimit="10"/>
<path d="M284.988 99.6206L298.096 99.6206L298.096 92.3853L284.988 92.3853L284.988 99.6206Z" fill="black" stroke="black" stroke-width="0.5" stroke-miterlimit="10"/>
<path d="M17.2704 89.6056C18.6098 89.6056 19.6957 85.1867 19.6957 79.7356C19.6957 74.2845 18.6098 69.8655 17.2704 69.8655C15.931 69.8655 14.8452 74.2845 14.8452 79.7356C14.8452 85.1867 15.931 89.6056 17.2704 89.6056Z" fill="#FDB737" stroke="#FDB737" stroke-width="0.5" stroke-miterlimit="10"/>
<path d="M211.726 40.1569H199.812L180.95 14.4029L182.431 13.2219C184.289 11.7405 186.961 11.8717 188.665 13.5297L212.942 37.1613C214.065 38.254 213.29 40.1569 211.726 40.1569Z" stroke="#B9519E" stroke-width="0.5" stroke-miterlimit="10"/>
<path d="M180.952 14.4029H102.312C101.394 14.4029 100.52 14.8092 99.9298 15.5159L79.3847 40.0206C78.9078 40.5885 79.3166 41.4516 80.0585 41.444L199.811 40.1569L204.561 50.9456L203.478 101.568" stroke="#B9519E" stroke-width="0.5" stroke-miterlimit="10"/>
<path d="M178.386 40.1569L171.463 14.4029" stroke="#B9519E" stroke-width="0.5" stroke-miterlimit="10"/>
<path d="M122.355 40.9897V101.568" stroke="#B9519E" stroke-width="0.5" stroke-miterlimit="10"/>
<path d="M208.023 105.992L203.481 101.568H98.8647V105.992H208.023Z" fill="black"/>
<path d="M57.2474 129.224C71.5169 129.224 83.0846 117.657 83.0846 103.387C83.0846 89.1176 71.5169 77.5499 57.2474 77.5499C42.9779 77.5499 31.4102 89.1176 31.4102 103.387C31.4102 117.657 42.9779 129.224 57.2474 129.224Z" fill="#150F2E"/>
<path d="M57.2476 115.269C63.8095 115.269 69.129 109.949 69.129 103.387C69.129 96.8254 63.8095 91.5059 57.2476 91.5059C50.6857 91.5059 45.3662 96.8254 45.3662 103.387C45.3662 109.949 50.6857 115.269 57.2476 115.269Z" fill="#DADBDC" stroke="black" stroke-width="0.5" stroke-miterlimit="10"/>
<path d="M57.2474 109.134C60.421 109.134 62.9937 106.561 62.9937 103.387C62.9937 100.213 60.421 97.6407 57.2474 97.6407C54.0737 97.6407 51.501 100.213 51.501 103.387C51.501 106.561 54.0737 109.134 57.2474 109.134Z" fill="black" stroke="black" stroke-width="0.5" stroke-miterlimit="10"/>
<path d="M246.504 129.224C260.773 129.224 272.341 117.657 272.341 103.387C272.341 89.1176 260.773 77.5499 246.504 77.5499C232.234 77.5499 220.667 89.1176 220.667 103.387C220.667 117.657 232.234 129.224 246.504 129.224Z" fill="#150F2E"/>
<path d="M246.504 115.269C253.066 115.269 258.385 109.949 258.385 103.387C258.385 96.8254 253.066 91.5059 246.504 91.5059C239.942 91.5059 234.623 96.8254 234.623 103.387C234.623 109.949 239.942 115.269 246.504 115.269Z" fill="#DADBDC" stroke="black" stroke-width="0.5" stroke-miterlimit="10"/>
<path d="M246.505 109.134C249.678 109.134 252.251 106.561 252.251 103.387C252.251 100.213 249.678 97.6407 246.505 97.6407C243.331 97.6407 240.758 100.213 240.758 103.387C240.758 106.561 243.331 109.134 246.505 109.134Z" fill="black" stroke="black" stroke-width="0.5" stroke-miterlimit="10"/>
<path d="M126.808 57.9839L137.98 57.9839L137.98 55.5334L126.808 55.5334L126.808 57.9839Z" fill="black"/>
<path opacity="0.56" d="M213.096 42.4687C219.451 41.9564 228.899 41.9463 239.827 44.7753C251.966 47.9198 260.907 53.27 266.356 57.1439" fill="url(#paint7_linear_93_5044)"/>
<path d="M202.757 101.568H123.12V67.3467H203.443L202.757 101.568Z" fill="url(#paint8_linear_93_5044)"/>
<path d="M74.0728 59.2559C80.3617 57.4465 87.5315 55.7532 95.486 54.4838C104.104 53.1084 112.016 52.4851 118.994 52.2958" fill="url(#paint9_linear_93_5044)"/>
<path d="M123.12 52.6013C134.025 51.7508 146.419 51.1477 160.117 51.0871C174.959 51.019 188.528 51.5968 200.46 52.4624" fill="url(#paint10_linear_93_5044)"/>
<path opacity="0.67" d="M422.562 91.5085L279.559 81.641V61.7394L422.562 45.6788V91.5085Z" fill="url(#paint11_linear_93_5044)"/>
<path opacity="0.33" d="M111.781 40.3564H109.421L127.211 15.1652H129.57L111.781 40.3564Z" fill="url(#paint12_linear_93_5044)"/>
<path opacity="0.33" d="M119.977 40.3564H113.446L131.236 15.1652H137.767L119.977 40.3564Z" fill="url(#paint13_linear_93_5044)"/>
<path opacity="0.33" d="M135.736 40.3564H133.376L151.165 15.1652H153.525L135.736 40.3564Z" fill="url(#paint14_linear_93_5044)"/>
<path opacity="0.33" d="M143.933 40.3564H137.401L155.191 15.1652H161.724L143.933 40.3564Z" fill="url(#paint15_linear_93_5044)"/>
<g opacity="0.07">
<path opacity="0.07" d="M121.568 157.588H83.0996V191.806H121.568V157.588Z" fill="url(#paint16_linear_93_5044)"/>
<path opacity="0.07" d="M216.036 218.996C210.701 227.344 200.438 240.75 183.153 249.943C165.281 259.45 149.298 259.253 120.284 258.963C100.761 258.769 89.1947 258.519 76.2836 251.811C64.1423 245.504 53.0937 234.673 51.1278 232.722C46.6508 228.278 43.2565 224.205 40.9171 221.189C35.8546 217.615 27.7057 210.885 21.0609 199.922C15.3726 190.539 13.0155 181.732 11.9505 175.983C10.078 175.049 7.29434 173.325 4.92715 170.277C-0.372537 163.45 0.652096 155.435 0.91708 153.676C11.7638 153.504 22.6079 153.333 33.4546 153.161H227.448C245.588 153.161 263.731 153.161 281.871 153.161C284.213 155.21 286.552 157.257 288.894 159.306L298.111 159.745V166.769H291.527C291.383 170.299 290.77 175.566 288.39 181.338C281.018 199.203 262.956 206.736 251.761 211.405C244.344 214.496 232.132 218.509 216.036 218.996Z" fill="url(#paint17_linear_93_5044)"/>
<path opacity="0.07" d="M237.947 200.174C230.388 202.776 218.911 206.173 204.579 208.207C198.989 209 190.636 209.918 161.518 209.918C141.109 209.921 130.906 209.921 122.373 209.348C108.569 208.422 89.1062 206.156 65.7573 200.172L82.9737 153.159H208.041L237.947 200.174Z" fill="#7B2F62"/>
<path opacity="0.07" d="M121.568 157.588H80.5737V191.806H121.568V157.588Z" fill="url(#paint18_linear_93_5044)"/>
<path opacity="0.07" d="M245.227 156.78L204.24 157.593L204.922 191.806L245.908 190.991L245.227 156.78Z" fill="url(#paint19_linear_93_5044)"/>
<path opacity="0.07" d="M80.5739 217.712L209.021 218.935C211.355 218.958 212.506 221.782 210.853 223.43L189.71 244.523C187.423 246.804 183.789 247.006 181.263 244.992C181.069 244.836 180.826 244.753 180.576 244.753H101.384C101.058 244.753 100.751 244.609 100.541 244.359L79.7159 219.518C79.1178 218.799 79.6351 217.704 80.5739 217.712Z" fill="url(#paint20_linear_93_5044)"/>
<path opacity="0.07" d="M208.039 153.161C205.775 168.207 211.66 183.334 223.476 192.732C235.867 202.587 252.894 204.639 267.446 198.044L270.709 197.414H279.574V177.514H275.143" fill="url(#paint21_linear_93_5044)"/>
<path opacity="0.07" d="M98.8777 153.161C101.141 168.207 94.7767 182.637 82.961 192.036C70.5698 201.89 53.5427 203.942 38.9912 197.348L23.0544 189.287H17.2827V169.545H23.0544" fill="url(#paint22_linear_93_5044)"/>
<path opacity="0.07" d="M279.575 197.414C281.073 197.414 282.288 192.958 282.288 187.463C282.288 181.967 281.073 177.512 279.575 177.512C278.076 177.512 276.862 181.967 276.862 187.463C276.862 192.958 278.076 197.414 279.575 197.414Z" fill="#FDB737" stroke="#FDB737" stroke-width="0.5" stroke-miterlimit="10"/>
<path opacity="0.07" d="M285.003 166.767L298.111 166.767L298.111 159.532L285.003 159.532L285.003 166.767Z" fill="black" stroke="black" stroke-width="0.5" stroke-miterlimit="10"/>
<path opacity="0.07" d="M17.2856 189.287C18.625 189.287 19.7108 184.868 19.7108 179.417C19.7108 173.966 18.625 169.547 17.2856 169.547C15.9461 169.547 14.8604 173.966 14.8604 179.417C14.8604 184.868 15.9461 189.287 17.2856 189.287Z" fill="#FDB737" stroke="#FDB737" stroke-width="0.5" stroke-miterlimit="10"/>
<path opacity="0.07" d="M211.738 218.996H199.824L180.962 244.75L182.444 245.931C184.301 247.412 186.974 247.281 188.677 245.623L212.955 221.992C214.08 220.899 213.306 218.996 211.738 218.996Z" stroke="#B9519E" stroke-width="0.5" stroke-miterlimit="10"/>
<path opacity="0.07" d="M180.965 244.75H102.325C101.407 244.75 100.534 244.344 99.943 243.637L79.3979 219.132C78.921 218.565 79.3298 217.701 80.0717 217.709L199.824 218.996L204.574 208.207L203.491 157.585" stroke="#B9519E" stroke-width="0.5" stroke-miterlimit="10"/>
<path opacity="0.07" d="M178.401 218.996L171.479 244.75" stroke="#B9519E" stroke-width="0.5" stroke-miterlimit="10"/>
<path opacity="0.07" d="M122.371 218.163V157.588" stroke="#B9519E" stroke-width="0.5" stroke-miterlimit="10"/>
<path opacity="0.07" d="M208.038 153.161L203.496 157.588H98.8774V153.161H208.038Z" fill="black"/>
<path opacity="0.07" d="M57.263 181.603C71.5325 181.603 83.1002 170.035 83.1002 155.766C83.1002 141.496 71.5325 129.928 57.263 129.928C42.9935 129.928 31.4258 141.496 31.4258 155.766C31.4258 170.035 42.9935 181.603 57.263 181.603Z" fill="#150F2E"/>
<path opacity="0.07" d="M57.2627 167.647C63.8246 167.647 69.1441 162.328 69.1441 155.766C69.1441 149.204 63.8246 143.884 57.2627 143.884C50.7008 143.884 45.3813 149.204 45.3813 155.766C45.3813 162.328 50.7008 167.647 57.2627 167.647Z" fill="#DADBDC" stroke="black" stroke-width="0.5" stroke-miterlimit="10"/>
<path opacity="0.07" d="M57.2624 161.512C60.4361 161.512 63.0088 158.939 63.0088 155.766C63.0088 152.592 60.4361 150.019 57.2624 150.019C54.0888 150.019 51.5161 152.592 51.5161 155.766C51.5161 158.939 54.0888 161.512 57.2624 161.512Z" fill="black" stroke="black" stroke-width="0.5" stroke-miterlimit="10"/>
<path opacity="0.07" d="M246.519 181.603C260.789 181.603 272.357 170.035 272.357 155.766C272.357 141.496 260.789 129.928 246.519 129.928C232.25 129.928 220.682 141.496 220.682 155.766C220.682 170.035 232.25 181.603 246.519 181.603Z" fill="#150F2E"/>
<path opacity="0.07" d="M246.519 167.647C253.081 167.647 258.4 162.328 258.4 155.766C258.4 149.204 253.081 143.884 246.519 143.884C239.957 143.884 234.638 149.204 234.638 155.766C234.638 162.328 239.957 167.647 246.519 167.647Z" fill="#DADBDC" stroke="black" stroke-width="0.5" stroke-miterlimit="10"/>
<path opacity="0.07" d="M246.52 161.512C249.693 161.512 252.266 158.939 252.266 155.766C252.266 152.592 249.693 150.019 246.52 150.019C243.346 150.019 240.773 152.592 240.773 155.766C240.773 158.939 243.346 161.512 246.52 161.512Z" fill="black" stroke="black" stroke-width="0.5" stroke-miterlimit="10"/>
<path opacity="0.07" d="M126.821 203.62L137.994 203.62L137.994 201.169L126.821 201.169L126.821 203.62Z" fill="black"/>
<path opacity="0.56" d="M213.109 216.684C219.463 217.197 228.912 217.207 239.84 214.378C251.978 211.233 260.92 205.883 266.368 202.009" fill="url(#paint23_linear_93_5044)"/>
<path opacity="0.07" d="M202.771 157.588H123.132V191.806H203.458L202.771 157.588Z" fill="url(#paint24_linear_93_5044)"/>
<path opacity="0.07" d="M74.0884 199.897C80.3773 201.706 87.547 203.4 95.5016 204.669C104.12 206.047 112.032 206.668 119.01 206.857" fill="url(#paint25_linear_93_5044)"/>
<path opacity="0.07" d="M123.132 206.552C134.037 207.402 146.431 208.005 160.129 208.066C174.971 208.134 188.541 207.556 200.472 206.691" fill="url(#paint26_linear_93_5044)"/>
<path opacity="0.67" d="M422.578 167.645L279.574 177.512V197.414L422.578 213.474V167.645Z" fill="url(#paint27_linear_93_5044)"/>
<path opacity="0.33" d="M111.797 218.797H109.437L127.226 243.988H129.586L111.797 218.797Z" fill="url(#paint28_linear_93_5044)"/>
<path opacity="0.33" d="M119.994 218.797H113.462L131.252 243.988H137.783L119.994 218.797Z" fill="url(#paint29_linear_93_5044)"/>
<path opacity="0.33" d="M135.751 218.797H133.391L151.18 243.988H153.54L135.751 218.797Z" fill="url(#paint30_linear_93_5044)"/>
<path opacity="0.33" d="M143.948 218.797H137.417L155.206 243.988H161.738L143.948 218.797Z" fill="url(#paint31_linear_93_5044)"/>
</g>
<defs>
<linearGradient id="paint0_linear_93_5044" x1="102.157" y1="101.747" x2="102.484" y2="67.1665" gradientUnits="userSpaceOnUse">
<stop stop-color="#DD8DA2"/>
<stop offset="0.2226" stop-color="#E4A0A5" stop-opacity="0.8063"/>
<stop offset="0.7474" stop-color="#F6CEAA" stop-opacity="0.3497"/>
<stop offset="1" stop-color="#FFE0A9" stop-opacity="0.13"/>
</linearGradient>
<linearGradient id="paint1_linear_93_5044" x1="66.4371" y1="171.011" x2="223.826" y2="13.6223" gradientUnits="userSpaceOnUse">
<stop stop-color="#4D3364"/>
<stop offset="0.5347" stop-color="#BE4C7A"/>
<stop offset="1" stop-color="#EAA4B2"/>
</linearGradient>
<linearGradient id="paint2_linear_93_5044" x1="100.894" y1="101.759" x2="101.221" y2="67.1545" gradientUnits="userSpaceOnUse">
<stop stop-color="#DC8CA1"/>
<stop offset="0.2007" stop-color="#AD657F"/>
<stop offset="0.4501" stop-color="#844262"/>
<stop offset="0.6754" stop-color="#6A2C51"/>
<stop offset="0.8663" stop-color="#5B1D47"/>
<stop offset="1" stop-color="#561944"/>
</linearGradient>
<linearGradient id="paint3_linear_93_5044" x1="224.477" y1="102.197" x2="225.493" y2="67.6067" gradientUnits="userSpaceOnUse">
<stop stop-color="#DC8CA1"/>
<stop offset="0.2007" stop-color="#AD657F"/>
<stop offset="0.4501" stop-color="#844262"/>
<stop offset="0.6754" stop-color="#6A2C51"/>
<stop offset="0.8663" stop-color="#5B1D47"/>
<stop offset="1" stop-color="#561944"/>
</linearGradient>
<linearGradient id="paint4_linear_93_5044" x1="79.4475" y1="27.1085" x2="211.618" y2="27.1085" gradientUnits="userSpaceOnUse">
<stop stop-color="#ECC7DE"/>
<stop offset="0.3049" stop-color="#EDC3DC"/>
<stop offset="0.7138" stop-color="#EFB6D4"/>
<stop offset="1" stop-color="#F1ABCC"/>
</linearGradient>
<linearGradient id="paint5_linear_93_5044" x1="262.583" y1="51.939" x2="225.538" y2="116.103" gradientUnits="userSpaceOnUse">
<stop stop-color="#FBBB8A"/>
<stop offset="0.2042" stop-color="#EAA39F"/>
<stop offset="0.3453" stop-color="#E295A9"/>
<stop offset="0.3769" stop-color="#E092A6"/>
<stop offset="0.6193" stop-color="#D57D97"/>
<stop offset="0.8348" stop-color="#CF708F"/>
<stop offset="1" stop-color="#CD6C8C"/>
</linearGradient>
<linearGradient id="paint6_linear_93_5044" x1="73.5287" y1="61.1491" x2="47.1412" y2="106.854" gradientUnits="userSpaceOnUse">
<stop stop-color="#C67C87"/>
<stop offset="0.1824" stop-color="#A05773"/>
<stop offset="0.3499" stop-color="#853A66"/>
<stop offset="0.4331" stop-color="#7B2F62"/>
<stop offset="0.471" stop-color="#783062"/>
<stop offset="0.6667" stop-color="#713366"/>
<stop offset="0.8481" stop-color="#6C3669"/>
<stop offset="1" stop-color="#6B3669"/>
</linearGradient>
<linearGradient id="paint7_linear_93_5044" x1="239.682" y1="50.0981" x2="241.1" y2="45.1411" gradientUnits="userSpaceOnUse">
<stop stop-color="#DD8DA2"/>
<stop offset="0.2226" stop-color="#E4A0A5"/>
<stop offset="0.7474" stop-color="#F6CEAA"/>
<stop offset="1" stop-color="#FFE0A9"/>
</linearGradient>
<linearGradient id="paint8_linear_93_5044" x1="162.954" y1="101.943" x2="163.285" y2="66.967" gradientUnits="userSpaceOnUse">
<stop stop-color="#DC8CA1"/>
<stop offset="0.2007" stop-color="#AD657F"/>
<stop offset="0.4501" stop-color="#844262"/>
<stop offset="0.6754" stop-color="#6A2C51"/>
<stop offset="0.8663" stop-color="#5B1D47"/>
<stop offset="1" stop-color="#561944"/>
</linearGradient>
<linearGradient id="paint9_linear_93_5044" x1="96.5323" y1="59.2571" x2="96.5323" y2="52.2958" gradientUnits="userSpaceOnUse">
<stop stop-color="#7B2F62"/>
<stop offset="0.1588" stop-color="#7D3262"/>
<stop offset="0.3143" stop-color="#853A60"/>
<stop offset="0.4685" stop-color="#92485E"/>
<stop offset="0.622" stop-color="#A55C59"/>
<stop offset="0.775" stop-color="#C0754D"/>
<stop offset="0.9255" stop-color="#E49536"/>
<stop offset="1" stop-color="#FBAA1D"/>
</linearGradient>
<linearGradient id="paint10_linear_93_5044" x1="161.512" y1="55.9593" x2="162.126" y2="49.025" gradientUnits="userSpaceOnUse">
<stop stop-color="#7B2F62"/>
<stop offset="0.1588" stop-color="#7D3262"/>
<stop offset="0.3143" stop-color="#853A60"/>
<stop offset="0.4685" stop-color="#92485E"/>
<stop offset="0.622" stop-color="#A55C59"/>
<stop offset="0.775" stop-color="#C0754D"/>
<stop offset="0.9255" stop-color="#E49536"/>
<stop offset="1" stop-color="#FBAA1D"/>
</linearGradient>
<linearGradient id="paint11_linear_93_5044" x1="279.559" y1="68.5931" x2="422.562" y2="68.5931" gradientUnits="userSpaceOnUse">
<stop offset="0.00134342" stop-color="#FDB737"/>
<stop offset="0.0942" stop-color="#F0AF3A" stop-opacity="0.9349"/>
<stop offset="0.2192" stop-color="#DA9F41" stop-opacity="0.8473"/>
<stop offset="0.3624" stop-color="#B98848" stop-opacity="0.7469"/>
<stop offset="0.5193" stop-color="#906C4B" stop-opacity="0.6369"/>
<stop offset="0.6874" stop-color="#634E49" stop-opacity="0.41"/>
<stop offset="0.8619" stop-color="#352F41" stop-opacity="0.21"/>
<stop offset="1" stop-color="#081538" stop-opacity="0"/>
</linearGradient>
<linearGradient id="paint12_linear_93_5044" x1="129.57" y1="27.761" x2="109.421" y2="27.761" gradientUnits="userSpaceOnUse">
<stop stop-color="#FBBB8A"/>
<stop offset="0.2042" stop-color="#EAA39F"/>
<stop offset="0.3453" stop-color="#E295A9"/>
<stop offset="0.3769" stop-color="#E092A6"/>
<stop offset="0.6193" stop-color="#D57D97"/>
<stop offset="0.8348" stop-color="#CF708F"/>
<stop offset="1" stop-color="#CD6C8C"/>
</linearGradient>
<linearGradient id="paint13_linear_93_5044" x1="137.768" y1="27.761" x2="113.446" y2="27.761" gradientUnits="userSpaceOnUse">
<stop stop-color="#FBBB8A"/>
<stop offset="0.2042" stop-color="#EAA39F"/>
<stop offset="0.3453" stop-color="#E295A9"/>
<stop offset="0.3769" stop-color="#E092A6"/>
<stop offset="0.6193" stop-color="#D57D97"/>
<stop offset="0.8348" stop-color="#CF708F"/>
<stop offset="1" stop-color="#CD6C8C"/>
</linearGradient>
<linearGradient id="paint14_linear_93_5044" x1="153.525" y1="27.761" x2="133.376" y2="27.761" gradientUnits="userSpaceOnUse">
<stop stop-color="#FBBB8A"/>
<stop offset="0.2042" stop-color="#EAA39F"/>
<stop offset="0.3453" stop-color="#E295A9"/>
<stop offset="0.3769" stop-color="#E092A6"/>
<stop offset="0.6193" stop-color="#D57D97"/>
<stop offset="0.8348" stop-color="#CF708F"/>
<stop offset="1" stop-color="#CD6C8C"/>
</linearGradient>
<linearGradient id="paint15_linear_93_5044" x1="161.723" y1="27.761" x2="137.402" y2="27.761" gradientUnits="userSpaceOnUse">
<stop stop-color="#FBBB8A"/>
<stop offset="0.2042" stop-color="#EAA39F"/>
<stop offset="0.3453" stop-color="#E295A9"/>
<stop offset="0.3769" stop-color="#E092A6"/>
<stop offset="0.6193" stop-color="#D57D97"/>
<stop offset="0.8348" stop-color="#CF708F"/>
<stop offset="1" stop-color="#CD6C8C"/>
</linearGradient>
<linearGradient id="paint16_linear_93_5044" x1="102.171" y1="157.406" x2="102.498" y2="191.986" gradientUnits="userSpaceOnUse">
<stop stop-color="#DD8DA2"/>
<stop offset="0.2226" stop-color="#E4A0A5" stop-opacity="0.8063"/>
<stop offset="0.7474" stop-color="#F6CEAA" stop-opacity="0.3497"/>
<stop offset="1" stop-color="#FFE0A9" stop-opacity="0.13"/>
</linearGradient>
<linearGradient id="paint17_linear_93_5044" x1="66.452" y1="88.142" x2="223.841" y2="245.53" gradientUnits="userSpaceOnUse">
<stop stop-color="#4D3364"/>
<stop offset="0.5347" stop-color="#BE4C7A"/>
<stop offset="1" stop-color="#EAA4B2"/>
</linearGradient>
<linearGradient id="paint18_linear_93_5044" x1="100.908" y1="157.394" x2="101.236" y2="191.998" gradientUnits="userSpaceOnUse">
<stop stop-color="#DC8CA1"/>
<stop offset="0.2007" stop-color="#AD657F"/>
<stop offset="0.4501" stop-color="#844262"/>
<stop offset="0.6754" stop-color="#6A2C51"/>
<stop offset="0.8663" stop-color="#5B1D47"/>
<stop offset="1" stop-color="#561944"/>
</linearGradient>
<linearGradient id="paint19_linear_93_5044" x1="224.559" y1="156.953" x2="225.575" y2="191.543" gradientUnits="userSpaceOnUse">
<stop stop-color="#DC8CA1"/>
<stop offset="0.2007" stop-color="#AD657F"/>
<stop offset="0.4501" stop-color="#844262"/>
<stop offset="0.6754" stop-color="#6A2C51"/>
<stop offset="0.8663" stop-color="#5B1D47"/>
<stop offset="1" stop-color="#561944"/>
</linearGradient>
<linearGradient id="paint20_linear_93_5044" x1="79.4627" y1="232.045" x2="211.634" y2="232.045" gradientUnits="userSpaceOnUse">
<stop stop-color="#ECC7DE"/>
<stop offset="0.3049" stop-color="#EDC3DC"/>
<stop offset="0.7138" stop-color="#EFB6D4"/>
<stop offset="1" stop-color="#F1ABCC"/>
</linearGradient>
<linearGradient id="paint21_linear_93_5044" x1="262.598" y1="207.214" x2="225.552" y2="143.05" gradientUnits="userSpaceOnUse">
<stop stop-color="#FBBB8A"/>
<stop offset="0.2042" stop-color="#EAA39F"/>
<stop offset="0.3453" stop-color="#E295A9"/>
<stop offset="0.3769" stop-color="#E092A6"/>
<stop offset="0.6193" stop-color="#D57D97"/>
<stop offset="0.8348" stop-color="#CF708F"/>
<stop offset="1" stop-color="#CD6C8C"/>
</linearGradient>
<linearGradient id="paint22_linear_93_5044" x1="73.543" y1="198.004" x2="47.1554" y2="152.299" gradientUnits="userSpaceOnUse">
<stop stop-color="#C67C87"/>
<stop offset="0.1824" stop-color="#A05773"/>
<stop offset="0.3499" stop-color="#853A66"/>
<stop offset="0.4331" stop-color="#7B2F62"/>
<stop offset="0.471" stop-color="#783062"/>
<stop offset="0.6667" stop-color="#713366"/>
<stop offset="0.8481" stop-color="#6C3669"/>
<stop offset="1" stop-color="#6B3669"/>
</linearGradient>
<linearGradient id="paint23_linear_93_5044" x1="239.693" y1="209.059" x2="241.11" y2="214.016" gradientUnits="userSpaceOnUse">
<stop stop-color="#DD8DA2"/>
<stop offset="0.2226" stop-color="#E4A0A5"/>
<stop offset="0.7474" stop-color="#F6CEAA"/>
<stop offset="1" stop-color="#FFE0A9"/>
</linearGradient>
<linearGradient id="paint24_linear_93_5044" x1="162.969" y1="157.21" x2="163.3" y2="192.186" gradientUnits="userSpaceOnUse">
<stop stop-color="#DC8CA1"/>
<stop offset="0.2007" stop-color="#AD657F"/>
<stop offset="0.4501" stop-color="#844262"/>
<stop offset="0.6754" stop-color="#6A2C51"/>
<stop offset="0.8663" stop-color="#5B1D47"/>
<stop offset="1" stop-color="#561944"/>
</linearGradient>
<linearGradient id="paint25_linear_93_5044" x1="96.5475" y1="199.896" x2="96.5475" y2="206.857" gradientUnits="userSpaceOnUse">
<stop stop-color="#7B2F62"/>
<stop offset="0.1588" stop-color="#7D3262"/>
<stop offset="0.3143" stop-color="#853A60"/>
<stop offset="0.4685" stop-color="#92485E"/>
<stop offset="0.622" stop-color="#A55C59"/>
<stop offset="0.775" stop-color="#C0754D"/>
<stop offset="0.9255" stop-color="#E49536"/>
<stop offset="1" stop-color="#FBAA1D"/>
</linearGradient>
<linearGradient id="paint26_linear_93_5044" x1="161.522" y1="203.187" x2="162.136" y2="210.121" gradientUnits="userSpaceOnUse">
<stop stop-color="#7B2F62"/>
<stop offset="0.1588" stop-color="#7D3262"/>
<stop offset="0.3143" stop-color="#853A60"/>
<stop offset="0.4685" stop-color="#92485E"/>
<stop offset="0.622" stop-color="#A55C59"/>
<stop offset="0.775" stop-color="#C0754D"/>
<stop offset="0.9255" stop-color="#E49536"/>
<stop offset="1" stop-color="#FBAA1D"/>
</linearGradient>
<linearGradient id="paint27_linear_93_5044" x1="279.573" y1="190.56" x2="422.577" y2="190.56" gradientUnits="userSpaceOnUse">
<stop offset="0.00134342" stop-color="#FDB737"/>
<stop offset="0.0942" stop-color="#F0AF3A" stop-opacity="0.9349"/>
<stop offset="0.2192" stop-color="#DA9F41" stop-opacity="0.8473"/>
<stop offset="0.3624" stop-color="#B98848" stop-opacity="0.7469"/>
<stop offset="0.5193" stop-color="#906C4B" stop-opacity="0.6369"/>
<stop offset="0.6874" stop-color="#634E49" stop-opacity="0.5191"/>
<stop offset="0.8619" stop-color="#352F41" stop-opacity="0.3968"/>
<stop offset="1" stop-color="#081538" stop-opacity="0.3"/>
</linearGradient>
<linearGradient id="paint28_linear_93_5044" x1="129.585" y1="231.392" x2="109.436" y2="231.392" gradientUnits="userSpaceOnUse">
<stop stop-color="#FBBB8A"/>
<stop offset="0.2042" stop-color="#EAA39F"/>
<stop offset="0.3453" stop-color="#E295A9"/>
<stop offset="0.3769" stop-color="#E092A6"/>
<stop offset="0.6193" stop-color="#D57D97"/>
<stop offset="0.8348" stop-color="#CF708F"/>
<stop offset="1" stop-color="#CD6C8C"/>
</linearGradient>
<linearGradient id="paint29_linear_93_5044" x1="137.783" y1="231.392" x2="113.462" y2="231.392" gradientUnits="userSpaceOnUse">
<stop stop-color="#FBBB8A"/>
<stop offset="0.2042" stop-color="#EAA39F"/>
<stop offset="0.3453" stop-color="#E295A9"/>
<stop offset="0.3769" stop-color="#E092A6"/>
<stop offset="0.6193" stop-color="#D57D97"/>
<stop offset="0.8348" stop-color="#CF708F"/>
<stop offset="1" stop-color="#CD6C8C"/>
</linearGradient>
<linearGradient id="paint30_linear_93_5044" x1="153.54" y1="231.392" x2="133.391" y2="231.392" gradientUnits="userSpaceOnUse">
<stop stop-color="#FBBB8A"/>
<stop offset="0.2042" stop-color="#EAA39F"/>
<stop offset="0.3453" stop-color="#E295A9"/>
<stop offset="0.3769" stop-color="#E092A6"/>
<stop offset="0.6193" stop-color="#D57D97"/>
<stop offset="0.8348" stop-color="#CF708F"/>
<stop offset="1" stop-color="#CD6C8C"/>
</linearGradient>
<linearGradient id="paint31_linear_93_5044" x1="161.739" y1="231.392" x2="137.417" y2="231.392" gradientUnits="userSpaceOnUse">
<stop stop-color="#FBBB8A"/>
<stop offset="0.2042" stop-color="#EAA39F"/>
<stop offset="0.3453" stop-color="#E295A9"/>
<stop offset="0.3769" stop-color="#E092A6"/>
<stop offset="0.6193" stop-color="#D57D97"/>
<stop offset="0.8348" stop-color="#CF708F"/>
<stop offset="1" stop-color="#CD6C8C"/>
</linearGradient>
</defs>
</svg>
