<svg width="3248" height="4716" viewBox="0 0 3248 4716" fill="none" xmlns="http://www.w3.org/2000/svg">
<g id="ParticleShower 1">
<path id="Vector" d="M65.993 4293.43C64.6306 4294.38 64.2905 4296.24 65.2333 4297.61C66.1762 4298.97 68.045 4299.31 69.4074 4298.37L65.993 4293.43ZM398.6 4066.9L400.307 4069.37L400.645 4069.13L400.908 4068.82L398.6 4066.9ZM1717 2480.4L1718.85 2478.04L1716.55 2476.24L1714.69 2478.48L1717 2480.4ZM1138.61 3538.75C1137.42 3539.9 1137.39 3541.8 1138.55 3542.99C1139.7 3544.18 1141.6 3544.21 1142.79 3543.05L1138.61 3538.75ZM1121.47 3563.37C1122.67 3562.22 1122.71 3560.32 1121.57 3559.13C1120.42 3557.93 1118.52 3557.89 1117.33 3559.03L1121.47 3563.37ZM809.916 3853.64C808.724 3854.79 808.691 3856.69 809.842 3857.88C810.993 3859.08 812.892 3859.11 814.084 3857.96L809.916 3853.64ZM803.485 3868.16C804.677 3867.01 804.709 3865.11 803.557 3863.91C802.406 3862.72 800.506 3862.69 799.315 3863.84L803.485 3868.16ZM793.879 3869.08C792.707 3870.25 792.707 3872.15 793.879 3873.32C795.05 3874.49 796.95 3874.49 798.122 3873.32L793.879 3869.08ZM994.762 4236.5C994.428 4238.12 995.473 4239.7 997.096 4240.04C998.719 4240.37 1000.31 4239.33 1000.64 4237.7L994.762 4236.5ZM1002.14 4230.4C1002.47 4228.78 1001.43 4227.19 999.804 4226.86C998.181 4226.53 996.595 4227.57 996.262 4229.2L1002.14 4230.4ZM1002.47 4199.88C1002.12 4201.5 1003.16 4203.09 1004.78 4203.43C1006.4 4203.78 1007.99 4202.74 1008.34 4201.12L1002.47 4199.88ZM1144.34 3558.32C1144.68 3556.7 1143.64 3555.11 1142.02 3554.76C1140.4 3554.42 1138.81 3555.46 1138.47 3557.08L1144.34 3558.32ZM1141.57 3542.47C1141.22 3544.09 1142.25 3545.68 1143.87 3546.03C1145.49 3546.38 1147.08 3545.35 1147.43 3543.73L1141.57 3542.47ZM1481.96 4298.22C1482.63 4299.73 1484.41 4300.41 1485.92 4299.74C1487.43 4299.07 1488.11 4297.29 1487.44 4295.78L1481.96 4298.22ZM1764.95 3260.7C1765.61 3262.22 1767.38 3262.91 1768.9 3262.25C1770.42 3261.59 1771.11 3259.82 1770.45 3258.3L1764.95 3260.7ZM1767.45 3251.4C1766.79 3249.88 1765.02 3249.19 1763.5 3249.85C1761.98 3250.51 1761.29 3252.28 1761.95 3253.8L1767.45 3251.4ZM1750.14 3226.49C1750.8 3228.01 1752.56 3228.71 1754.09 3228.06C1755.61 3227.4 1756.31 3225.64 1755.66 3224.11L1750.14 3226.49ZM1620.26 2909.51C1619.6 2907.99 1617.84 2907.29 1616.31 2907.94C1614.79 2908.6 1614.09 2910.36 1614.74 2911.89L1620.26 2909.51ZM1608.85 2898.3C1609.51 2899.82 1611.28 2900.51 1612.8 2899.85C1614.32 2899.19 1615.01 2897.42 1614.35 2895.9L1608.85 2898.3ZM1451.52 3802.94C1450.78 3804.42 1451.37 3806.23 1452.84 3806.98C1454.32 3807.72 1456.13 3807.13 1456.88 3805.66L1451.52 3802.94ZM1481.5 3750.4L1484.12 3748.94C1483.58 3747.97 1482.55 3747.38 1481.44 3747.4C1480.33 3747.42 1479.33 3748.05 1478.82 3749.04L1481.5 3750.4ZM1508.88 3805.76C1509.68 3807.21 1511.51 3807.73 1512.96 3806.92C1514.41 3806.12 1514.93 3804.29 1514.12 3802.84L1508.88 3805.76ZM1486.79 3642.73C1485.21 3642.24 1483.53 3643.13 1483.04 3644.71C1482.54 3646.29 1483.43 3647.97 1485.01 3648.47L1486.79 3642.73ZM1485.5 3657.9L1485.67 3660.9L1486.16 3660.83L1485.5 3657.9ZM1478.7 3663.9L1475.71 3663.62L1475.71 3663.64L1478.7 3663.9ZM1485.1 3671L1485.99 3668.13L1485.41 3668.02L1485.1 3671ZM1484.7 3683.3L1484.87 3686.3L1485.36 3686.23L1484.7 3683.3ZM1477.9 3689.3L1474.91 3689.02L1474.91 3689.04L1477.9 3689.3ZM1483.99 3699.38C1485.64 3699.55 1487.12 3698.35 1487.28 3696.71C1487.45 3695.06 1486.25 3693.58 1484.61 3693.42L1483.99 3699.38ZM1485.09 3693.53C1483.51 3693.04 1481.83 3693.93 1481.34 3695.51C1480.84 3697.09 1481.73 3698.77 1483.31 3699.27L1485.09 3693.53ZM1483.8 3708.7L1483.97 3711.7L1484.46 3711.63L1483.8 3708.7ZM1477 3714.7L1474.01 3714.42L1474.01 3714.44L1477 3714.7ZM1483.4 3721.8L1484.29 3718.93L1483.71 3718.82L1483.4 3721.8ZM1483 3734.1L1483.17 3737.1L1483.66 3737.03L1483 3734.1ZM1476.2 3740.1L1473.21 3739.82L1473.21 3739.84L1476.2 3740.1ZM1482.29 3750.18C1483.94 3750.35 1485.42 3749.15 1485.58 3747.51C1485.75 3745.86 1484.55 3744.38 1482.91 3744.22L1482.29 3750.18ZM1483.34 3646.69C1483.83 3648.27 1485.51 3649.16 1487.09 3648.67C1488.67 3648.17 1489.56 3646.49 1489.07 3644.91L1483.34 3646.69ZM1473.9 3646.2L1470.97 3645.54L1470.9 3646.03L1473.9 3646.2ZM1467.9 3653.1L1468.16 3656.09L1468.18 3656.09L1467.9 3653.1ZM1460.8 3646.7L1463.78 3646.39L1463.67 3645.81L1460.8 3646.7ZM1448.5 3647.1L1445.57 3646.44L1445.5 3646.93L1448.5 3647.1ZM1442.5 3654L1442.76 3656.99L1442.78 3656.99L1442.5 3654ZM1435.4 3647.6L1438.38 3647.29L1438.27 3646.71L1435.4 3647.6ZM1423.1 3648L1420.17 3647.34L1420.1 3647.83L1423.1 3648ZM1417.1 3654.9L1417.36 3657.89L1417.38 3657.89L1417.1 3654.9ZM1410 3648.5L1412.98 3648.19L1412.87 3647.61L1410 3648.5ZM1397.7 3648.9L1394.77 3648.24L1394.7 3648.73L1397.7 3648.9ZM1391.7 3655.8L1391.96 3658.79L1391.98 3658.79L1391.7 3655.8ZM1387.58 3649.09C1387.42 3647.45 1385.94 3646.25 1384.29 3646.42C1382.65 3646.58 1381.45 3648.06 1381.62 3649.71L1387.58 3649.09ZM1484.72 3640.75C1483.31 3641.62 1482.88 3643.47 1483.75 3644.88C1484.62 3646.29 1486.47 3646.72 1487.88 3645.85L1484.72 3640.75ZM1677 3525.1L1679.88 3525.94C1680.23 3524.75 1679.8 3523.46 1678.82 3522.71C1677.83 3521.96 1676.48 3521.9 1675.42 3522.55L1677 3525.1ZM1642.02 3634.36C1641.56 3635.95 1642.47 3637.62 1644.06 3638.08C1645.65 3638.54 1647.32 3637.63 1647.78 3636.04L1642.02 3634.36ZM1749.75 3471.78C1751.01 3472.86 1752.9 3472.71 1753.98 3471.45C1755.06 3470.19 1754.91 3468.3 1753.65 3467.22L1749.75 3471.78ZM1744.6 3469L1746.29 3471.48L1746.34 3471.44L1744.6 3469ZM1742.7 3476.1L1739.89 3477.14L1740.14 3477.66L1742.7 3476.1ZM1741.7 3484.3L1743.62 3486.6L1743.66 3486.57L1741.7 3484.3ZM1735.3 3481.17C1734.18 3479.95 1732.28 3479.87 1731.07 3481C1729.85 3482.12 1729.77 3484.02 1730.9 3485.23L1735.3 3481.17ZM1731.15 3485.38C1732.41 3486.46 1734.3 3486.31 1735.38 3485.05C1736.46 3483.79 1736.31 3481.9 1735.05 3480.82L1731.15 3485.38ZM1726 3482.6L1727.69 3485.08L1727.74 3485.04L1726 3482.6ZM1724.1 3489.7L1721.29 3490.74L1721.54 3491.26L1724.1 3489.7ZM1723.1 3497.9L1725.02 3500.2L1725.06 3500.17L1723.1 3497.9ZM1716.7 3494.77C1715.58 3493.55 1713.68 3493.47 1712.47 3494.6C1711.25 3495.72 1711.17 3497.62 1712.3 3498.83L1716.7 3494.77ZM1712.55 3498.98C1713.81 3500.06 1715.7 3499.91 1716.78 3498.65C1717.86 3497.39 1717.71 3495.5 1716.45 3494.42L1712.55 3498.98ZM1707.4 3496.2L1709.09 3498.68L1709.14 3498.64L1707.4 3496.2ZM1705.5 3503.3L1702.69 3504.34L1702.94 3504.86L1705.5 3503.3ZM1704.5 3511.5L1706.42 3513.8L1706.46 3513.77L1704.5 3511.5ZM1698.1 3508.37C1696.98 3507.15 1695.08 3507.07 1693.87 3508.2C1692.65 3509.32 1692.57 3511.22 1693.7 3512.43L1698.1 3508.37ZM1694.05 3512.58C1695.31 3513.66 1697.2 3513.51 1698.28 3512.25C1699.36 3510.99 1699.21 3509.1 1697.95 3508.02L1694.05 3512.58ZM1688.9 3509.8L1690.59 3512.28L1690.64 3512.24L1688.9 3509.8ZM1687 3516.9L1684.19 3517.94L1684.44 3518.46L1687 3516.9ZM1686 3525.1L1687.92 3527.4L1687.96 3527.37L1686 3525.1ZM1679.6 3521.97C1678.48 3520.75 1676.58 3520.67 1675.37 3521.8C1674.15 3522.92 1674.07 3524.82 1675.2 3526.03L1679.6 3521.97ZM1750.43 3467.26C1749.42 3468.56 1749.65 3470.45 1750.96 3471.47C1752.26 3472.48 1754.15 3472.25 1755.17 3470.94L1750.43 3467.26ZM1867.3 3322.2L1870.27 3322.63C1870.46 3321.28 1869.73 3319.97 1868.48 3319.44C1867.22 3318.91 1865.77 3319.28 1864.93 3320.36L1867.3 3322.2ZM1663.65 4017.68C1664.91 4018.76 1666.8 4018.61 1667.88 4017.35C1668.96 4016.09 1668.81 4014.2 1667.55 4013.12L1663.65 4017.68ZM1658.5 4014.9L1660.19 4017.38L1660.24 4017.34L1658.5 4014.9ZM1656.6 4022L1653.79 4023.04L1654.04 4023.56L1656.6 4022ZM1655.6 4030.2L1657.52 4032.5L1657.56 4032.47L1655.6 4030.2ZM1649.2 4027.07C1648.08 4025.85 1646.18 4025.77 1644.97 4026.9C1643.75 4028.02 1643.67 4029.92 1644.8 4031.13L1649.2 4027.07ZM1645.15 4031.28C1646.41 4032.36 1648.3 4032.21 1649.38 4030.95C1650.46 4029.69 1650.31 4027.8 1649.05 4026.72L1645.15 4031.28ZM1640 4028.5L1641.69 4030.98L1641.74 4030.94L1640 4028.5ZM1638.1 4035.6L1635.29 4036.64L1635.54 4037.16L1638.1 4035.6ZM1637.1 4043.8L1639.02 4046.1L1639.06 4046.07L1637.1 4043.8ZM1630.7 4040.67C1629.58 4039.45 1627.68 4039.37 1626.47 4040.5C1625.25 4041.62 1625.17 4043.52 1626.3 4044.73L1630.7 4040.67ZM1626.55 4044.78C1627.81 4045.86 1629.7 4045.71 1630.78 4044.45C1631.86 4043.19 1631.71 4041.3 1630.45 4040.22L1626.55 4044.78ZM1621.4 4042L1623.09 4044.48L1623.14 4044.44L1621.4 4042ZM1619.5 4049.1L1616.69 4050.14L1616.94 4050.66L1619.5 4049.1ZM1618.5 4057.3L1620.42 4059.6L1620.46 4059.57L1618.5 4057.3ZM1612.1 4054.17C1610.98 4052.95 1609.08 4052.87 1607.87 4054C1606.65 4055.12 1606.57 4057.02 1607.7 4058.23L1612.1 4054.17ZM1608.05 4058.38C1609.31 4059.46 1611.2 4059.31 1612.28 4058.05C1613.36 4056.79 1613.21 4054.9 1611.95 4053.82L1608.05 4058.38ZM1602.9 4055.6L1604.59 4058.08L1604.64 4058.04L1602.9 4055.6ZM1601 4062.7L1598.19 4063.74L1598.44 4064.26L1601 4062.7ZM1600 4070.9L1601.92 4073.2L1601.96 4073.17L1600 4070.9ZM1593.6 4067.77C1592.48 4066.55 1590.58 4066.47 1589.37 4067.6C1588.15 4068.72 1588.07 4070.62 1589.2 4071.83L1593.6 4067.77ZM1828.29 4308.78C1829.11 4310.22 1830.94 4310.73 1832.38 4309.91C1833.82 4309.09 1834.33 4307.26 1833.51 4305.82L1828.29 4308.78ZM1665.6 4016L1663.08 4014.38C1662.47 4015.32 1662.44 4016.51 1662.99 4017.48L1665.6 4016ZM1820.2 3775.3L1822.72 3776.92C1822.93 3776.6 1823.08 3776.24 1823.15 3775.86L1820.2 3775.3ZM1822.18 3777.85C1823.26 3776.59 1823.11 3774.7 1821.85 3773.62C1820.59 3772.54 1818.7 3772.69 1817.62 3773.95L1822.18 3777.85ZM1819.2 3783L1821.73 3781.39L1821.7 3781.34L1819.2 3783ZM1826.2 3785.1L1827.24 3787.91L1827.65 3787.73L1826.2 3785.1ZM1834.3 3786.3L1836.69 3784.48L1836.66 3784.45L1834.3 3786.3ZM1832.9 3794.8L1831.05 3792.44L1830.62 3792.85L1832.9 3794.8ZM1832.2 3801.9L1834.73 3800.29L1834.7 3800.24L1832.2 3801.9ZM1839.2 3804L1840.24 3806.81L1840.65 3806.63L1839.2 3804ZM1847.3 3805.2L1849.69 3803.38L1849.66 3803.35L1847.3 3805.2ZM1844.05 3811.34C1842.74 3812.36 1842.52 3814.25 1843.54 3815.55C1844.56 3816.86 1846.45 3817.08 1847.75 3816.06L1844.05 3811.34ZM1848.28 3815.75C1849.36 3814.49 1849.21 3812.6 1847.95 3811.52C1846.69 3810.44 1844.8 3810.59 1843.72 3811.85L1848.28 3815.75ZM1845.3 3820.9L1847.83 3819.29L1847.8 3819.24L1845.3 3820.9ZM1852.3 3823L1853.34 3825.81L1853.75 3825.63L1852.3 3823ZM1860.4 3824.2L1862.79 3822.38L1862.76 3822.35L1860.4 3824.2ZM1857.15 3830.34C1855.84 3831.36 1855.62 3833.25 1856.64 3834.55C1857.66 3835.86 1859.55 3836.08 1860.85 3835.06L1857.15 3830.34ZM1861.38 3834.65C1862.46 3833.39 1862.31 3831.5 1861.05 3830.42C1859.79 3829.34 1857.9 3829.49 1856.82 3830.75L1861.38 3834.65ZM1858.4 3839.8L1860.93 3838.19L1860.9 3838.14L1858.4 3839.8ZM1865.4 3841.9L1866.44 3844.71L1866.85 3844.53L1865.4 3841.9ZM1873.5 3843.1L1875.89 3841.28L1875.86 3841.25L1873.5 3843.1ZM1870.25 3849.24C1868.94 3850.26 1868.72 3852.15 1869.74 3853.45C1870.76 3854.76 1872.65 3854.98 1873.95 3853.96L1870.25 3849.24ZM1874.48 3853.55C1875.56 3852.29 1875.41 3850.4 1874.15 3849.32C1872.89 3848.24 1871 3848.39 1869.92 3849.65L1874.48 3853.55ZM1871.5 3858.7L1874.03 3857.09L1874 3857.04L1871.5 3858.7ZM1878.5 3860.8L1879.54 3863.61L1879.95 3863.43L1878.5 3860.8ZM1886.6 3862L1888.99 3860.18L1888.96 3860.15L1886.6 3862ZM1885.2 3870.5L1883.35 3868.14L1882.92 3868.55L1885.2 3870.5ZM1884.5 3877.6L1887.03 3875.99L1887 3875.94L1884.5 3877.6ZM1891.5 3879.7L1892.54 3882.51L1892.95 3882.33L1891.5 3879.7ZM1899.6 3880.9L1901.99 3879.08L1901.96 3879.05L1899.6 3880.9ZM1896.35 3887.04C1895.04 3888.06 1894.82 3889.95 1895.84 3891.25C1896.86 3892.56 1898.75 3892.78 1900.05 3891.76L1896.35 3887.04ZM1900.58 3891.35C1901.66 3890.09 1901.51 3888.2 1900.25 3887.12C1898.99 3886.04 1897.1 3886.19 1896.02 3887.45L1900.58 3891.35ZM1897.6 3896.5L1900.13 3894.89L1900.1 3894.84L1897.6 3896.5ZM1904.6 3898.6L1905.64 3901.41L1906.05 3901.23L1904.6 3898.6ZM1912.7 3899.8L1915.09 3897.98L1915.06 3897.95L1912.7 3899.8ZM1909.45 3905.94C1908.14 3906.96 1907.92 3908.85 1908.94 3910.15C1909.96 3911.46 1911.85 3911.68 1913.15 3910.66L1909.45 3905.94ZM1913.68 3910.35C1914.76 3909.09 1914.61 3907.2 1913.35 3906.12C1912.09 3905.04 1910.2 3905.19 1909.12 3906.45L1913.68 3910.35ZM1910.7 3915.5L1913.23 3913.89L1913.2 3913.84L1910.7 3915.5ZM1917.7 3917.6L1918.74 3920.41L1919.15 3920.23L1917.7 3917.6ZM1925.8 3918.8L1928.19 3916.98L1928.16 3916.95L1925.8 3918.8ZM1922.55 3924.94C1921.24 3925.96 1921.02 3927.85 1922.04 3929.15C1923.06 3930.46 1924.95 3930.68 1926.25 3929.66L1922.55 3924.94ZM1853.6 3599.5L1856.23 3598.06C1855.62 3596.95 1854.38 3596.34 1853.13 3596.54C1851.88 3596.73 1850.89 3597.7 1850.65 3598.94L1853.6 3599.5ZM1912.38 3705.35C1913.46 3704.09 1913.31 3702.2 1912.05 3701.12C1910.79 3700.04 1908.9 3700.19 1907.82 3701.45L1912.38 3705.35ZM1909.4 3710.5L1911.93 3708.89L1911.9 3708.84L1909.4 3710.5ZM1916.4 3712.6L1917.44 3715.41L1917.85 3715.23L1916.4 3712.6ZM1924.5 3713.8L1926.89 3711.98L1926.86 3711.95L1924.5 3713.8ZM1921.25 3719.94C1919.94 3720.96 1919.72 3722.85 1920.74 3724.15C1921.76 3725.46 1923.65 3725.68 1924.95 3724.66L1921.25 3719.94ZM1925.48 3724.25C1926.56 3722.99 1926.41 3721.1 1925.15 3720.02C1923.89 3718.94 1922 3719.09 1920.92 3720.35L1925.48 3724.25ZM1922.5 3729.4L1925.03 3727.79L1925 3727.74L1922.5 3729.4ZM1929.5 3731.5L1930.54 3734.31L1930.95 3734.13L1929.5 3731.5ZM1937.6 3732.7L1939.99 3730.88L1939.96 3730.85L1937.6 3732.7ZM1936.2 3741.2L1934.35 3738.84L1933.92 3739.25L1936.2 3741.2ZM1935.5 3748.3L1938.03 3746.69L1938 3746.64L1935.5 3748.3ZM1942.5 3750.4L1943.54 3753.21L1943.95 3753.03L1942.5 3750.4ZM1950.6 3751.6L1952.99 3749.78L1952.96 3749.75L1950.6 3751.6ZM1947.35 3757.74C1946.04 3758.76 1945.82 3760.65 1946.84 3761.95C1947.86 3763.26 1949.75 3763.48 1951.05 3762.46L1947.35 3757.74ZM1951.58 3762.05C1952.66 3760.79 1952.51 3758.9 1951.25 3757.82C1949.99 3756.74 1948.1 3756.89 1947.02 3758.15L1951.58 3762.05ZM1948.6 3767.2L1951.13 3765.59L1951.1 3765.54L1948.6 3767.2ZM1955.6 3769.3L1956.64 3772.11L1957.05 3771.93L1955.6 3769.3ZM1963.7 3770.5L1966.09 3768.68L1966.06 3768.65L1963.7 3770.5ZM1960.45 3776.64C1959.14 3777.66 1958.92 3779.55 1959.94 3780.85C1960.96 3782.16 1962.85 3782.38 1964.15 3781.36L1960.45 3776.64ZM1907.77 3704.84C1908.56 3706.29 1910.39 3706.83 1911.84 3706.03C1913.29 3705.24 1913.83 3703.41 1913.03 3701.96L1907.77 3704.84ZM1841.68 3510.2C1843.22 3509.61 1843.99 3507.87 1843.4 3506.32C1842.81 3504.78 1841.07 3504.01 1839.52 3504.6L1841.68 3510.2ZM1836.7 3513.4L1833.71 3513.64L1833.72 3513.74L1836.7 3513.4ZM1842 3518.4L1841.68 3521.38L1842.18 3521.39L1842 3518.4ZM1848.7 3523.2L1851.65 3522.63L1851.64 3522.59L1848.7 3523.2ZM1842.91 3527.28C1841.3 3527.66 1840.3 3529.27 1840.68 3530.89C1841.06 3532.5 1842.67 3533.5 1844.29 3533.12L1842.91 3527.28ZM1844.68 3532.9C1846.22 3532.31 1846.99 3530.57 1846.4 3529.02C1845.81 3527.48 1844.07 3526.71 1842.52 3527.3L1844.68 3532.9ZM1839.7 3536.1L1836.71 3536.34L1836.72 3536.44L1839.7 3536.1ZM1845 3541.1L1844.68 3544.08L1845.18 3544.09L1845 3541.1ZM1851.7 3545.9L1854.65 3545.33L1854.64 3545.29L1851.7 3545.9ZM1846.6 3552.9L1845.91 3549.98L1845.52 3550.1L1846.6 3552.9ZM1842.7 3558.9L1839.71 3559.14L1839.72 3559.24L1842.7 3558.9ZM1848 3563.9L1847.68 3566.88L1848.18 3566.89L1848 3563.9ZM1854.7 3568.7L1857.65 3568.13L1857.64 3568.09L1854.7 3568.7ZM1848.91 3572.78C1847.3 3573.16 1846.3 3574.77 1846.68 3576.39C1847.06 3578 1848.67 3579 1850.29 3578.62L1848.91 3572.78ZM1850.78 3578.5C1852.32 3577.91 1853.09 3576.17 1852.5 3574.62C1851.91 3573.08 1850.17 3572.31 1848.62 3572.9L1850.78 3578.5ZM1845.8 3581.7L1842.81 3581.94L1842.82 3582.04L1845.8 3581.7ZM1851.1 3586.7L1850.78 3589.68L1851.28 3589.69L1851.1 3586.7ZM1857.8 3591.5L1860.75 3590.93L1860.74 3590.89L1857.8 3591.5ZM1852.01 3595.58C1850.4 3595.96 1849.4 3597.57 1849.78 3599.19C1850.16 3600.8 1851.77 3601.8 1853.39 3601.42L1852.01 3595.58ZM1837.93 3505.57C1837.7 3507.21 1838.83 3508.73 1840.47 3508.97C1842.11 3509.21 1843.63 3508.07 1843.87 3506.43L1837.93 3505.57ZM1950.23 3033.6C1951.89 3033.64 1953.26 3032.32 1953.3 3030.67C1953.34 3029.01 1952.02 3027.64 1950.37 3027.6L1950.23 3033.6ZM1940.6 3037.1L1943.46 3038.01L1943.47 3037.98L1940.6 3037.1ZM1945.4 3048.2L1943.88 3050.79L1944.35 3051.01L1945.4 3048.2ZM1952.4 3059.8L1955.33 3060.44L1955.33 3060.42L1952.4 3059.8ZM1940.66 3064.05C1939.03 3063.74 1937.46 3064.81 1937.15 3066.44C1936.84 3068.07 1937.91 3069.64 1939.54 3069.95L1940.66 3064.05ZM1940.03 3070.1C1941.69 3070.14 1943.06 3068.82 1943.1 3067.17C1943.14 3065.51 1941.82 3064.14 1940.17 3064.1L1940.03 3070.1ZM1930.4 3073.6L1933.26 3074.51L1933.27 3074.48L1930.4 3073.6ZM1935.2 3084.7L1933.68 3087.29L1934.15 3087.51L1935.2 3084.7ZM1942.2 3096.3L1945.13 3096.94L1945.13 3096.92L1942.2 3096.3ZM1930.46 3100.55C1928.83 3100.24 1927.26 3101.31 1926.95 3102.94C1926.64 3104.57 1927.71 3106.14 1929.34 3106.45L1930.46 3100.55ZM1929.73 3106.5C1931.39 3106.54 1932.76 3105.22 1932.8 3103.57C1932.84 3101.91 1931.52 3100.54 1929.87 3100.5L1929.73 3106.5ZM1920.1 3110L1922.96 3110.91L1922.97 3110.88L1920.1 3110ZM1924.9 3121.1L1923.38 3123.69L1923.85 3123.91L1924.9 3121.1ZM1931.9 3132.7L1934.83 3133.34L1934.83 3133.32L1931.9 3132.7ZM1920.16 3136.95C1918.53 3136.64 1916.96 3137.71 1916.65 3139.34C1916.34 3140.97 1917.41 3142.54 1919.04 3142.85L1920.16 3136.95ZM1919.43 3142.9C1921.09 3142.94 1922.46 3141.62 1922.5 3139.97C1922.54 3138.31 1921.22 3136.94 1919.57 3136.9L1919.43 3142.9ZM1909.8 3146.4L1912.66 3147.31L1912.67 3147.28L1909.8 3146.4ZM1914.6 3157.5L1913.08 3160.09L1913.55 3160.31L1914.6 3157.5ZM1921.6 3169.1L1924.53 3169.74L1924.53 3169.72L1921.6 3169.1ZM1909.86 3173.35C1908.23 3173.04 1906.66 3174.11 1906.35 3175.74C1906.04 3177.37 1907.11 3178.94 1908.74 3179.25L1909.86 3173.35ZM1908.33 3179.3C1909.99 3179.34 1911.36 3178.02 1911.4 3176.37C1911.44 3174.71 1910.12 3173.34 1908.47 3173.3L1908.33 3179.3ZM1898.7 3182.8L1901.56 3183.71L1901.57 3183.68L1898.7 3182.8ZM1903.5 3193.9L1901.98 3196.49L1902.45 3196.71L1903.5 3193.9ZM1910.5 3205.5L1913.43 3206.14L1913.43 3206.12L1910.5 3205.5ZM1898.76 3209.75C1897.13 3209.44 1895.56 3210.51 1895.25 3212.14C1894.94 3213.77 1896.01 3215.34 1897.64 3215.65L1898.76 3209.75ZM1898.03 3215.7C1899.69 3215.74 1901.06 3214.42 1901.1 3212.77C1901.14 3211.11 1899.82 3209.74 1898.17 3209.7L1898.03 3215.7ZM1888.4 3219.2L1891.26 3220.11L1891.27 3220.08L1888.4 3219.2ZM1893.2 3230.3L1891.68 3232.89L1892.15 3233.11L1893.2 3230.3ZM1900.2 3241.9L1903.13 3242.54L1903.13 3242.52L1900.2 3241.9ZM1888.46 3246.15C1886.83 3245.84 1885.26 3246.91 1884.95 3248.54C1884.64 3250.17 1885.71 3251.74 1887.34 3252.05L1888.46 3246.15ZM1887.73 3252.1C1889.39 3252.14 1890.76 3250.82 1890.8 3249.17C1890.84 3247.51 1889.52 3246.14 1887.87 3246.1L1887.73 3252.1ZM1878.1 3255.6L1880.96 3256.51L1880.97 3256.48L1878.1 3255.6ZM1882.9 3266.7L1881.38 3269.29L1881.85 3269.51L1882.9 3266.7ZM1889.9 3278.3L1892.83 3278.94L1892.83 3278.92L1889.9 3278.3ZM1878.16 3282.55C1876.53 3282.24 1874.96 3283.31 1874.65 3284.94C1874.34 3286.57 1875.41 3288.14 1877.04 3288.45L1878.16 3282.55ZM1877.53 3288.6C1879.19 3288.64 1880.56 3287.32 1880.6 3285.67C1880.64 3284.01 1879.32 3282.64 1877.67 3282.6L1877.53 3288.6ZM1867.9 3292.1L1870.76 3293.01L1870.77 3292.98L1867.9 3292.1ZM1872.7 3303.2L1871.18 3305.79L1871.65 3306.01L1872.7 3303.2ZM1879.7 3314.8L1882.63 3315.44L1882.63 3315.42L1879.7 3314.8ZM1867.96 3319.05C1866.33 3318.74 1864.76 3319.81 1864.45 3321.44C1864.14 3323.07 1865.21 3324.64 1866.84 3324.95L1867.96 3319.05ZM1952.6 3030.8L1949.84 3031.98L1954.55 3033.08L1952.6 3030.8ZM1964.3 3029.7L1965.96 3027.2L1965.95 3027.19L1964.3 3029.7ZM1967.6 3041.3L1970.2 3042.79L1970.4 3042.38L1967.6 3041.3ZM1969.5 3054.7L1967.61 3057.03L1967.63 3057.04L1969.5 3054.7ZM1983.6 3052.5L1981.65 3050.22L1981.31 3050.56L1983.6 3052.5ZM1995.3 3051.4L1996.96 3048.9L1996.95 3048.89L1995.3 3051.4ZM1998.6 3063L2001.2 3064.49L2001.4 3064.08L1998.6 3063ZM2000.5 3076.4L1998.61 3078.73L1998.63 3078.74L2000.5 3076.4ZM2016.89 3076.14C2017.96 3074.87 2017.8 3072.98 2016.54 3071.91C2015.27 3070.84 2013.38 3071 2012.31 3072.26L2016.89 3076.14ZM2012.65 3072.02C2011.39 3073.1 2011.24 3074.99 2012.32 3076.25C2013.4 3077.51 2015.29 3077.66 2016.55 3076.58L2012.65 3072.02ZM2026.3 3073.2L2027.96 3070.7L2027.95 3070.69L2026.3 3073.2ZM2029.6 3084.8L2032.2 3086.29L2032.4 3085.88L2029.6 3084.8ZM2031.5 3098.2L2029.61 3100.53L2029.63 3100.54L2031.5 3098.2ZM2045.6 3096L2043.65 3093.72L2043.31 3094.06L2045.6 3096ZM2057.3 3094.9L2058.96 3092.4L2058.95 3092.39L2057.3 3094.9ZM2060.6 3106.5L2063.2 3107.99L2063.4 3107.58L2060.6 3106.5ZM2062.5 3119.9L2060.61 3122.23L2060.63 3122.24L2062.5 3119.9ZM2078.89 3119.64C2079.96 3118.37 2079.8 3116.48 2078.54 3115.41C2077.27 3114.34 2075.38 3114.5 2074.31 3115.76L2078.89 3119.64ZM2697.29 3721.29C2698.72 3722.13 2700.56 3721.64 2701.39 3720.21C2702.23 3718.78 2701.74 3716.94 2700.31 3716.11L2697.29 3721.29ZM2691.7 3719.2L2689.64 3717.02L2689.64 3717.02L2691.7 3719.2ZM2690.9 3726.5L2688.33 3728.04L2688.6 3728.43L2690.9 3726.5ZM2691.1 3734.7L2693.32 3736.72L2693.32 3736.71L2691.1 3734.7ZM2682.4 3734.8L2684.35 3732.52L2683.91 3732.21L2682.4 3734.8ZM2675.3 3735.3L2673.24 3733.12L2673.24 3733.12L2675.3 3735.3ZM2674.5 3742.6L2671.93 3744.14L2672.2 3744.53L2674.5 3742.6ZM2674.7 3750.8L2676.92 3752.82L2676.92 3752.81L2674.7 3750.8ZM2666 3750.9L2667.95 3748.62L2667.51 3748.31L2666 3750.9ZM2658.9 3751.4L2656.84 3749.22L2656.84 3749.22L2658.9 3751.4ZM2658.1 3758.7L2655.53 3760.24L2655.8 3760.63L2658.1 3758.7ZM2658.3 3766.9L2660.52 3768.92L2660.52 3768.91L2658.3 3766.9ZM2649.6 3767L2651.55 3764.72L2651.11 3764.41L2649.6 3767ZM2642.5 3767.5L2640.44 3765.32L2640.44 3765.32L2642.5 3767.5ZM2641.7 3774.8L2639.13 3776.34L2639.4 3776.73L2641.7 3774.8ZM2641.9 3783L2644.12 3785.02L2644.12 3785.01L2641.9 3783ZM2635.15 3780.82C2633.88 3779.74 2631.99 3779.89 2630.92 3781.15C2629.84 3782.42 2629.99 3784.31 2631.25 3785.38L2635.15 3780.82ZM2698.63 3716.44C2697.11 3717.08 2696.39 3718.84 2697.04 3720.37C2697.68 3721.89 2699.44 3722.61 2700.97 3721.96L2698.63 3716.44ZM2706.8 3720.8L2709.19 3718.98L2709.14 3718.93L2706.8 3720.8ZM2706.5 3728.1L2708.48 3730.35L2708.82 3730L2706.5 3728.1ZM2705.1 3736.2L2707.61 3734.56L2707.6 3734.54L2705.1 3736.2ZM2713.6 3737.6L2712.43 3734.84L2712 3735.07L2713.6 3737.6ZM2720.6 3739.2L2722.99 3737.38L2722.94 3737.33L2720.6 3739.2ZM2720.3 3746.5L2722.28 3748.75L2722.62 3748.4L2720.3 3746.5ZM2718.9 3754.6L2721.41 3752.96L2721.4 3752.94L2718.9 3754.6ZM2727.4 3756L2726.23 3753.24L2725.79 3753.47L2727.4 3756ZM2734.4 3757.6L2736.79 3755.78L2736.74 3755.73L2734.4 3757.6ZM2734.1 3764.9L2736.08 3767.15L2736.42 3766.8L2734.1 3764.9ZM2732.7 3773L2735.21 3771.36L2735.2 3771.34L2732.7 3773ZM2741.2 3774.4L2740.03 3771.64L2739.6 3771.87L2741.2 3774.4ZM2748.2 3776L2750.59 3774.18L2750.54 3774.13L2748.2 3776ZM2747.9 3783.3L2749.88 3785.55L2750.22 3785.2L2747.9 3783.3ZM2746.5 3791.4L2749.01 3789.76L2749 3789.74L2746.5 3791.4ZM2756.61 3795.33C2758.01 3794.45 2758.42 3792.59 2757.53 3791.19C2756.65 3789.8 2754.79 3789.38 2753.4 3790.27L2756.61 3795.33ZM2840.78 3686.07C2842.37 3685.58 2843.25 3683.9 2842.77 3682.32C2842.28 3680.73 2840.6 3679.85 2839.02 3680.33L2840.78 3686.07ZM2840.5 3694.4L2839.87 3697.33L2840.41 3697.4L2840.5 3694.4ZM2846.8 3699.7L2849.79 3699.41L2849.78 3699.39L2846.8 3699.7ZM2840.76 3703.22C2839.11 3703.41 2837.93 3704.89 2838.12 3706.54C2838.31 3708.19 2839.79 3709.37 2841.44 3709.18L2840.76 3703.22ZM2841.88 3708.97C2843.47 3708.48 2844.35 3706.8 2843.87 3705.22C2843.38 3703.63 2841.7 3702.75 2840.12 3703.23L2841.88 3708.97ZM2841.6 3717.3L2840.97 3720.23L2841.51 3720.3L2841.6 3717.3ZM2847.9 3722.6L2850.89 3722.31L2850.88 3722.29L2847.9 3722.6ZM2842.2 3729.1L2841.86 3726.12L2841.32 3726.23L2842.2 3729.1ZM2842.8 3740.3L2842.17 3743.23L2842.71 3743.3L2842.8 3740.3ZM2849.1 3745.6L2852.09 3745.31L2852.08 3745.29L2849.1 3745.6ZM2843.06 3749.12C2841.41 3749.31 2840.23 3750.79 2840.42 3752.44C2840.61 3754.09 2842.09 3755.27 2843.74 3755.08L2843.06 3749.12ZM2844.18 3754.97C2845.77 3754.48 2846.65 3752.8 2846.17 3751.22C2845.68 3749.63 2844 3748.75 2842.42 3749.23L2844.18 3754.97ZM2843.9 3763.3L2843.27 3766.23L2843.81 3766.3L2843.9 3763.3ZM2850.2 3768.6L2853.19 3768.31L2853.18 3768.29L2850.2 3768.6ZM2844.16 3772.12C2842.51 3772.31 2841.33 3773.79 2841.52 3775.44C2841.71 3777.09 2843.19 3778.27 2844.84 3778.08L2844.16 3772.12ZM2838.07 3681.72C2837.52 3683.28 2838.35 3684.99 2839.92 3685.53C2841.48 3686.08 2843.19 3685.25 2843.74 3683.68L2838.07 3681.72ZM2846.7 3678.5L2846.58 3681.5L2846.58 3681.5L2846.7 3678.5ZM2852 3683.6H2855L2854.96 3683.09L2852 3683.6ZM2857.1 3690L2856.69 3692.97L2856.72 3692.98L2857.1 3690ZM2866.76 3685.01C2867.04 3683.37 2865.94 3681.82 2864.31 3681.54C2862.67 3681.26 2861.12 3682.36 2860.84 3683.99L2866.76 3685.01ZM2860.97 3683.62C2860.42 3685.18 2861.25 3686.89 2862.82 3687.44C2864.38 3687.98 2866.09 3687.15 2866.64 3685.58L2860.97 3683.62ZM2869.6 3680.4L2869.48 3683.4L2869.49 3683.4L2869.6 3680.4ZM2874.9 3685.5H2877.9L2877.86 3684.99L2874.9 3685.5ZM2880 3691.9L2879.59 3694.87L2879.62 3694.88L2880 3691.9ZM2889.66 3686.91C2889.94 3685.27 2888.84 3683.72 2887.21 3683.44C2885.57 3683.16 2884.02 3684.26 2883.74 3685.89L2889.66 3686.91ZM2883.87 3685.52C2883.32 3687.08 2884.15 3688.79 2885.72 3689.33C2887.28 3689.88 2888.99 3689.05 2889.54 3687.48L2883.87 3685.52ZM2892.5 3682.3L2892.38 3685.3L2892.38 3685.3L2892.5 3682.3ZM2897.8 3687.4H2900.8L2900.76 3686.89L2897.8 3687.4ZM2902.9 3693.8L2902.49 3696.77L2902.52 3696.78L2902.9 3693.8ZM2912.56 3688.81C2912.84 3687.17 2911.74 3685.62 2910.11 3685.34C2908.47 3685.06 2906.92 3686.16 2906.64 3687.79L2912.56 3688.81ZM2906.77 3687.42C2906.22 3688.98 2907.05 3690.69 2908.62 3691.23C2910.18 3691.78 2911.89 3690.95 2912.44 3689.38L2906.77 3687.42ZM2915.4 3684.2L2915.28 3687.2L2915.28 3687.2L2915.4 3684.2ZM2920.7 3689.3H2923.7L2923.66 3688.79L2920.7 3689.3ZM2925.8 3695.7L2925.39 3698.67L2925.42 3698.68L2925.8 3695.7ZM2935.46 3690.71C2935.74 3689.07 2934.64 3687.52 2933.01 3687.24C2931.37 3686.96 2929.82 3688.06 2929.54 3689.69L2935.46 3690.71ZM2696.81 3718.48C2696.69 3720.13 2697.93 3721.57 2699.58 3721.69C2701.23 3721.81 2702.67 3720.57 2702.79 3718.92L2696.81 3718.48ZM2713.4 3532.9L2715.67 3530.94C2714.88 3530.02 2713.61 3529.67 2712.46 3530.05C2711.31 3530.43 2710.5 3531.47 2710.41 3532.68L2713.4 3532.9ZM2838.03 3682.36C2839.11 3683.61 2841 3683.75 2842.26 3682.67C2843.51 3681.59 2843.66 3679.7 2842.57 3678.44L2838.03 3682.36ZM2668.1 3391.24C2669.5 3390.35 2669.92 3388.5 2669.04 3387.1C2668.15 3385.7 2666.3 3385.28 2664.9 3386.16L2668.1 3391.24ZM2662 3399.6L2664.88 3398.76L2664.87 3398.74L2662 3399.6ZM2672.1 3406.2L2672.29 3409.19L2672.76 3409.13L2672.1 3406.2ZM2684.3 3411.9L2681.5 3412.98L2681.51 3413L2684.3 3411.9ZM2676.97 3421.92C2675.43 3422.55 2674.7 3424.3 2675.32 3425.83C2675.95 3427.37 2677.7 3428.1 2679.23 3427.48L2676.97 3421.92ZM2679.8 3427.34C2681.2 3426.45 2681.62 3424.6 2680.74 3423.2C2679.85 3421.8 2678 3421.38 2676.6 3422.26L2679.8 3427.34ZM2673.7 3435.7L2676.58 3434.86L2676.57 3434.84L2673.7 3435.7ZM2683.8 3442.3L2683.99 3445.29L2684.46 3445.23L2683.8 3442.3ZM2696 3448L2693.2 3449.08L2693.21 3449.1L2696 3448ZM2688.67 3458.02C2687.13 3458.65 2686.4 3460.4 2687.02 3461.93C2687.65 3463.47 2689.4 3464.2 2690.93 3463.58L2688.67 3458.02ZM2691.5 3463.34C2692.9 3462.45 2693.32 3460.6 2692.44 3459.2C2691.55 3457.8 2689.7 3457.38 2688.3 3458.26L2691.5 3463.34ZM2685.4 3471.7L2688.28 3470.86L2688.27 3470.84L2685.4 3471.7ZM2695.5 3478.3L2695.69 3481.29L2696.16 3481.23L2695.5 3478.3ZM2707.7 3484L2704.9 3485.08L2704.91 3485.1L2707.7 3484ZM2700.37 3494.02C2698.83 3494.65 2698.1 3496.4 2698.72 3497.93C2699.35 3499.47 2701.1 3500.2 2702.63 3499.58L2700.37 3494.02ZM2703.2 3499.34C2704.6 3498.45 2705.02 3496.6 2704.14 3495.2C2703.25 3493.8 2701.4 3493.38 2700 3494.26L2703.2 3499.34ZM2697.1 3507.7L2699.98 3506.86L2699.97 3506.84L2697.1 3507.7ZM2707.2 3514.3L2707.39 3517.29L2707.86 3517.23L2707.2 3514.3ZM2719.4 3520L2716.6 3521.08L2716.61 3521.1L2719.4 3520ZM2712.07 3530.02C2710.53 3530.65 2709.8 3532.4 2710.42 3533.93C2711.05 3535.47 2712.8 3536.2 2714.33 3535.58L2712.07 3530.02ZM2663.06 3389.3C2663.39 3390.92 2664.97 3391.97 2666.6 3391.64C2668.22 3391.31 2669.27 3389.73 2668.94 3388.1L2663.06 3389.3ZM2861.72 3381.46C2862.91 3382.61 2864.81 3382.57 2865.96 3381.38C2867.11 3380.19 2867.07 3378.29 2865.88 3377.14L2861.72 3381.46ZM2860.48 3371.94C2859.29 3370.79 2857.39 3370.83 2856.24 3372.02C2855.09 3373.21 2855.13 3375.11 2856.32 3376.26L2860.48 3371.94ZM2835.72 3356.36C2836.91 3357.51 2838.81 3357.47 2839.96 3356.28C2841.11 3355.09 2841.08 3353.19 2839.88 3352.04L2835.72 3356.36ZM2633.28 3152.94C2632.09 3151.79 2630.19 3151.83 2629.04 3153.02C2627.89 3154.21 2627.93 3156.11 2629.12 3157.26L2633.28 3152.94ZM2618.82 3147.26C2620.01 3148.41 2621.91 3148.37 2623.06 3147.18C2624.21 3145.99 2624.17 3144.09 2622.98 3142.94L2618.82 3147.26ZM2565.63 4096.88C2566.12 4098.46 2567.79 4099.35 2569.38 4098.87C2570.96 4098.38 2571.85 4096.71 2571.37 4095.12L2565.63 4096.88ZM2569.17 4087.92C2568.69 4086.34 2567.01 4085.45 2565.42 4085.93C2563.84 4086.42 2562.95 4088.09 2563.43 4089.68L2569.17 4087.92ZM2554.53 4060.88C2555.02 4062.47 2556.7 4063.35 2558.28 4062.87C2559.87 4062.38 2560.75 4060.7 2560.27 4059.12L2554.53 4060.88ZM2192.97 2864.52C2192.48 2862.93 2190.8 2862.05 2189.22 2862.53C2187.63 2863.02 2186.75 2864.7 2187.23 2866.28L2192.97 2864.52ZM2182.73 2851.88C2183.22 2853.46 2184.89 2854.35 2186.48 2853.87C2188.06 2853.38 2188.95 2851.71 2188.47 2850.12L2182.73 2851.88ZM2186.27 2842.92C2185.78 2841.34 2184.11 2840.45 2182.52 2840.93C2180.94 2841.42 2180.05 2843.09 2180.53 2844.68L2186.27 2842.92ZM2621.42 3145.4C2622.97 3146 2624.7 3145.23 2625.3 3143.68C2625.9 3142.13 2625.13 3140.4 2623.58 3139.8L2621.42 3145.4ZM2652.65 3150.69C2651.1 3150.11 2649.37 3150.89 2648.79 3152.45C2648.21 3154 2648.99 3155.73 2650.55 3156.31L2652.65 3150.69ZM3158.45 3347.01C3160 3347.59 3161.73 3346.81 3162.31 3345.25C3162.89 3343.7 3162.11 3341.97 3160.55 3341.39L3158.45 3347.01ZM3175.04 3346.89C3173.49 3346.31 3171.76 3347.1 3171.19 3348.66C3170.61 3350.21 3171.4 3351.94 3172.96 3352.51L3175.04 3346.89ZM3179.96 3355.11C3181.51 3355.69 3183.24 3354.9 3183.81 3353.34C3184.39 3351.79 3183.6 3350.06 3182.04 3349.49L3179.96 3355.11ZM2180.4 2842.4L2178.55 2844.76L2178.71 2844.88L2180.4 2842.4ZM728.093 4655.78C728.913 4657.22 730.744 4657.73 732.184 4656.91C733.624 4656.09 734.127 4654.26 733.307 4652.82L728.093 4655.78ZM729.607 4646.32C728.788 4644.88 726.956 4644.37 725.516 4645.19C724.076 4646.01 723.573 4647.84 724.393 4649.28L729.607 4646.32ZM709.69 4623.18C710.507 4624.62 712.338 4625.13 713.779 4624.31C715.221 4623.49 715.727 4621.66 714.91 4620.22L709.69 4623.18ZM412.21 4086.02C411.393 4084.58 409.563 4084.07 408.121 4084.89C406.68 4085.71 406.173 4087.54 406.99 4088.98L412.21 4086.02ZM399.576 4075.95C400.379 4077.4 402.204 4077.93 403.654 4077.12C405.103 4076.32 405.627 4074.5 404.825 4073.05L399.576 4075.95ZM401.225 4066.55C400.422 4065.1 398.596 4064.57 397.147 4065.38C395.697 4066.18 395.173 4068 395.976 4069.45L401.225 4066.55ZM1715.25 2481.51C1715.92 2483.03 1717.69 2483.71 1719.21 2483.05C1720.73 2482.38 1721.41 2480.61 1720.75 2479.09L1715.25 2481.51ZM1595.8 1112.3L1592.89 1111.59L1592.89 1111.59L1595.8 1112.3ZM2214.85 65.3933C2216.06 64.2629 2216.12 62.3645 2214.99 61.1532C2213.86 59.9418 2211.96 59.8762 2210.75 61.0066L2214.85 65.3933ZM69.4074 4298.37L400.307 4069.37L396.893 4064.43L65.993 4293.43L69.4074 4298.37ZM400.908 4068.82L1719.31 2482.32L1714.69 2478.48L396.293 4064.98L400.908 4068.82ZM1146.1 3535.7C1144.04 3533.52 1144.04 3533.52 1144.04 3533.52C1144.04 3533.52 1144.04 3533.52 1144.04 3533.52C1144.04 3533.52 1144.04 3533.52 1144.04 3533.52C1144.04 3533.52 1144.04 3533.52 1144.04 3533.52C1144.03 3533.52 1144.03 3533.53 1144.03 3533.53C1144.03 3533.53 1144.02 3533.54 1144.01 3533.54C1144 3533.56 1143.98 3533.58 1143.95 3533.61C1143.89 3533.67 1143.8 3533.75 1143.68 3533.86C1143.44 3534.09 1143.09 3534.42 1142.64 3534.86C1141.72 3535.74 1140.36 3537.04 1138.61 3538.75L1142.79 3543.05C1144.54 3541.36 1145.88 3540.06 1146.79 3539.19C1147.24 3538.75 1147.59 3538.43 1147.82 3538.21C1147.93 3538.1 1148.02 3538.01 1148.08 3537.96C1148.11 3537.93 1148.13 3537.91 1148.14 3537.9C1148.15 3537.89 1148.16 3537.89 1148.16 3537.88C1148.16 3537.88 1148.16 3537.88 1148.16 3537.88C1148.16 3537.88 1148.16 3537.88 1148.16 3537.88C1148.16 3537.88 1148.16 3537.88 1148.16 3537.88C1148.16 3537.88 1148.16 3537.88 1148.16 3537.88C1148.16 3537.88 1148.16 3537.88 1146.1 3535.7ZM1117.33 3559.03C1048.33 3625.03 865.223 3800.24 809.916 3853.64L814.084 3857.96C869.378 3804.56 1052.47 3629.37 1121.47 3563.37L1117.33 3559.03ZM799.315 3863.84C796.366 3866.69 794.4 3868.56 793.879 3869.08L798.122 3873.32C798.6 3872.84 800.435 3871.11 803.485 3868.16L799.315 3863.84ZM1000.64 4237.7L1002.14 4230.4L996.262 4229.2L994.762 4236.5L1000.64 4237.7ZM1008.34 4201.12L1144.34 3558.32L1138.47 3557.08L1002.47 4199.88L1008.34 4201.12ZM1147.43 3543.73L1149.03 3536.33L1143.17 3535.07L1141.57 3542.47L1147.43 3543.73ZM1143.36 3536.92L1481.96 4298.22L1487.44 4295.78L1148.84 3534.48L1143.36 3536.92ZM1606.16 2888.45L1143.66 3533.95L1148.54 3537.45L1611.04 2891.95L1606.16 2888.45ZM1770.45 3258.3L1767.45 3251.4L1761.95 3253.8L1764.95 3260.7L1770.45 3258.3ZM1755.66 3224.11L1620.26 2909.51L1614.74 2911.89L1750.14 3226.49L1755.66 3224.11ZM1614.35 2895.9L1611.35 2889L1605.85 2891.4L1608.85 2898.3L1614.35 2895.9ZM1714.1 2479.63L1605.7 2889.43L1611.5 2890.97L1719.9 2481.17L1714.1 2479.63ZM1456.88 3805.66L1484.18 3751.76L1478.82 3749.04L1451.52 3802.94L1456.88 3805.66ZM1478.88 3751.86L1508.88 3805.76L1514.12 3802.84L1484.12 3748.94L1478.88 3751.86ZM1485.01 3648.47C1486.83 3649.03 1487.8 3650.49 1487.8 3651.8H1493.8C1493.8 3647.51 1490.77 3643.97 1486.79 3642.73L1485.01 3648.47ZM1487.8 3651.8C1487.8 3653.08 1486.79 3654.53 1484.84 3654.97L1486.16 3660.83C1490.41 3659.87 1493.8 3656.32 1493.8 3651.8H1487.8ZM1485.33 3654.9C1480.47 3655.17 1476.17 3658.73 1475.71 3663.62L1481.69 3664.18C1481.83 3662.67 1483.33 3661.03 1485.67 3660.9L1485.33 3654.9ZM1475.71 3663.64C1475.25 3668.86 1479.46 3673.44 1484.79 3673.98L1485.41 3668.02C1482.95 3667.76 1481.55 3665.74 1481.69 3664.16L1475.71 3663.64ZM1484.21 3673.87C1486.03 3674.43 1487 3675.89 1487 3677.2H1493C1493 3672.91 1489.97 3669.37 1485.99 3668.13L1484.21 3673.87ZM1487 3677.2C1487 3678.48 1485.99 3679.93 1484.04 3680.37L1485.36 3686.23C1489.61 3685.27 1493 3681.72 1493 3677.2H1487ZM1484.53 3680.3C1479.67 3680.57 1475.37 3684.13 1474.91 3689.02L1480.89 3689.58C1481.03 3688.07 1482.53 3686.43 1484.87 3686.3L1484.53 3680.3ZM1474.91 3689.04C1474.45 3694.26 1478.66 3698.84 1483.99 3699.38L1484.61 3693.42C1482.14 3693.16 1480.75 3691.14 1480.89 3689.56L1474.91 3689.04ZM1483.31 3699.27C1485.13 3699.83 1486.1 3701.29 1486.1 3702.6H1492.1C1492.1 3698.31 1489.07 3694.77 1485.09 3693.53L1483.31 3699.27ZM1486.1 3702.6C1486.1 3703.88 1485.09 3705.33 1483.14 3705.77L1484.46 3711.63C1488.71 3710.67 1492.1 3707.12 1492.1 3702.6H1486.1ZM1483.63 3705.7C1478.77 3705.97 1474.47 3709.53 1474.01 3714.42L1479.99 3714.98C1480.13 3713.47 1481.63 3711.83 1483.97 3711.7L1483.63 3705.7ZM1474.01 3714.44C1473.55 3719.66 1477.76 3724.24 1483.09 3724.78L1483.71 3718.82C1481.25 3718.56 1479.85 3716.54 1479.99 3714.96L1474.01 3714.44ZM1482.51 3724.67C1484.33 3725.23 1485.3 3726.69 1485.3 3728H1491.3C1491.3 3723.71 1488.27 3720.17 1484.29 3718.93L1482.51 3724.67ZM1485.3 3728C1485.3 3729.28 1484.29 3730.73 1482.34 3731.17L1483.66 3737.03C1487.91 3736.07 1491.3 3732.52 1491.3 3728H1485.3ZM1482.83 3731.1C1477.97 3731.37 1473.67 3734.93 1473.21 3739.82L1479.19 3740.38C1479.33 3738.87 1480.83 3737.23 1483.17 3737.1L1482.83 3731.1ZM1473.21 3739.84C1472.75 3745.06 1476.96 3749.64 1482.29 3750.18L1482.91 3744.22C1480.44 3743.96 1479.05 3741.94 1479.19 3740.36L1473.21 3739.84ZM1489.07 3644.91C1487.83 3640.93 1484.29 3637.9 1480 3637.9V3643.9C1481.31 3643.9 1482.77 3644.87 1483.34 3646.69L1489.07 3644.91ZM1480 3637.9C1475.48 3637.9 1471.93 3641.29 1470.97 3645.54L1476.83 3646.86C1477.27 3644.91 1478.72 3643.9 1480 3643.9V3637.9ZM1470.9 3646.03C1470.77 3648.43 1469.08 3649.98 1467.62 3650.11L1468.18 3656.09C1473.12 3655.62 1476.63 3651.17 1476.9 3646.37L1470.9 3646.03ZM1467.64 3650.11C1466.06 3650.25 1464.04 3648.86 1463.78 3646.39L1457.82 3647.01C1458.36 3652.34 1462.94 3656.55 1468.16 3656.09L1467.64 3650.11ZM1463.67 3645.81C1462.43 3641.83 1458.89 3638.8 1454.6 3638.8V3644.8C1455.91 3644.8 1457.37 3645.77 1457.94 3647.59L1463.67 3645.81ZM1454.6 3638.8C1450.08 3638.8 1446.53 3642.19 1445.57 3646.44L1451.43 3647.76C1451.87 3645.81 1453.32 3644.8 1454.6 3644.8V3638.8ZM1445.5 3646.93C1445.37 3649.33 1443.68 3650.88 1442.22 3651.01L1442.78 3656.99C1447.72 3656.52 1451.23 3652.07 1451.5 3647.27L1445.5 3646.93ZM1442.24 3651.01C1440.66 3651.15 1438.64 3649.76 1438.38 3647.29L1432.42 3647.91C1432.96 3653.24 1437.54 3657.45 1442.76 3656.99L1442.24 3651.01ZM1438.27 3646.71C1437.03 3642.73 1433.49 3639.7 1429.2 3639.7V3645.7C1430.51 3645.7 1431.97 3646.67 1432.54 3648.49L1438.27 3646.71ZM1429.2 3639.7C1424.68 3639.7 1421.13 3643.09 1420.17 3647.34L1426.03 3648.66C1426.47 3646.71 1427.92 3645.7 1429.2 3645.7V3639.7ZM1420.1 3647.83C1419.97 3650.23 1418.28 3651.78 1416.82 3651.91L1417.38 3657.89C1422.32 3657.42 1425.83 3652.97 1426.1 3648.17L1420.1 3647.83ZM1416.84 3651.91C1415.26 3652.05 1413.24 3650.66 1412.98 3648.19L1407.02 3648.81C1407.56 3654.14 1412.14 3658.35 1417.36 3657.89L1416.84 3651.91ZM1412.87 3647.61C1411.63 3643.63 1408.09 3640.6 1403.8 3640.6V3646.6C1405.11 3646.6 1406.57 3647.57 1407.14 3649.39L1412.87 3647.61ZM1403.8 3640.6C1399.28 3640.6 1395.73 3643.99 1394.77 3648.24L1400.63 3649.56C1401.07 3647.61 1402.52 3646.6 1403.8 3646.6V3640.6ZM1394.7 3648.73C1394.57 3651.13 1392.88 3652.68 1391.42 3652.81L1391.98 3658.79C1396.92 3658.32 1400.43 3653.87 1400.7 3649.07L1394.7 3648.73ZM1391.44 3652.81C1389.86 3652.95 1387.84 3651.56 1387.58 3649.09L1381.62 3649.71C1382.16 3655.04 1386.74 3659.25 1391.96 3658.79L1391.44 3652.81ZM1487.88 3645.85L1678.58 3527.65L1675.42 3522.55L1484.72 3640.75L1487.88 3645.85ZM1674.12 3524.26L1642.02 3634.36L1647.78 3636.04L1679.88 3525.94L1674.12 3524.26ZM1753.65 3467.22C1750.61 3464.61 1746.18 3464.18 1742.86 3466.56L1746.34 3471.44C1747.22 3470.82 1748.59 3470.79 1749.75 3471.78L1753.65 3467.22ZM1742.91 3466.52C1739.35 3468.95 1738.51 3473.42 1739.89 3477.14L1745.51 3475.06C1744.89 3473.38 1745.45 3472.05 1746.29 3471.48L1742.91 3466.52ZM1740.14 3477.66C1741.16 3479.34 1740.72 3481.18 1739.74 3482.03L1743.66 3486.57C1747.08 3483.62 1747.64 3478.46 1745.26 3474.54L1740.14 3477.66ZM1739.78 3482C1738.87 3482.76 1736.86 3482.85 1735.3 3481.17L1730.9 3485.23C1734.14 3488.74 1739.74 3489.84 1743.62 3486.6L1739.78 3482ZM1735.05 3480.82C1732.01 3478.21 1727.58 3477.78 1724.26 3480.16L1727.74 3485.04C1728.62 3484.42 1729.99 3484.39 1731.15 3485.38L1735.05 3480.82ZM1724.31 3480.12C1720.75 3482.55 1719.91 3487.02 1721.29 3490.74L1726.91 3488.66C1726.29 3486.98 1726.85 3485.65 1727.69 3485.08L1724.31 3480.12ZM1721.54 3491.26C1722.56 3492.94 1722.12 3494.78 1721.14 3495.63L1725.06 3500.17C1728.48 3497.22 1729.04 3492.06 1726.66 3488.14L1721.54 3491.26ZM1721.18 3495.6C1720.27 3496.36 1718.26 3496.45 1716.7 3494.77L1712.3 3498.83C1715.54 3502.35 1721.14 3503.44 1725.02 3500.2L1721.18 3495.6ZM1716.45 3494.42C1713.41 3491.81 1708.98 3491.38 1705.66 3493.76L1709.14 3498.64C1710.02 3498.02 1711.39 3497.99 1712.55 3498.98L1716.45 3494.42ZM1705.71 3493.72C1702.15 3496.15 1701.31 3500.62 1702.69 3504.34L1708.31 3502.26C1707.69 3500.58 1708.25 3499.25 1709.09 3498.68L1705.71 3493.72ZM1702.94 3504.86C1703.96 3506.54 1703.52 3508.38 1702.54 3509.23L1706.46 3513.77C1709.88 3510.82 1710.44 3505.66 1708.06 3501.74L1702.94 3504.86ZM1702.58 3509.2C1701.67 3509.96 1699.66 3510.05 1698.1 3508.37L1693.7 3512.43C1696.94 3515.94 1702.54 3517.04 1706.42 3513.8L1702.58 3509.2ZM1697.95 3508.02C1694.91 3505.41 1690.48 3504.98 1687.16 3507.36L1690.64 3512.24C1691.52 3511.62 1692.89 3511.59 1694.05 3512.58L1697.95 3508.02ZM1687.21 3507.32C1683.65 3509.75 1682.81 3514.22 1684.19 3517.94L1689.81 3515.86C1689.19 3514.18 1689.75 3512.85 1690.59 3512.28L1687.21 3507.32ZM1684.44 3518.46C1685.46 3520.14 1685.02 3521.98 1684.04 3522.83L1687.96 3527.37C1691.38 3524.42 1691.94 3519.26 1689.56 3515.34L1684.44 3518.46ZM1684.08 3522.8C1683.17 3523.56 1681.16 3523.65 1679.6 3521.97L1675.2 3526.03C1678.44 3529.55 1684.04 3530.64 1687.92 3527.4L1684.08 3522.8ZM1755.17 3470.94L1869.67 3324.04L1864.93 3320.36L1750.43 3467.26L1755.17 3470.94ZM1667.55 4013.12C1664.51 4010.51 1660.08 4010.08 1656.76 4012.46L1660.24 4017.34C1661.12 4016.72 1662.49 4016.69 1663.65 4017.68L1667.55 4013.12ZM1656.81 4012.42C1653.25 4014.85 1652.41 4019.32 1653.79 4023.04L1659.41 4020.96C1658.79 4019.28 1659.35 4017.95 1660.19 4017.38L1656.81 4012.42ZM1654.04 4023.56C1655.06 4025.24 1654.62 4027.08 1653.64 4027.93L1657.56 4032.47C1660.98 4029.52 1661.54 4024.36 1659.16 4020.44L1654.04 4023.56ZM1653.68 4027.9C1652.77 4028.66 1650.76 4028.75 1649.2 4027.07L1644.8 4031.13C1648.04 4034.65 1653.64 4035.74 1657.52 4032.5L1653.68 4027.9ZM1649.05 4026.72C1646.01 4024.11 1641.58 4023.68 1638.26 4026.06L1641.74 4030.94C1642.62 4030.32 1643.99 4030.29 1645.15 4031.28L1649.05 4026.72ZM1638.31 4026.02C1634.75 4028.45 1633.91 4032.92 1635.29 4036.64L1640.91 4034.56C1640.29 4032.88 1640.85 4031.55 1641.69 4030.98L1638.31 4026.02ZM1635.54 4037.16C1636.56 4038.84 1636.12 4040.68 1635.14 4041.53L1639.06 4046.07C1642.48 4043.12 1643.04 4037.96 1640.66 4034.04L1635.54 4037.16ZM1635.18 4041.5C1634.27 4042.26 1632.26 4042.35 1630.7 4040.67L1626.3 4044.73C1629.54 4048.24 1635.14 4049.34 1639.02 4046.1L1635.18 4041.5ZM1630.45 4040.22C1627.41 4037.61 1622.98 4037.18 1619.66 4039.56L1623.14 4044.44C1624.02 4043.82 1625.39 4043.79 1626.55 4044.78L1630.45 4040.22ZM1619.71 4039.52C1616.15 4041.95 1615.31 4046.42 1616.69 4050.14L1622.31 4048.06C1621.69 4046.38 1622.25 4045.05 1623.09 4044.48L1619.71 4039.52ZM1616.94 4050.66C1617.96 4052.34 1617.52 4054.18 1616.54 4055.03L1620.46 4059.57C1623.88 4056.62 1624.44 4051.46 1622.06 4047.54L1616.94 4050.66ZM1616.58 4055C1615.67 4055.76 1613.66 4055.85 1612.1 4054.17L1607.7 4058.23C1610.94 4061.74 1616.54 4062.84 1620.42 4059.6L1616.58 4055ZM1611.95 4053.82C1608.91 4051.21 1604.48 4050.78 1601.16 4053.16L1604.64 4058.04C1605.52 4057.42 1606.89 4057.39 1608.05 4058.38L1611.95 4053.82ZM1601.21 4053.12C1597.65 4055.55 1596.81 4060.02 1598.19 4063.74L1603.81 4061.66C1603.19 4059.98 1603.75 4058.65 1604.59 4058.08L1601.21 4053.12ZM1598.44 4064.26C1599.46 4065.94 1599.02 4067.78 1598.04 4068.63L1601.96 4073.17C1605.38 4070.22 1605.94 4065.06 1603.56 4061.14L1598.44 4064.26ZM1598.08 4068.6C1597.17 4069.36 1595.16 4069.45 1593.6 4067.77L1589.2 4071.83C1592.44 4075.35 1598.04 4076.44 1601.92 4073.2L1598.08 4068.6ZM1833.51 4305.82L1668.21 4014.52L1662.99 4017.48L1828.29 4308.78L1833.51 4305.82ZM1668.12 4017.62L1822.72 3776.92L1817.68 3773.68L1663.08 4014.38L1668.12 4017.62ZM1817.62 3773.95C1815.08 3776.91 1814.45 3781.29 1816.7 3784.66L1821.7 3781.34C1821.15 3780.51 1821.12 3779.09 1822.18 3777.85L1817.62 3773.95ZM1816.67 3784.61C1818.91 3788.13 1823.37 3789.35 1827.24 3787.91L1825.16 3782.29C1823.63 3782.85 1822.29 3782.27 1821.73 3781.39L1816.67 3784.61ZM1827.65 3787.73C1829.52 3786.7 1831.22 3787.23 1831.94 3788.15L1836.66 3784.45C1833.78 3780.77 1828.68 3780.3 1824.75 3782.47L1827.65 3787.73ZM1831.91 3788.12C1832.73 3789.2 1832.67 3791.16 1831.05 3792.44L1834.75 3797.16C1838.73 3794.04 1839.67 3788.4 1836.69 3784.48L1831.91 3788.12ZM1830.62 3792.85C1828.08 3795.81 1827.45 3800.19 1829.7 3803.56L1834.7 3800.24C1834.15 3799.41 1834.12 3797.99 1835.18 3796.75L1830.62 3792.85ZM1829.67 3803.51C1831.91 3807.03 1836.37 3808.25 1840.24 3806.81L1838.16 3801.19C1836.63 3801.75 1835.29 3801.17 1834.73 3800.29L1829.67 3803.51ZM1840.65 3806.63C1842.52 3805.6 1844.22 3806.13 1844.94 3807.05L1849.66 3803.35C1846.78 3799.67 1841.68 3799.2 1837.75 3801.37L1840.65 3806.63ZM1844.91 3807.02C1845.73 3808.1 1845.67 3810.06 1844.05 3811.34L1847.75 3816.06C1851.73 3812.94 1852.67 3807.3 1849.69 3803.38L1844.91 3807.02ZM1843.72 3811.85C1841.18 3814.81 1840.55 3819.19 1842.8 3822.56L1847.8 3819.24C1847.25 3818.41 1847.22 3816.99 1848.28 3815.75L1843.72 3811.85ZM1842.77 3822.51C1845.01 3826.03 1849.47 3827.25 1853.34 3825.81L1851.26 3820.19C1849.73 3820.75 1848.39 3820.17 1847.83 3819.29L1842.77 3822.51ZM1853.75 3825.63C1855.62 3824.6 1857.32 3825.13 1858.04 3826.05L1862.76 3822.35C1859.88 3818.67 1854.78 3818.2 1850.85 3820.37L1853.75 3825.63ZM1858.01 3826.02C1858.83 3827.1 1858.77 3829.06 1857.15 3830.34L1860.85 3835.06C1864.83 3831.94 1865.77 3826.3 1862.79 3822.38L1858.01 3826.02ZM1856.82 3830.75C1854.28 3833.71 1853.65 3838.09 1855.9 3841.46L1860.9 3838.14C1860.35 3837.31 1860.32 3835.89 1861.38 3834.65L1856.82 3830.75ZM1855.87 3841.41C1858.11 3844.93 1862.57 3846.15 1866.44 3844.71L1864.36 3839.09C1862.83 3839.65 1861.49 3839.07 1860.93 3838.19L1855.87 3841.41ZM1866.85 3844.53C1868.72 3843.5 1870.42 3844.03 1871.14 3844.95L1875.86 3841.25C1872.98 3837.57 1867.88 3837.1 1863.95 3839.27L1866.85 3844.53ZM1871.11 3844.92C1871.93 3846 1871.87 3847.96 1870.25 3849.24L1873.95 3853.96C1877.93 3850.84 1878.87 3845.2 1875.89 3841.28L1871.11 3844.92ZM1869.92 3849.65C1867.38 3852.61 1866.75 3856.99 1869 3860.36L1874 3857.04C1873.45 3856.21 1873.42 3854.79 1874.48 3853.55L1869.92 3849.65ZM1868.97 3860.31C1871.21 3863.83 1875.67 3865.05 1879.54 3863.61L1877.46 3857.99C1875.93 3858.55 1874.59 3857.97 1874.03 3857.09L1868.97 3860.31ZM1879.95 3863.43C1881.82 3862.4 1883.52 3862.93 1884.24 3863.85L1888.96 3860.15C1886.08 3856.47 1880.98 3856 1877.05 3858.17L1879.95 3863.43ZM1884.21 3863.82C1885.03 3864.9 1884.97 3866.86 1883.35 3868.14L1887.05 3872.86C1891.03 3869.74 1891.97 3864.1 1888.99 3860.18L1884.21 3863.82ZM1882.92 3868.55C1880.38 3871.51 1879.75 3875.89 1882 3879.26L1887 3875.94C1886.45 3875.11 1886.42 3873.69 1887.48 3872.45L1882.92 3868.55ZM1881.97 3879.21C1884.21 3882.73 1888.67 3883.95 1892.54 3882.51L1890.46 3876.89C1888.93 3877.45 1887.59 3876.87 1887.03 3875.99L1881.97 3879.21ZM1892.95 3882.33C1894.82 3881.3 1896.52 3881.83 1897.24 3882.75L1901.96 3879.05C1899.08 3875.37 1893.98 3874.9 1890.05 3877.07L1892.95 3882.33ZM1897.21 3882.72C1898.03 3883.8 1897.97 3885.76 1896.35 3887.04L1900.05 3891.76C1904.03 3888.64 1904.97 3883 1901.99 3879.08L1897.21 3882.72ZM1896.02 3887.45C1893.48 3890.41 1892.85 3894.79 1895.1 3898.16L1900.1 3894.84C1899.55 3894.01 1899.52 3892.59 1900.58 3891.35L1896.02 3887.45ZM1895.07 3898.11C1897.31 3901.63 1901.77 3902.85 1905.64 3901.41L1903.56 3895.79C1902.03 3896.35 1900.69 3895.77 1900.13 3894.89L1895.07 3898.11ZM1906.05 3901.23C1907.92 3900.2 1909.62 3900.73 1910.34 3901.65L1915.06 3897.95C1912.18 3894.27 1907.08 3893.8 1903.15 3895.97L1906.05 3901.23ZM1910.31 3901.62C1911.13 3902.7 1911.07 3904.66 1909.45 3905.94L1913.15 3910.66C1917.13 3907.54 1918.07 3901.9 1915.09 3897.98L1910.31 3901.62ZM1909.12 3906.45C1906.58 3909.41 1905.95 3913.79 1908.2 3917.16L1913.2 3913.84C1912.65 3913.01 1912.62 3911.59 1913.68 3910.35L1909.12 3906.45ZM1908.17 3917.11C1910.41 3920.63 1914.87 3921.85 1918.74 3920.41L1916.66 3914.79C1915.13 3915.35 1913.79 3914.77 1913.23 3913.89L1908.17 3917.11ZM1919.15 3920.23C1921.02 3919.2 1922.72 3919.73 1923.44 3920.65L1928.16 3916.95C1925.28 3913.27 1920.18 3912.8 1916.25 3914.97L1919.15 3920.23ZM1923.41 3920.62C1924.23 3921.7 1924.17 3923.66 1922.55 3924.94L1926.25 3929.66C1930.23 3926.54 1931.17 3920.9 1928.19 3916.98L1923.41 3920.62ZM1823.15 3775.86L1856.55 3600.06L1850.65 3598.94L1817.25 3774.74L1823.15 3775.86ZM1907.82 3701.45C1905.28 3704.41 1904.65 3708.79 1906.9 3712.16L1911.9 3708.84C1911.35 3708.01 1911.32 3706.59 1912.38 3705.35L1907.82 3701.45ZM1906.87 3712.11C1909.11 3715.63 1913.57 3716.85 1917.44 3715.41L1915.36 3709.79C1913.83 3710.35 1912.49 3709.77 1911.93 3708.89L1906.87 3712.11ZM1917.85 3715.23C1919.72 3714.2 1921.42 3714.73 1922.14 3715.65L1926.86 3711.95C1923.98 3708.27 1918.88 3707.8 1914.95 3709.97L1917.85 3715.23ZM1922.11 3715.62C1922.93 3716.7 1922.87 3718.66 1921.25 3719.94L1924.95 3724.66C1928.93 3721.54 1929.87 3715.9 1926.89 3711.98L1922.11 3715.62ZM1920.92 3720.35C1918.38 3723.31 1917.75 3727.69 1920 3731.06L1925 3727.74C1924.45 3726.91 1924.42 3725.49 1925.48 3724.25L1920.92 3720.35ZM1919.97 3731.01C1922.21 3734.53 1926.67 3735.75 1930.54 3734.31L1928.46 3728.69C1926.93 3729.25 1925.59 3728.67 1925.03 3727.79L1919.97 3731.01ZM1930.95 3734.13C1932.82 3733.1 1934.52 3733.63 1935.24 3734.55L1939.96 3730.85C1937.08 3727.17 1931.98 3726.7 1928.05 3728.87L1930.95 3734.13ZM1935.21 3734.52C1936.03 3735.6 1935.97 3737.56 1934.35 3738.84L1938.05 3743.56C1942.03 3740.44 1942.97 3734.8 1939.99 3730.88L1935.21 3734.52ZM1933.92 3739.25C1931.38 3742.21 1930.75 3746.59 1933 3749.96L1938 3746.64C1937.45 3745.81 1937.42 3744.39 1938.48 3743.15L1933.92 3739.25ZM1932.97 3749.91C1935.21 3753.43 1939.67 3754.65 1943.54 3753.21L1941.46 3747.59C1939.93 3748.15 1938.59 3747.57 1938.03 3746.69L1932.97 3749.91ZM1943.95 3753.03C1945.82 3752 1947.52 3752.53 1948.24 3753.45L1952.96 3749.75C1950.08 3746.07 1944.98 3745.6 1941.05 3747.77L1943.95 3753.03ZM1948.21 3753.42C1949.03 3754.5 1948.97 3756.46 1947.35 3757.74L1951.05 3762.46C1955.03 3759.34 1955.97 3753.7 1952.99 3749.78L1948.21 3753.42ZM1947.02 3758.15C1944.48 3761.11 1943.85 3765.49 1946.1 3768.86L1951.1 3765.54C1950.55 3764.71 1950.52 3763.29 1951.58 3762.05L1947.02 3758.15ZM1946.07 3768.81C1948.31 3772.33 1952.77 3773.55 1956.64 3772.11L1954.56 3766.49C1953.03 3767.05 1951.69 3766.47 1951.13 3765.59L1946.07 3768.81ZM1957.05 3771.93C1958.92 3770.9 1960.62 3771.43 1961.34 3772.35L1966.06 3768.65C1963.18 3764.97 1958.08 3764.5 1954.15 3766.67L1957.05 3771.93ZM1961.31 3772.32C1962.13 3773.4 1962.07 3775.36 1960.45 3776.64L1964.15 3781.36C1968.13 3778.24 1969.07 3772.6 1966.09 3768.68L1961.31 3772.32ZM1850.97 3600.94L1907.77 3704.84L1913.03 3701.96L1856.23 3598.06L1850.97 3600.94ZM1839.52 3504.6C1835.7 3506.07 1833.4 3509.79 1833.71 3513.64L1839.69 3513.16C1839.6 3512.01 1840.3 3510.73 1841.68 3510.2L1839.52 3504.6ZM1833.72 3513.74C1834.19 3517.85 1837.61 3520.95 1841.68 3521.38L1842.32 3515.42C1840.79 3515.25 1839.81 3514.15 1839.68 3513.06L1833.72 3513.74ZM1842.18 3521.39C1844.13 3521.28 1845.49 3522.5 1845.76 3523.81L1851.64 3522.59C1850.71 3518.1 1846.47 3515.12 1841.82 3515.41L1842.18 3521.39ZM1845.75 3523.77C1845.99 3524.98 1845.07 3526.77 1842.91 3527.28L1844.29 3533.12C1848.93 3532.03 1852.61 3527.62 1851.65 3522.63L1845.75 3523.77ZM1842.52 3527.3C1838.7 3528.77 1836.4 3532.49 1836.71 3536.34L1842.69 3535.86C1842.6 3534.71 1843.3 3533.43 1844.68 3532.9L1842.52 3527.3ZM1836.72 3536.44C1837.19 3540.55 1840.61 3543.65 1844.68 3544.08L1845.32 3538.12C1843.79 3537.95 1842.81 3536.85 1842.68 3535.76L1836.72 3536.44ZM1845.18 3544.09C1847.13 3543.98 1848.49 3545.2 1848.76 3546.51L1854.64 3545.29C1853.71 3540.8 1849.47 3537.82 1844.82 3538.11L1845.18 3544.09ZM1848.75 3546.47C1848.99 3547.68 1848.07 3549.47 1845.91 3549.98L1847.29 3555.82C1851.93 3554.73 1855.61 3550.32 1854.65 3545.33L1848.75 3546.47ZM1845.52 3550.1C1841.7 3551.57 1839.4 3555.29 1839.71 3559.14L1845.69 3558.66C1845.6 3557.51 1846.3 3556.23 1847.68 3555.7L1845.52 3550.1ZM1839.72 3559.24C1840.19 3563.35 1843.61 3566.45 1847.68 3566.88L1848.32 3560.92C1846.79 3560.75 1845.81 3559.65 1845.68 3558.56L1839.72 3559.24ZM1848.18 3566.89C1850.13 3566.78 1851.49 3568 1851.76 3569.31L1857.64 3568.09C1856.71 3563.6 1852.47 3560.62 1847.82 3560.91L1848.18 3566.89ZM1851.75 3569.27C1851.99 3570.48 1851.07 3572.27 1848.91 3572.78L1850.29 3578.62C1854.93 3577.53 1858.61 3573.12 1857.65 3568.13L1851.75 3569.27ZM1848.62 3572.9C1844.8 3574.37 1842.5 3578.09 1842.81 3581.94L1848.79 3581.46C1848.7 3580.31 1849.4 3579.03 1850.78 3578.5L1848.62 3572.9ZM1842.82 3582.04C1843.29 3586.15 1846.71 3589.25 1850.78 3589.68L1851.42 3583.72C1849.89 3583.55 1848.91 3582.45 1848.78 3581.36L1842.82 3582.04ZM1851.28 3589.69C1853.23 3589.58 1854.59 3590.8 1854.86 3592.11L1860.74 3590.89C1859.81 3586.4 1855.57 3583.42 1850.92 3583.71L1851.28 3589.69ZM1854.85 3592.07C1855.09 3593.28 1854.17 3595.07 1852.01 3595.58L1853.39 3601.42C1858.03 3600.33 1861.71 3595.92 1860.75 3590.93L1854.85 3592.07ZM1864.33 3321.77L1837.93 3505.57L1843.87 3506.43L1870.27 3322.63L1864.33 3321.77ZM1950.37 3027.6C1944.7 3027.47 1939.38 3030.88 1937.73 3036.22L1943.47 3037.98C1944.22 3035.52 1946.9 3033.53 1950.23 3033.6L1950.37 3027.6ZM1937.74 3036.19C1935.95 3041.83 1938.76 3047.79 1943.88 3050.79L1946.92 3045.61C1943.84 3043.81 1942.65 3040.57 1943.46 3038.01L1937.74 3036.19ZM1944.35 3051.01C1948.24 3052.46 1950.12 3056.11 1949.47 3059.18L1955.33 3060.42C1956.68 3054.09 1952.76 3047.74 1946.45 3045.39L1944.35 3051.01ZM1949.47 3059.16C1948.78 3062.32 1945.13 3064.9 1940.66 3064.05L1939.54 3069.95C1946.67 3071.3 1953.83 3067.28 1955.33 3060.44L1949.47 3059.16ZM1940.17 3064.1C1934.5 3063.97 1929.18 3067.38 1927.53 3072.72L1933.27 3074.48C1934.02 3072.02 1936.7 3070.03 1940.03 3070.1L1940.17 3064.1ZM1927.54 3072.69C1925.75 3078.33 1928.56 3084.29 1933.68 3087.29L1936.72 3082.11C1933.64 3080.31 1932.45 3077.07 1933.26 3074.51L1927.54 3072.69ZM1934.15 3087.51C1938.04 3088.96 1939.92 3092.61 1939.27 3095.68L1945.13 3096.92C1946.48 3090.59 1942.56 3084.24 1936.25 3081.89L1934.15 3087.51ZM1939.27 3095.66C1938.58 3098.82 1934.93 3101.4 1930.46 3100.55L1929.34 3106.45C1936.47 3107.8 1943.63 3103.78 1945.13 3096.94L1939.27 3095.66ZM1929.87 3100.5C1924.2 3100.37 1918.88 3103.78 1917.23 3109.12L1922.97 3110.88C1923.72 3108.42 1926.4 3106.43 1929.73 3106.5L1929.87 3100.5ZM1917.24 3109.09C1915.45 3114.73 1918.26 3120.69 1923.38 3123.69L1926.42 3118.51C1923.34 3116.71 1922.15 3113.47 1922.96 3110.91L1917.24 3109.09ZM1923.85 3123.91C1927.74 3125.36 1929.62 3129.01 1928.97 3132.08L1934.83 3133.32C1936.18 3126.99 1932.26 3120.64 1925.95 3118.29L1923.85 3123.91ZM1928.97 3132.06C1928.28 3135.22 1924.63 3137.8 1920.16 3136.95L1919.04 3142.85C1926.17 3144.2 1933.33 3140.18 1934.83 3133.34L1928.97 3132.06ZM1919.57 3136.9C1913.9 3136.77 1908.58 3140.18 1906.93 3145.52L1912.67 3147.28C1913.42 3144.82 1916.1 3142.83 1919.43 3142.9L1919.57 3136.9ZM1906.94 3145.49C1905.15 3151.13 1907.96 3157.09 1913.08 3160.09L1916.12 3154.91C1913.04 3153.11 1911.85 3149.87 1912.66 3147.31L1906.94 3145.49ZM1913.55 3160.31C1917.44 3161.76 1919.32 3165.41 1918.67 3168.48L1924.53 3169.72C1925.88 3163.39 1921.96 3157.04 1915.65 3154.69L1913.55 3160.31ZM1918.67 3168.46C1917.98 3171.62 1914.33 3174.2 1909.86 3173.35L1908.74 3179.25C1915.87 3180.6 1923.03 3176.58 1924.53 3169.74L1918.67 3168.46ZM1908.47 3173.3C1902.8 3173.17 1897.48 3176.58 1895.83 3181.92L1901.57 3183.68C1902.32 3181.22 1905 3179.23 1908.33 3179.3L1908.47 3173.3ZM1895.84 3181.89C1894.05 3187.53 1896.86 3193.49 1901.98 3196.49L1905.02 3191.31C1901.94 3189.51 1900.75 3186.27 1901.56 3183.71L1895.84 3181.89ZM1902.45 3196.71C1906.34 3198.16 1908.22 3201.81 1907.57 3204.88L1913.43 3206.12C1914.78 3199.79 1910.86 3193.44 1904.55 3191.09L1902.45 3196.71ZM1907.57 3204.86C1906.88 3208.02 1903.23 3210.6 1898.76 3209.75L1897.64 3215.65C1904.77 3217 1911.93 3212.98 1913.43 3206.14L1907.57 3204.86ZM1898.17 3209.7C1892.5 3209.57 1887.18 3212.98 1885.53 3218.32L1891.27 3220.08C1892.02 3217.62 1894.7 3215.63 1898.03 3215.7L1898.17 3209.7ZM1885.54 3218.29C1883.75 3223.93 1886.56 3229.89 1891.68 3232.89L1894.72 3227.71C1891.64 3225.91 1890.45 3222.67 1891.26 3220.11L1885.54 3218.29ZM1892.15 3233.11C1896.04 3234.56 1897.92 3238.21 1897.27 3241.28L1903.13 3242.52C1904.48 3236.19 1900.56 3229.84 1894.25 3227.49L1892.15 3233.11ZM1897.27 3241.26C1896.57 3244.42 1892.93 3247 1888.46 3246.15L1887.34 3252.05C1894.47 3253.4 1901.63 3249.38 1903.13 3242.54L1897.27 3241.26ZM1887.87 3246.1C1882.2 3245.97 1876.88 3249.38 1875.23 3254.72L1880.97 3256.48C1881.72 3254.02 1884.4 3252.03 1887.73 3252.1L1887.87 3246.1ZM1875.24 3254.69C1873.45 3260.33 1876.26 3266.29 1881.38 3269.29L1884.42 3264.11C1881.34 3262.31 1880.15 3259.07 1880.96 3256.51L1875.24 3254.69ZM1881.85 3269.51C1885.74 3270.96 1887.62 3274.61 1886.97 3277.68L1892.83 3278.92C1894.18 3272.59 1890.26 3266.24 1883.95 3263.89L1881.85 3269.51ZM1886.97 3277.66C1886.28 3280.82 1882.63 3283.4 1878.16 3282.55L1877.04 3288.45C1884.17 3289.8 1891.33 3285.78 1892.83 3278.94L1886.97 3277.66ZM1877.67 3282.6C1872 3282.47 1866.68 3285.88 1865.03 3291.22L1870.77 3292.98C1871.52 3290.52 1874.2 3288.53 1877.53 3288.6L1877.67 3282.6ZM1865.04 3291.19C1863.25 3296.83 1866.06 3302.79 1871.18 3305.79L1874.22 3300.61C1871.14 3298.81 1869.95 3295.57 1870.76 3293.01L1865.04 3291.19ZM1871.65 3306.01C1875.54 3307.46 1877.42 3311.11 1876.77 3314.18L1882.63 3315.42C1883.98 3309.09 1880.06 3302.74 1873.75 3300.39L1871.65 3306.01ZM1876.77 3314.16C1876.08 3317.32 1872.43 3319.9 1867.96 3319.05L1866.84 3324.95C1873.97 3326.3 1881.13 3322.28 1882.63 3315.44L1876.77 3314.16ZM1954.55 3033.08C1957.14 3030.86 1960.38 3030.72 1962.65 3032.21L1965.95 3027.19C1961.22 3024.08 1955.06 3024.74 1950.65 3028.52L1954.55 3033.08ZM1962.64 3032.2C1964.95 3033.74 1966.05 3036.99 1964.8 3040.22L1970.4 3042.38C1972.55 3036.81 1970.85 3030.46 1965.96 3027.2L1962.64 3032.2ZM1965 3039.81C1961.67 3045.6 1962.61 3052.98 1967.61 3057.03L1971.39 3052.37C1968.99 3050.42 1968.13 3046.4 1970.2 3042.79L1965 3039.81ZM1967.63 3057.04C1973.12 3061.44 1981.24 3059.94 1985.89 3054.44L1981.31 3050.56C1978.36 3054.06 1973.88 3054.36 1971.37 3052.36L1967.63 3057.04ZM1985.55 3054.78C1988.14 3052.56 1991.38 3052.42 1993.65 3053.91L1996.95 3048.89C1992.22 3045.78 1986.06 3046.44 1981.65 3050.22L1985.55 3054.78ZM1993.64 3053.9C1995.95 3055.44 1997.05 3058.69 1995.8 3061.92L2001.4 3064.08C2003.55 3058.51 2001.85 3052.16 1996.96 3048.9L1993.64 3053.9ZM1996 3061.51C1992.67 3067.3 1993.61 3074.68 1998.61 3078.73L2002.39 3074.07C1999.99 3072.12 1999.13 3068.1 2001.2 3064.49L1996 3061.51ZM1998.63 3078.74C2004.12 3083.14 2012.24 3081.64 2016.89 3076.14L2012.31 3072.26C2009.36 3075.76 2004.88 3076.06 2002.37 3074.06L1998.63 3078.74ZM2016.55 3076.58C2019.14 3074.36 2022.38 3074.22 2024.65 3075.71L2027.95 3070.69C2023.22 3067.58 2017.06 3068.24 2012.65 3072.02L2016.55 3076.58ZM2024.64 3075.7C2026.95 3077.24 2028.05 3080.49 2026.8 3083.72L2032.4 3085.88C2034.55 3080.31 2032.85 3073.96 2027.96 3070.7L2024.64 3075.7ZM2027 3083.31C2023.67 3089.1 2024.61 3096.48 2029.61 3100.53L2033.39 3095.87C2030.99 3093.92 2030.13 3089.9 2032.2 3086.29L2027 3083.31ZM2029.63 3100.54C2035.12 3104.94 2043.24 3103.44 2047.89 3097.94L2043.31 3094.06C2040.36 3097.56 2035.88 3097.86 2033.37 3095.86L2029.63 3100.54ZM2047.55 3098.28C2050.14 3096.06 2053.38 3095.92 2055.65 3097.41L2058.95 3092.39C2054.22 3089.28 2048.06 3089.94 2043.65 3093.72L2047.55 3098.28ZM2055.64 3097.4C2057.95 3098.94 2059.05 3102.19 2057.8 3105.42L2063.4 3107.58C2065.55 3102.01 2063.85 3095.66 2058.96 3092.4L2055.64 3097.4ZM2058 3105.01C2054.67 3110.8 2055.61 3118.18 2060.61 3122.23L2064.39 3117.57C2061.99 3115.62 2061.13 3111.6 2063.2 3107.99L2058 3105.01ZM2060.63 3122.24C2066.12 3126.64 2074.24 3125.14 2078.89 3119.64L2074.31 3115.76C2071.36 3119.26 2066.88 3119.56 2064.37 3117.56L2060.63 3122.24ZM1955.36 3029.62L1719.76 2479.22L1714.24 2481.58L1949.84 3031.98L1955.36 3029.62ZM2700.31 3716.11C2696.96 3714.15 2692.56 3714.26 2689.64 3717.02L2693.76 3721.38C2694.44 3720.74 2695.84 3720.45 2697.29 3721.29L2700.31 3716.11ZM2689.64 3717.02C2686.64 3719.86 2686.16 3724.43 2688.33 3728.04L2693.47 3724.96C2692.64 3723.57 2692.96 3722.14 2693.76 3721.38L2689.64 3717.02ZM2688.6 3728.43C2689.86 3729.93 2689.65 3731.84 2688.88 3732.69L2693.32 3736.71C2696.35 3733.36 2696.14 3728.07 2693.2 3724.57L2688.6 3728.43ZM2688.88 3732.68C2688.05 3733.6 2686.02 3733.94 2684.35 3732.52L2680.45 3737.08C2684.18 3740.26 2689.95 3740.4 2693.32 3736.72L2688.88 3732.68ZM2683.91 3732.21C2680.56 3730.25 2676.16 3730.36 2673.24 3733.12L2677.36 3737.48C2678.04 3736.84 2679.44 3736.55 2680.89 3737.39L2683.91 3732.21ZM2673.24 3733.12C2670.24 3735.96 2669.76 3740.53 2671.93 3744.14L2677.07 3741.06C2676.24 3739.67 2676.56 3738.24 2677.36 3737.48L2673.24 3733.12ZM2672.2 3744.53C2673.46 3746.03 2673.25 3747.93 2672.48 3748.79L2676.92 3752.81C2679.95 3749.47 2679.74 3744.17 2676.8 3740.67L2672.2 3744.53ZM2672.48 3748.78C2671.65 3749.7 2669.62 3750.04 2667.95 3748.62L2664.05 3753.18C2667.78 3756.36 2673.55 3756.5 2676.92 3752.82L2672.48 3748.78ZM2667.51 3748.31C2664.16 3746.35 2659.76 3746.46 2656.84 3749.22L2660.96 3753.58C2661.64 3752.94 2663.04 3752.65 2664.49 3753.49L2667.51 3748.31ZM2656.84 3749.22C2653.84 3752.06 2653.36 3756.63 2655.53 3760.24L2660.67 3757.16C2659.84 3755.77 2660.16 3754.34 2660.96 3753.58L2656.84 3749.22ZM2655.8 3760.63C2657.06 3762.13 2656.85 3764.03 2656.08 3764.89L2660.52 3768.91C2663.55 3765.56 2663.34 3760.27 2660.4 3756.77L2655.8 3760.63ZM2656.08 3764.88C2655.25 3765.8 2653.22 3766.14 2651.55 3764.72L2647.65 3769.28C2651.38 3772.46 2657.15 3772.6 2660.52 3768.92L2656.08 3764.88ZM2651.11 3764.41C2647.76 3762.45 2643.36 3762.56 2640.44 3765.32L2644.56 3769.68C2645.24 3769.04 2646.64 3768.75 2648.09 3769.59L2651.11 3764.41ZM2640.44 3765.32C2637.44 3768.16 2636.96 3772.73 2639.13 3776.34L2644.27 3773.26C2643.44 3771.87 2643.76 3770.44 2644.56 3769.68L2640.44 3765.32ZM2639.4 3776.73C2640.66 3778.23 2640.45 3780.13 2639.68 3780.99L2644.12 3785.01C2647.15 3781.67 2646.94 3776.37 2644 3772.87L2639.4 3776.73ZM2639.68 3780.98C2638.85 3781.9 2636.82 3782.24 2635.15 3780.82L2631.25 3785.38C2634.98 3788.56 2640.75 3788.7 2644.12 3785.02L2639.68 3780.98ZM2700.97 3721.96C2702.41 3721.35 2703.75 3721.79 2704.46 3722.67L2709.14 3718.93C2706.65 3715.81 2702.39 3714.85 2698.63 3716.44L2700.97 3721.96ZM2704.41 3722.62C2705.11 3723.53 2705.17 3724.99 2704.18 3726.2L2708.82 3730C2711.43 3726.81 2711.69 3722.27 2709.19 3718.98L2704.41 3722.62ZM2704.52 3725.85C2701.02 3728.93 2700.08 3734.08 2702.6 3737.86L2707.6 3734.54C2706.92 3733.52 2706.98 3731.67 2708.48 3730.35L2704.52 3725.85ZM2702.59 3737.84C2705.32 3742.02 2711.04 3742.78 2715.21 3740.13L2712 3735.07C2710.16 3736.22 2708.28 3735.58 2707.61 3734.56L2702.59 3737.84ZM2714.77 3740.36C2716.21 3739.75 2717.55 3740.19 2718.26 3741.07L2722.94 3737.33C2720.45 3734.21 2716.19 3733.25 2712.43 3734.84L2714.77 3740.36ZM2718.21 3741.02C2718.91 3741.93 2718.97 3743.39 2717.98 3744.6L2722.62 3748.4C2725.23 3745.21 2725.49 3740.67 2722.99 3737.38L2718.21 3741.02ZM2718.32 3744.25C2714.82 3747.33 2713.88 3752.48 2716.4 3756.26L2721.4 3752.94C2720.72 3751.92 2720.78 3750.07 2722.28 3748.75L2718.32 3744.25ZM2716.39 3756.24C2719.12 3760.42 2724.84 3761.17 2729.01 3758.53L2725.79 3753.47C2723.96 3754.62 2722.08 3753.98 2721.41 3752.96L2716.39 3756.24ZM2728.57 3758.76C2730.01 3758.15 2731.35 3758.59 2732.06 3759.47L2736.74 3755.73C2734.25 3752.61 2729.99 3751.65 2726.23 3753.24L2728.57 3758.76ZM2732.01 3759.42C2732.71 3760.33 2732.77 3761.79 2731.78 3763L2736.42 3766.8C2739.03 3763.61 2739.29 3759.07 2736.79 3755.78L2732.01 3759.42ZM2732.12 3762.65C2728.62 3765.73 2727.68 3770.88 2730.2 3774.66L2735.2 3771.34C2734.52 3770.32 2734.58 3768.47 2736.08 3767.15L2732.12 3762.65ZM2730.19 3774.64C2732.92 3778.82 2738.64 3779.58 2742.81 3776.93L2739.6 3771.87C2737.76 3773.02 2735.88 3772.38 2735.21 3771.36L2730.19 3774.64ZM2742.37 3777.16C2743.81 3776.55 2745.15 3776.99 2745.86 3777.87L2750.54 3774.13C2748.05 3771.01 2743.79 3770.05 2740.03 3771.64L2742.37 3777.16ZM2745.81 3777.82C2746.51 3778.73 2746.57 3780.19 2745.58 3781.4L2750.22 3785.2C2752.83 3782.01 2753.09 3777.47 2750.59 3774.18L2745.81 3777.82ZM2745.92 3781.05C2742.42 3784.13 2741.48 3789.28 2744 3793.06L2749 3789.74C2748.32 3788.72 2748.38 3786.87 2749.88 3785.55L2745.92 3781.05ZM2743.99 3793.04C2746.72 3797.22 2752.44 3797.98 2756.61 3795.33L2753.4 3790.27C2751.56 3791.42 2749.68 3790.78 2749.01 3789.76L2743.99 3793.04ZM2839.02 3680.33C2835.29 3681.48 2832.44 3684.89 2832.6 3689.02L2838.6 3688.78C2838.56 3687.71 2839.31 3686.52 2840.78 3686.07L2839.02 3680.33ZM2832.6 3689.02C2832.76 3693.11 2835.86 3696.47 2839.87 3697.33L2841.13 3691.47C2839.54 3691.13 2838.64 3689.89 2838.6 3688.78L2832.6 3689.02ZM2840.41 3697.4C2842.47 3697.46 2843.7 3698.85 2843.82 3700.01L2849.78 3699.39C2849.3 3694.75 2845.13 3691.54 2840.59 3691.4L2840.41 3697.4ZM2843.81 3699.99C2843.94 3701.29 2842.81 3702.98 2840.76 3703.22L2841.44 3709.18C2846.39 3708.62 2850.26 3704.31 2849.79 3699.41L2843.81 3699.99ZM2840.12 3703.23C2836.39 3704.38 2833.54 3707.79 2833.7 3711.92L2839.7 3711.68C2839.66 3710.61 2840.41 3709.42 2841.88 3708.97L2840.12 3703.23ZM2833.7 3711.92C2833.86 3716.01 2836.96 3719.37 2840.97 3720.23L2842.23 3714.37C2840.64 3714.03 2839.74 3712.79 2839.7 3711.68L2833.7 3711.92ZM2841.51 3720.3C2843.57 3720.36 2844.8 3721.75 2844.92 3722.91L2850.88 3722.29C2850.4 3717.65 2846.23 3714.44 2841.69 3714.3L2841.51 3720.3ZM2844.91 3722.89C2845.04 3724.19 2843.91 3725.88 2841.86 3726.12L2842.54 3732.08C2847.49 3731.52 2851.36 3727.21 2850.89 3722.31L2844.91 3722.89ZM2841.32 3726.23C2837.59 3727.38 2834.74 3730.79 2834.9 3734.92L2840.9 3734.68C2840.86 3733.61 2841.61 3732.42 2843.08 3731.97L2841.32 3726.23ZM2834.9 3734.92C2835.06 3739.01 2838.16 3742.37 2842.17 3743.23L2843.43 3737.37C2841.84 3737.03 2840.94 3735.79 2840.9 3734.68L2834.9 3734.92ZM2842.71 3743.3C2844.77 3743.36 2846 3744.75 2846.12 3745.91L2852.08 3745.29C2851.6 3740.65 2847.43 3737.44 2842.89 3737.3L2842.71 3743.3ZM2846.11 3745.89C2846.24 3747.19 2845.11 3748.88 2843.06 3749.12L2843.74 3755.08C2848.69 3754.52 2852.56 3750.21 2852.09 3745.31L2846.11 3745.89ZM2842.42 3749.23C2838.69 3750.38 2835.84 3753.79 2836 3757.92L2842 3757.68C2841.96 3756.61 2842.71 3755.42 2844.18 3754.97L2842.42 3749.23ZM2836 3757.92C2836.16 3762.01 2839.26 3765.37 2843.27 3766.23L2844.53 3760.37C2842.94 3760.03 2842.04 3758.79 2842 3757.68L2836 3757.92ZM2843.81 3766.3C2845.87 3766.36 2847.1 3767.75 2847.22 3768.91L2853.18 3768.29C2852.7 3763.65 2848.53 3760.44 2843.99 3760.3L2843.81 3766.3ZM2847.21 3768.89C2847.34 3770.19 2846.21 3771.88 2844.16 3772.12L2844.84 3778.08C2849.79 3777.52 2853.66 3773.21 2853.19 3768.31L2847.21 3768.89ZM2843.74 3683.68C2844.24 3682.21 2845.52 3681.46 2846.58 3681.5L2846.82 3675.5C2842.88 3675.34 2839.36 3677.99 2838.07 3681.72L2843.74 3683.68ZM2846.58 3681.5C2847.54 3681.53 2848.74 3682.37 2849.04 3684.11L2854.96 3683.09C2854.26 3679.03 2851.06 3675.67 2846.82 3675.5L2846.58 3681.5ZM2849 3683.6C2849 3688.18 2852.1 3692.34 2856.69 3692.97L2857.51 3687.03C2856.3 3686.86 2855 3685.62 2855 3683.6H2849ZM2856.72 3692.98C2861.66 3693.61 2865.93 3689.83 2866.76 3685.01L2860.84 3683.99C2860.47 3686.17 2858.74 3687.19 2857.48 3687.02L2856.72 3692.98ZM2866.64 3685.58C2867.14 3684.11 2868.42 3683.36 2869.48 3683.4L2869.72 3677.4C2865.78 3677.24 2862.26 3679.89 2860.97 3683.62L2866.64 3685.58ZM2869.49 3683.4C2870.44 3683.43 2871.64 3684.27 2871.94 3686.01L2877.86 3684.99C2877.16 3680.93 2873.96 3677.57 2869.72 3677.4L2869.49 3683.4ZM2871.9 3685.5C2871.9 3690.08 2875 3694.24 2879.59 3694.87L2880.41 3688.93C2879.2 3688.76 2877.9 3687.52 2877.9 3685.5H2871.9ZM2879.62 3694.88C2884.56 3695.51 2888.83 3691.73 2889.66 3686.91L2883.74 3685.89C2883.37 3688.07 2881.64 3689.09 2880.38 3688.92L2879.62 3694.88ZM2889.54 3687.48C2890.04 3686.01 2891.32 3685.26 2892.38 3685.3L2892.62 3679.3C2888.68 3679.14 2885.16 3681.79 2883.87 3685.52L2889.54 3687.48ZM2892.38 3685.3C2893.34 3685.33 2894.54 3686.17 2894.84 3687.91L2900.76 3686.89C2900.06 3682.83 2896.86 3679.47 2892.62 3679.3L2892.38 3685.3ZM2894.8 3687.4C2894.8 3691.98 2897.9 3696.14 2902.49 3696.77L2903.31 3690.83C2902.1 3690.66 2900.8 3689.42 2900.8 3687.4H2894.8ZM2902.52 3696.78C2907.46 3697.41 2911.73 3693.63 2912.56 3688.81L2906.64 3687.79C2906.27 3689.97 2904.54 3690.99 2903.28 3690.82L2902.52 3696.78ZM2912.44 3689.38C2912.94 3687.91 2914.22 3687.16 2915.28 3687.2L2915.52 3681.2C2911.58 3681.04 2908.06 3683.69 2906.77 3687.42L2912.44 3689.38ZM2915.28 3687.2C2916.24 3687.23 2917.44 3688.07 2917.74 3689.81L2923.66 3688.79C2922.96 3684.73 2919.76 3681.37 2915.52 3681.2L2915.28 3687.2ZM2917.7 3689.3C2917.7 3693.88 2920.8 3698.04 2925.39 3698.67L2926.21 3692.73C2925 3692.56 2923.7 3691.32 2923.7 3689.3H2917.7ZM2925.42 3698.68C2930.36 3699.31 2934.63 3695.53 2935.46 3690.71L2929.54 3689.69C2929.17 3691.87 2927.44 3692.89 2926.18 3692.72L2925.42 3698.68ZM2702.79 3718.92L2716.39 3533.12L2710.41 3532.68L2696.81 3718.48L2702.79 3718.92ZM2711.13 3534.86L2838.03 3682.36L2842.57 3678.44L2715.67 3530.94L2711.13 3534.86ZM2664.9 3386.16C2660.12 3389.18 2657.49 3395 2659.13 3400.46L2664.87 3398.74C2664.11 3396.2 2665.28 3393.02 2668.1 3391.24L2664.9 3386.16ZM2659.12 3400.44C2660.76 3406.03 2666.35 3409.57 2672.29 3409.19L2671.91 3403.21C2668.46 3403.43 2665.64 3401.37 2664.88 3398.76L2659.12 3400.44ZM2672.76 3409.13C2676.87 3408.2 2680.43 3410.21 2681.5 3412.98L2687.1 3410.82C2684.77 3404.79 2677.93 3401.8 2671.44 3403.27L2672.76 3409.13ZM2681.51 3413C2682.72 3416.06 2681.07 3420.25 2676.97 3421.92L2679.23 3427.48C2685.93 3424.75 2689.68 3417.34 2687.09 3410.8L2681.51 3413ZM2676.6 3422.26C2671.82 3425.28 2669.19 3431.1 2670.83 3436.56L2676.57 3434.84C2675.81 3432.3 2676.98 3429.12 2679.8 3427.34L2676.6 3422.26ZM2670.82 3436.54C2672.46 3442.13 2678.05 3445.67 2683.99 3445.29L2683.61 3439.31C2680.16 3439.53 2677.34 3437.47 2676.58 3434.86L2670.82 3436.54ZM2684.46 3445.23C2688.57 3444.3 2692.13 3446.31 2693.2 3449.08L2698.8 3446.92C2696.47 3440.89 2689.63 3437.9 2683.14 3439.37L2684.46 3445.23ZM2693.21 3449.1C2694.42 3452.16 2692.77 3456.35 2688.67 3458.02L2690.93 3463.58C2697.63 3460.85 2701.38 3453.44 2698.79 3446.9L2693.21 3449.1ZM2688.3 3458.26C2683.52 3461.28 2680.89 3467.1 2682.53 3472.56L2688.27 3470.84C2687.51 3468.3 2688.68 3465.12 2691.5 3463.34L2688.3 3458.26ZM2682.52 3472.54C2684.16 3478.13 2689.75 3481.67 2695.69 3481.29L2695.31 3475.31C2691.86 3475.53 2689.04 3473.47 2688.28 3470.86L2682.52 3472.54ZM2696.16 3481.23C2700.27 3480.3 2703.83 3482.31 2704.9 3485.08L2710.5 3482.92C2708.17 3476.89 2701.33 3473.9 2694.84 3475.37L2696.16 3481.23ZM2704.91 3485.1C2706.12 3488.16 2704.47 3492.35 2700.37 3494.02L2702.63 3499.58C2709.33 3496.85 2713.08 3489.44 2710.49 3482.9L2704.91 3485.1ZM2700 3494.26C2695.22 3497.28 2692.59 3503.1 2694.23 3508.56L2699.97 3506.84C2699.21 3504.3 2700.39 3501.12 2703.2 3499.34L2700 3494.26ZM2694.22 3508.54C2695.86 3514.13 2701.44 3517.67 2707.39 3517.29L2707.01 3511.31C2703.56 3511.53 2700.74 3509.47 2699.98 3506.86L2694.22 3508.54ZM2707.86 3517.23C2711.97 3516.3 2715.53 3518.31 2716.6 3521.08L2722.2 3518.92C2719.87 3512.89 2713.03 3509.9 2706.54 3511.37L2707.86 3517.23ZM2716.61 3521.1C2717.82 3524.16 2716.17 3528.35 2712.07 3530.02L2714.33 3535.58C2721.03 3532.85 2724.78 3525.44 2722.19 3518.9L2716.61 3521.1ZM2668.94 3388.1L2618.44 3139.3L2612.56 3140.5L2663.06 3389.3L2668.94 3388.1ZM2865.88 3377.14L2860.48 3371.94L2856.32 3376.26L2861.72 3381.46L2865.88 3377.14ZM2839.88 3352.04L2633.28 3152.94L2629.12 3157.26L2835.72 3356.36L2839.88 3352.04ZM2622.98 3142.94L2617.58 3137.74L2613.42 3142.06L2618.82 3147.26L2622.98 3142.94ZM2571.37 4095.12L2569.17 4087.92L2563.43 4089.68L2565.63 4096.88L2571.37 4095.12ZM2560.27 4059.12L2192.97 2864.52L2187.23 2866.28L2554.53 4060.88L2560.27 4059.12ZM2188.47 2850.12L2186.27 2842.92L2180.53 2844.68L2182.73 2851.88L2188.47 2850.12ZM2614.42 3142.7L2621.42 3145.4L2623.58 3139.8L2616.58 3137.1L2614.42 3142.7ZM2650.55 3156.31L3158.45 3347.01L3160.55 3341.39L2652.65 3150.69L2650.55 3156.31ZM3172.96 3352.51L3179.96 3355.11L3182.04 3349.49L3175.04 3346.89L3172.96 3352.51ZM2617.19 3137.42L2182.09 2839.92L2178.71 2844.88L2613.81 3142.38L2617.19 3137.42ZM2182.25 2840.04L1718.85 2478.04L1715.15 2482.76L2178.55 2844.76L2182.25 2840.04ZM733.307 4652.82L729.607 4646.32L724.393 4649.28L728.093 4655.78L733.307 4652.82ZM714.91 4620.22L412.21 4086.02L406.99 4088.98L709.69 4623.18L714.91 4620.22ZM404.825 4073.05L401.225 4066.55L395.976 4069.45L399.576 4075.95L404.825 4073.05ZM1720.75 2479.09C1646.25 2309.92 1436.45 1774.87 1598.71 1113.01L1592.89 1111.59C1430.15 1775.33 1640.55 2311.88 1715.25 2481.51L1720.75 2479.09ZM1598.71 1113.01C1737.62 546.525 2072.84 197.91 2214.85 65.3933L2210.75 61.0066C2068.36 193.889 1732.19 543.475 1592.89 1111.59L1598.71 1113.01Z" fill="#FDC571"/>
</g>
</svg>
