<svg width="3248" height="4716" viewBox="0 0 3248 4716" fill="none" xmlns="http://www.w3.org/2000/svg">
<g id="ParticleShower ">
<g id="pfourth">
<path id="pline15" d="M67.7002 4295.9L398.6 4066.9" stroke="#FDC571" stroke-width="6" stroke-miterlimit="10" stroke-linecap="round"/>
<path id="pline14" d="M796 3871.2C796 3871.2 797.9 3869.4 801.4 3866M822.7 3845.7C891.7 3779.7 1074.8 3604.5 1130.1 3551.1M1140.7 3540.9C1143.7 3538 1145.6 3536.2 1146.1 3535.7" stroke="#FDC571" stroke-width="6" stroke-miterlimit="10" stroke-linecap="round"/>
<path id="pline13" d="M997.7 4237.1L999.2 4229.8M1005.4 4200.5L1141.4 3557.7M1144.5 3543.1L1146.1 3535.7" stroke="#FDC571" stroke-width="6" stroke-miterlimit="10" stroke-linecap="round"/>
<path id="pline12" d="M1484.7 4297L1146.1 3535.7" stroke="#FDC571" stroke-width="6" stroke-miterlimit="10" stroke-linecap="round"/>
<path id="pline42" d="M1454.2 3804.3L1481.5 3750.4" stroke="#FDC571" stroke-width="6" stroke-miterlimit="10" stroke-linecap="round" stroke-linejoin="round"/>
<path id="pline41" d="M1481.5 3750.4L1511.5 3804.3" stroke="#FDC571" stroke-width="6" stroke-miterlimit="10" stroke-linecap="round" stroke-linejoin="round"/>
<path id="pline40" d="M1485.9 3645.6C1488.8 3646.5 1490.8 3649 1490.8 3651.8C1490.8 3654.7 1488.6 3657.2 1485.5 3657.9C1481.9 3658.1 1479 3660.7 1478.7 3663.9C1478.4 3667.3 1481.2 3670.6 1485.1 3671C1488 3671.9 1490 3674.4 1490 3677.2C1490 3680.1 1487.8 3682.6 1484.7 3683.3C1481.1 3683.5 1478.2 3686.1 1477.9 3689.3C1477.6 3692.7 1480.4 3696 1484.3 3696.4M1484.2 3696.4C1487.1 3697.3 1489.1 3699.8 1489.1 3702.6C1489.1 3705.5 1486.9 3708 1483.8 3708.7C1480.2 3708.9 1477.3 3711.5 1477 3714.7C1476.7 3718.1 1479.5 3721.4 1483.4 3721.8C1486.3 3722.7 1488.3 3725.2 1488.3 3728C1488.3 3730.9 1486.1 3733.4 1483 3734.1C1479.4 3734.3 1476.5 3736.9 1476.2 3740.1C1475.9 3743.5 1478.7 3746.8 1482.6 3747.2" stroke="#FDC571" stroke-width="6" stroke-miterlimit="10" stroke-linecap="round" stroke-linejoin="bevel"/>
<path id="pline39" d="M1486.2 3645.8C1485.3 3642.9 1482.8 3640.9 1480 3640.9C1477.1 3640.9 1474.6 3643.1 1473.9 3646.2C1473.7 3649.8 1471.1 3652.8 1467.9 3653.1C1464.5 3653.4 1461.2 3650.6 1460.8 3646.7C1459.9 3643.8 1457.4 3641.8 1454.6 3641.8C1451.7 3641.8 1449.2 3644 1448.5 3647.1C1448.3 3650.7 1445.7 3653.7 1442.5 3654C1439.1 3654.3 1435.8 3651.5 1435.4 3647.6C1434.5 3644.7 1432 3642.7 1429.2 3642.7C1426.3 3642.7 1423.8 3644.9 1423.1 3648C1422.9 3651.6 1420.3 3654.6 1417.1 3654.9C1413.7 3655.2 1410.4 3652.4 1410 3648.5C1409.1 3645.6 1406.6 3643.6 1403.8 3643.6C1400.9 3643.6 1398.4 3645.8 1397.7 3648.9C1397.5 3652.5 1394.9 3655.5 1391.7 3655.8C1388.3 3656.1 1385 3653.3 1384.6 3649.4" stroke="#FDC571" stroke-width="6" stroke-miterlimit="10" stroke-linecap="round" stroke-linejoin="bevel"/>
<path id="pline34" d="M1665.6 4015.4C1663.5 4013.6 1660.6 4013.4 1658.5 4014.9C1656.3 4016.4 1655.6 4019.3 1656.6 4022C1658.3 4024.8 1657.8 4028.3 1655.6 4030.2C1653.2 4032.2 1649.4 4031.7 1647 4029.1M1647.1 4029C1645 4027.2 1642.1 4027 1640 4028.5C1637.8 4030 1637.1 4032.9 1638.1 4035.6C1639.8 4038.4 1639.3 4041.9 1637.1 4043.8C1634.7 4045.8 1630.9 4045.3 1628.5 4042.7M1628.5 4042.5C1626.4 4040.7 1623.5 4040.5 1621.4 4042C1619.2 4043.5 1618.5 4046.4 1619.5 4049.1C1621.2 4051.9 1620.7 4055.4 1618.5 4057.3C1616.1 4059.3 1612.3 4058.8 1609.9 4056.2M1610 4056.1C1607.9 4054.3 1605 4054.1 1602.9 4055.6C1600.7 4057.1 1600 4060 1601 4062.7C1602.7 4065.5 1602.2 4069 1600 4070.9C1597.6 4072.9 1593.8 4072.4 1591.4 4069.8" stroke="#FDC571" stroke-width="6" stroke-miterlimit="10" stroke-linecap="round" stroke-linejoin="bevel"/>
<path id="pline33" d="M1830.9 4307.3L1665.6 4016" stroke="#FDC571" stroke-width="6" stroke-miterlimit="10" stroke-linecap="round" stroke-linejoin="round"/>
<path id="pline32" d="M1665.6 4016L1820.2 3775.3" stroke="#FDC571" stroke-width="6" stroke-miterlimit="10" stroke-linecap="round" stroke-linejoin="round"/>
<path id="pline31" d="M1819.9 3775.9C1818.1 3778 1817.8 3780.9 1819.2 3783C1820.6 3785.2 1823.5 3786.1 1826.2 3785.1C1829.1 3783.5 1832.5 3784 1834.3 3786.3C1836.2 3788.8 1835.7 3792.6 1832.9 3794.8C1831.1 3796.9 1830.8 3799.8 1832.2 3801.9C1833.6 3804.1 1836.5 3805 1839.2 3804C1842.1 3802.4 1845.5 3802.9 1847.3 3805.2C1849.2 3807.7 1848.7 3811.5 1845.9 3813.7M1846 3813.8C1844.2 3815.9 1843.9 3818.8 1845.3 3820.9C1846.7 3823.1 1849.6 3824 1852.3 3823C1855.2 3821.4 1858.6 3821.9 1860.4 3824.2C1862.3 3826.7 1861.8 3830.5 1859 3832.7M1859.1 3832.7C1857.3 3834.8 1857 3837.7 1858.4 3839.8C1859.8 3842 1862.7 3842.9 1865.4 3841.9C1868.3 3840.3 1871.7 3840.8 1873.5 3843.1C1875.4 3845.6 1874.9 3849.4 1872.1 3851.6M1872.2 3851.6C1870.4 3853.7 1870.1 3856.6 1871.5 3858.7C1872.9 3860.9 1875.8 3861.8 1878.5 3860.8C1881.4 3859.2 1884.8 3859.7 1886.6 3862C1888.5 3864.5 1888 3868.3 1885.2 3870.5C1883.4 3872.6 1883.1 3875.5 1884.5 3877.6C1885.9 3879.8 1888.8 3880.7 1891.5 3879.7C1894.4 3878.1 1897.8 3878.6 1899.6 3880.9C1901.5 3883.4 1901 3887.2 1898.2 3889.4M1898.3 3889.4C1896.5 3891.5 1896.2 3894.4 1897.6 3896.5C1899 3898.7 1901.9 3899.6 1904.6 3898.6C1907.5 3897 1910.9 3897.5 1912.7 3899.8C1914.6 3902.3 1914.1 3906.1 1911.3 3908.3M1911.4 3908.4C1909.6 3910.5 1909.3 3913.4 1910.7 3915.5C1912.1 3917.7 1915 3918.6 1917.7 3917.6C1920.6 3916 1924 3916.5 1925.8 3918.8C1927.7 3921.3 1927.2 3925.1 1924.4 3927.3" stroke="#FDC571" stroke-width="6" stroke-miterlimit="10" stroke-linecap="round" stroke-linejoin="bevel"/>
<path id="pline29" d="M1910.1 3703.4C1908.3 3705.5 1908 3708.4 1909.4 3710.5C1910.8 3712.7 1913.7 3713.6 1916.4 3712.6C1919.3 3711 1922.7 3711.5 1924.5 3713.8C1926.4 3716.3 1925.9 3720.1 1923.1 3722.3M1923.2 3722.3C1921.4 3724.4 1921.1 3727.3 1922.5 3729.4C1923.9 3731.6 1926.8 3732.5 1929.5 3731.5C1932.4 3729.9 1935.8 3730.4 1937.6 3732.7C1939.5 3735.2 1939 3739 1936.2 3741.2C1934.4 3743.3 1934.1 3746.2 1935.5 3748.3C1936.9 3750.5 1939.8 3751.4 1942.5 3750.4C1945.4 3748.8 1948.8 3749.3 1950.6 3751.6C1952.5 3754.1 1952 3757.9 1949.2 3760.1M1949.3 3760.1C1947.5 3762.2 1947.2 3765.1 1948.6 3767.2C1950 3769.4 1952.9 3770.3 1955.6 3769.3C1958.5 3767.7 1961.9 3768.2 1963.7 3770.5C1965.6 3773 1965.1 3776.8 1962.3 3779" stroke="#FDC571" stroke-width="6" stroke-miterlimit="10" stroke-linecap="round" stroke-linejoin="bevel"/>
<path id="pline24" d="M2698.8 3718.7C2696.4 3717.3 2693.5 3717.5 2691.7 3719.2C2689.8 3721 2689.4 3724 2690.9 3726.5C2693 3729 2693 3732.6 2691.1 3734.7C2689 3737 2685.1 3737.1 2682.4 3734.8C2680 3733.4 2677.1 3733.6 2675.3 3735.3C2673.4 3737.1 2673 3740.1 2674.5 3742.6C2676.6 3745.1 2676.6 3748.7 2674.7 3750.8C2672.6 3753.1 2668.7 3753.2 2666 3750.9C2663.6 3749.5 2660.7 3749.7 2658.9 3751.4C2657 3753.2 2656.6 3756.2 2658.1 3758.7C2660.2 3761.2 2660.2 3764.8 2658.3 3766.9C2656.2 3769.2 2652.3 3769.3 2649.6 3767C2647.2 3765.6 2644.3 3765.8 2642.5 3767.5C2640.6 3769.3 2640.2 3772.3 2641.7 3774.8C2643.8 3777.3 2643.8 3780.9 2641.9 3783C2639.8 3785.3 2635.9 3785.4 2633.2 3783.1" stroke="#FDC571" stroke-width="6" stroke-miterlimit="10" stroke-linecap="round" stroke-linejoin="bevel"/>
<path id="pline23" d="M2699.8 3719.2C2702.4 3718.1 2705.2 3718.8 2706.8 3720.8C2708.4 3722.9 2708.3 3725.9 2706.5 3728.1C2704 3730.3 2703.5 3733.8 2705.1 3736.2C2706.8 3738.8 2710.6 3739.5 2713.6 3737.6C2716.2 3736.5 2719 3737.2 2720.6 3739.2C2722.2 3741.3 2722.1 3744.3 2720.3 3746.5C2717.8 3748.7 2717.3 3752.2 2718.9 3754.6C2720.6 3757.2 2724.4 3757.9 2727.4 3756C2730 3754.9 2732.8 3755.6 2734.4 3757.6C2736 3759.7 2735.9 3762.7 2734.1 3764.9C2731.6 3767.1 2731.1 3770.6 2732.7 3773C2734.4 3775.6 2738.2 3776.3 2741.2 3774.4C2743.8 3773.3 2746.6 3774 2748.2 3776C2749.8 3778.1 2749.7 3781.1 2747.9 3783.3C2745.4 3785.5 2744.9 3789 2746.5 3791.4C2748.2 3794 2752 3794.7 2755 3792.8" stroke="#FDC571" stroke-width="6" stroke-miterlimit="10" stroke-linecap="round" stroke-linejoin="bevel"/>
<path id="pline22" d="M2839.9 3683.2C2837.3 3684 2835.5 3686.3 2835.6 3688.9C2835.7 3691.5 2837.7 3693.8 2840.5 3694.4C2843.8 3694.5 2846.5 3696.8 2846.8 3699.7C2847.1 3702.8 2844.6 3705.8 2841.1 3706.2M2841 3706.1C2838.4 3706.9 2836.6 3709.2 2836.7 3711.8C2836.8 3714.4 2838.8 3716.7 2841.6 3717.3C2844.9 3717.4 2847.6 3719.7 2847.9 3722.6C2848.2 3725.7 2845.7 3728.7 2842.2 3729.1C2839.6 3729.9 2837.8 3732.2 2837.9 3734.8C2838 3737.4 2840 3739.7 2842.8 3740.3C2846.1 3740.4 2848.8 3742.7 2849.1 3745.6C2849.4 3748.7 2846.9 3751.7 2843.4 3752.1M2843.3 3752.1C2840.7 3752.9 2838.9 3755.2 2839 3757.8C2839.1 3760.4 2841.1 3762.7 2843.9 3763.3C2847.2 3763.4 2849.9 3765.7 2850.2 3768.6C2850.5 3771.7 2848 3774.7 2844.5 3775.1" stroke="#FDC571" stroke-width="6" stroke-miterlimit="10" stroke-linecap="round" stroke-linejoin="bevel"/>
<path id="pline21" d="M2840.9 3682.7C2841.8 3680.1 2844.2 3678.4 2846.7 3678.5C2849.3 3678.6 2851.5 3680.7 2852 3683.6C2852 3686.9 2854.2 3689.6 2857.1 3690C2860.2 3690.4 2863.2 3688 2863.8 3684.5M2863.8 3684.6C2864.7 3682 2867.1 3680.3 2869.6 3680.4C2872.2 3680.5 2874.4 3682.6 2874.9 3685.5C2874.9 3688.8 2877.1 3691.5 2880 3691.9C2883.1 3692.3 2886.1 3689.9 2886.7 3686.4M2886.7 3686.5C2887.6 3683.9 2890 3682.2 2892.5 3682.3C2895.1 3682.4 2897.3 3684.5 2897.8 3687.4C2897.8 3690.7 2900 3693.4 2902.9 3693.8C2906 3694.2 2909 3691.8 2909.6 3688.3M2909.6 3688.4C2910.5 3685.8 2912.9 3684.1 2915.4 3684.2C2918 3684.3 2920.2 3686.4 2920.7 3689.3C2920.7 3692.6 2922.9 3695.3 2925.8 3695.7C2928.9 3696.1 2931.9 3693.7 2932.5 3690.2" stroke="#FDC571" stroke-width="6" stroke-miterlimit="10" stroke-linecap="round" stroke-linejoin="bevel"/>
<path id="pline37" d="M730.7 4654.3L727 4647.8M712.3 4621.7L409.6 4087.5M402.2 4074.5L398.6 4068" stroke="#FDC571" stroke-width="6" stroke-miterlimit="10" stroke-linecap="round"/>
<path id="pline6-1" d="M2569 4096L2567.83 4092.19M2563.12 4076.97L2368.55 3445.42M2366.17 3437.81L2365 3434" stroke="#FDC571" stroke-width="7.46" stroke-miterlimit="10" stroke-linecap="round"/>
</g>
<g id="pfourthfork">
<path id="pline20" d="M2699.8 3718.7L2713.4 3532.9" stroke="#FDC571" stroke-width="6" stroke-miterlimit="10" stroke-linecap="round" stroke-linejoin="round"/>
<path id="pline19" d="M2840.3 3680.4L2713.4 3532.9" stroke="#FDC571" stroke-width="6" stroke-miterlimit="10" stroke-linecap="round" stroke-linejoin="round"/>
<path id="pline38" d="M1486.3 3643.3L1677 3525.1" stroke="#FDC571" stroke-width="6" stroke-miterlimit="10" stroke-linecap="round" stroke-linejoin="round"/>
<path id="pline37_2" d="M1644.9 3635.2L1677 3525.1" stroke="#FDC571" stroke-width="6" stroke-miterlimit="10" stroke-linecap="round" stroke-linejoin="round"/>
<path id="pline30" d="M1820.2 3775.3L1853.6 3599.5" stroke="#FDC571" stroke-width="6" stroke-miterlimit="10" stroke-linecap="round" stroke-linejoin="round"/>
<path id="pline28" d="M1910.4 3703.4L1853.6 3599.5" stroke="#FDC571" stroke-width="6" stroke-miterlimit="10" stroke-linecap="round" stroke-linejoin="round"/>
</g>
<g id="pthird">
<path id="pline11-1" d="M1146 3536L1356 3243" stroke="#FDC571" stroke-width="6" stroke-miterlimit="10" stroke-linecap="round"/>
<path id="pline36" d="M1751.7 3469.5C1749.6 3467.7 1746.7 3467.5 1744.6 3469C1742.4 3470.5 1741.7 3473.4 1742.7 3476.1C1744.4 3478.9 1743.9 3482.4 1741.7 3484.3C1739.3 3486.3 1735.5 3485.8 1733.1 3483.2M1733.1 3483.1C1731 3481.3 1728.1 3481.1 1726 3482.6C1723.8 3484.1 1723.1 3487 1724.1 3489.7C1725.8 3492.5 1725.3 3496 1723.1 3497.9C1720.7 3499.9 1716.9 3499.4 1714.5 3496.8M1714.5 3496.7C1712.4 3494.9 1709.5 3494.7 1707.4 3496.2C1705.2 3497.7 1704.5 3500.6 1705.5 3503.3C1707.2 3506.1 1706.7 3509.6 1704.5 3511.5C1702.1 3513.5 1698.3 3513 1695.9 3510.4M1696 3510.3C1693.9 3508.5 1691 3508.3 1688.9 3509.8C1686.7 3511.3 1686 3514.2 1687 3516.9C1688.7 3519.7 1688.2 3523.2 1686 3525.1C1683.6 3527.1 1679.8 3526.6 1677.4 3524" stroke="#FDC571" stroke-width="6" stroke-miterlimit="10" stroke-linecap="round" stroke-linejoin="bevel"/>
<path id="pline35" d="M1752.8 3469.1L1867.3 3322.2" stroke="#FDC571" stroke-width="6" stroke-miterlimit="10" stroke-linecap="round" stroke-linejoin="round"/>
<path id="pline27" d="M1840.6 3507.4C1838 3508.4 1836.5 3510.9 1836.7 3513.4C1837 3516 1839.2 3518.1 1842 3518.4C1845.3 3518.2 1848.1 3520.3 1848.7 3523.2C1849.3 3526.3 1847 3529.4 1843.6 3530.2M1843.6 3530.1C1841 3531.1 1839.5 3533.6 1839.7 3536.1C1840 3538.7 1842.2 3540.8 1845 3541.1C1848.3 3540.9 1851.1 3543 1851.7 3545.9C1852.3 3549 1850 3552.1 1846.6 3552.9C1844 3553.9 1842.5 3556.4 1842.7 3558.9C1843 3561.5 1845.2 3563.6 1848 3563.9C1851.3 3563.7 1854.1 3565.8 1854.7 3568.7C1855.3 3571.8 1853 3574.9 1849.6 3575.7M1849.7 3575.7C1847.1 3576.7 1845.6 3579.2 1845.8 3581.7C1846.1 3584.3 1848.3 3586.4 1851.1 3586.7C1854.4 3586.5 1857.2 3588.6 1857.8 3591.5C1858.4 3594.6 1856.1 3597.7 1852.7 3598.5" stroke="#FDC571" stroke-width="6" stroke-miterlimit="10" stroke-linecap="round" stroke-linejoin="bevel"/>
<path id="pline26" d="M1840.9 3506L1867.3 3322.2" stroke="#FDC571" stroke-width="6" stroke-miterlimit="10" stroke-linecap="round" stroke-linejoin="round"/>
<path id="pline18" d="M2666.5 3388.7C2662.7 3391.1 2660.8 3395.6 2662 3399.6C2663.2 3403.7 2667.4 3406.5 2672.1 3406.2C2677.4 3405 2682.6 3407.5 2684.3 3411.9C2686.2 3416.7 2683.5 3422.5 2678.1 3424.7M2678.2 3424.8C2674.4 3427.2 2672.5 3431.7 2673.7 3435.7C2674.9 3439.8 2679.1 3442.6 2683.8 3442.3C2689.1 3441.1 2694.3 3443.6 2696 3448C2697.9 3452.8 2695.2 3458.6 2689.8 3460.8M2689.9 3460.8C2686.1 3463.2 2684.2 3467.7 2685.4 3471.7C2686.6 3475.8 2690.8 3478.6 2695.5 3478.3C2700.8 3477.1 2706 3479.6 2707.7 3484C2709.6 3488.8 2706.9 3494.6 2701.5 3496.8M2701.6 3496.8C2697.8 3499.2 2695.9 3503.7 2697.1 3507.7C2698.3 3511.8 2702.5 3514.6 2707.2 3514.3C2712.5 3513.1 2717.7 3515.6 2719.4 3520C2721.3 3524.8 2718.6 3530.6 2713.2 3532.8" stroke="#FDC571" stroke-width="6" stroke-miterlimit="10" stroke-linecap="round" stroke-linejoin="bevel"/>
<path id="pline17" d="M2666 3388.7L2615.5 3139.9" stroke="#FDC571" stroke-width="6" stroke-miterlimit="10" stroke-linecap="round" stroke-linejoin="bevel"/>
<path id="pline16" d="M2863.8 3379.3L2858.4 3374.1M2837.8 3354.2L2631.2 3155.1M2620.9 3145.1L2615.5 3139.9" stroke="#FDC571" stroke-width="6" stroke-miterlimit="10" stroke-linecap="round"/>
<path id="pline6" d="M2365 3434L2363.96 3430.61M2359.75 3417.04L2186.17 2854.18M2184.04 2847.39L2183 2844" stroke="#FDC571" stroke-width="7.46" stroke-miterlimit="10" stroke-linecap="round"/>
<path id="pline5" d="M3181 3353.3L3174 3350.6M3144.9 3339.7L2637 3149M2622.5 3143.5L2615.5 3140.9" stroke="#FDC571" stroke-width="6" stroke-miterlimit="10" stroke-linecap="round"/>
<path id="pline4-1" d="M399 4067L1013 3327" stroke="#FDC571" stroke-width="6" stroke-miterlimit="10" stroke-linecap="round"/>
</g>
<g id="pthirdfork">
<path id="pline11" d="M1356 3243L1609 2890" stroke="#FDC571" stroke-width="6" stroke-miterlimit="10" stroke-linecap="round"/>
<path id="pline10" d="M1767.7 3259.5L1764.7 3252.6M1752.9 3225.3L1617.5 2910.7M1611.6 2897.1L1608.6 2890.2" stroke="#FDC571" stroke-width="6" stroke-miterlimit="10" stroke-linecap="round"/>
</g>
<g id="pthirdsquiggle">
<path id="pline25" d="M2076.6 3119.23C2073.1 3122.23 2068.4 3122.63 2064.9 3120.33C2061.3 3117.93 2059.9 3113.13 2061.6 3108.73C2064.3 3104.03 2063.4 3098.33 2059.7 3095.33C2055.7 3092.13 2049.4 3093.03 2045.6 3097.53C2042.1 3100.53 2037.4 3100.93 2033.9 3098.63C2030.3 3096.23 2028.9 3091.43 2030.6 3087.03C2033.3 3082.33 2032.4 3076.63 2028.7 3073.63C2024.7 3070.43 2018.4 3071.33 2014.6 3075.83M2014.6 3075.73C2011.1 3078.73 2006.4 3079.13 2002.9 3076.83C1999.3 3074.43 1997.9 3069.63 1999.6 3065.23C2002.3 3060.53 2001.4 3054.83 1997.7 3051.83C1993.7 3048.63 1987.4 3049.53 1983.6 3054.03C1980.1 3057.03 1975.4 3057.43 1971.9 3055.13C1968.3 3052.73 1966.9 3047.93 1968.6 3043.53C1971.3 3038.83 1970.4 3033.13 1966.7 3030.13C1962.7 3026.93 1956.4 3027.83 1952.6 3032.33" stroke="#FDC571" stroke-width="6" stroke-miterlimit="10" stroke-linecap="round" stroke-linejoin="bevel"/>
<path id="pline8" d="M1869.7 3322.21C1874.2 3322.31 1878.2 3319.61 1879.4 3315.71C1880.7 3311.61 1878.7 3307.01 1874.6 3304.61C1869.5 3302.71 1866.6 3297.71 1867.6 3293.01C1868.7 3288.01 1874.1 3284.71 1879.9 3285.81M1879.9 3285.71C1884.4 3285.81 1888.4 3283.11 1889.6 3279.21C1890.9 3275.11 1888.9 3270.51 1884.8 3268.11C1879.7 3266.21 1876.8 3261.21 1877.8 3256.51C1878.9 3251.51 1884.3 3248.21 1890.1 3249.31M1890.2 3249.31C1894.7 3249.41 1898.7 3246.71 1899.9 3242.81C1901.2 3238.71 1899.2 3234.11 1895.1 3231.71C1890 3229.81 1887.1 3224.81 1888.1 3220.11C1889.2 3215.11 1894.6 3211.81 1900.4 3212.91M1900.5 3212.91C1905 3213.01 1909 3210.31 1910.2 3206.41C1911.5 3202.31 1909.5 3197.71 1905.4 3195.31C1900.3 3193.41 1897.4 3188.41 1898.4 3183.71C1899.5 3178.71 1904.9 3175.41 1910.7 3176.51M1911.6 3176.51C1916.1 3176.61 1920.1 3173.91 1921.3 3170.01C1922.6 3165.91 1920.6 3161.31 1916.5 3158.91C1911.4 3157.01 1908.5 3152.01 1909.5 3147.31C1910.6 3142.31 1916 3139.01 1921.8 3140.11M1921.9 3140.11C1926.4 3140.21 1930.4 3137.51 1931.6 3133.61C1932.9 3129.51 1930.9 3124.91 1926.8 3122.51C1921.7 3120.61 1918.8 3115.61 1919.8 3110.91C1920.9 3105.91 1926.3 3102.61 1932.1 3103.71M1932.2 3103.71C1936.7 3103.81 1940.7 3101.11 1941.9 3097.21C1943.2 3093.11 1941.2 3088.51 1937.1 3086.11C1932 3084.21 1929.1 3079.21 1930.1 3074.51C1931.2 3069.51 1936.6 3066.21 1942.4 3067.31M1942.4 3067.21C1946.9 3067.31 1950.9 3064.61 1952.1 3060.71C1953.4 3056.61 1951.4 3052.01 1947.3 3049.61C1942.2 3047.71 1939.3 3042.71 1940.3 3038.01C1941.4 3033.01 1946.8 3029.71 1952.6 3030.81" stroke="#FDC571" stroke-width="6" stroke-miterlimit="10" stroke-linecap="round" stroke-linejoin="bevel"/>
</g>
<g id="psecond">
<path id="pline2" d="M1953.05 3032.41L1717.61 2480.4" stroke="#FDC571" stroke-width="6" stroke-miterlimit="10" stroke-linecap="round"/>
</g>
<g id="psecondshort">
<path id="pline3" d="M1609.29 2891.4L1717.61 2480.4" stroke="#FDC571" stroke-width="6" stroke-miterlimit="10" stroke-linecap="round"/>
</g>
<g id="psecondlong">
<path id="pline4" d="M1013 3327L1718 2480" stroke="#FDC571" stroke-width="6" stroke-miterlimit="10" stroke-linecap="round"/>
<path id="pline1" d="M2615.5 3141.83L2180.7 2843.46L1717.61 2480.4" stroke="#FDC571" stroke-width="6" stroke-miterlimit="10" stroke-linecap="round" stroke-linejoin="bevel"/>
</g>
<path id="pmain" d="M1718 2480.3C1643.4 2310.9 1433.3 1775.1 1595.8 1112.3C1734.9 545 2070.6 195.9 2212.8 63.2" stroke="#FDC571" stroke-width="6" stroke-miterlimit="10" stroke-linecap="round"/>
</g>
</svg>
