<?xml version="1.0" encoding="UTF-8"?>
<svg id="Layer_3" data-name="Layer 3" xmlns="http://www.w3.org/2000/svg" viewBox="0 0 1372.34 155.88">
  <defs>
    <style>
      .cls-1 {
        fill: #fff;
      }
    </style>
  </defs>
  <g>
    <g>
      <polygon class="cls-1" points="189.79 54.71 161.64 54.71 161.64 38.09 238.6 38.09 238.6 54.71 210.45 54.71 210.45 128 189.79 128 189.79 54.71"/>
      <path class="cls-1" d="M266.06,78.76h22.63c9.34,0,14.21-3.78,14.21-12.86s-4.87-12.46-14.21-12.46h-22.63v25.32Zm-20.66-40.68h50.66c16.84,0,27.5,11.21,27.5,24.8,0,10.58-4.35,18.51-14.87,22.55v.26c10.13,2.64,13.03,11.83,13.69,21.03,.39,5.66,.13,16.37,3.94,21.28h-20.66c-2.36-5.68-2.23-14.36-3.29-21.54-1.45-9.44-5.26-13.6-15.66-13.6h-20.66v35.14h-20.66V38.08Z"/>
      <rect class="cls-1" x="333.71" y="38.08" width="20.66" height="89.91"/>
      <path class="cls-1" d="M446.94,94c0,24.3-15,36.14-40.13,36.14s-40-11.59-40-36.14V38.08h20.66v55.91c0,9.82,2.63,19.51,19.34,19.51,14.73,0,19.47-6.04,19.47-19.51V38.08h20.66v55.91Z"/>
      <polygon class="cls-1" points="458.95 38.08 488.03 38.08 510 99.92 510.26 99.92 531.05 38.08 560.12 38.08 560.12 128 540.79 128 540.79 64.28 540.52 64.28 517.5 128 501.58 128 478.56 64.9 478.29 64.9 478.29 128 458.95 128 458.95 38.08"/>
      <polygon class="cls-1" points="572.7 38.08 572.7 128 593.36 128 593.36 90.85 632.69 90.85 632.69 75.49 593.36 75.49 593.36 54.7 638.75 54.7 638.75 38.08 572.7 38.08"/>
    </g>
    <g>
      <path class="cls-1" d="M82.66,123.48c-3.42-6.38,.45-27.53,1.9-34.69-.33-.06-.64-.14-.93-.26-4.99,5.36-23.24,28.45-17.07,41.58,6,12.81,31.65,6.87,41.42,4.07-.12-.32-.22-.63-.28-.96-9.16,.25-20.52-1.33-25.03-9.74"/>
      <path class="cls-1" d="M119.74,106.12c-7.24-.23-23.65-14.14-29.13-18.99-.22,.26-.45,.49-.7,.68,2.16,6.99,13.05,34.32,27.53,35.55,14.11,1.21,21.78-23.93,24.23-33.78-.33-.04-.65-.13-.96-.23-4.36,8.04-11.41,17.07-20.97,16.77"/>
      <path class="cls-1" d="M123.24,65.39c-3.82,6.14-24.09,13.36-31.04,15.69,.11,.32,.19,.64,.23,.94,7.15,1.63,36.29,5.87,44.6-6.03,8.11-11.59-9.87-30.8-17.19-37.84-.2,.27-.43,.51-.68,.72,4.79,7.79,9.11,18.41,4.07,26.52"/>
      <path class="cls-1" d="M89.64,41.99c3.43,6.37-.45,27.52-1.89,34.69,.33,.06,.64,.14,.93,.26,4.99-5.36,23.24-28.44,17.07-41.58-6.01-12.81-31.65-6.87-41.42-4.07,.12,.31,.22,.63,.29,.96,9.15-.25,20.51,1.32,25.03,9.74"/>
      <path class="cls-1" d="M52.56,59.34c7.24,.22,23.65,14.14,29.14,18.99,.21-.26,.45-.49,.69-.67-2.16-7-13.05-34.32-27.53-35.56-14.11-1.21-21.78,23.93-24.23,33.79,.33,.04,.66,.12,.97,.24,4.36-8.05,11.4-17.08,20.96-16.78"/>
      <path class="cls-1" d="M49.07,100.08c3.82-6.15,24.09-13.37,31.03-15.7-.11-.32-.19-.64-.23-.93-7.15-1.63-36.29-5.87-44.6,6.02-8.11,11.6,9.87,30.8,17.18,37.84,.2-.26,.44-.5,.68-.72-4.79-7.79-9.11-18.4-4.06-26.52"/>
    </g>
  </g>
  <g>
    <path class="cls-1" d="M736.93,41.1h13.86c8.98,0,10.69,5.81,10.69,9.73s-1.72,9.64-10.69,9.64h-8.36v12.06h-5.5v-31.42Zm5.5,14.87h8.05c2.46,0,5.5-1.23,5.5-5.19s-2.51-5.19-5.41-5.19h-8.14v10.38Z"/>
    <path class="cls-1" d="M764.26,49.77h4.71v4.4h.09c.57-2.42,3.61-5.02,6.64-5.02,1.19,0,1.41,.09,1.89,.13v4.84c-.7-.13-1.45-.22-2.16-.22-3.39,0-6.16,2.73-6.16,7.79v10.83h-5.02v-22.75Z"/>
    <path class="cls-1" d="M778.08,61.13c0-6.91,4.22-11.97,11.49-11.97s11.49,5.06,11.49,11.97-4.22,12.01-11.49,12.01-11.49-5.02-11.49-12.01Zm17.96,0c0-3.92-1.98-8.01-6.47-8.01s-6.47,4.09-6.47,8.01,1.98,8.05,6.47,8.05,6.47-4.09,6.47-8.05Z"/>
    <path class="cls-1" d="M801.79,49.77h3.79v-6.82h5.02v6.82h4.53v3.74h-4.53v12.15c0,2.07,.18,3.12,2.42,3.12,.7,0,1.41,0,2.11-.18v3.87c-1.1,.13-2.16,.26-3.26,.26-5.28,0-6.16-2.02-6.29-5.81v-13.42h-3.79v-3.74Z"/>
    <path class="cls-1" d="M816.15,61.13c0-6.91,4.22-11.97,11.49-11.97s11.49,5.06,11.49,11.97-4.22,12.01-11.49,12.01-11.49-5.02-11.49-12.01Zm17.96,0c0-3.92-1.98-8.01-6.47-8.01s-6.47,4.09-6.47,8.01,1.98,8.05,6.47,8.05,6.47-4.09,6.47-8.05Z"/>
    <path class="cls-1" d="M842.42,49.77h4.75v3.34l.09,.09c1.54-2.51,4.09-4.05,7.08-4.05,4.97,0,8.05,2.6,8.05,7.75v15.62h-5.02v-14.3c-.13-3.56-1.45-5.1-4.44-5.1-3.34,0-5.5,2.64-5.5,5.99v13.42h-5.02v-22.75Z"/>
    <path class="cls-1" d="M898.08,67.46c0,1.23,.26,1.72,1.19,1.72h.53c.22,0,.44-.04,.7-.09v3.48c-.75,.26-2.33,.57-3.17,.57-2.07,0-3.48-.7-3.87-2.77-1.98,1.94-5.19,2.77-7.88,2.77-4.09,0-7.79-2.2-7.79-6.65,0-5.68,4.53-6.6,8.76-7.08,3.65-.7,6.82-.22,6.82-3.21,0-2.64-2.73-3.08-4.71-3.08-2.82,0-4.8,1.14-5.02,3.61h-5.02c.35-5.85,5.28-7.57,10.34-7.57,4.44,0,9.11,1.8,9.11,6.6v11.71Zm-5.02-6.34c-1.54,1.01-3.92,.97-6.16,1.36-2.16,.35-4.09,1.14-4.09,3.78,0,2.29,2.86,2.9,4.62,2.9,2.2,0,5.63-1.14,5.63-4.31v-3.74Z"/>
    <path class="cls-1" d="M902.91,49.77h4.75v3.34l.09,.09c1.54-2.51,4.09-4.05,7.08-4.05,4.97,0,8.05,2.6,8.05,7.75v15.62h-5.02v-14.3c-.13-3.56-1.45-5.1-4.44-5.1-3.34,0-5.5,2.64-5.5,5.99v13.42h-5.02v-22.75Z"/>
    <path class="cls-1" d="M948.72,72.52h-4.75v-3.08h-.09c-1.36,2.64-4.18,3.7-7.04,3.7-7.17,0-10.65-5.33-10.65-12.15,0-8.27,4.88-11.84,9.86-11.84,2.82,0,6.03,1.06,7.57,3.56h.09v-11.62h5.02v31.42Zm-11.22-3.34c4.45,0,6.38-4.09,6.38-8.05,0-5.06-2.42-8.01-6.29-8.01-4.71,0-6.38,4.22-6.38,8.27s1.94,7.79,6.29,7.79Z"/>
    <path class="cls-1" d="M966.01,41.1h5.81l14.35,23.15h.09v-23.15h5.24v31.42h-5.81l-14.3-23.1h-.13v23.1h-5.24v-31.42Z"/>
    <path class="cls-1" d="M1000.39,62.45c0,3.57,1.94,6.73,6.12,6.73,2.95,0,4.67-1.28,5.54-3.78h4.75c-1.06,4.97-5.37,7.75-10.3,7.75-7.17,0-11.13-4.93-11.13-11.97,0-6.47,4.22-12.01,11-12.01,7.17,0,11.57,6.47,10.74,13.29h-16.72Zm11.71-3.3c-.22-3.17-2.29-6.03-5.72-6.03s-5.85,2.64-5.99,6.03h11.71Z"/>
    <path class="cls-1" d="M1040.03,72.52h-4.93v-3.17h-.09c-1.23,2.29-3.96,3.79-6.47,3.79-5.99,0-8.49-2.95-8.49-8.93v-14.43h5.02v13.95c0,4,1.58,5.46,4.36,5.46,4.18,0,5.59-2.68,5.59-6.21v-13.2h5.02v22.75Z"/>
    <path class="cls-1" d="M1042.24,49.77h3.78v-6.82h5.02v6.82h4.53v3.74h-4.53v12.15c0,2.07,.18,3.12,2.42,3.12,.7,0,1.41,0,2.11-.18v3.87c-1.1,.13-2.16,.26-3.26,.26-5.28,0-6.16-2.02-6.29-5.81v-13.42h-3.78v-3.74Z"/>
    <path class="cls-1" d="M1058.25,49.77h4.71v4.4h.09c.57-2.42,3.61-5.02,6.64-5.02,1.19,0,1.41,.09,1.89,.13v4.84c-.7-.13-1.45-.22-2.16-.22-3.39,0-6.16,2.73-6.16,7.79v10.83h-5.02v-22.75Z"/>
    <path class="cls-1" d="M1072.06,61.13c0-6.91,4.22-11.97,11.49-11.97s11.49,5.06,11.49,11.97-4.22,12.01-11.49,12.01-11.49-5.02-11.49-12.01Zm17.96,0c0-3.92-1.98-8.01-6.47-8.01s-6.47,4.09-6.47,8.01,1.98,8.05,6.47,8.05,6.47-4.09,6.47-8.05Z"/>
    <path class="cls-1" d="M1098.33,49.77h4.75v3.34l.09,.09c1.54-2.51,4.09-4.05,7.08-4.05,4.97,0,8.05,2.6,8.05,7.75v15.62h-5.02v-14.3c-.13-3.56-1.45-5.1-4.44-5.1-3.34,0-5.5,2.64-5.5,5.99v13.42h-5.02v-22.75Z"/>
    <path class="cls-1" d="M1135.65,41.1h5.5v31.42h-5.5v-31.42Z"/>
    <path class="cls-1" d="M1146.17,49.77h4.71v4.4h.09c.57-2.42,3.61-5.02,6.64-5.02,1.19,0,1.41,.09,1.89,.13v4.84c-.7-.13-1.45-.22-2.16-.22-3.39,0-6.16,2.73-6.16,7.79v10.83h-5.02v-22.75Z"/>
    <path class="cls-1" d="M1161.3,49.77h4.71v4.4h.09c.57-2.42,3.61-5.02,6.64-5.02,1.19,0,1.41,.09,1.89,.13v4.84c-.7-.13-1.45-.22-2.16-.22-3.39,0-6.16,2.73-6.16,7.79v10.83h-5.02v-22.75Z"/>
    <path class="cls-1" d="M1195.5,67.46c0,1.23,.26,1.72,1.19,1.72h.53c.22,0,.44-.04,.7-.09v3.48c-.75,.26-2.33,.57-3.17,.57-2.07,0-3.48-.7-3.87-2.77-1.98,1.94-5.19,2.77-7.88,2.77-4.09,0-7.79-2.2-7.79-6.65,0-5.68,4.53-6.6,8.76-7.08,3.65-.7,6.82-.22,6.82-3.21,0-2.64-2.73-3.08-4.71-3.08-2.82,0-4.8,1.14-5.02,3.61h-5.02c.35-5.85,5.28-7.57,10.34-7.57,4.44,0,9.11,1.8,9.11,6.6v11.71Zm-5.02-6.34c-1.54,1.01-3.92,.97-6.16,1.36-2.16,.35-4.09,1.14-4.09,3.78,0,2.29,2.86,2.9,4.62,2.9,2.2,0,5.63-1.14,5.63-4.31v-3.74Z"/>
    <path class="cls-1" d="M1221.44,72.52h-4.75v-3.08h-.09c-1.36,2.64-4.18,3.7-7.04,3.7-7.17,0-10.65-5.33-10.65-12.15,0-8.27,4.88-11.84,9.86-11.84,2.82,0,6.03,1.06,7.57,3.56h.09v-11.62h5.02v31.42Zm-11.22-3.34c4.45,0,6.38-4.09,6.38-8.05,0-5.06-2.42-8.01-6.29-8.01-4.71,0-6.38,4.22-6.38,8.27s1.94,7.79,6.29,7.79Z"/>
    <path class="cls-1" d="M1225.99,41.1h5.02v4.75h-5.02v-4.75Zm0,8.67h5.02v22.75h-5.02v-22.75Z"/>
    <path class="cls-1" d="M1254.61,67.46c0,1.23,.26,1.72,1.19,1.72h.53c.22,0,.44-.04,.7-.09v3.48c-.75,.26-2.33,.57-3.17,.57-2.07,0-3.48-.7-3.87-2.77-1.98,1.94-5.19,2.77-7.88,2.77-4.09,0-7.79-2.2-7.79-6.65,0-5.68,4.53-6.6,8.76-7.08,3.65-.7,6.82-.22,6.82-3.21,0-2.64-2.73-3.08-4.71-3.08-2.82,0-4.8,1.14-5.02,3.61h-5.02c.35-5.85,5.28-7.57,10.34-7.57,4.44,0,9.11,1.8,9.11,6.6v11.71Zm-5.02-6.34c-1.54,1.01-3.92,.97-6.16,1.36-2.16,.35-4.09,1.14-4.09,3.78,0,2.29,2.86,2.9,4.62,2.9,2.2,0,5.63-1.14,5.63-4.31v-3.74Z"/>
    <path class="cls-1" d="M1256.79,49.77h3.79v-6.82h5.02v6.82h4.53v3.74h-4.53v12.15c0,2.07,.18,3.12,2.42,3.12,.7,0,1.41,0,2.11-.18v3.87c-1.1,.13-2.16,.26-3.26,.26-5.28,0-6.16-2.02-6.29-5.81v-13.42h-3.79v-3.74Z"/>
    <path class="cls-1" d="M1272.93,41.1h5.02v4.75h-5.02v-4.75Zm0,8.67h5.02v22.75h-5.02v-22.75Z"/>
    <path class="cls-1" d="M1281.35,61.13c0-6.91,4.22-11.97,11.49-11.97s11.49,5.06,11.49,11.97-4.22,12.01-11.49,12.01-11.49-5.02-11.49-12.01Zm17.96,0c0-3.92-1.98-8.01-6.47-8.01s-6.47,4.09-6.47,8.01,1.98,8.05,6.47,8.05,6.47-4.09,6.47-8.05Z"/>
    <path class="cls-1" d="M1307.62,49.77h4.75v3.34l.09,.09c1.54-2.51,4.09-4.05,7.08-4.05,4.97,0,8.05,2.6,8.05,7.75v15.62h-5.02v-14.3c-.13-3.56-1.45-5.1-4.44-5.1-3.34,0-5.5,2.64-5.5,5.99v13.42h-5.02v-22.75Z"/>
    <path class="cls-1" d="M736.93,93.9h21.7v4.75h-16.19v8.23h14.21v4.49h-14.21v13.95h-5.5v-31.42Z"/>
    <path class="cls-1" d="M779.42,120.26c0,1.23,.26,1.72,1.19,1.72h.53c.22,0,.44-.04,.7-.09v3.48c-.75,.26-2.33,.57-3.17,.57-2.07,0-3.48-.7-3.87-2.77-1.98,1.94-5.19,2.77-7.88,2.77-4.09,0-7.79-2.2-7.79-6.65,0-5.68,4.53-6.6,8.76-7.08,3.65-.7,6.82-.22,6.82-3.21,0-2.64-2.73-3.08-4.71-3.08-2.82,0-4.8,1.14-5.02,3.61h-5.02c.35-5.85,5.28-7.57,10.34-7.57,4.44,0,9.11,1.8,9.11,6.6v11.71Zm-5.02-6.34c-1.54,1.01-3.92,.97-6.16,1.36-2.16,.35-4.09,1.14-4.09,3.78,0,2.29,2.86,2.9,4.62,2.9,2.2,0,5.63-1.14,5.63-4.31v-3.74Z"/>
    <path class="cls-1" d="M799.28,110.18c-.4-2.82-2.38-4.27-5.19-4.27-2.6,0-6.25,1.41-6.25,8.27,0,3.78,1.67,7.79,6.03,7.79,2.95,0,4.93-1.89,5.41-5.19h5.02c-.92,5.94-4.58,9.15-10.43,9.15-7.13,0-11.05-5.06-11.05-11.75s3.74-12.23,11.22-12.23c5.28,0,9.77,2.64,10.25,8.23h-5.02Z"/>
    <path class="cls-1" d="M807.59,93.9h5.02v4.75h-5.02v-4.75Zm0,8.67h5.02v22.75h-5.02v-22.75Z"/>
    <path class="cls-1" d="M817.12,93.9h5.02v31.42h-5.02v-31.42Z"/>
    <path class="cls-1" d="M826.64,93.9h5.02v4.75h-5.02v-4.75Zm0,8.67h5.02v22.75h-5.02v-22.75Z"/>
    <path class="cls-1" d="M833.9,102.57h3.78v-6.82h5.02v6.82h4.53v3.74h-4.53v12.15c0,2.07,.18,3.12,2.42,3.12,.7,0,1.41,0,2.11-.18v3.87c-1.1,.13-2.16,.26-3.26,.26-5.28,0-6.16-2.02-6.29-5.81v-13.42h-3.78v-3.74Z"/>
    <path class="cls-1" d="M850.04,93.9h5.02v4.75h-5.02v-4.75Zm0,8.67h5.02v22.75h-5.02v-22.75Z"/>
    <path class="cls-1" d="M863.46,115.24c0,3.57,1.94,6.73,6.12,6.73,2.95,0,4.67-1.28,5.54-3.78h4.75c-1.06,4.97-5.37,7.75-10.3,7.75-7.17,0-11.13-4.93-11.13-11.97,0-6.47,4.22-12.01,11-12.01,7.17,0,11.57,6.47,10.74,13.29h-16.72Zm11.71-3.3c-.22-3.17-2.29-6.03-5.72-6.03s-5.85,2.64-5.99,6.03h11.71Z"/>
    <path class="cls-1" d="M887.06,118.02c.31,2.95,2.46,3.96,5.15,3.96,1.94,0,5.19-.4,5.06-2.99-.13-2.64-3.79-2.95-7.44-3.79-3.7-.79-7.3-2.11-7.3-6.73,0-4.97,5.37-6.51,9.5-6.51,4.67,0,8.93,1.89,9.51,7h-5.24c-.48-2.42-2.38-3.04-4.62-3.04-1.45,0-4.14,.35-4.14,2.33,0,2.46,3.7,2.86,7.39,3.65,3.65,.84,7.35,2.16,7.35,6.64,0,5.41-5.46,7.39-10.17,7.39-5.76,0-9.95-2.55-10.08-7.92h5.02Z"/>
    <path class="cls-1" d="M923.31,133.73c-3.52-5.68-6.34-11.79-6.34-20.29,0-7.08,2.29-14.08,6.34-20.29h4.09c-3.52,6.34-5.41,12.89-5.41,20.29s1.72,13.99,5.41,20.29h-4.09Z"/>
    <path class="cls-1" d="M931.19,93.9h13.86c8.98,0,10.69,5.81,10.69,9.73s-1.72,9.64-10.69,9.64h-8.36v12.06h-5.5v-31.42Zm5.5,14.87h8.05c2.46,0,5.5-1.23,5.5-5.19s-2.51-5.19-5.41-5.19h-8.14v10.38Z"/>
    <path class="cls-1" d="M958.89,93.9h5.5v31.42h-5.5v-31.42Z"/>
    <path class="cls-1" d="M970.06,93.9h21.7v4.75h-16.19v8.23h14.21v4.49h-14.21v13.95h-5.5v-31.42Z"/>
    <path class="cls-1" d="M1021.63,121.8c-2.33,2.86-5.11,4.14-8.8,4.14-5.81,0-9.9-3.48-9.9-9.33,0-4.44,3.56-7.22,7.22-9.11-1.63-2.11-3.17-4.09-3.17-6.86,0-4.53,3.43-7.48,7.7-7.48,4.05,0,7.83,2.46,7.83,7.53,0,3.74-2.64,6.34-5.68,7.96l4.88,5.9c.35-1.01,.75-2.16,.97-4.22h4.4c-.31,2.77-1.06,5.46-2.46,7.7l6.03,7.31h-6.16l-2.86-3.52Zm-8.85-11c-1.85,1.14-4.84,2.16-4.84,5.9,0,3.39,2.11,5.28,5.06,5.28,3.65,0,5.02-2.24,5.94-3.52l-6.16-7.66Zm-1.32-10.43c0,2.07,1.67,3.7,2.86,5.24,1.89-1.28,3.7-2.6,3.7-5.1,0-2.07-1.28-3.61-3.21-3.61s-3.34,1.36-3.34,3.48Z"/>
    <path class="cls-1" d="M1041.87,93.9h5.81l14.35,23.15h.09v-23.15h5.24v31.42h-5.81l-14.3-23.1h-.13v23.1h-5.24v-31.42Z"/>
    <path class="cls-1" d="M1072.98,93.9h5.5v31.42h-5.5v-31.42Z"/>
    <path class="cls-1" d="M1084.16,93.9h21.7v4.75h-16.19v8.23h14.21v4.49h-14.21v13.95h-5.5v-31.42Z"/>
    <path class="cls-1" d="M1112.71,93.15c3.52,5.63,6.34,11.93,6.34,20.33,0,7.08-2.29,14.08-6.34,20.24h-4.09c3.52-6.29,5.41-12.85,5.41-20.24s-1.72-13.99-5.41-20.33h4.09Z"/>
  </g>
</svg>