<svg width="297" height="38" viewBox="0 0 297 38" fill="none" xmlns="http://www.w3.org/2000/svg">
<g clip-path="url(#clip0_901_2)">
<path d="M52.26 8.62204H43.3186V3.36304H67.7463V8.62204H58.8049V31.8342H52.26V8.62204Z" fill="white"/>
<path d="M69.8949 3.36304H85.9763C91.3146 3.36304 94.7028 6.90751 94.7028 11.2103C94.7028 14.557 93.331 17.0628 89.9759 18.3487V18.4312C93.1988 19.2719 94.1078 22.1735 94.3227 25.0915C94.4384 26.8884 94.3557 30.268 95.5788 31.8342H89.0173C88.2736 30.0372 88.3066 27.2841 87.9761 25.009C87.5133 22.0251 86.3068 20.7062 83.0013 20.7062H76.4399V31.8342H69.8784V3.36304H69.8949ZM76.4564 16.2385H83.6459C86.6043 16.2385 88.1579 15.0351 88.1579 12.1665C88.1579 9.29796 86.6043 8.22638 83.6459 8.22638H76.4564V16.2385V16.2385Z" fill="white"/>
<path d="M97.9257 3.36304H104.487V31.8342H97.9257V3.36304Z" fill="white"/>
<path d="M133.873 21.0689C133.873 28.7678 129.113 32.5101 121.13 32.5101C113.147 32.5101 108.437 28.8338 108.437 21.0689V3.36304H114.999V21.0689C114.999 24.1847 115.825 27.2511 121.13 27.2511C125.808 27.2511 127.312 25.3387 127.312 21.0689V3.36304H133.873V21.0689Z" fill="white"/>
<path d="M137.691 3.36304H146.913L153.888 22.9483H153.971L160.565 3.36304H169.804V31.8342H163.656V11.6554H163.573L156.268 31.8342H151.21L143.905 11.8533H143.823V31.8342H137.691V3.36304Z" fill="white"/>
<path d="M173.787 3.36304V31.8342H180.349V20.0797H192.827V15.2164H180.349V8.62204H194.744V3.36304H173.787Z" fill="white"/>
<path d="M18.2463 30.3999C17.1555 28.3722 18.3951 21.6789 18.8413 19.4203C18.7422 19.4038 18.643 19.3709 18.5438 19.3379C16.9572 21.0359 11.1725 28.3392 13.1228 32.5101C15.0235 36.5657 23.1715 34.6863 26.2622 33.796C26.2291 33.6971 26.1961 33.5982 26.1795 33.4993C23.2707 33.5817 19.6677 33.0871 18.2298 30.4164" fill="white"/>
<path d="M30.0139 24.9102C27.7166 24.8442 22.5104 20.4425 20.775 18.8928C20.7089 18.9753 20.6263 19.0412 20.5602 19.1071C21.2378 21.3162 24.7086 29.9713 29.3033 30.367C33.7822 30.7462 36.2118 22.7835 36.9886 19.6677C36.8894 19.6677 36.7737 19.6347 36.6745 19.6017C35.2862 22.1405 33.055 25.0091 30.0139 24.9102" fill="white"/>
<path d="M31.1214 12.0183C29.9149 13.9636 23.4692 16.2551 21.271 16.9805C21.3041 17.0794 21.3371 17.1783 21.3371 17.2773C23.6014 17.7883 32.8568 19.1402 35.5012 15.3649C38.0795 11.6885 32.361 5.62172 30.0471 3.37964C29.981 3.46207 29.9149 3.5445 29.8323 3.61044C31.3528 6.08333 32.7246 9.42997 31.1214 12.0018" fill="white"/>
<path d="M20.4611 4.59954C21.5519 6.61082 20.3124 13.3206 19.8661 15.5791C19.9653 15.5956 20.0644 15.6286 20.1636 15.6616C21.7502 13.9635 27.5349 6.66027 25.5846 2.48934C23.6674 -1.54971 15.5359 0.329688 12.4287 1.21993C12.4618 1.31884 12.4948 1.41776 12.5113 1.51667C15.4202 1.43424 19.0232 1.92882 20.4611 4.59954" fill="white"/>
<path d="M8.69345 10.0893C10.9908 10.1552 16.197 14.5735 17.9489 16.1067C18.015 16.0242 18.0976 15.9583 18.1637 15.8923C17.4861 13.6832 14.0153 5.02813 9.42066 4.63247C4.94169 4.25329 2.51215 12.216 1.73535 15.3318C1.83452 15.3318 1.95021 15.3648 2.04938 15.4143C3.43769 12.8589 5.66891 10.0069 8.70998 10.1058" fill="white"/>
<path d="M7.5861 22.9979C8.79261 21.0525 15.2384 18.761 17.4365 18.0356C17.4035 17.9367 17.3704 17.8378 17.3704 17.7389C15.1061 17.2278 5.85071 15.8759 3.2063 19.6512C0.628004 23.3276 6.34653 29.3944 8.66039 31.6365C8.7265 31.554 8.79261 31.4716 8.87525 31.4057C7.35471 28.9328 5.98293 25.5861 7.5861 23.0143" fill="white"/>
<path d="M210.119 20.9024V17.0321H213.221C213.848 17.0321 214.356 17.1912 214.745 17.5093C215.134 17.8274 215.328 18.3134 215.328 18.9673C215.328 19.6212 215.134 20.1072 214.745 20.4253C214.356 20.7434 213.848 20.9024 213.221 20.9024H210.119ZM209.218 16.2634V25.7271H210.119V21.6712H213.42C213.844 21.6712 214.228 21.6138 214.573 21.4989C214.917 21.3752 215.213 21.1985 215.461 20.9687C215.708 20.7301 215.898 20.443 216.031 20.1072C216.163 19.7714 216.23 19.3914 216.23 18.9673C216.23 18.5431 216.163 18.1632 216.031 17.8274C215.898 17.4916 215.708 17.2089 215.461 16.9791C215.213 16.7405 214.917 16.5638 214.573 16.4489C214.228 16.3252 213.844 16.2634 213.42 16.2634H209.218ZM217.633 16.2634V25.7271H218.534V16.2634H217.633ZM220.505 16.2634V25.7271H221.406V21.2205H225.939V20.4518H221.406V17.0321H226.509V16.2634H220.505ZM234.123 16.9659C234.468 16.9659 234.764 17.0719 235.011 17.284C235.258 17.4872 235.382 17.7876 235.382 18.1853C235.382 18.415 235.338 18.6271 235.25 18.8215C235.161 19.0071 235.046 19.1794 234.905 19.3384C234.764 19.4886 234.605 19.6256 234.428 19.7493C234.26 19.873 234.092 19.9879 233.924 20.0939C233.818 19.9702 233.703 19.8332 233.58 19.683C233.456 19.524 233.341 19.3649 233.235 19.2059C233.129 19.038 233.041 18.8701 232.97 18.7022C232.899 18.5255 232.864 18.3532 232.864 18.1853C232.864 17.7876 232.988 17.4872 233.235 17.284C233.482 17.0719 233.778 16.9659 234.123 16.9659ZM236.522 24.4944L237.529 25.7271H238.576L236.986 23.8052C237.207 23.3987 237.353 22.9878 237.423 22.5725C237.503 22.1484 237.543 21.8037 237.543 21.5386H236.708C236.708 21.9009 236.69 22.2014 236.655 22.44C236.619 22.6697 236.544 22.8994 236.429 23.1292L234.362 20.6373C234.6 20.4871 234.83 20.3325 235.051 20.1734C235.272 20.0056 235.466 19.8244 235.634 19.63C235.811 19.4356 235.952 19.2191 236.058 18.9805C236.164 18.742 236.217 18.4769 236.217 18.1853C236.217 17.8937 236.16 17.633 236.045 17.4033C235.939 17.1647 235.789 16.9615 235.594 16.7936C235.409 16.6257 235.188 16.4975 234.931 16.4092C234.684 16.312 234.415 16.2634 234.123 16.2634C233.831 16.2634 233.557 16.312 233.301 16.4092C233.054 16.4975 232.833 16.6257 232.638 16.7936C232.453 16.9615 232.303 17.1647 232.188 17.4033C232.082 17.633 232.029 17.8937 232.029 18.1853C232.029 18.415 232.064 18.6315 232.135 18.8347C232.214 19.038 232.307 19.2324 232.413 19.4179C232.528 19.6035 232.652 19.7846 232.784 19.9614C232.926 20.1293 233.063 20.2972 233.195 20.465C232.93 20.6064 232.661 20.7699 232.387 20.9555C232.113 21.141 231.861 21.3487 231.631 21.5784C231.41 21.8082 231.229 22.0644 231.088 22.3472C230.946 22.6299 230.876 22.9392 230.876 23.275C230.876 23.708 230.946 24.0879 231.088 24.4149C231.238 24.7418 231.441 25.0157 231.697 25.2366C231.954 25.4575 232.254 25.6254 232.599 25.7403C232.952 25.8552 233.332 25.9126 233.739 25.9126C234.295 25.9126 234.812 25.7845 235.289 25.5282C235.767 25.272 236.177 24.9274 236.522 24.4944ZM233.646 21.0085L236.005 23.8714C235.74 24.2514 235.417 24.5739 235.038 24.839C234.666 25.0953 234.242 25.2234 233.765 25.2234C233.5 25.2234 233.244 25.1792 232.996 25.0908C232.749 25.0025 232.528 24.8743 232.334 24.7065C232.148 24.5386 231.998 24.3398 231.883 24.11C231.768 23.8803 231.711 23.6284 231.711 23.3545C231.711 23.0717 231.768 22.8155 231.883 22.5857C231.998 22.3472 232.148 22.1307 232.334 21.9363C232.519 21.7419 232.727 21.5696 232.957 21.4194C233.186 21.2691 233.416 21.1322 233.646 21.0085ZM243.092 16.2634V25.7271H243.993V17.7214H244.019L249.533 25.7271H250.541V16.2634H249.639V24.2691H249.613L244.099 16.2634H243.092ZM252.504 16.2634V25.7271H253.405V16.2634H252.504ZM255.376 16.2634V25.7271H256.277V21.2205H260.81V20.4518H256.277V17.0321H261.38V16.2634H255.376Z" fill="white"/>
</g>
<defs>
<clipPath id="clip0_901_2">
<rect width="297" height="38" fill="white"/>
</clipPath>
</defs>
</svg>
