<svg width="4752" height="6567" viewBox="0 0 4752 6567" fill="none" xmlns="http://www.w3.org/2000/svg">
<g clip-path="url(#clip0_93_2)">
<path d="M415.98 6298.31H381.34V6277.86H476.04V6298.31H441.4V6388.5H415.98V6298.31Z" fill="white"/>
<path d="M484.41 6277.86H546.75C567.48 6277.86 580.59 6291.65 580.59 6308.38C580.59 6321.4 575.24 6331.16 562.29 6336.13V6336.45C574.75 6339.7 578.32 6351.01 579.14 6362.32C579.62 6369.29 579.29 6382.46 583.99 6388.51H558.57C555.66 6381.52 555.82 6370.83 554.52 6362.01C552.74 6350.39 548.04 6345.27 535.25 6345.27H509.83V6388.51H484.4V6277.86H484.41ZM509.83 6327.92H537.68C549.17 6327.92 555.17 6323.27 555.17 6312.1C555.17 6301.42 549.18 6296.77 537.68 6296.77H509.83V6327.92V6327.92Z" fill="white"/>
<path d="M593.08 6277.86H618.51V6388.51H593.08V6277.86Z" fill="white"/>
<path d="M732.43 6346.67C732.43 6376.58 713.96 6391.14 683.05 6391.14C651.8 6391.14 633.83 6376.88 633.83 6346.67V6277.86H659.25V6346.67C659.25 6358.76 662.48 6370.68 683.05 6370.68C701.18 6370.68 707.01 6363.25 707.01 6346.67V6277.86H732.43V6346.67V6346.67Z" fill="white"/>
<path d="M747.21 6277.86H782.99L810.04 6353.95H810.36L835.93 6277.86H871.72V6388.51H847.92V6310.09H847.59L819.26 6388.51H799.67L771.34 6310.86H771.01V6388.51H747.21V6277.86Z" fill="white"/>
<path d="M887.19 6277.86V6388.51H912.61V6342.79H961.02V6323.89H912.61V6298.31H968.47V6277.86H887.19Z" fill="white"/>
<path d="M284.14 6382.94C279.93 6375.09 284.69 6349.06 286.48 6340.25C286.07 6340.17 285.7 6340.07 285.34 6339.93C279.2 6346.53 256.74 6374.94 264.33 6391.1C271.72 6406.87 303.28 6399.55 315.3 6396.1C315.15 6395.71 315.03 6395.33 314.95 6394.92C303.67 6395.23 289.69 6393.29 284.14 6382.94Z" fill="white"/>
<path d="M329.77 6361.58C320.86 6361.3 300.67 6344.18 293.92 6338.22C293.65 6338.54 293.37 6338.82 293.06 6339.05C295.72 6347.65 309.12 6381.28 326.94 6382.8C344.3 6384.29 353.74 6353.35 356.76 6341.23C356.36 6341.18 355.96 6341.08 355.57 6340.94C350.2 6350.84 341.54 6361.96 329.77 6361.58Z" fill="white"/>
<path d="M334.08 6311.46C329.38 6319.02 304.43 6327.9 295.89 6330.77C296.03 6331.16 296.12 6331.55 296.18 6331.92C304.98 6333.93 340.84 6339.15 351.07 6324.5C361.05 6310.23 338.93 6286.6 329.92 6277.93C329.67 6278.26 329.39 6278.55 329.08 6278.82C334.97 6288.4 340.28 6301.47 334.08 6311.46Z" fill="white"/>
<path d="M292.73 6282.66C296.95 6290.49 292.18 6316.53 290.4 6325.35C290.81 6325.42 291.19 6325.53 291.54 6325.67C297.68 6319.07 320.14 6290.67 312.55 6274.5C305.16 6258.74 273.6 6266.04 261.58 6269.49C261.73 6269.87 261.85 6270.26 261.93 6270.67C273.2 6270.37 287.18 6272.3 292.73 6282.66Z" fill="white"/>
<path d="M247.1 6304.02C256.01 6304.29 276.2 6321.42 282.96 6327.38C283.22 6327.06 283.51 6326.78 283.81 6326.55C281.16 6317.94 267.75 6284.31 249.93 6282.79C232.56 6281.3 223.13 6312.24 220.11 6324.37C220.52 6324.42 220.92 6324.52 221.3 6324.66C226.67 6314.76 235.34 6303.64 247.1 6304.02Z" fill="white"/>
<path d="M242.8 6354.15C247.5 6346.58 272.45 6337.7 280.99 6334.83C280.86 6334.44 280.75 6334.05 280.7 6333.68C271.9 6331.67 236.04 6326.45 225.82 6341.09C215.84 6355.37 237.96 6378.99 246.96 6387.66C247.21 6387.34 247.5 6387.05 247.8 6386.77C241.91 6377.2 236.59 6364.14 242.8 6354.15Z" fill="white"/>
<path d="M3150.9 4997.43C3229.76 4976.29 3347.02 4923.72 3488.34 4878.31C3759.31 4791.24 3770.54 4770.04 3844.67 4772.58C4031.12 4778.97 4085.71 4917.38 4337 5038.61C4486.43 5110.7 4630.44 5140.55 4752 5151.52V5552.76H3160.22L3150.9 4977.76" fill="#875478"/>
<path d="M4753.86 5554.03C4180.2 5494.27 3769.78 5331.53 3503.2 5196.04C2697.5 4786.54 2427.28 4216.38 1964.05 4333.22C1707.57 4397.91 1561.04 4620.14 1139.28 4638.78C982.73 4645.7 913.93 4584.01 772.09 4626.05C595.55 4678.37 539.7 4798.14 303.51 4954.75C181.31 5035.78 71.71 5086.3 0 5115.82L0.31 5554.03H4753.86Z" fill="#463E6B"/>
<path d="M497.7 5505.8C625.95 5435.25 792.9 5344.28 989.46 5239.54C1393.83 5024.07 1488.63 4982.02 1615.41 5001.76C1777.55 5027 1791.29 5122.07 1971.78 5137C2174.7 5153.78 2209.76 5037.95 2372.1 5059.16C2609.68 5090.2 2643.87 5352.58 2864.72 5362.54C3014.41 5369.29 3030.19 5250.16 3195.14 5256.18C3361.03 5262.23 3409.38 5385.05 3644.92 5460.93C3759.08 5497.71 3860.7 5505.26 3929.26 5505.8C2785.41 5505.8 1641.55 5505.8 497.7 5505.8Z" fill="url(#paint0_linear_93_2)"/>
<path d="M2867.42 4778.44C2524.85 4614.67 2291.33 4617.63 2128.78 4655.54C1891.4 4710.89 1771.98 4829.26 1530.69 4805.98C1412.72 4794.6 1343.83 4759.86 1218.8 4787.63C1073.22 4819.97 1029.43 4899.98 920.37 4949.41C815.83 4996.79 646.89 5031.02 373.02 4906.14C415.76 4872.39 450.58 4831.66 472.3 4813.21C572.53 4728.1 605.26 4690.66 679.16 4652.55C689.8 4647.06 715.56 4634.2 750.38 4621.56C816.87 4597.42 872.5 4590 909.46 4586.16C997.54 4577.02 1041.58 4572.44 1147.75 4581.33C1396.9 4602.19 1781.74 4331.39 2070.29 4306.03C2250.7 4290.18 2507.93 4362.13 2867.42 4778.44Z" fill="url(#paint1_linear_93_2)"/>
<path opacity="0.6" d="M4416.75 5073.44C4393.74 5089.93 4357.19 5110.36 4310.69 5113.15C4216.93 5118.79 4184.3 5044.19 4104.42 5048.09C4009.38 5052.73 3993.85 5161.33 3918.03 5156.71C3828.51 5151.26 3814.64 4997.71 3704.94 4982.76C3647.56 4974.94 3628.09 5013.78 3564.3 5004.72C3497.06 4995.17 3453.3 4944.86 3422.32 4900.53C3519.92 4866.9 3593.53 4844.63 3647.28 4824.92C3750.01 4787.23 3785.25 4770.67 3844.67 4772.58C3912.36 4774.75 3964.9 4792.95 4019.51 4829.17C4115.84 4893.06 4117.9 4908.51 4230.52 4979.95C4293.56 5019.94 4379.8 5059.5 4416.75 5073.44Z" fill="url(#paint2_linear_93_2)"/>
<path opacity="0.53" d="M0 460.54C176.32 709.77 471.08 1044.06 924.95 1228.34C1496.36 1460.34 1804.49 1245.28 2664.95 1382.03C3487.19 1512.7 4135.94 1856.89 4114.64 1940.77C4098.63 2003.81 3712.18 1888.46 3085.79 1964.42C2706.92 2010.37 2032.07 2151.56 2016.44 2372.02C2011.08 2447.55 2081.43 2555.92 2406.45 2702.29C1604.29 2701 802.15 2699.7 0 2698.4C0 1952.45 0 1206.5 0 460.54Z" fill="url(#paint3_linear_93_2)"/>
<path opacity="0.43" d="M4752 2850.6C4597.72 2876.19 4362.63 2905.25 4076.68 2899.25C3304.95 2883.06 2852.24 2625.97 2791.71 2732.78C2733.99 2834.62 3080.1 3183.99 3464.29 3403.98C3959.78 3687.71 4455.27 3719.97 4752.01 3712.05C4752 3424.89 4752 3137.74 4752 2850.6Z" fill="url(#paint4_linear_93_2)"/>
<path d="M2087.89 70H4752C4752 315.99 4752 561.99 4752 807.98C4661.62 761.31 4522.97 696.69 4346.6 642.6C3809.42 477.85 3328.94 535.46 3320.38 459.13C3315.55 416.07 3467.57 390.15 3463.93 341.37C3458.45 267.96 3108.5 251.31 2658.81 180.62C2419.1 142.94 2222.59 101.14 2087.89 70Z" fill="url(#paint5_linear_93_2)"/>
<g opacity="0.7">
<path opacity="0.7" d="M4375.33 1186.38C4374.45 1183.8 4372.39 1178.85 4367.68 1174.31C4363.4 1170.18 4358.91 1168.29 4356.38 1167.43C4358.89 1166.59 4363.58 1164.66 4367.98 1160.3C4372.51 1155.82 4374.49 1151 4375.33 1148.47C4376.05 1150.95 4378 1156.42 4383.18 1161.19C4387.41 1165.09 4391.86 1166.72 4394.28 1167.42C4391.96 1167.94 4387.63 1169.25 4383.47 1172.81C4377.62 1177.83 4375.85 1184.11 4375.33 1186.38Z" fill="white"/>
<path opacity="0.7" d="M4411.35 1195.95C4411.13 1195.3 4410.61 1194.07 4409.44 1192.93C4408.37 1191.9 4407.25 1191.42 4406.61 1191.21C4407.24 1191 4408.41 1190.52 4409.51 1189.43C4410.64 1188.31 4411.14 1187.1 4411.35 1186.47C4411.53 1187.09 4412.02 1188.46 4413.31 1189.65C4414.37 1190.62 4415.48 1191.03 4416.09 1191.21C4415.51 1191.34 4414.43 1191.67 4413.39 1192.56C4411.92 1193.81 4411.48 1195.38 4411.35 1195.95Z" fill="white"/>
</g>
<path d="M1480.18 1235.58C1479.59 1233.83 1478.19 1230.48 1475 1227.4C1472.1 1224.61 1469.06 1223.32 1467.34 1222.74C1469.04 1222.17 1472.21 1220.86 1475.2 1217.91C1478.27 1214.87 1479.61 1211.61 1480.18 1209.9C1480.67 1211.58 1481.99 1215.29 1485.5 1218.51C1488.37 1221.15 1491.38 1222.26 1493.02 1222.73C1491.45 1223.08 1488.52 1223.97 1485.7 1226.38C1481.73 1229.79 1480.54 1234.04 1480.18 1235.58Z" fill="white"/>
<path d="M1504.58 1242.06C1504.43 1241.62 1504.08 1240.78 1503.28 1240.02C1502.56 1239.32 1501.79 1239 1501.37 1238.86C1501.8 1238.72 1502.59 1238.39 1503.33 1237.65C1504.1 1236.89 1504.43 1236.07 1504.57 1235.65C1504.69 1236.07 1505.02 1237 1505.9 1237.8C1506.62 1238.46 1507.37 1238.74 1507.78 1238.86C1507.39 1238.95 1506.65 1239.17 1505.95 1239.77C1504.97 1240.61 1504.67 1241.68 1504.58 1242.06Z" fill="white"/>
<g opacity="0.7">
<path opacity="0.7" d="M1603.48 1750.58C1601.9 1745.91 1598.16 1736.97 1589.65 1728.76C1581.92 1721.3 1573.79 1717.88 1569.22 1716.32C1573.76 1714.81 1582.23 1711.31 1590.19 1703.44C1598.38 1695.34 1601.96 1686.63 1603.48 1682.06C1604.78 1686.54 1608.31 1696.43 1617.67 1705.05C1625.32 1712.1 1633.35 1715.05 1637.74 1716.32C1633.55 1717.26 1625.72 1719.63 1618.21 1726.06C1607.62 1735.13 1604.43 1746.47 1603.48 1750.58Z" fill="#F79C87"/>
<path opacity="0.7" d="M1668.59 1767.88C1668.19 1766.71 1667.26 1764.48 1665.13 1762.42C1663.2 1760.56 1661.17 1759.7 1660.02 1759.31C1661.15 1758.93 1663.27 1758.06 1665.26 1756.09C1667.31 1754.06 1668.2 1751.89 1668.58 1750.75C1668.9 1751.87 1669.79 1754.34 1672.13 1756.5C1674.04 1758.26 1676.05 1759 1677.15 1759.32C1676.1 1759.56 1674.14 1760.15 1672.27 1761.76C1669.62 1764.02 1668.82 1766.85 1668.59 1767.88Z" fill="#F79C87"/>
</g>
<path opacity="0.7" d="M2593.98 2973.44C2592.52 2968.73 2589.02 2959.69 2580.73 2951.26C2573.2 2943.6 2565.17 2939.96 2560.63 2938.29C2565.21 2936.9 2573.77 2933.63 2581.93 2925.96C2590.33 2918.08 2594.14 2909.46 2595.78 2904.94C2596.96 2909.45 2600.23 2919.44 2609.36 2928.3C2616.82 2935.54 2624.78 2938.71 2629.13 2940.09C2624.92 2940.92 2617.02 2943.09 2609.35 2949.31C2598.53 2958.09 2595.04 2969.35 2593.98 2973.44Z" fill="#F79C87"/>
<path opacity="0.7" d="M2737.81 3029.71C2737.15 3028.67 2735.7 3026.73 2733.14 3025.24C2730.82 3023.89 2728.64 3023.55 2727.43 3023.45C2728.44 3022.81 2730.29 3021.45 2731.75 3019.06C2733.25 3016.6 2733.6 3014.27 2733.69 3013.07C2734.27 3014.08 2735.73 3016.27 2738.51 3017.8C2740.79 3019.05 2742.92 3019.28 2744.06 3019.33C2743.1 3019.81 2741.34 3020.86 2739.91 3022.87C2737.89 3025.71 2737.79 3028.65 2737.81 3029.71Z" fill="white"/>
<path d="M3284.75 1786.12L2803.78 1786.46" stroke="url(#paint6_linear_93_2)" stroke-width="5" stroke-miterlimit="10"/>
<path d="M3141.26 1743.55L2660.28 1743.9" stroke="url(#paint7_linear_93_2)" stroke-width="5" stroke-miterlimit="10"/>
<path d="M3874.19 4065.84L3393.22 4066.18" stroke="url(#paint8_linear_93_2)" stroke-width="4" stroke-miterlimit="10"/>
<path d="M4080.39 4092.19L3599.41 4092.53" stroke="url(#paint9_linear_93_2)" stroke-width="4" stroke-miterlimit="10"/>
<path d="M3353.92 1574.94C3355.52 1574.94 3356.82 1573.64 3356.82 1572.04C3356.82 1570.44 3355.52 1569.14 3353.92 1569.14C3352.32 1569.14 3351.02 1570.44 3351.02 1572.04C3351.02 1573.64 3352.32 1574.94 3353.92 1574.94Z" fill="#FBA922"/>
<path d="M3326.27 1616.39C3332.38 1616.39 3337.33 1611.44 3337.33 1605.33C3337.33 1599.22 3332.38 1594.27 3326.27 1594.27C3320.16 1594.27 3315.21 1599.22 3315.21 1605.33C3315.21 1611.44 3320.16 1616.39 3326.27 1616.39Z" fill="#FBA922"/>
<path d="M3359.78 1599.05C3359.44 1598.57 3358.72 1597.68 3357.48 1597.03C3356.35 1596.44 3355.32 1596.32 3354.74 1596.3C3355.21 1595.98 3356.05 1595.3 3356.69 1594.14C3357.35 1592.95 3357.47 1591.84 3357.49 1591.27C3357.79 1591.74 3358.52 1592.74 3359.87 1593.41C3360.97 1593.96 3361.99 1594.02 3362.53 1594.02C3362.09 1594.27 3361.27 1594.8 3360.64 1595.78C3359.74 1597.16 3359.75 1598.55 3359.78 1599.05Z" fill="#FBA922"/>
<g opacity="0.7">
<path opacity="0.7" d="M3251.65 1582.92C3259.07 1582.92 3265.09 1576.9 3265.09 1569.48C3265.09 1562.06 3259.07 1556.04 3251.65 1556.04C3244.23 1556.04 3238.21 1562.06 3238.21 1569.48C3238.21 1576.9 3244.23 1582.92 3251.65 1582.92Z" fill="#F79C87"/>
<path opacity="0.7" d="M3292.79 1589.02C3294.68 1589.02 3296.22 1587.48 3296.22 1585.59C3296.22 1583.7 3294.68 1582.16 3292.79 1582.16C3290.9 1582.16 3289.36 1583.7 3289.36 1585.59C3289.36 1587.48 3290.9 1589.02 3292.79 1589.02Z" fill="#F79C87"/>
</g>
<path d="M4650.47 1813.62C4405.76 1885.41 4147.6 1967.77 4152.21 1997.43C4157.32 2030.23 4480.71 1978.57 4483.42 2000.43C4484.93 2012.62 4386.61 2047.14 3951.75 2144.7" stroke="url(#paint10_linear_93_2)" stroke-width="4" stroke-miterlimit="10"/>
<path d="M3905.43 2153.06L3803.81 2173.32" stroke="url(#paint11_linear_93_2)" stroke-width="4" stroke-miterlimit="10"/>
<path d="M2717.13 2767.39C3167.32 2678.62 3367.29 2645.44 3370.48 2655.85C3373.44 2665.49 3177.3 2713.13 3180.36 2723.42C3184.23 2736.46 3504.33 2678.41 3783.74 2625.41" stroke="url(#paint12_linear_93_2)" stroke-width="4" stroke-miterlimit="10"/>
<path d="M3660.25 4442.65C4054.54 4434.26 4224.01 4434.06 4226.1 4439.86C4228.61 4446.81 3989.33 4459.54 3991.87 4466.23C3993.83 4471.39 4138.44 4470.22 4378.15 4464.69" stroke="url(#paint13_linear_93_2)" stroke-width="4" stroke-miterlimit="10"/>
<path opacity="0.7" d="M1197.11 891.94C1199.73 891.94 1201.85 889.818 1201.85 887.2C1201.85 884.582 1199.73 882.46 1197.11 882.46C1194.49 882.46 1192.37 884.582 1192.37 887.2C1192.37 889.818 1194.49 891.94 1197.11 891.94Z" fill="#361A58"/>
<path opacity="0.9" d="M1935.71 1413.6C1939.45 1413.6 1942.48 1410.57 1942.48 1406.83C1942.48 1403.09 1939.45 1400.06 1935.71 1400.06C1931.97 1400.06 1928.94 1403.09 1928.94 1406.83C1928.94 1410.57 1931.97 1413.6 1935.71 1413.6Z" fill="#A3A5A8"/>
<path d="M659.62 1346.18C668.153 1346.18 675.07 1339.26 675.07 1330.73C675.07 1322.2 668.153 1315.28 659.62 1315.28C651.087 1315.28 644.17 1322.2 644.17 1330.73C644.17 1339.26 651.087 1346.18 659.62 1346.18Z" fill="#FBA922"/>
<path opacity="0.7" d="M2179.79 1346.84C2185.15 1346.84 2189.5 1342.49 2189.5 1337.13C2189.5 1331.77 2185.15 1327.42 2179.79 1327.42C2174.43 1327.42 2170.08 1331.77 2170.08 1337.13C2170.08 1342.49 2174.43 1346.84 2179.79 1346.84Z" fill="#F79C87"/>
<path opacity="0.7" d="M2013.15 1387.29C2015.83 1387.29 2018 1385.12 2018 1382.44C2018 1379.76 2015.83 1377.59 2013.15 1377.59C2010.47 1377.59 2008.3 1379.76 2008.3 1382.44C2008.3 1385.12 2010.47 1387.29 2013.15 1387.29Z" fill="#361A58"/>
<path opacity="0.7" d="M2027.01 1450.26C2033.43 1450.26 2038.63 1445.06 2038.63 1438.64C2038.63 1432.22 2033.43 1427.02 2027.01 1427.02C2020.59 1427.02 2015.39 1432.22 2015.39 1438.64C2015.39 1445.06 2020.59 1450.26 2027.01 1450.26Z" fill="#F79C87"/>
<path opacity="0.7" d="M4224.09 675.5C4231.32 675.5 4237.18 669.639 4237.18 662.41C4237.18 655.181 4231.32 649.32 4224.09 649.32C4216.86 649.32 4211 655.181 4211 662.41C4211 669.639 4216.86 675.5 4224.09 675.5Z" fill="#FFD89E"/>
<path opacity="0.7" d="M4255.03 633.58C4258.14 633.58 4260.67 631.055 4260.67 627.94C4260.67 624.825 4258.14 622.3 4255.03 622.3C4251.91 622.3 4249.39 624.825 4249.39 627.94C4249.39 631.055 4251.91 633.58 4255.03 633.58Z" fill="#AE5F6C"/>
<path opacity="0.7" d="M4306.47 672.84C4309.71 672.84 4312.34 670.212 4312.34 666.97C4312.34 663.728 4309.71 661.1 4306.47 661.1C4303.23 661.1 4300.6 663.728 4300.6 666.97C4300.6 670.212 4303.23 672.84 4306.47 672.84Z" fill="#DF7A8A"/>
<path opacity="0.7" d="M4458.22 663C4462.21 663 4465.44 659.768 4465.44 655.78C4465.44 651.793 4462.21 648.56 4458.22 648.56C4454.23 648.56 4451 651.793 4451 655.78C4451 659.768 4454.23 663 4458.22 663Z" fill="#DF7A8A"/>
<path opacity="0.7" d="M4262.22 4271.42C4266.71 4271.42 4270.35 4267.78 4270.35 4263.29C4270.35 4258.8 4266.71 4255.16 4262.22 4255.16C4257.73 4255.16 4254.09 4258.8 4254.09 4263.29C4254.09 4267.78 4257.73 4271.42 4262.22 4271.42Z" fill="#DF7A8A"/>
<path opacity="0.7" d="M4077.05 4286.12C4079.29 4286.12 4081.11 4284.3 4081.11 4282.06C4081.11 4279.82 4079.29 4278 4077.05 4278C4074.81 4278 4072.99 4279.82 4072.99 4282.06C4072.99 4284.3 4074.81 4286.12 4077.05 4286.12Z" fill="#DF7A8A"/>
<path opacity="0.7" d="M4114.7 4346.83C4120.43 4346.83 4125.08 4342.18 4125.08 4336.45C4125.08 4330.72 4120.43 4326.07 4114.7 4326.07C4108.97 4326.07 4104.32 4330.72 4104.32 4336.45C4104.32 4342.18 4108.97 4346.83 4114.7 4346.83Z" fill="#F79C87"/>
<path opacity="0.7" d="M4500.95 645.89C4504.94 645.89 4508.17 642.657 4508.17 638.67C4508.17 634.682 4504.94 631.45 4500.95 631.45C4496.96 631.45 4493.73 634.682 4493.73 638.67C4493.73 642.657 4496.96 645.89 4500.95 645.89Z" fill="#FFD89E"/>
<path opacity="0.7" d="M4542.79 605.75C4548.77 605.75 4553.62 600.901 4553.62 594.92C4553.62 588.939 4548.77 584.09 4542.79 584.09C4536.81 584.09 4531.96 588.939 4531.96 594.92C4531.96 600.901 4536.81 605.75 4542.79 605.75Z" fill="#FFD89E"/>
<path opacity="0.7" d="M4385.18 660.97C4388.05 660.97 4390.37 658.646 4390.37 655.78C4390.37 652.914 4388.05 650.59 4385.18 650.59C4382.31 650.59 4379.99 652.914 4379.99 655.78C4379.99 658.646 4382.31 660.97 4385.18 660.97Z" fill="#FFD89E"/>
<path opacity="0.7" d="M4118.67 692.62C4121.54 692.62 4123.86 690.296 4123.86 687.43C4123.86 684.564 4121.54 682.24 4118.67 682.24C4115.8 682.24 4113.48 684.564 4113.48 687.43C4113.48 690.296 4115.8 692.62 4118.67 692.62Z" fill="#FFD89E"/>
<path opacity="0.7" d="M4371.63 618.34C4379.11 618.34 4385.17 612.278 4385.17 604.8C4385.17 597.322 4379.11 591.26 4371.63 591.26C4364.15 591.26 4358.09 597.322 4358.09 604.8C4358.09 612.278 4364.15 618.34 4371.63 618.34Z" fill="#811C64"/>
<path d="M4212.68 714.39C4217.92 714.39 4222.16 710.146 4222.16 704.91C4222.16 699.674 4217.92 695.43 4212.68 695.43C4207.44 695.43 4203.2 699.674 4203.2 704.91C4203.2 710.146 4207.44 714.39 4212.68 714.39Z" fill="#FBA922"/>
<g opacity="0.7">
<path opacity="0.7" d="M4366.57 4580.48C4365.68 4578.86 4363.71 4575.81 4360.04 4573.34C4356.7 4571.1 4353.48 4570.37 4351.69 4570.09C4353.26 4569.23 4356.16 4567.39 4358.58 4563.96C4361.07 4560.43 4361.82 4556.98 4362.08 4555.2C4362.85 4556.77 4364.81 4560.18 4368.82 4562.75C4372.1 4564.85 4375.26 4565.41 4376.96 4565.59C4375.48 4566.21 4372.74 4567.6 4370.39 4570.47C4367.08 4574.51 4366.65 4578.9 4366.57 4580.48Z" fill="white"/>
<path opacity="0.7" d="M4391.73 4582.58C4391.51 4582.18 4391.02 4581.41 4390.1 4580.79C4389.26 4580.23 4388.46 4580.05 4388.01 4579.98C4388.4 4579.77 4389.13 4579.3 4389.73 4578.45C4390.35 4577.57 4390.54 4576.71 4390.6 4576.26C4390.79 4576.65 4391.28 4577.51 4392.29 4578.15C4393.11 4578.67 4393.9 4578.82 4394.33 4578.86C4393.96 4579.02 4393.28 4579.36 4392.69 4580.08C4391.85 4581.09 4391.75 4582.19 4391.73 4582.58Z" fill="white"/>
</g>
<path opacity="0.7" d="M4327.17 4423.52C4332.41 4423.52 4336.65 4419.28 4336.65 4414.04C4336.65 4408.8 4332.41 4404.56 4327.17 4404.56C4321.93 4404.56 4317.69 4408.8 4317.69 4414.04C4317.69 4419.28 4321.93 4423.52 4327.17 4423.52Z" fill="#811C64"/>
<path opacity="0.7" d="M3912.62 4241.14C3917.86 4241.14 3922.1 4236.9 3922.1 4231.66C3922.1 4226.42 3917.86 4222.18 3912.62 4222.18C3907.38 4222.18 3903.14 4226.42 3903.14 4231.66C3903.14 4236.9 3907.38 4241.14 3912.62 4241.14Z" fill="#811C64"/>
<path opacity="0.7" d="M4477.26 4493.4C4482.62 4493.4 4486.97 4489.05 4486.97 4483.69C4486.97 4478.33 4482.62 4473.98 4477.26 4473.98C4471.9 4473.98 4467.55 4478.33 4467.55 4483.69C4467.55 4489.05 4471.9 4493.4 4477.26 4493.4Z" fill="#FFD89E"/>
<path opacity="0.7" d="M4176.69 4328.14C4179.37 4328.14 4181.54 4325.97 4181.54 4323.29C4181.54 4320.61 4179.37 4318.44 4176.69 4318.44C4174.01 4318.44 4171.84 4320.61 4171.84 4323.29C4171.84 4325.97 4174.01 4328.14 4176.69 4328.14Z" fill="#F79C87"/>
<path opacity="0.9" d="M4176.69 4264.17C4185.66 4264.17 4192.94 4256.89 4192.94 4247.92C4192.94 4238.95 4185.66 4231.67 4176.69 4231.67C4167.72 4231.67 4160.44 4238.95 4160.44 4247.92C4160.44 4256.89 4167.72 4264.17 4176.69 4264.17Z" fill="#BABCBE"/>
<path opacity="0.7" d="M3997.78 4323.3C4001.4 4323.3 4004.33 4320.37 4004.33 4316.75C4004.33 4313.13 4001.4 4310.2 3997.78 4310.2C3994.16 4310.2 3991.23 4313.13 3991.23 4316.75C3991.23 4320.37 3994.16 4323.3 3997.78 4323.3Z" fill="#F79C87"/>
<path opacity="0.7" d="M607.72 1399.08C611.741 1399.08 615 1395.82 615 1391.8C615 1387.78 611.741 1384.52 607.72 1384.52C603.699 1384.52 600.44 1387.78 600.44 1391.8C600.44 1395.82 603.699 1399.08 607.72 1399.08Z" fill="#AF6B72"/>
<path d="M3104.88 4005.99C3110.25 3992.63 3158.26 3878.45 3275.35 3850.2C3333.98 3836.06 3383.65 3849.8 3407.73 3858.44C3414.26 3844.02 3468.13 3729.8 3585.2 3704.79C3701.53 3679.94 3832.25 3753.4 3887.7 3888.05C3892.6 3885.64 3971.68 3848.54 4046.6 3896.59C4115.52 3940.79 4121.93 4019.21 4122.45 4027.22H4368.72" fill="url(#paint14_linear_93_2)"/>
<path d="M4209.46 4065.84H4318.66" stroke="url(#paint15_linear_93_2)" stroke-width="4" stroke-miterlimit="10"/>
<path d="M2632.88 4306.97C2638.35 4293.61 2687.23 4179.43 2806.45 4151.18C2866.15 4137.04 2916.73 4150.78 2941.24 4159.42C2947.89 4145 3002.74 4030.78 3121.94 4005.77C3240.38 3980.92 3373.49 4054.38 3429.95 4189.03C3434.94 4186.62 3515.46 4149.52 3591.75 4197.57C3661.93 4241.77 3668.46 4320.19 3668.98 4328.2" fill="url(#paint16_linear_93_2)"/>
<path d="M3508.95 3226.19C3636.3 3212.07 3664.24 3214.68 3665.22 3219.95C3667.91 3234.51 3466.9 3279.4 3470.07 3296.64C3472.74 3311.14 3617.48 3293.05 3619.43 3305.81C3620.26 3311.21 3595.12 3319.9 3564.19 3328.56" stroke="url(#paint17_linear_93_2)" stroke-width="4" stroke-miterlimit="10" stroke-linecap="round"/>
<g opacity="0.6">
<g opacity="0.6">
<path opacity="0.6" d="M1951.98 275.05C1952.81 280.26 1953.23 285.47 1953.55 290.67C1953.84 295.88 1953.98 301.09 1953.98 306.29C1953.98 311.5 1953.85 316.71 1953.55 321.91C1953.23 327.12 1952.82 332.33 1951.98 337.53C1951.14 332.32 1950.72 327.11 1950.41 321.91C1950.12 316.7 1949.98 311.49 1949.98 306.29C1949.98 301.08 1950.12 295.87 1950.41 290.67C1950.73 285.47 1951.15 280.26 1951.98 275.05Z" fill="#A9ABAE"/>
</g>
<g opacity="0.6">
<path opacity="0.6" d="M1974.14 306.3C1970.45 307.13 1966.75 307.56 1963.06 307.87C1959.37 308.16 1955.67 308.3 1951.98 308.3C1948.29 308.3 1944.59 308.17 1940.9 307.87C1937.21 307.56 1933.51 307.13 1929.82 306.3C1933.51 305.47 1937.21 305.04 1940.9 304.73C1944.59 304.44 1948.29 304.3 1951.98 304.3C1955.67 304.3 1959.37 304.44 1963.06 304.73C1966.76 305.04 1970.45 305.47 1974.14 306.3Z" fill="#A9ABAE"/>
</g>
</g>
<g opacity="0.6">
<g opacity="0.6">
<path opacity="0.6" d="M2026.91 315.27C2027.74 324.87 2028.17 334.47 2028.46 344.07C2028.64 348.87 2028.69 353.67 2028.79 358.47L2028.9 372.87L2028.79 387.27C2028.68 392.07 2028.64 396.87 2028.46 401.67C2028.17 411.27 2027.73 420.87 2026.9 430.47C2026.07 420.87 2025.63 411.27 2025.34 401.67C2025.15 396.87 2025.12 392.07 2025.01 387.27L2024.9 372.87L2025.01 358.47C2025.12 353.67 2025.16 348.87 2025.34 344.07C2025.65 334.47 2026.08 324.87 2026.91 315.27Z" fill="#A9ABAE"/>
</g>
<g opacity="0.6">
<path opacity="0.6" d="M2067.76 372.87C2060.95 373.7 2054.14 374.13 2047.33 374.42C2040.52 374.71 2033.71 374.87 2026.9 374.86C2020.09 374.87 2013.28 374.71 2006.47 374.42C1999.66 374.13 1992.85 373.69 1986.04 372.86C1992.85 372.03 1999.66 371.59 2006.47 371.3C2013.28 371.01 2020.09 370.85 2026.9 370.86C2033.71 370.86 2040.52 371.01 2047.33 371.3C2054.14 371.61 2060.95 372.05 2067.76 372.87Z" fill="#A9ABAE"/>
</g>
</g>
<path d="M2034.42 1887.03C2035.25 1891.7 2035.67 1896.37 2035.99 1901.05C2036.28 1905.72 2036.42 1910.39 2036.42 1915.07C2036.42 1919.74 2036.29 1924.41 2035.99 1929.09C2035.67 1933.76 2035.26 1938.43 2034.42 1943.11C2033.58 1938.44 2033.16 1933.77 2032.85 1929.09C2032.56 1924.42 2032.42 1919.75 2032.42 1915.07C2032.42 1910.4 2032.56 1905.73 2032.85 1901.05C2033.17 1896.38 2033.58 1891.71 2034.42 1887.03Z" fill="#A9ABAE"/>
<path d="M2054.3 1915.07C2050.99 1915.9 2047.67 1916.33 2044.36 1916.64C2041.05 1916.93 2037.73 1917.07 2034.42 1917.07C2031.11 1917.07 2027.79 1916.94 2024.48 1916.64C2021.17 1916.33 2017.85 1915.9 2014.54 1915.07C2017.85 1914.24 2021.17 1913.81 2024.48 1913.5C2027.79 1913.21 2031.11 1913.07 2034.42 1913.07C2037.73 1913.07 2041.05 1913.21 2044.36 1913.5C2047.67 1913.81 2050.98 1914.24 2054.3 1915.07Z" fill="#A9ABAE"/>
<path d="M2170.24 2062.68C2171.07 2068.99 2171.5 2075.3 2171.79 2081.61C2172.08 2087.92 2172.24 2094.23 2172.23 2100.54C2172.24 2106.85 2172.08 2113.16 2171.79 2119.47C2171.5 2125.78 2171.06 2132.09 2170.23 2138.4C2169.4 2132.09 2168.96 2125.78 2168.67 2119.47C2168.38 2113.16 2168.22 2106.85 2168.23 2100.54C2168.23 2094.23 2168.38 2087.92 2168.67 2081.61C2168.98 2075.3 2169.41 2068.99 2170.24 2062.68Z" fill="#A9ABAE"/>
<path d="M2197.09 2100.53C2192.62 2101.36 2188.14 2101.78 2183.67 2102.1C2179.2 2102.39 2174.72 2102.53 2170.25 2102.53C2165.78 2102.53 2161.3 2102.4 2156.83 2102.1C2152.36 2101.78 2147.88 2101.37 2143.41 2100.53C2147.88 2099.69 2152.36 2099.27 2156.83 2098.96C2161.3 2098.67 2165.78 2098.53 2170.25 2098.53C2174.72 2098.53 2179.2 2098.67 2183.67 2098.96C2188.14 2099.29 2192.61 2099.7 2197.09 2100.53Z" fill="#A9ABAE"/>
<path d="M2088.53 2118.38C2089.36 2130.01 2089.79 2141.64 2090.08 2153.27C2090.26 2159.09 2090.31 2164.9 2090.41 2170.72L2090.52 2188.17L2090.42 2205.62C2090.31 2211.44 2090.27 2217.25 2090.09 2223.07C2089.8 2234.7 2089.36 2246.33 2088.53 2257.96C2087.7 2246.33 2087.26 2234.7 2086.97 2223.07C2086.78 2217.25 2086.75 2211.44 2086.64 2205.62L2086.54 2188.17L2086.65 2170.72C2086.76 2164.9 2086.8 2159.09 2086.98 2153.27C2087.27 2141.64 2087.7 2130.01 2088.53 2118.38Z" fill="#A9ABAE"/>
<path d="M2138.02 2188.16C2129.77 2188.99 2121.52 2189.42 2113.27 2189.71C2109.15 2189.89 2105.02 2189.94 2100.9 2190.04L2088.53 2190.15L2076.16 2190.05C2072.04 2189.94 2067.91 2189.9 2063.79 2189.72C2055.54 2189.43 2047.29 2188.99 2039.04 2188.16C2047.29 2187.33 2055.54 2186.89 2063.79 2186.6C2067.91 2186.41 2072.04 2186.38 2076.16 2186.27L2088.53 2186.17L2100.9 2186.28C2105.02 2186.39 2109.15 2186.43 2113.27 2186.61C2121.52 2186.9 2129.77 2187.33 2138.02 2188.16Z" fill="#A9ABAE"/>
<path d="M4387.3 2636.38C4388.13 2648.01 4388.56 2659.64 4388.85 2671.27C4389.03 2677.09 4389.08 2682.9 4389.18 2688.72L4389.29 2706.17L4389.19 2723.62C4389.08 2729.44 4389.04 2735.25 4388.86 2741.07C4388.57 2752.7 4388.13 2764.33 4387.3 2775.96C4386.47 2764.33 4386.03 2752.7 4385.74 2741.07C4385.55 2735.25 4385.52 2729.44 4385.41 2723.62L4385.31 2706.17L4385.42 2688.72C4385.53 2682.9 4385.57 2677.09 4385.75 2671.27C4386.04 2659.64 4386.48 2648.01 4387.3 2636.38Z" fill="#A9ABAE"/>
<path d="M4436.8 2706.16C4428.55 2706.99 4420.3 2707.42 4412.05 2707.71C4407.93 2707.89 4403.8 2707.94 4399.68 2708.04L4387.31 2708.15L4374.94 2708.05C4370.82 2707.94 4366.69 2707.9 4362.57 2707.72C4354.32 2707.43 4346.07 2706.99 4337.82 2706.16C4346.07 2705.33 4354.32 2704.89 4362.57 2704.6C4366.69 2704.41 4370.82 2704.38 4374.94 2704.27L4387.31 2704.17L4399.68 2704.28C4403.8 2704.39 4407.93 2704.43 4412.05 2704.61C4420.3 2704.9 4428.55 2705.34 4436.8 2706.16Z" fill="#A9ABAE"/>
<path opacity="0.9" d="M1997.6 2068.57C2000.85 2068.57 2003.49 2065.93 2003.49 2062.68C2003.49 2059.43 2000.85 2056.79 1997.6 2056.79C1994.35 2056.79 1991.71 2059.43 1991.71 2062.68C1991.71 2065.93 1994.35 2068.57 1997.6 2068.57Z" fill="#FFD89E"/>
<path opacity="0.9" d="M2034.22 2086.67C2034.63 2087.78 2035.57 2089.91 2037.66 2091.84C2039.56 2093.59 2041.53 2094.37 2042.64 2094.71C2041.56 2095.1 2039.54 2095.99 2037.67 2097.92C2035.75 2099.91 2034.94 2102.03 2034.6 2103.13C2034.26 2102.06 2033.36 2099.7 2031.06 2097.68C2029.18 2096.03 2027.24 2095.36 2026.17 2095.08C2027.17 2094.83 2029.04 2094.22 2030.81 2092.63C2033.32 2090.41 2034.02 2087.66 2034.22 2086.67Z" fill="white"/>
<g opacity="0.7">
<path opacity="0.7" d="M3904.01 2585.24C3903.13 2582.66 3901.07 2577.71 3896.36 2573.17C3892.08 2569.04 3887.59 2567.15 3885.06 2566.29C3887.57 2565.45 3892.26 2563.52 3896.66 2559.16C3901.19 2554.68 3903.17 2549.86 3904.01 2547.33C3904.73 2549.81 3906.68 2555.28 3911.86 2560.05C3916.09 2563.95 3920.54 2565.58 3922.96 2566.28C3920.64 2566.8 3916.31 2568.11 3912.15 2571.67C3906.3 2576.68 3904.53 2582.96 3904.01 2585.24Z" fill="#FFD89E"/>
<path opacity="0.7" d="M3940.03 2594.81C3939.81 2594.16 3939.29 2592.93 3938.12 2591.79C3937.05 2590.76 3935.93 2590.28 3935.29 2590.07C3935.92 2589.86 3937.09 2589.38 3938.19 2588.29C3939.32 2587.17 3939.82 2585.96 3940.03 2585.33C3940.21 2585.95 3940.7 2587.32 3941.99 2588.51C3943.05 2589.48 3944.16 2589.89 3944.77 2590.07C3944.19 2590.2 3943.11 2590.53 3942.07 2591.42C3940.6 2592.67 3940.16 2594.24 3940.03 2594.81Z" fill="#FFD89E"/>
</g>
<path opacity="0.9" d="M4540.91 2375.12C4545.85 2375.12 4549.85 2371.12 4549.85 2366.18C4549.85 2361.24 4545.85 2357.24 4540.91 2357.24C4535.97 2357.24 4531.97 2361.24 4531.97 2366.18C4531.97 2371.12 4535.97 2375.12 4540.91 2375.12Z" fill="#E28EBC"/>
<path opacity="0.7" d="M4520.15 2329.12C4522.71 2329.12 4524.79 2327.04 4524.79 2324.48C4524.79 2321.92 4522.71 2319.84 4520.15 2319.84C4517.59 2319.84 4515.51 2321.92 4515.51 2324.48C4515.51 2327.04 4517.59 2329.12 4520.15 2329.12Z" fill="#2C0C5C"/>
<path opacity="0.7" d="M4539.21 2312.03C4542.49 2312.03 4545.15 2309.37 4545.15 2306.09C4545.15 2302.81 4542.49 2300.15 4539.21 2300.15C4535.93 2300.15 4533.27 2302.81 4533.27 2306.09C4533.27 2309.37 4535.93 2312.03 4539.21 2312.03Z" fill="white"/>
<path d="M4628.59 2336.13C4631.98 2336.13 4634.73 2333.38 4634.73 2329.99C4634.73 2326.6 4631.98 2323.85 4628.59 2323.85C4625.2 2323.85 4622.45 2326.6 4622.45 2329.99C4622.45 2333.38 4625.2 2336.13 4628.59 2336.13Z" fill="#FBA922"/>
<path opacity="0.7" d="M4566.08 2428.7C4568.92 2428.7 4571.23 2426.39 4571.23 2423.55C4571.23 2420.71 4568.92 2418.4 4566.08 2418.4C4563.24 2418.4 4560.93 2420.71 4560.93 2423.55C4560.93 2426.39 4563.24 2428.7 4566.08 2428.7Z" fill="#F79C87"/>
<path d="M4477.42 2446.88C4480.34 2446.88 4482.71 2444.51 4482.71 2441.59C4482.71 2438.67 4480.34 2436.3 4477.42 2436.3C4474.5 2436.3 4472.13 2438.67 4472.13 2441.59C4472.13 2444.51 4474.5 2446.88 4477.42 2446.88Z" fill="#FBA922"/>
<path opacity="0.7" d="M4368.74 2331.84C4370.05 2331.84 4371.12 2330.77 4371.12 2329.46C4371.12 2328.15 4370.05 2327.08 4368.74 2327.08C4367.43 2327.08 4366.36 2328.15 4366.36 2329.46C4366.36 2330.77 4367.43 2331.84 4368.74 2331.84Z" fill="#2C0C5C"/>
<path d="M4334.82 2336.32C4338.54 2336.32 4341.56 2333.3 4341.56 2329.58C4341.56 2325.86 4338.54 2322.84 4334.82 2322.84C4331.1 2322.84 4328.08 2325.86 4328.08 2329.58C4328.08 2333.3 4331.1 2336.32 4334.82 2336.32Z" fill="#FBA922"/>
<path d="M4378.98 2244.84C4391.17 2244.84 4401.05 2234.96 4401.05 2222.77C4401.05 2210.58 4391.17 2200.7 4378.98 2200.7C4366.79 2200.7 4356.91 2210.58 4356.91 2222.77C4356.91 2234.96 4366.79 2244.84 4378.98 2244.84Z" fill="#FBA922"/>
<path opacity="0.7" d="M4493.31 2216.92C4495.17 2216.92 4496.68 2215.41 4496.68 2213.55C4496.68 2211.69 4495.17 2210.18 4493.31 2210.18C4491.45 2210.18 4489.94 2211.69 4489.94 2213.55C4489.94 2215.41 4491.45 2216.92 4493.31 2216.92Z" fill="#2C0C5C"/>
<path opacity="0.7" d="M4502.23 2255C4507.54 2255 4511.84 2250.7 4511.84 2245.39C4511.84 2240.08 4507.54 2235.78 4502.23 2235.78C4496.92 2235.78 4492.62 2240.08 4492.62 2245.39C4492.62 2250.7 4496.92 2255 4502.23 2255Z" fill="#F79C87"/>
<path opacity="0.7" d="M4516.38 2149.41C4517.42 2149.41 4518.26 2148.57 4518.26 2147.53C4518.26 2146.49 4517.42 2145.65 4516.38 2145.65C4515.34 2145.65 4514.5 2146.49 4514.5 2147.53C4514.5 2148.57 4515.34 2149.41 4516.38 2149.41Z" fill="#2C0C5C"/>
<path opacity="0.9" d="M4187.94 2412.13C4190.02 2412.13 4191.7 2410.45 4191.7 2408.37C4191.7 2406.29 4190.02 2404.61 4187.94 2404.61C4185.86 2404.61 4184.18 2406.29 4184.18 2408.37C4184.18 2410.45 4185.86 2412.13 4187.94 2412.13Z" fill="#E28EBC"/>
<path opacity="0.9" d="M4267.26 2436.63C4270.54 2436.63 4273.2 2433.97 4273.2 2430.69C4273.2 2427.41 4270.54 2424.75 4267.26 2424.75C4263.98 2424.75 4261.32 2427.41 4261.32 2430.69C4261.32 2433.97 4263.98 2436.63 4267.26 2436.63Z" fill="black"/>
<path opacity="0.7" d="M4291.8 2473.42C4297.65 2473.42 4302.4 2468.67 4302.4 2462.82C4302.4 2456.97 4297.65 2452.22 4291.8 2452.22C4285.95 2452.22 4281.2 2456.97 4281.2 2462.82C4281.2 2468.67 4285.95 2473.42 4291.8 2473.42Z" fill="#E4ACCE"/>
<path opacity="0.7" d="M4208.12 2537.78C4211.51 2537.78 4214.26 2535.03 4214.26 2531.64C4214.26 2528.25 4211.51 2525.5 4208.12 2525.5C4204.73 2525.5 4201.98 2528.25 4201.98 2531.64C4201.98 2535.03 4204.73 2537.78 4208.12 2537.78Z" fill="#2C0C5C"/>
<path opacity="0.7" d="M4161.54 2505.44C4163.46 2505.44 4165.01 2503.89 4165.01 2501.97C4165.01 2500.05 4163.46 2498.5 4161.54 2498.5C4159.62 2498.5 4158.07 2500.05 4158.07 2501.97C4158.07 2503.89 4159.62 2505.44 4161.54 2505.44Z" fill="#FFD89E"/>
<path opacity="0.9" d="M4092.34 2509.4C4094.53 2509.4 4096.3 2507.63 4096.3 2505.44C4096.3 2503.25 4094.53 2501.48 4092.34 2501.48C4090.15 2501.48 4088.38 2503.25 4088.38 2505.44C4088.38 2507.63 4090.15 2509.4 4092.34 2509.4Z" fill="black"/>
<path opacity="0.7" d="M4571.23 2239.24C4570.85 2238.12 4569.95 2235.97 4567.91 2233.99C4566.05 2232.2 4564.1 2231.37 4563 2231C4564.09 2230.64 4566.13 2229.8 4568.04 2227.9C4570.01 2225.95 4570.87 2223.86 4571.23 2222.76C4571.54 2223.84 4572.39 2226.21 4574.64 2228.29C4576.48 2229.98 4578.41 2230.69 4579.46 2231C4578.45 2231.23 4576.57 2231.8 4574.77 2233.34C4572.23 2235.52 4571.46 2238.25 4571.23 2239.24Z" fill="white"/>
<path opacity="0.7" d="M4302.4 2426.63C4302.02 2425.51 4301.12 2423.36 4299.08 2421.38C4297.22 2419.59 4295.27 2418.76 4294.17 2418.39C4295.26 2418.03 4297.3 2417.19 4299.21 2415.29C4301.18 2413.34 4302.04 2411.25 4302.4 2410.15C4302.71 2411.23 4303.56 2413.6 4305.81 2415.68C4307.65 2417.37 4309.58 2418.08 4310.63 2418.39C4309.62 2418.62 4307.74 2419.19 4305.94 2420.73C4303.4 2422.92 4302.63 2425.64 4302.4 2426.63Z" fill="white"/>
<path opacity="0.9" d="M4032.52 4279.3C4034.38 4279.3 4035.89 4277.79 4035.89 4275.93C4035.89 4274.07 4034.38 4272.56 4032.52 4272.56C4030.66 4272.56 4029.15 4274.07 4029.15 4275.93C4029.15 4277.79 4030.66 4279.3 4032.52 4279.3Z" fill="#361A58"/>
<path opacity="0.9" d="M2468.44 1558.42C2471.69 1558.42 2474.33 1555.78 2474.33 1552.53C2474.33 1549.28 2471.69 1546.64 2468.44 1546.64C2465.19 1546.64 2462.55 1549.28 2462.55 1552.53C2462.55 1555.78 2465.19 1558.42 2468.44 1558.42Z" fill="#FFD89E"/>
<path opacity="0.9" d="M2420.7 1629.91C2433.1 1629.91 2443.15 1619.86 2443.15 1607.46C2443.15 1595.06 2433.1 1585.01 2420.7 1585.01C2408.3 1585.01 2398.25 1595.06 2398.25 1607.46C2398.25 1619.86 2408.3 1629.91 2420.7 1629.91Z" fill="#4D317B"/>
<path opacity="0.9" d="M2489.58 1614.39C2489.2 1613.27 2488.3 1611.12 2486.26 1609.14C2484.4 1607.35 2482.45 1606.52 2481.35 1606.15C2482.44 1605.79 2484.48 1604.95 2486.39 1603.05C2488.36 1601.1 2489.22 1599.01 2489.58 1597.91C2489.89 1598.99 2490.74 1601.36 2492.99 1603.44C2494.83 1605.13 2496.76 1605.84 2497.81 1606.15C2496.8 1606.38 2494.92 1606.95 2493.11 1608.49C2490.58 1610.67 2489.81 1613.4 2489.58 1614.39Z" fill="white" stroke="white" stroke-width="0.4" stroke-miterlimit="10"/>
<path d="M2236.24 1679.21C2244.77 1679.21 2251.69 1672.29 2251.69 1663.76C2251.69 1655.23 2244.77 1648.31 2236.24 1648.31C2227.71 1648.31 2220.79 1655.23 2220.79 1663.76C2220.79 1672.29 2227.71 1679.21 2236.24 1679.21Z" fill="#FBA922"/>
<path opacity="0.9" d="M2269.55 1706.52C2274.49 1706.52 2278.49 1702.52 2278.49 1697.58C2278.49 1692.64 2274.49 1688.64 2269.55 1688.64C2264.61 1688.64 2260.61 1692.64 2260.61 1697.58C2260.61 1702.52 2264.61 1706.52 2269.55 1706.52Z" fill="#4D317B"/>
<path opacity="0.9" d="M2244.54 1574.48C2247.1 1574.48 2249.18 1572.4 2249.18 1569.84C2249.18 1567.28 2247.1 1565.2 2244.54 1565.2C2241.98 1565.2 2239.9 1567.28 2239.9 1569.84C2239.9 1572.4 2241.98 1574.48 2244.54 1574.48Z" fill="#361A58"/>
<path opacity="0.9" d="M2326.89 1629.49C2330.28 1629.49 2333.03 1626.74 2333.03 1623.35C2333.03 1619.96 2330.28 1617.21 2326.89 1617.21C2323.5 1617.21 2320.75 1619.96 2320.75 1623.35C2320.75 1626.74 2323.5 1629.49 2326.89 1629.49Z" fill="#FFD89E"/>
<path opacity="0.9" d="M2290.47 1674.06C2293.31 1674.06 2295.62 1671.75 2295.62 1668.91C2295.62 1666.07 2293.31 1663.76 2290.47 1663.76C2287.63 1663.76 2285.32 1666.07 2285.32 1668.91C2285.32 1671.75 2287.63 1674.06 2290.47 1674.06Z" fill="#F79C87"/>
<path opacity="0.9" d="M2201.81 1692.25C2204.73 1692.25 2207.1 1689.88 2207.1 1686.96C2207.1 1684.04 2204.73 1681.67 2201.81 1681.67C2198.89 1681.67 2196.52 1684.04 2196.52 1686.96C2196.52 1689.88 2198.89 1692.25 2201.81 1692.25Z" fill="#F79C87"/>
<path opacity="0.9" d="M2093.14 1577.2C2094.45 1577.2 2095.52 1576.13 2095.52 1574.82C2095.52 1573.51 2094.45 1572.44 2093.14 1572.44C2091.83 1572.44 2090.76 1573.51 2090.76 1574.82C2090.76 1576.13 2091.83 1577.2 2093.14 1577.2Z" fill="#361A58"/>
<path opacity="0.7" d="M2105.03 1667.5C2117.22 1667.5 2127.1 1657.62 2127.1 1645.43C2127.1 1633.24 2117.22 1623.36 2105.03 1623.36C2092.84 1623.36 2082.96 1633.24 2082.96 1645.43C2082.96 1657.62 2092.84 1667.5 2105.03 1667.5Z" fill="#F79C87"/>
<path opacity="0.9" d="M1991.65 1681.99C1994.93 1681.99 1997.59 1679.33 1997.59 1676.05C1997.59 1672.77 1994.93 1670.11 1991.65 1670.11C1988.37 1670.11 1985.71 1672.77 1985.71 1676.05C1985.71 1679.33 1988.37 1681.99 1991.65 1681.99Z" fill="#FFD89E"/>
<path opacity="0.9" d="M2016.2 1718.78C2022.05 1718.78 2026.8 1714.03 2026.8 1708.18C2026.8 1702.33 2022.05 1697.58 2016.2 1697.58C2010.35 1697.58 2005.6 1702.33 2005.6 1708.18C2005.6 1714.03 2010.35 1718.78 2016.2 1718.78Z" fill="#722D79"/>
<path opacity="0.9" d="M2026.8 1671.99C2026.42 1670.87 2025.52 1668.72 2023.48 1666.74C2021.62 1664.95 2019.67 1664.12 2018.57 1663.75C2019.66 1663.39 2021.7 1662.55 2023.61 1660.65C2025.58 1658.7 2026.44 1656.61 2026.8 1655.51C2027.11 1656.59 2027.96 1658.96 2030.21 1661.04C2032.05 1662.73 2033.98 1663.44 2035.03 1663.75C2034.02 1663.98 2032.14 1664.55 2030.33 1666.09C2027.8 1668.28 2027.03 1671.01 2026.8 1671.99Z" fill="white"/>
<path opacity="0.7" d="M2678.97 2986.24C2686.35 2986.24 2692.34 2980.25 2692.34 2972.87C2692.34 2965.49 2686.35 2959.5 2678.97 2959.5C2671.59 2959.5 2665.6 2965.49 2665.6 2972.87C2665.6 2980.25 2671.59 2986.24 2678.97 2986.24Z" fill="#361A58"/>
<path d="M2695.65 3047.66C2699.75 3047.66 2703.08 3044.33 2703.08 3040.23C2703.08 3036.13 2699.75 3032.8 2695.65 3032.8C2691.55 3032.8 2688.22 3036.13 2688.22 3040.23C2688.22 3044.33 2691.55 3047.66 2695.65 3047.66Z" fill="#FBA922"/>
<path opacity="0.7" d="M2615.92 3031.57C2620.02 3031.57 2623.35 3028.24 2623.35 3024.14C2623.35 3020.04 2620.02 3016.71 2615.92 3016.71C2611.82 3016.71 2608.49 3020.04 2608.49 3024.14C2608.49 3028.24 2611.82 3031.57 2615.92 3031.57Z" fill="white"/>
<path opacity="0.7" d="M2799.73 3096.18C2816.19 3096.18 2829.53 3082.84 2829.53 3066.38C2829.53 3049.92 2816.19 3036.58 2799.73 3036.58C2783.27 3036.58 2769.93 3049.92 2769.93 3066.38C2769.93 3082.84 2783.27 3096.18 2799.73 3096.18Z" fill="#361A58"/>
<path opacity="0.7" d="M512.36 2645.38C515.541 2645.38 518.12 2642.8 518.12 2639.62C518.12 2636.44 515.541 2633.86 512.36 2633.86C509.179 2633.86 506.6 2636.44 506.6 2639.62C506.6 2642.8 509.179 2645.38 512.36 2645.38Z" fill="#2C0C5C"/>
</g>
<defs>
<linearGradient id="paint0_linear_93_2" x1="2213.48" y1="5505.8" x2="2213.48" y2="4997.41" gradientUnits="userSpaceOnUse">
<stop stop-color="#584F83"/>
<stop offset="0.1436" stop-color="#6A6591"/>
<stop offset="0.3295" stop-color="#7F7FA2"/>
<stop offset="0.5121" stop-color="#9197B2"/>
<stop offset="0.6879" stop-color="#A0A9BE"/>
<stop offset="0.8539" stop-color="#A9B5C6"/>
<stop offset="1" stop-color="#ACBAC9"/>
</linearGradient>
<linearGradient id="paint1_linear_93_2" x1="1620.22" y1="5173.66" x2="1620.22" y2="4485.3" gradientUnits="userSpaceOnUse">
<stop offset="0.1325" stop-color="#584F83"/>
<stop offset="0.4749" stop-color="#79779C"/>
<stop offset="0.8305" stop-color="#9CA5BB"/>
<stop offset="1" stop-color="#ACBAC9"/>
</linearGradient>
<linearGradient id="paint2_linear_93_2" x1="3919.53" y1="5156.86" x2="3919.53" y2="4772.43" gradientUnits="userSpaceOnUse">
<stop offset="0.00128886" stop-color="#915B81"/>
<stop offset="0.5529" stop-color="#B088A8"/>
<stop offset="1" stop-color="#C9AFD0"/>
</linearGradient>
<linearGradient id="paint3_linear_93_2" x1="2057.57" y1="2702.29" x2="2057.57" y2="460.542" gradientUnits="userSpaceOnUse">
<stop stop-color="#3F305B" stop-opacity="0"/>
<stop offset="0.1059" stop-color="#362952" stop-opacity="0.38"/>
<stop offset="0.2948" stop-color="#2B2046" stop-opacity="0.74"/>
<stop offset="0.4967" stop-color="#22193E"/>
<stop offset="0.7188" stop-color="#1D1439"/>
<stop offset="1" stop-color="#1C1238"/>
</linearGradient>
<linearGradient id="paint4_linear_93_2" x1="3768.69" y1="3713.06" x2="3768.69" y2="2706.88" gradientUnits="userSpaceOnUse">
<stop offset="0.0026455" stop-color="#5C385C"/>
<stop offset="1" stop-color="#66325A"/>
</linearGradient>
<linearGradient id="paint5_linear_93_2" x1="3419.94" y1="807.98" x2="3419.94" y2="70" gradientUnits="userSpaceOnUse">
<stop stop-color="#3F305B"/>
<stop offset="0.1059" stop-color="#362952"/>
<stop offset="0.2948" stop-color="#2B2046"/>
<stop offset="0.4967" stop-color="#22193E"/>
<stop offset="0.7188" stop-color="#1D1439"/>
<stop offset="1" stop-color="#1C1238"/>
</linearGradient>
<linearGradient id="paint6_linear_93_2" x1="2803.78" y1="1786.29" x2="3284.75" y2="1786.29" gradientUnits="userSpaceOnUse">
<stop stop-color="#8F5560"/>
<stop offset="0.17" stop-color="#945C6A"/>
<stop offset="0.4966" stop-color="#9E6F86"/>
<stop offset="0.943" stop-color="#AF91BB"/>
<stop offset="1" stop-color="#B297C7"/>
</linearGradient>
<linearGradient id="paint7_linear_93_2" x1="2660.28" y1="1743.72" x2="3141.26" y2="1743.72" gradientUnits="userSpaceOnUse">
<stop stop-color="#8F5560"/>
<stop offset="0.17" stop-color="#945C6A"/>
<stop offset="0.4966" stop-color="#9E6F86"/>
<stop offset="0.943" stop-color="#AF91BB"/>
<stop offset="1" stop-color="#B297C7"/>
</linearGradient>
<linearGradient id="paint8_linear_93_2" x1="3393.22" y1="4066.01" x2="3874.19" y2="4066.01" gradientUnits="userSpaceOnUse">
<stop offset="0.0222" stop-color="#AF625B"/>
<stop offset="0.3056" stop-color="#BD6C5E"/>
<stop offset="0.8475" stop-color="#E48A67"/>
<stop offset="1" stop-color="#F5966B"/>
</linearGradient>
<linearGradient id="paint9_linear_93_2" x1="3599.41" y1="4092.36" x2="4080.39" y2="4092.36" gradientUnits="userSpaceOnUse">
<stop offset="0.0222" stop-color="#AF625B"/>
<stop offset="0.3056" stop-color="#BD6C5E"/>
<stop offset="0.8475" stop-color="#E48A67"/>
<stop offset="1" stop-color="#F5966B"/>
</linearGradient>
<linearGradient id="paint10_linear_93_2" x1="3951.89" y1="1979.86" x2="4650.84" y2="1980.97" gradientUnits="userSpaceOnUse">
<stop offset="0.0222" stop-color="#AF625B"/>
<stop offset="0.1624" stop-color="#B56763"/>
<stop offset="0.4317" stop-color="#C47379"/>
<stop offset="0.7992" stop-color="#DF89A2"/>
<stop offset="1" stop-color="#F49AC1"/>
</linearGradient>
<linearGradient id="paint11_linear_93_2" x1="3803.42" y1="2163.19" x2="3905.82" y2="2163.19" gradientUnits="userSpaceOnUse">
<stop offset="0.0222" stop-color="#AF625B"/>
<stop offset="0.1624" stop-color="#B56763"/>
<stop offset="0.4317" stop-color="#C47379"/>
<stop offset="0.7992" stop-color="#DF89A2"/>
<stop offset="1" stop-color="#F49AC1"/>
</linearGradient>
<linearGradient id="paint12_linear_93_2" x1="2716.74" y1="2696.4" x2="3784.12" y2="2696.4" gradientUnits="userSpaceOnUse">
<stop stop-color="#8F5560"/>
<stop offset="0.2092" stop-color="#9C5A64"/>
<stop offset="0.6087" stop-color="#C0676E"/>
<stop offset="1" stop-color="#F2797C"/>
</linearGradient>
<linearGradient id="paint13_linear_93_2" x1="3661.41" y1="4421.28" x2="4378.01" y2="4472.24" gradientUnits="userSpaceOnUse">
<stop offset="0.0222" stop-color="#AF625B"/>
<stop offset="0.3056" stop-color="#BD6C5E"/>
<stop offset="0.8475" stop-color="#E48A67"/>
<stop offset="1" stop-color="#F5966B"/>
</linearGradient>
<linearGradient id="paint14_linear_93_2" x1="3736.8" y1="4027.22" x2="3736.8" y2="3700.01" gradientUnits="userSpaceOnUse">
<stop offset="0.0557" stop-color="#6C3D5C" stop-opacity="0"/>
<stop offset="0.2009" stop-color="#78455E" stop-opacity="0.3"/>
<stop offset="0.4799" stop-color="#985A63" stop-opacity="0.64"/>
<stop offset="0.8609" stop-color="#D58169"/>
<stop offset="1" stop-color="#F5966B"/>
</linearGradient>
<linearGradient id="paint15_linear_93_2" x1="-nan" y1="-nan" x2="-nan" y2="-nan" gradientUnits="userSpaceOnUse">
<stop offset="0.0222" stop-color="#AF625B"/>
<stop offset="0.3056" stop-color="#BD6C5E"/>
<stop offset="0.8475" stop-color="#E48A67"/>
<stop offset="1" stop-color="#F5966B"/>
</linearGradient>
<linearGradient id="paint16_linear_93_2" x1="3150.93" y1="4308.53" x2="3150.93" y2="3981.31" gradientUnits="userSpaceOnUse">
<stop stop-color="#82455C" stop-opacity="0"/>
<stop offset="0.1566" stop-color="#874A5D" stop-opacity="0.27"/>
<stop offset="0.3673" stop-color="#95575F" stop-opacity="0.7"/>
<stop offset="0.6086" stop-color="#B06E61"/>
<stop offset="0.8709" stop-color="#DA9161"/>
<stop offset="1" stop-color="#FAAA5E"/>
</linearGradient>
<linearGradient id="paint17_linear_93_2" x1="3468.03" y1="3272.14" x2="3667.24" y2="3272.14" gradientUnits="userSpaceOnUse">
<stop offset="0.0222" stop-color="#AF625B"/>
<stop offset="0.1624" stop-color="#B56763"/>
<stop offset="0.4317" stop-color="#C47379"/>
<stop offset="0.7992" stop-color="#DF89A2"/>
<stop offset="1" stop-color="#F49AC1"/>
</linearGradient>
<clipPath id="clip0_93_2">
<rect width="4752" height="6566.4" fill="white"/>
</clipPath>
</defs>
</svg>
