<svg width="379" height="353" viewBox="0 0 379 353" fill="none" xmlns="http://www.w3.org/2000/svg">
<path opacity="0.75" d="M352.827 277.829C366.79 277.829 378.109 266.51 378.109 252.547C378.109 238.584 366.79 227.265 352.827 227.265C338.864 227.265 327.545 238.584 327.545 252.547C327.545 266.51 338.864 277.829 352.827 277.829Z" fill="url(#paint0_radial_95_10020)"/>
<path d="M17.4501 35.1566C27.0588 35.1566 34.8482 27.3672 34.8482 17.7584C34.8482 8.14974 27.0588 0.360352 17.4501 0.360352C7.84141 0.360352 0.052002 8.14974 0.052002 17.7584C0.052002 27.3672 7.84141 35.1566 17.4501 35.1566Z" fill="url(#paint1_radial_95_10020)"/>
<path d="M145.647 338.432C207.155 338.432 257.017 288.571 257.017 227.063C257.017 165.556 207.155 115.694 145.647 115.694C84.1399 115.694 34.2783 165.556 34.2783 227.063C34.2783 288.571 84.1399 338.432 145.647 338.432Z" fill="url(#paint2_radial_95_10020)"/>
<path opacity="0.85" d="M17.4504 33.4354C26.1086 33.4354 33.1274 26.4166 33.1274 17.7584C33.1274 9.10024 26.1086 2.08142 17.4504 2.08142C8.79226 2.08142 1.77344 9.10024 1.77344 17.7584C1.77344 26.4166 8.79226 33.4354 17.4504 33.4354Z" fill="url(#paint3_linear_95_10020)"/>
<path opacity="0.86" d="M352.933 275.891C365.884 275.891 376.383 265.392 376.383 252.441C376.383 239.49 365.884 228.991 352.933 228.991C339.982 228.991 329.483 239.49 329.483 252.441C329.483 265.392 339.982 275.891 352.933 275.891Z" fill="url(#paint4_linear_95_10020)"/>
<g opacity="0.88">
<path opacity="0.88" d="M145.554 328.391C201.515 328.391 246.881 283.025 246.881 227.063C246.881 171.102 201.515 125.736 145.554 125.736C89.5922 125.736 44.2263 171.102 44.2263 227.063C44.2263 283.025 89.5922 328.391 145.554 328.391Z" fill="#8D3D4C"/>
<path opacity="0.88" d="M178.072 166.892C172.726 170.069 166.493 171.729 160.277 171.634C158.68 171.608 157.057 171.464 155.563 170.902C151.593 169.405 149.274 165.329 145.885 162.781C141.032 159.131 134.372 158.922 128.411 160.08C122.45 161.239 116.762 163.596 110.771 164.585C98.3819 166.632 84.6052 162.511 75.7623 153.594C68.3428 159.699 62.9573 167.866 57.6904 175.901C56.2393 178.114 55.9188 180.3 54.7251 182.662C63.8936 183.899 73.9756 186.074 79.3611 193.597C84.103 200.222 83.7623 209.4 80.7945 216.986C79.7396 219.684 78.3592 222.389 78.4526 225.284C78.5686 228.969 81.0141 232.095 83.0734 235.152C85.1327 238.208 86.9573 241.996 85.7005 245.461C84.9838 247.439 83.3762 248.941 81.8267 250.364C76.8223 254.965 71.8204 259.654 67.9516 265.244C64.0828 270.831 61.3901 277.453 61.5617 284.249C64.4185 288.217 67.9567 292.595 72.2923 297.065C75.8406 300.719 79.3283 303.823 82.5712 306.437C86.9522 306.147 93.5869 305.41 101.38 303.295C108.328 301.408 111.926 298.089 117.814 297.183C131.285 295.106 142.919 285.261 156.55 285.435C164.966 285.544 173.413 288.943 181.617 287.058C188.83 285.4 194.495 279.949 199.49 274.485C205.66 267.737 211.422 260.615 216.736 253.176C220.873 247.384 224.81 241.241 226.435 234.311C227.651 229.13 227.52 223.724 226.99 218.43C226.564 214.155 225.86 209.834 223.984 205.968C222.056 201.991 218.988 198.7 215.967 195.475C211.911 191.147 207.846 186.806 203.293 183.005C195.737 176.691 186.748 171.555 178.072 166.892Z" fill="url(#paint5_linear_95_10020)"/>
<path opacity="0.88" d="M119.8 246.614C122.41 245.266 125.791 244.116 128.083 245.953C129.645 247.207 130.039 249.4 130.157 251.399C130.48 256.905 129.499 262.485 127.318 267.553C126.4 269.685 125.254 271.803 125.113 274.119C124.971 276.439 126.228 279.061 128.502 279.533C130.39 279.924 132.204 278.763 134.069 278.273C139.225 276.918 144.701 281.382 145.516 286.649C146.332 291.916 143.323 297.241 139.043 300.418C134.763 303.596 129.408 304.956 124.128 305.708C120.446 306.233 116.595 306.48 113.095 305.223C109.595 303.967 106.526 300.875 106.334 297.16C106.198 294.521 107.447 291.681 106.215 289.345C104.403 285.907 99.1694 286.765 95.8911 288.852C92.6129 290.937 89.2034 293.895 85.4003 293.11C73.3296 290.624 88.893 273.133 91.8028 269.521C99.4268 260.068 109.007 252.189 119.8 246.614Z" fill="#EE355E"/>
<path opacity="0.88" d="M199.919 142.198C183.119 155.025 176.378 168.605 173.516 176.05C171.149 182.208 168.204 190.442 171.906 195.641C176.123 201.564 184.638 201.789 191.906 201.943C199.177 202.097 207.959 203.871 210.354 210.735C211.899 215.157 209.342 220.169 204.484 228.979C198.71 239.452 193.839 243.495 195.457 246.564C197.299 250.056 205.241 247.894 206.786 251.56C207.793 253.95 205.36 257.1 204.3 258.442C193.1 272.6 176.636 285.43 168.08 301.955C165.367 307.197 163.977 311.798 165.569 316.191C167.25 320.832 171.553 323.303 173.847 324.386C211.677 313.418 239.803 281.398 245.701 242.596C251.689 203.177 233.688 163.679 199.919 142.198Z" fill="#EE355E"/>
<path opacity="0.88" d="M179.008 216.118C193.842 216.118 205.867 204.093 205.867 189.259C205.867 174.425 193.842 162.399 179.008 162.399C164.174 162.399 152.148 174.425 152.148 189.259C152.148 204.093 164.174 216.118 179.008 216.118Z" fill="#7D3543"/>
<path opacity="0.88" d="M154.387 233.592C159.212 233.592 163.124 229.68 163.124 224.855C163.124 220.03 159.212 216.118 154.387 216.118C149.562 216.118 145.65 220.03 145.65 224.855C145.65 229.68 149.562 233.592 154.387 233.592Z" fill="#5D212E"/>
<path opacity="0.88" d="M96.2213 257.953C97.8854 257.953 99.2345 256.604 99.2345 254.94C99.2345 253.275 97.8854 251.926 96.2213 251.926C94.5571 251.926 93.208 253.275 93.208 254.94C93.208 256.604 94.5571 257.953 96.2213 257.953Z" fill="#5D212E"/>
<path opacity="0.88" d="M180.419 306.135C182.862 306.135 184.843 304.154 184.843 301.711C184.843 299.267 182.862 297.287 180.419 297.287C177.975 297.287 175.995 299.267 175.995 301.711C175.995 304.154 177.975 306.135 180.419 306.135Z" fill="#5D212E"/>
<path opacity="0.88" d="M189.993 308.401C190.755 308.401 191.373 307.783 191.373 307.02C191.373 306.258 190.755 305.64 189.993 305.64C189.231 305.64 188.613 306.258 188.613 307.02C188.613 307.783 189.231 308.401 189.993 308.401Z" fill="#5D212E"/>
<path opacity="0.88" d="M184.842 296.6C185.605 296.6 186.223 295.982 186.223 295.22C186.223 294.457 185.605 293.839 184.842 293.839C184.08 293.839 183.462 294.457 183.462 295.22C183.462 295.982 184.08 296.6 184.842 296.6Z" fill="#5D212E"/>
<path opacity="0.88" d="M94.4402 239.853C98.8041 239.853 102.342 236.315 102.342 231.952C102.342 227.588 98.8041 224.05 94.4402 224.05C90.0762 224.05 86.5386 227.588 86.5386 231.952C86.5386 236.315 90.0762 239.853 94.4402 239.853Z" fill="#7D3543"/>
<path opacity="0.88" d="M75.1915 266.288C83.1235 266.288 89.5536 259.858 89.5536 251.926C89.5536 243.994 83.1235 237.564 75.1915 237.564C67.2595 237.564 60.8293 243.994 60.8293 251.926C60.8293 259.858 67.2595 266.288 75.1915 266.288Z" fill="#7D3543"/>
</g>
<path d="M141.349 48.2644H114.825V60.9786H141.349V48.2644Z" fill="url(#paint6_linear_95_10020)"/>
<path d="M172.556 123.679L171.666 124.11L174.887 130.757L175.777 130.326L172.556 123.679Z" fill="white" stroke="black" stroke-width="0.5" stroke-miterlimit="10"/>
<path d="M131.08 61.761H125.092V86.5156H131.08V61.761Z" fill="black" stroke="black" stroke-width="0.5" stroke-miterlimit="10"/>
<path d="M133.621 86.5131H122.55V92.055H133.621V86.5131Z" fill="#92ACA4"/>
<path d="M131.88 92.9357H124.292V103.858H131.88V92.9357Z" fill="black" stroke="black" stroke-width="0.5" stroke-miterlimit="10"/>
<path d="M114.729 118.917H91.2894L78.4692 113.107L123.562 103.858H132.112L237.74 98.397L228.725 105.294L196.67 105.493L187.855 112.105L176.236 112.504L114.729 118.917Z" fill="url(#paint7_linear_95_10020)"/>
<path d="M187.453 110.102H115.731V124.126H187.453V110.102Z" fill="#7A7C7F"/>
<path d="M117.688 110.913L116.575 110.271L102.202 135.165L103.314 135.808L117.688 110.913Z" fill="white" stroke="black" stroke-width="0.5" stroke-miterlimit="10"/>
<path d="M130.42 123.968L129.563 123.473L123.833 133.397L124.69 133.892L130.42 123.968Z" fill="white" stroke="black" stroke-width="0.5" stroke-miterlimit="10"/>
<path d="M117.297 110.916L116.16 112.48L145.12 133.547L146.257 131.984L117.297 110.916Z" fill="black" stroke="black" stroke-width="0.5" stroke-miterlimit="10"/>
<path d="M99.5897 147.873C103.244 147.873 106.207 144.911 106.207 141.256C106.207 137.602 103.244 134.639 99.5897 134.639C95.9352 134.639 92.9727 137.602 92.9727 141.256C92.9727 144.911 95.9352 147.873 99.5897 147.873Z" fill="#424244" stroke="#424244" stroke-width="0.5" stroke-miterlimit="10"/>
<path d="M180.688 148.878C185.913 148.878 190.149 144.642 190.149 139.416C190.149 134.191 185.913 129.955 180.688 129.955C175.462 129.955 171.227 134.191 171.227 139.416C171.227 144.642 175.462 148.878 180.688 148.878Z" fill="#424244" stroke="#424244" stroke-width="0.5" stroke-miterlimit="10"/>
<path d="M155.83 152.625C162.718 152.625 168.302 147.041 168.302 140.153C168.302 133.265 162.718 127.682 155.83 127.682C148.942 127.682 143.358 133.265 143.358 140.153C143.358 147.041 148.942 152.625 155.83 152.625Z" fill="#424244" stroke="#424244" stroke-width="0.5" stroke-miterlimit="10"/>
<path d="M122.784 144.931C125.83 144.931 128.299 142.462 128.299 139.417C128.299 136.371 125.83 133.902 122.784 133.902C119.739 133.902 117.27 136.371 117.27 139.417C117.27 142.462 119.739 144.931 122.784 144.931Z" fill="#424244" stroke="#424244" stroke-width="0.5" stroke-miterlimit="10"/>
<path d="M117.137 114.965C118.772 114.965 120.097 113.639 120.097 112.005C120.097 110.37 118.772 109.044 117.137 109.044C115.502 109.044 114.177 110.37 114.177 112.005C114.177 113.639 115.502 114.965 117.137 114.965Z" fill="#525255" stroke="black" stroke-width="0.5" stroke-miterlimit="10"/>
<path d="M99.5901 144.217C101.225 144.217 102.55 142.891 102.55 141.256C102.55 139.621 101.225 138.296 99.5901 138.296C97.9552 138.296 96.6299 139.621 96.6299 141.256C96.6299 142.891 97.9552 144.217 99.5901 144.217Z" fill="#525255" stroke="black" stroke-width="0.5" stroke-miterlimit="10"/>
<path d="M122.784 141.12C123.725 141.12 124.488 140.357 124.488 139.417C124.488 138.476 123.725 137.713 122.784 137.713C121.843 137.713 121.081 138.476 121.081 139.417C121.081 140.357 121.843 141.12 122.784 141.12Z" fill="#525255" stroke="black" stroke-width="0.5" stroke-miterlimit="10"/>
<path d="M128.087 56.3275C129.028 56.3275 129.79 55.5649 129.79 54.6241C129.79 53.6833 129.028 52.9206 128.087 52.9206C127.146 52.9206 126.384 53.6833 126.384 54.6241C126.384 55.5649 127.146 56.3275 128.087 56.3275Z" fill="#525255" stroke="black" stroke-width="0.5" stroke-miterlimit="10"/>
<path d="M155.83 145.09C158.556 145.09 160.766 142.88 160.766 140.153C160.766 137.427 158.556 135.217 155.83 135.217C153.103 135.217 150.893 137.427 150.893 140.153C150.893 142.88 153.103 145.09 155.83 145.09Z" fill="#525255" stroke="black" stroke-width="0.5" stroke-miterlimit="10"/>
<path d="M180.687 142.377C182.322 142.377 183.648 141.051 183.648 139.417C183.648 137.782 182.322 136.456 180.687 136.456C179.052 136.456 177.727 137.782 177.727 139.417C177.727 141.051 179.052 142.377 180.687 142.377Z" fill="#525255" stroke="black" stroke-width="0.5" stroke-miterlimit="10"/>
<path d="M180.688 114.341H162.492V118.917H180.688V114.341Z" fill="black" stroke="black" stroke-width="0.5" stroke-miterlimit="10"/>
<path d="M135.182 350.367C144.522 351.222 185.882 353.968 223.674 324.782C257.953 298.309 267.204 262.624 269.448 252.578" stroke="url(#paint8_linear_95_10020)" stroke-width="4" stroke-miterlimit="10"/>
<path opacity="0.75" d="M310.162 77.6651C330.707 77.6651 347.361 61.0107 347.361 40.4664C347.361 19.9221 330.707 3.26761 310.162 3.26761C289.618 3.26761 272.964 19.9221 272.964 40.4664C272.964 61.0107 289.618 77.6651 310.162 77.6651Z" fill="url(#paint9_radial_95_10020)"/>
<path opacity="0.75" d="M310.163 73.1502C328.214 73.1502 342.847 58.5172 342.847 40.4663C342.847 22.4155 328.214 7.78241 310.163 7.78241C292.112 7.78241 277.479 22.4155 277.479 40.4663C277.479 58.5172 292.112 73.1502 310.163 73.1502Z" fill="url(#paint10_linear_95_10020)"/>
<path d="M281.391 30.9496C283.203 30.7881 285.015 30.6821 286.83 30.5458L289.548 30.3793L292.266 30.243C293.172 30.2001 294.078 30.1193 294.984 30.0512C295.89 29.9881 296.796 29.9805 297.702 30.0411C298.608 30.0991 299.514 30.1976 300.42 30.3364C301.326 30.4802 302.232 30.6594 303.138 30.9496V31.1515C302.232 31.4417 301.326 31.6184 300.42 31.7647C299.514 31.9061 298.608 32.002 297.702 32.06C296.796 32.1206 295.89 32.113 294.984 32.0499C294.078 31.9818 293.172 31.901 292.266 31.8581L289.548 31.7219L286.83 31.5553C285.018 31.419 283.206 31.313 281.391 31.1515V30.9496Z" fill="url(#paint11_linear_95_10020)"/>
<path d="M280.144 37.0644C283.404 36.9029 286.667 36.7969 289.928 36.6607L294.821 36.4941L299.715 36.3578C301.345 36.3023 302.975 36.2418 304.608 36.166C306.238 36.103 307.868 36.0979 309.501 36.1559C311.132 36.214 312.762 36.3149 314.395 36.4563C316.025 36.5976 317.655 36.7768 319.288 37.0644V37.2664C317.658 37.5566 316.027 37.7358 314.395 37.8746C312.764 38.0134 311.134 38.1168 309.501 38.1749C307.871 38.2329 306.241 38.2279 304.608 38.1648C302.978 38.0891 301.347 38.0285 299.715 37.973L294.821 37.8367L289.928 37.6701C286.667 37.5339 283.404 37.4279 280.144 37.2664V37.0644Z" fill="url(#paint12_linear_95_10020)"/>
<path d="M295.397 43.1818C298.658 43.0203 301.921 42.9143 305.181 42.778L310.075 42.6115L314.968 42.4752C316.598 42.4197 318.229 42.3591 319.861 42.2834C321.492 42.2203 323.122 42.2152 324.755 42.2733C326.385 42.3313 328.015 42.4323 329.648 42.5736C331.278 42.7149 332.909 42.8941 334.541 43.1818V43.3837C332.911 43.6739 331.281 43.8531 329.648 43.9919C328.018 44.1307 326.388 44.2342 324.755 44.2922C323.124 44.3503 321.494 44.3452 319.861 44.2821C318.231 44.2064 316.601 44.1459 314.968 44.0903L310.075 43.954L305.181 43.7875C301.921 43.6512 298.658 43.5452 295.397 43.3837V43.1818Z" fill="url(#paint13_linear_95_10020)"/>
<path d="M312.57 55.7446C314.493 55.5831 316.416 55.4771 318.339 55.3408L321.223 55.1742L324.108 55.038C325.07 54.9951 326.031 54.9143 326.993 54.8462C327.954 54.7831 328.916 54.7755 329.877 54.8361C330.839 54.8941 331.8 54.9925 332.762 55.1313C333.723 55.2752 334.685 55.4544 335.646 55.7446V55.9465C334.685 56.2367 333.723 56.4133 332.762 56.5597C331.8 56.701 330.839 56.797 329.877 56.855C328.916 56.9156 327.954 56.908 326.993 56.8449C326.031 56.7768 325.07 56.696 324.108 56.6531L321.223 56.5168L318.339 56.3503C316.416 56.214 314.493 56.108 312.57 55.9465V55.7446Z" fill="url(#paint14_linear_95_10020)"/>
<path d="M289.411 50.5105C293.449 50.349 297.486 50.243 301.524 50.1067L307.581 49.9401L313.638 49.8039C315.657 49.7484 317.676 49.6878 319.695 49.6121C321.713 49.549 323.732 49.5439 325.751 49.602C327.77 49.66 329.789 49.761 331.808 49.9023C333.827 50.0436 335.846 50.2228 337.865 50.5105V50.7124C335.846 51.0026 333.827 51.1818 331.808 51.3206C329.789 51.4594 327.77 51.5629 325.751 51.6209C323.732 51.679 321.713 51.6739 319.695 51.6108C317.676 51.5351 315.657 51.4745 313.638 51.419L307.581 51.2827L301.524 51.1162C297.486 50.9799 293.449 50.8739 289.411 50.7124V50.5105Z" fill="url(#paint15_linear_95_10020)"/>
<defs>
<radialGradient id="paint0_radial_95_10020" cx="0" cy="0" r="1" gradientUnits="userSpaceOnUse" gradientTransform="translate(352.826 252.546) scale(25.2814)">
<stop offset="0.593" stop-color="#0280A2" stop-opacity="0.5"/>
<stop offset="0.6918" stop-color="#077EA1" stop-opacity="0.6342"/>
<stop offset="0.7511" stop-color="#167B9D" stop-opacity="0.7147"/>
<stop offset="0.7999" stop-color="#247596" stop-opacity="0.781"/>
<stop offset="0.8431" stop-color="#306C8D" stop-opacity="0.8397"/>
<stop offset="0.8825" stop-color="#3A6182" stop-opacity="0.8933"/>
<stop offset="0.9192" stop-color="#425375" stop-opacity="0.9431"/>
<stop offset="0.9531" stop-color="#494268" stop-opacity="0.9892"/>
<stop offset="0.9611" stop-color="#4A3E64"/>
</radialGradient>
<radialGradient id="paint1_radial_95_10020" cx="0" cy="0" r="1" gradientUnits="userSpaceOnUse" gradientTransform="translate(17.4505 17.7574) scale(17.3982)">
<stop stop-color="#BD5F95" stop-opacity="0.85"/>
<stop offset="0.1831" stop-color="#B85D92" stop-opacity="0.8775"/>
<stop offset="0.3355" stop-color="#AB578B" stop-opacity="0.9003"/>
<stop offset="0.4768" stop-color="#994F81" stop-opacity="0.9215"/>
<stop offset="0.6116" stop-color="#814474" stop-opacity="0.9417"/>
<stop offset="0.7417" stop-color="#643764" stop-opacity="0.9613"/>
<stop offset="0.8682" stop-color="#432850" stop-opacity="0.9802"/>
<stop offset="0.9897" stop-color="#1E173C" stop-opacity="0.9985"/>
<stop offset="1" stop-color="#1A153A"/>
</radialGradient>
<radialGradient id="paint2_radial_95_10020" cx="0" cy="0" r="1" gradientUnits="userSpaceOnUse" gradientTransform="translate(145.649 227.064) scale(111.369)">
<stop offset="0.4364" stop-color="#EE355E"/>
<stop offset="0.4587" stop-color="#E1355E" stop-opacity="0.9814"/>
<stop offset="0.8361" stop-color="#622D61" stop-opacity="0.6667"/>
<stop offset="1" stop-color="#33275E" stop-opacity="0.53"/>
</radialGradient>
<linearGradient id="paint3_linear_95_10020" x1="3.66146" y1="25.2235" x2="31.6707" y2="10.0579" gradientUnits="userSpaceOnUse">
<stop stop-color="#EC008C" stop-opacity="0.5"/>
<stop offset="1" stop-color="#E77FB3"/>
</linearGradient>
<linearGradient id="paint4_linear_95_10020" x1="352.933" y1="275.889" x2="352.933" y2="228.991" gradientUnits="userSpaceOnUse">
<stop stop-color="white"/>
<stop offset="0.0293" stop-color="#F1F5F7"/>
<stop offset="0.2599" stop-color="#B7C7D1"/>
<stop offset="0.4793" stop-color="#8FA6B2"/>
<stop offset="0.6819" stop-color="#758F9D"/>
<stop offset="0.8617" stop-color="#668291"/>
<stop offset="1" stop-color="#617E8C"/>
</linearGradient>
<linearGradient id="paint5_linear_95_10020" x1="141.052" y1="306.438" x2="141.052" y2="153.594" gradientUnits="userSpaceOnUse">
<stop offset="0.0143" stop-color="#C86D73"/>
<stop offset="0.0613" stop-color="#C66B71"/>
<stop offset="0.6607" stop-color="#AF5361"/>
<stop offset="1" stop-color="#A74A5B"/>
</linearGradient>
<linearGradient id="paint6_linear_95_10020" x1="141.348" y1="54.6229" x2="114.824" y2="54.6229" gradientUnits="userSpaceOnUse">
<stop stop-color="white"/>
<stop offset="1" stop-color="#7B7C7F"/>
</linearGradient>
<linearGradient id="paint7_linear_95_10020" x1="158.104" y1="98.3978" x2="158.104" y2="118.916" gradientUnits="userSpaceOnUse">
<stop stop-color="white"/>
<stop offset="1" stop-color="#7B7C7F"/>
</linearGradient>
<linearGradient id="paint8_linear_95_10020" x1="135.135" y1="301.909" x2="269.94" y2="301.909" gradientUnits="userSpaceOnUse">
<stop stop-color="#8F5560"/>
<stop offset="0.2074" stop-color="#955160"/>
<stop offset="0.6038" stop-color="#A2455F"/>
<stop offset="1" stop-color="#AF335B"/>
</linearGradient>
<radialGradient id="paint9_radial_95_10020" cx="0" cy="0" r="1" gradientUnits="userSpaceOnUse" gradientTransform="translate(310.162 40.4663) scale(37.1991)">
<stop offset="0.593" stop-color="#0280A2" stop-opacity="0.5"/>
<stop offset="0.6871" stop-color="#057EA0" stop-opacity="0.6278"/>
<stop offset="0.7436" stop-color="#0F799B" stop-opacity="0.7045"/>
<stop offset="0.7901" stop-color="#197192" stop-opacity="0.7678"/>
<stop offset="0.8312" stop-color="#216686" stop-opacity="0.8236"/>
<stop offset="0.8688" stop-color="#275978" stop-opacity="0.8746"/>
<stop offset="0.9038" stop-color="#2A4969" stop-opacity="0.9222"/>
<stop offset="0.9361" stop-color="#2B3658" stop-opacity="0.9661"/>
<stop offset="0.9611" stop-color="#2B244B"/>
</radialGradient>
<linearGradient id="paint10_linear_95_10020" x1="281.852" y1="56.8115" x2="338.474" y2="24.1211" gradientUnits="userSpaceOnUse">
<stop stop-color="#0280A2"/>
<stop offset="1" stop-color="#89BEE7"/>
</linearGradient>
<linearGradient id="paint11_linear_95_10020" x1="281.391" y1="31.0509" x2="303.141" y2="31.0509" gradientUnits="userSpaceOnUse">
<stop stop-color="#00618D"/>
<stop offset="1" stop-color="#89BEE7"/>
</linearGradient>
<linearGradient id="paint12_linear_95_10020" x1="280.143" y1="37.1662" x2="319.284" y2="37.1662" gradientUnits="userSpaceOnUse">
<stop stop-color="#00618D"/>
<stop offset="1" stop-color="#89BEE7"/>
</linearGradient>
<linearGradient id="paint13_linear_95_10020" x1="295.397" y1="43.2815" x2="334.538" y2="43.2815" gradientUnits="userSpaceOnUse">
<stop stop-color="#00618D"/>
<stop offset="1" stop-color="#89BEE7"/>
</linearGradient>
<linearGradient id="paint14_linear_95_10020" x1="312.569" y1="55.8461" x2="335.646" y2="55.8461" gradientUnits="userSpaceOnUse">
<stop stop-color="#00618D"/>
<stop offset="1" stop-color="#89BEE7"/>
</linearGradient>
<linearGradient id="paint15_linear_95_10020" x1="289.412" y1="50.6122" x2="337.861" y2="50.6122" gradientUnits="userSpaceOnUse">
<stop stop-color="#00618D"/>
<stop offset="1" stop-color="#89BEE7"/>
</linearGradient>
</defs>
</svg>
