<svg width="1200" height="12" viewBox="0 0 1200 12" fill="none" xmlns="http://www.w3.org/2000/svg">
<path d="M0.251953 0.577026H1199.71" stroke="#0F1538" stroke-miterlimit="10"/>
<path d="M24.4136 0.576843V11.4235" stroke="#0F1538" stroke-miterlimit="10"/>
<path d="M32.5293 0.576843V11.4235" stroke="#0F1538" stroke-miterlimit="10"/>
<path d="M59.7651 0.576843V11.4235" stroke="#0F1538" stroke-miterlimit="10"/>
<path d="M67.8809 0.576843V11.4235" stroke="#0F1538" stroke-miterlimit="10"/>
<path d="M95.1138 0.576843V11.4235" stroke="#0F1538" stroke-miterlimit="10"/>
<path d="M103.232 0.576843V11.4235" stroke="#0F1538" stroke-miterlimit="10"/>
<path d="M130.465 0.576843V11.4235" stroke="#0F1538" stroke-miterlimit="10"/>
<path d="M138.584 0.576843V11.4235" stroke="#0F1538" stroke-miterlimit="10"/>
<path d="M165.817 0.576843V11.4235" stroke="#0F1538" stroke-miterlimit="10"/>
<path d="M173.933 0.576843V11.4235" stroke="#0F1538" stroke-miterlimit="10"/>
<path d="M201.168 0.576843V11.4235" stroke="#0F1538" stroke-miterlimit="10"/>
<path d="M209.284 0.576843V11.4235" stroke="#0F1538" stroke-miterlimit="10"/>
<path d="M236.518 0.576843V11.4235" stroke="#0F1538" stroke-miterlimit="10"/>
<path d="M244.636 0.576843V11.4235" stroke="#0F1538" stroke-miterlimit="10"/>
<path d="M271.869 0.576843V11.4235" stroke="#0F1538" stroke-miterlimit="10"/>
<path d="M279.988 0.576843V11.4235" stroke="#0F1538" stroke-miterlimit="10"/>
<path d="M307.219 0.576843V11.4235" stroke="#0F1538" stroke-miterlimit="10"/>
<path d="M315.335 0.576843V11.4235" stroke="#0F1538" stroke-miterlimit="10"/>
<path d="M342.571 0.576843V11.4235" stroke="#0F1538" stroke-miterlimit="10"/>
<path d="M350.687 0.576843V11.4235" stroke="#0F1538" stroke-miterlimit="10"/>
<path d="M377.92 0.576843V11.4235" stroke="#0F1538" stroke-miterlimit="10"/>
<path d="M386.039 0.576843V11.4235" stroke="#0F1538" stroke-miterlimit="10"/>
<path d="M413.271 0.576843V11.4235" stroke="#0F1538" stroke-miterlimit="10"/>
<path d="M421.39 0.576843V11.4235" stroke="#0F1538" stroke-miterlimit="10"/>
<path d="M448.623 0.576843V11.4235" stroke="#0F1538" stroke-miterlimit="10"/>
<path d="M456.74 0.576843V11.4235" stroke="#0F1538" stroke-miterlimit="10"/>
<path d="M483.975 0.576843V11.4235" stroke="#0F1538" stroke-miterlimit="10"/>
<path d="M492.09 0.576843V11.4235" stroke="#0F1538" stroke-miterlimit="10"/>
<path d="M519.324 0.576843V11.4235" stroke="#0F1538" stroke-miterlimit="10"/>
<path d="M527.442 0.576843V11.4235" stroke="#0F1538" stroke-miterlimit="10"/>
<path d="M554.675 0.576843V11.4235" stroke="#0F1538" stroke-miterlimit="10"/>
<path d="M562.794 0.576843V11.4235" stroke="#0F1538" stroke-miterlimit="10"/>
<path d="M590.027 0.576843V11.4235" stroke="#0F1538" stroke-miterlimit="10"/>
<path d="M598.143 0.576843V11.4235" stroke="#0F1538" stroke-miterlimit="10"/>
<path d="M625.375 0.576843V11.4235" stroke="#0F1538" stroke-miterlimit="10"/>
<path d="M633.494 0.576843V11.4235" stroke="#0F1538" stroke-miterlimit="10"/>
<path d="M660.727 0.576843V11.4235" stroke="#0F1538" stroke-miterlimit="10"/>
<path d="M668.846 0.576843V11.4235" stroke="#0F1538" stroke-miterlimit="10"/>
<path d="M696.078 0.576843V11.4235" stroke="#0F1538" stroke-miterlimit="10"/>
<path d="M704.197 0.576843V11.4235" stroke="#0F1538" stroke-miterlimit="10"/>
<path d="M731.43 0.576843V11.4235" stroke="#0F1538" stroke-miterlimit="10"/>
<path d="M739.545 0.576843V11.4235" stroke="#0F1538" stroke-miterlimit="10"/>
<path d="M766.779 0.576843V11.4235" stroke="#0F1538" stroke-miterlimit="10"/>
<path d="M774.897 0.576843V11.4235" stroke="#0F1538" stroke-miterlimit="10"/>
<path d="M802.13 0.576843V11.4235" stroke="#0F1538" stroke-miterlimit="10"/>
<path d="M810.249 0.576843V11.4235" stroke="#0F1538" stroke-miterlimit="10"/>
<path d="M837.48 0.576843V11.4235" stroke="#0F1538" stroke-miterlimit="10"/>
<path d="M845.599 0.576843V11.4235" stroke="#0F1538" stroke-miterlimit="10"/>
<path d="M872.833 0.576843V11.4235" stroke="#0F1538" stroke-miterlimit="10"/>
<path d="M880.949 0.576843V11.4235" stroke="#0F1538" stroke-miterlimit="10"/>
<path d="M908.181 0.576843V11.4235" stroke="#0F1538" stroke-miterlimit="10"/>
<path d="M916.3 0.576843V11.4235" stroke="#0F1538" stroke-miterlimit="10"/>
<path d="M943.533 0.576843V11.4235" stroke="#0F1538" stroke-miterlimit="10"/>
<path d="M951.651 0.576843V11.4235" stroke="#0F1538" stroke-miterlimit="10"/>
<path d="M978.884 0.576843V11.4235" stroke="#0F1538" stroke-miterlimit="10"/>
<path d="M987.003 0.576843V11.4235" stroke="#0F1538" stroke-miterlimit="10"/>
<path d="M1014.24 0.576843V11.4235" stroke="#0F1538" stroke-miterlimit="10"/>
<path d="M1022.35 0.576843V11.4235" stroke="#0F1538" stroke-miterlimit="10"/>
<path d="M1049.58 0.576843V11.4235" stroke="#0F1538" stroke-miterlimit="10"/>
<path d="M1057.7 0.576843V11.4235" stroke="#0F1538" stroke-miterlimit="10"/>
<path d="M1084.94 0.576843V11.4235" stroke="#0F1538" stroke-miterlimit="10"/>
<path d="M1093.05 0.576843V11.4235" stroke="#0F1538" stroke-miterlimit="10"/>
<path d="M1120.29 0.576843V11.4235" stroke="#0F1538" stroke-miterlimit="10"/>
<path d="M1128.41 0.576843V11.4235" stroke="#0F1538" stroke-miterlimit="10"/>
<path d="M1155.64 0.576843V11.4235" stroke="#0F1538" stroke-miterlimit="10"/>
<path d="M1163.75 0.576843V11.4235" stroke="#0F1538" stroke-miterlimit="10"/>
</svg>
