<?xml version="1.0" encoding="utf-8"?>
<!-- Generator: Adobe Illustrator 26.0.3, SVG Export Plug-In . SVG Version: 6.00 Build 0)  -->
<svg version="1.1" xmlns="http://www.w3.org/2000/svg" xmlns:xlink="http://www.w3.org/1999/xlink" x="0px" y="0px"
	 viewBox="0 0 583 1364" style="enable-background:new 0 0 583 1364;" xml:space="preserve">
<style type="text/css">
	.st0{opacity:0.8;fill:none;stroke:#98A1D1;stroke-width:4;stroke-linecap:round;stroke-miterlimit:10;}
	.st1{opacity:0.8;fill:none;stroke:#FAB783;stroke-width:4;stroke-linecap:round;stroke-miterlimit:10;}
	.st2{fill:url(#SVGID_1_);}
	.st3{fill:#BD5323;}
	.st4{fill:#454547;}
	.st5{fill:#231F20;}
	.st6{fill:#231F20;stroke:#231F20;stroke-width:4;stroke-linecap:round;stroke-miterlimit:10;}
	.st7{fill:url(#SVGID_00000029009865328649896710000010303319561783363731_);}
	.st8{fill:url(#SVGID_00000096763051254102898750000012752776363078990214_);}
	
		.st9{fill:none;stroke:url(#SVGID_00000120524695105405148890000013935661345098514833_);stroke-width:4;stroke-linecap:round;stroke-miterlimit:10;}
	
		.st10{fill:none;stroke:url(#SVGID_00000125603767193355971340000012844160146315199877_);stroke-width:4;stroke-linecap:round;stroke-miterlimit:10;}
	
		.st11{fill:none;stroke:url(#SVGID_00000070092431041157652960000009399337985738616251_);stroke-width:4;stroke-linecap:round;stroke-miterlimit:10;}
</style>
<g id="Layer_48">
	<line class="st0" x1="474.7" y1="1000.4" x2="560.8" y2="1287.7"/>
</g>
<g id="Layer_47">
	<line class="st1" x1="470.1" y1="1047.1" x2="503" y2="1157.1"/>
</g>
<g id="Layer_43">
	<line class="st1" x1="438.1" y1="1082.6" x2="489.6" y2="1254.2"/>
</g>
<g id="Layer_42">
	<line class="st0" x1="433.4" y1="1129.3" x2="466.4" y2="1239.3"/>
</g>
<g id="Layer_41">
	<line class="st0" x1="507.9" y1="1176.1" x2="540.9" y2="1286.1"/>
</g>
<g id="Layer_40">
	<polyline class="st1" points="404.3,1070.8 442.5,1198.2 470.7,1292.1 	"/>
</g>
<g id="Layer_39">
	<polyline class="st1" points="441.5,1027.2 479.7,1154.6 507.9,1248.5 	"/>
</g>
<g id="Layer_38">
	<line class="st0" x1="404.9" y1="1109.3" x2="464.3" y2="1307.5"/>
</g>
<g id="Layer_37">
	<line class="st1" x1="287.5" y1="1055" x2="373.6" y2="1342.2"/>
</g>
<g id="Layer_36">
	<line class="st0" x1="282.9" y1="1101.7" x2="315.8" y2="1211.7"/>
</g>
<g id="Layer_34">
	<line class="st0" x1="214" y1="1053.4" x2="235.5" y2="1125.2"/>
</g>
<g id="Layer_33">
	<line class="st0" x1="254.4" y1="1081.7" x2="325" y2="1317.5"/>
</g>
<g id="Layer_32">
	<line class="st1" x1="246.9" y1="1112.8" x2="298.3" y2="1284.4"/>
</g>
<g id="Layer_31">
	<line class="st0" x1="246.2" y1="1183.8" x2="279.2" y2="1293.8"/>
</g>
<g id="Layer_30">
	<polyline class="st0" points="217.1,1125.3 250.3,1236 274.7,1317.5 	"/>
</g>
<g id="Layer_29">
	<line class="st1" x1="217.7" y1="1163.9" x2="258.1" y2="1298.4"/>
</g>
<g id="Layer_2">
	<g>
		<linearGradient id="SVGID_1_" gradientUnits="userSpaceOnUse" x1="176.7725" y1="863.0514" x2="176.7725" y2="9.5799">
			<stop  offset="0" style="stop-color:#747578"/>
			<stop  offset="1" style="stop-color:#D3D4D6"/>
		</linearGradient>
		<path class="st2" d="M23.3,97.8l10.6-76c1.7-12,16.6-16.5,24.7-7.5l51.4,58c7.2,8.2,12.5,17.8,15.4,28.3l22.6,80.6
			c-10.3,23.9-5.8,46.7,7.4,59.3c2.8,2.7,4.2,5.7,11.4,7.7C221.3,443.4,276.3,640,330.9,835.2l-99.7,27.9
			C176.5,667.4,121.7,471.8,67,276.2c3.1-4.3,5.3-11.1,6.2-14.6c12.3-29.5-19.7-51.5-24.8-51.7c-7.7-27.6-15.4-55.2-23.2-82.7
			C22.6,117.6,21.9,107.6,23.3,97.8z"/>
		
			<rect x="230.9" y="848.9" transform="matrix(0.963 -0.2695 0.2695 0.963 -219.9225 107.8281)" class="st3" width="103.5" height="11.7"/>
		<path class="st4" d="M260.1,887.3l62.4-17.5c0.6-0.2,1.2-0.6,1.4-1.2l7.8-17.8c0.7-1.7-0.8-3.5-2.6-3l-89.8,25.1
			c-1.9,0.5-2.2,3.2-0.4,4.1l19.6,10.2C259,887.4,259.6,887.5,260.1,887.3z"/>
		<polygon class="st5" points="280.2,909.4 312.1,900.5 320.7,870.3 258.3,887.8 		"/>
		
			<rect x="287.3" y="929.6" transform="matrix(0.963 -0.2695 0.2695 0.963 -241.7126 117.2827)" class="st5" width="37.8" height="18.4"/>
		<path class="st5" d="M298.5,994.9l42.8-12c-0.3-4.7-1.5-12.7-6-21.4c-4.6-8.8-10.5-14.4-14.1-17.4c-7.7,2.1-15.3,4.3-23,6.4
			c-1.8,4.4-4.3,11.9-4.4,21.4C293.7,982.4,296.6,990.5,298.5,994.9z"/>
		<path class="st5" d="M385,993l67.2-18.8c0.2-4.8-0.4-13-6-21.4c-5.7-8.5-13.9-13.5-19-16.1c-12,3.4-24.1,6.7-36.1,10.1
			c-3.5,4.8-8.4,13-9.9,23C379.6,980.6,382.7,988.6,385,993z"/>
		
			<rect x="212.4" y="383.4" transform="matrix(0.963 -0.2695 0.2695 0.963 -102.5072 74.5138)" class="st6" width="15.4" height="54.2"/>
		
			<linearGradient id="SVGID_00000069398882452508663050000010970413549736290210_" gradientUnits="userSpaceOnUse" x1="213.2953" y1="630.7087" x2="427.376" y2="630.7087">
			<stop  offset="0" style="stop-color:#747578"/>
			<stop  offset="1" style="stop-color:#D3D4D6"/>
		</linearGradient>
		<polygon style="fill:url(#SVGID_00000069398882452508663050000010970413549736290210_);" points="427.4,903.7 370.6,919.6 
			213.3,357.7 270.1,341.8 		"/>
		
			<rect x="371.2" y="911.4" transform="matrix(0.963 -0.2695 0.2695 0.963 -232.5864 141.9873)" class="st3" width="59" height="13"/>
		<polygon class="st4" points="371.2,952.4 443.8,932 431.4,916.1 374.6,932 		"/>
		
			<rect x="274.1" y="904.3" transform="matrix(0.963 -0.2695 0.2695 0.963 -236.1605 114.8737)" class="st3" width="52.2" height="26.1"/>
		
			<rect x="269.7" y="547.5" transform="matrix(0.963 -0.2695 0.2695 0.963 -138.587 101.2014)" class="st3" width="59" height="15.4"/>
		<rect x="275" y="572" transform="matrix(0.963 -0.2695 0.2695 0.963 -143.4998 103.333)" class="st5" width="59" height="4.3"/>
		
			<rect x="219.1" y="372.5" transform="matrix(0.963 -0.2695 0.2695 0.963 -91.7687 80.8872)" class="st3" width="59" height="4.3"/>
		<path class="st5" d="M267,1026l-67.2,18.8c-2.7-4-6.4-11.3-6-21.4c0.4-10.2,4.9-18.7,7.9-23.6c12-3.4,24.1-6.7,36.1-10.1
			c5.5,2.3,13.9,6.8,20.4,14.5C265.2,1012.6,266.7,1021.1,267,1026z"/>
		
			<rect x="97.9" y="415.4" transform="matrix(-0.963 0.2695 -0.2695 -0.963 326.5325 840.2922)" class="st6" width="15.4" height="54.2"/>
		
			<linearGradient id="SVGID_00000007405885369179027450000011245348403103809173_" gradientUnits="userSpaceOnUse" x1="27.1512" y1="682.8114" x2="241.2318" y2="682.8114">
			<stop  offset="0" style="stop-color:#747578"/>
			<stop  offset="1" style="stop-color:#D3D4D6"/>
		</linearGradient>
		<polygon style="fill:url(#SVGID_00000007405885369179027450000011245348403103809173_);" points="184.4,971.7 241.2,955.8 
			84,393.9 27.2,409.8 		"/>
		
			<rect x="185.1" y="963.5" transform="matrix(-0.963 0.2695 -0.2695 -0.963 682.6811 1846.2833)" class="st3" width="59" height="13"/>
		<polygon class="st4" points="257.7,984.1 185.1,1004.5 187.4,984.4 244.2,968.5 		"/>
		
			<rect x="83.6" y="599.6" transform="matrix(0.963 -0.2695 0.2695 0.963 -159.5206 52.9556)" class="st3" width="59" height="15.4"/>
		
			<rect x="88.9" y="624.1" transform="matrix(0.963 -0.2695 0.2695 0.963 -164.4334 55.0872)" class="st5" width="59" height="4.3"/>
		
			<rect x="32.9" y="424.1" transform="matrix(0.963 -0.2695 0.2695 0.963 -112.5968 32.5955)" class="st3" width="59" height="4.3"/>
		
			<linearGradient id="SVGID_00000174595527290214809960000002384035081308416693_" gradientUnits="userSpaceOnUse" x1="175.4212" y1="180.3999" x2="282.9224" y2="180.3999" gradientTransform="matrix(0.963 -0.2695 0.2695 0.963 -152.4905 150.2521)">
			<stop  offset="0" style="stop-color:#231F20"/>
			<stop  offset="0.1413" style="stop-color:#231F20"/>
			<stop  offset="1" style="stop-color:#231F20"/>
		</linearGradient>
		
			<line style="fill:none;stroke:url(#SVGID_00000174595527290214809960000002384035081308416693_);stroke-width:4;stroke-linecap:round;stroke-miterlimit:10;" x1="67" y1="276.2" x2="166.7" y2="248.3"/>
		
			<linearGradient id="SVGID_00000183234965131059081450000015110335457090536874_" gradientUnits="userSpaceOnUse" x1="175.4212" y1="58.5726" x2="282.9224" y2="58.5726" gradientTransform="matrix(0.963 -0.2695 0.2695 0.963 -152.4905 150.2521)">
			<stop  offset="0" style="stop-color:#231F20"/>
			<stop  offset="0.1413" style="stop-color:#231F20"/>
			<stop  offset="1" style="stop-color:#231F20"/>
		</linearGradient>
		
			<line style="fill:none;stroke:url(#SVGID_00000183234965131059081450000015110335457090536874_);stroke-width:4;stroke-linecap:round;stroke-miterlimit:10;" x1="34.2" y1="158.8" x2="133.8" y2="130.9"/>
		
			<linearGradient id="SVGID_00000077318368372864507470000009963330599612136069_" gradientUnits="userSpaceOnUse" x1="175.4211" y1="44.0873" x2="282.9223" y2="44.0873" gradientTransform="matrix(0.963 -0.2695 0.2695 0.963 -152.4905 150.2521)">
			<stop  offset="0" style="stop-color:#231F20"/>
			<stop  offset="0.1413" style="stop-color:#231F20"/>
			<stop  offset="1" style="stop-color:#231F20"/>
		</linearGradient>
		
			<line style="fill:none;stroke:url(#SVGID_00000077318368372864507470000009963330599612136069_);stroke-width:4;stroke-linecap:round;stroke-miterlimit:10;" x1="30.2" y1="144.9" x2="129.9" y2="117"/>
		
			<rect x="194.5" y="254.1" transform="matrix(0.963 -0.2695 0.2695 0.963 -142.1674 74.0905)" class="st6" width="8.5" height="601.2"/>
	</g>
</g>
</svg>
