<svg width="237" height="173" viewBox="0 0 237 173" fill="none" xmlns="http://www.w3.org/2000/svg">
<path opacity="0.75" d="M127.604 172.306C175.113 172.306 213.628 133.792 213.628 86.2822C213.628 38.7724 175.113 0.258148 127.604 0.258148C80.0939 0.258148 41.5796 38.7724 41.5796 86.2822C41.5796 133.792 80.0939 172.306 127.604 172.306Z" fill="url(#paint0_radial_62_8337)"/>
<path opacity="0.9" d="M127.604 166.098C171.685 166.098 207.42 130.363 207.42 86.2821C207.42 42.2011 171.685 6.46634 127.604 6.46634C83.5228 6.46634 47.7881 42.2011 47.7881 86.2821C47.7881 130.363 83.5228 166.098 127.604 166.098Z" fill="url(#paint1_linear_62_8337)"/>
<path opacity="0.8" d="M47.8285 71.1477C23.0336 70.7616 11.8412 72.1244 11.4626 74.8449C9.76674 87.0291 224.142 132.682 228.621 117.952C229.625 114.646 221.431 109.154 205.966 101.505L210.012 103.546C226.764 111.902 237.169 118.686 236.078 122.297C231.228 138.393 -0.968905 88.508 0.865796 75.1932C1.27463 72.2203 13.4008 70.7313 40.255 71.1528" stroke="url(#paint2_linear_62_8337)" stroke-width="1.5" stroke-miterlimit="10" stroke-linecap="round"/>
<path d="M42.6548 85.1414C47.2352 86.0323 51.7904 87.0215 56.3406 88.0436C58.6169 88.5458 60.8857 89.0834 63.157 89.6032L69.9608 91.2184L76.752 92.8865C79.0107 93.4619 81.2743 94.0171 83.528 94.6102C88.0428 95.7761 92.5475 96.9774 97.0296 98.2771C92.4491 97.3862 87.8914 96.3995 83.3438 95.3774C81.0674 94.8752 78.7986 94.3376 76.5273 93.8178L69.7236 92.2026L62.9324 90.5345C60.6737 89.9616 58.41 89.4039 56.1564 88.8108C51.6415 87.6398 47.1368 86.4386 42.6548 85.1414Z" fill="white"/>
<g opacity="0.8">
<path opacity="0.8" d="M122.09 114.799L127.702 116.008C129.575 116.407 131.448 116.798 133.323 117.182C137.068 117.962 140.82 118.711 144.573 119.446C148.331 120.165 152.086 120.887 155.851 121.553C159.614 122.229 163.382 122.885 167.157 123.496C170.93 124.124 174.708 124.715 178.491 125.278C182.272 125.856 186.062 126.375 189.85 126.898C193.641 127.408 197.434 127.9 201.234 128.362C203.132 128.601 205.032 128.831 206.933 129.053L212.636 129.709L209.769 129.53L206.905 129.318C204.997 129.172 203.087 129.018 201.179 128.854C197.366 128.508 193.555 128.122 189.749 127.678C185.943 127.249 182.145 126.744 178.35 126.222C174.557 125.687 170.771 125.104 166.988 124.49C163.21 123.859 159.438 123.198 155.672 122.489C151.909 121.767 148.152 121.025 144.409 120.213C140.664 119.413 136.929 118.557 133.207 117.661C131.347 117.205 129.489 116.74 127.634 116.266L124.853 115.546L122.09 114.799Z" fill="white"/>
</g>
<path opacity="0.8" d="M205.668 93.7016L141.226 79.506" stroke="white" stroke-width="1.5" stroke-miterlimit="10" stroke-linecap="round"/>
<path opacity="0.8" d="M188.141 86.6026L123.7 72.4095" stroke="white" stroke-width="1.5" stroke-miterlimit="10" stroke-linecap="round"/>
<path opacity="0.8" d="M125.1 82.5975L97.0269 76.4146" stroke="white" stroke-width="1.5" stroke-miterlimit="10" stroke-linecap="round"/>
<path opacity="0.8" d="M177.01 146.423L148.937 140.238" stroke="white" stroke-width="1.5" stroke-miterlimit="10" stroke-linecap="round"/>
<path opacity="0.8" d="M162.973 147.958L134.899 141.775" stroke="white" stroke-width="1.5" stroke-miterlimit="10" stroke-linecap="round"/>
<path opacity="0.8" d="M166.301 154.143L138.228 147.958" stroke="white" stroke-width="1.5" stroke-miterlimit="10" stroke-linecap="round"/>
<path d="M197.897 48.831L169.824 42.648" stroke="white" stroke-width="0.2" stroke-miterlimit="10"/>
<path d="M190.596 50.5648L149.423 41.5074" stroke="white" stroke-width="0.2" stroke-miterlimit="10"/>
<defs>
<radialGradient id="paint0_radial_62_8337" cx="0" cy="0" r="1" gradientUnits="userSpaceOnUse" gradientTransform="translate(127.603 86.2811) scale(86.0248)">
<stop offset="0.0046503" stop-color="#E18C61" stop-opacity="0.92"/>
<stop offset="0.1063" stop-color="#D48561" stop-opacity="0.9179"/>
<stop offset="0.282" stop-color="#B87461" stop-opacity="0.9143"/>
<stop offset="0.5106" stop-color="#8E5C60" stop-opacity="0.9095"/>
<stop offset="0.7803" stop-color="#5D405C" stop-opacity="0.904"/>
<stop offset="0.9717" stop-color="#392D57" stop-opacity="0.9"/>
<stop offset="1" stop-color="#E18E61" stop-opacity="0.2"/>
</radialGradient>
<linearGradient id="paint1_linear_62_8337" x1="47.7883" y1="86.2811" x2="207.418" y2="86.2811" gradientUnits="userSpaceOnUse">
<stop stop-color="#E48286"/>
<stop offset="0.1798" stop-color="#E68988"/>
<stop offset="0.4785" stop-color="#EC9C8D"/>
<stop offset="0.8573" stop-color="#F7BF94"/>
<stop offset="1" stop-color="#FECF98"/>
</linearGradient>
<linearGradient id="paint2_linear_62_8337" x1="0.351651" y1="98.2743" x2="236.662" y2="98.2743" gradientUnits="userSpaceOnUse">
<stop stop-color="#E78B38"/>
<stop offset="0.0798" stop-color="#E99448"/>
<stop offset="0.5365" stop-color="#F4C89E"/>
<stop offset="0.8526" stop-color="#FCECDE"/>
<stop offset="1" stop-color="white"/>
</linearGradient>
</defs>
</svg>
