<svg width="2823" height="739" viewBox="0 0 2823 739" fill="none" xmlns="http://www.w3.org/2000/svg">
<g id="Skylayer1" opacity="0.7">
<path d="M158.4 0.800049H2822.5C2822.5 246.8 2822.5 492.8 2822.5 738.8C2732.1 692.1 2593.5 627.5 2417.1 573.4C1879.9 408.7 1399.4 466.3 1390.9 389.9C1386.1 346.8 1538.1 320.9 1534.5 272.1C1529 198.7 1179.1 182 729.4 111.3C489.6 73.7001 293.1 31.9 158.4 0.800049Z" fill="url(#paint0_linear_14_37)"/>
<path d="M97.4 246C99 264.9 99.3 284.6 99.4 303.6C99.3 322.6 99 342.3 97.4 361.2C95.8 342.3 95.5 322.6 95.4 303.6C95.5 284.7 95.8 264.9 97.4 246Z" fill="#A8ABAD"/>
<path d="M138.2 303.7C124.6 305.3 111 305.6 97.3 305.7C83.7 305.6 70 305.3 56.4 303.7C70 302.1 83.6 301.8 97.3 301.7C111 301.7 124.6 302.1 138.2 303.7Z" fill="#A8ABAD"/>
<path d="M2442.1 549.1C2449.56 549.1 2455.6 543.056 2455.6 535.6C2455.6 528.144 2449.56 522.1 2442.1 522.1C2434.64 522.1 2428.6 528.144 2428.6 535.6C2428.6 543.056 2434.64 549.1 2442.1 549.1Z" fill="#801C64"/>
<path d="M2613.3 536.5C2619.26 536.5 2624.1 531.665 2624.1 525.7C2624.1 519.735 2619.26 514.9 2613.3 514.9C2607.34 514.9 2602.5 519.735 2602.5 525.7C2602.5 531.665 2607.34 536.5 2613.3 536.5Z" fill="#FFD79E"/>
<path d="M2294.6 606.3C2301.84 606.3 2307.7 600.435 2307.7 593.2C2307.7 585.965 2301.84 580.1 2294.6 580.1C2287.37 580.1 2281.5 585.965 2281.5 593.2C2281.5 600.435 2287.37 606.3 2294.6 606.3Z" fill="#FFD79E"/>
<path d="M2528.7 593.8C2532.68 593.8 2535.9 590.576 2535.9 586.6C2535.9 582.624 2532.68 579.4 2528.7 579.4C2524.72 579.4 2521.5 582.624 2521.5 586.6C2521.5 590.576 2524.72 593.8 2528.7 593.8Z" fill="#DE7A88"/>
<path d="M2571.4 576.6C2575.38 576.6 2578.6 573.377 2578.6 569.4C2578.6 565.424 2575.38 562.2 2571.4 562.2C2567.42 562.2 2564.2 565.424 2564.2 569.4C2564.2 573.377 2567.42 576.6 2571.4 576.6Z" fill="#FFD79E"/>
<path d="M2283.2 645.2C2288.45 645.2 2292.7 640.947 2292.7 635.7C2292.7 630.453 2288.45 626.2 2283.2 626.2C2277.95 626.2 2273.7 630.453 2273.7 635.7C2273.7 640.947 2277.95 645.2 2283.2 645.2Z" fill="#FAA822"/>
<path d="M22.5 205.8C23.3 211 23.7 216.2 24.1 221.4C24.4 226.6 24.5 231.8 24.5 237C24.5 242.2 24.4 247.4 24.1 252.6C23.8 257.8 23.4 263 22.5 268.2C21.7 263 21.2 257.8 20.9 252.6C20.6 247.4 20.5 242.2 20.5 237C20.5 231.8 20.6 226.6 20.9 221.4C21.2 216.2 21.6 211 22.5 205.8Z" fill="#A8ABAD"/>
<path d="M44.5999 237.1C40.8999 237.9 37.2 238.4 33.5 238.7C29.8 239 26.1 239.1 22.4 239.1C18.6999 239.1 15 239 11.3 238.7C7.59995 238.4 3.89995 238 0.199951 237.1C3.89995 236.3 7.59995 235.8 11.3 235.5C15 235.2 18.6999 235.1 22.4 235.1C26.1 235.1 29.8 235.2 33.5 235.5C37.2 235.8 40.8999 236.3 44.5999 237.1Z" fill="#A8ABAD"/>
<path d="M2325.5 564.3C2328.59 564.3 2331.1 561.793 2331.1 558.7C2331.1 555.607 2328.59 553.1 2325.5 553.1C2322.41 553.1 2319.9 555.607 2319.9 558.7C2319.9 561.793 2322.41 564.3 2325.5 564.3Z" fill="#AD5F6C"/>
<path d="M2376.9 603.6C2380.16 603.6 2382.8 600.959 2382.8 597.7C2382.8 594.442 2380.16 591.8 2376.9 591.8C2373.64 591.8 2371 594.442 2371 597.7C2371 600.959 2373.64 603.6 2376.9 603.6Z" fill="#DE7A88"/>
<path d="M2455.7 591.8C2458.57 591.8 2460.9 589.472 2460.9 586.6C2460.9 583.728 2458.57 581.4 2455.7 581.4C2452.83 581.4 2450.5 583.728 2450.5 586.6C2450.5 589.472 2452.83 591.8 2455.7 591.8Z" fill="#FFD79E"/>
<path d="M2189.1 623.4C2191.97 623.4 2194.3 621.072 2194.3 618.2C2194.3 615.328 2191.97 613 2189.1 613C2186.23 613 2183.9 615.328 2183.9 618.2C2183.9 621.072 2186.23 623.4 2189.1 623.4Z" fill="#FFD79E"/>
</g>
<defs>
<linearGradient id="paint0_linear_14_37" x1="1411.32" y1="738.76" x2="1411.32" y2="0.779067" gradientUnits="userSpaceOnUse">
<stop stop-color="#3F305B"/>
<stop offset="0.076035" stop-color="#392B55"/>
<stop offset="0.34" stop-color="#281D45"/>
<stop offset="0.6313" stop-color="#1E153B"/>
<stop offset="1" stop-color="#1B1238"/>
</linearGradient>
</defs>
</svg>
