<svg width="1115" height="567" viewBox="0 0 1115 567" fill="none" xmlns="http://www.w3.org/2000/svg">
<g opacity="0.7">
<path opacity="0.7" d="M1104.44 183.736C1104.21 183.085 1103.69 181.836 1102.51 180.69C1101.43 179.648 1100.29 179.171 1099.65 178.954C1100.29 178.742 1101.47 178.255 1102.58 177.155C1103.72 176.024 1104.22 174.808 1104.44 174.169C1104.62 174.795 1105.11 176.175 1106.42 177.379C1107.48 178.363 1108.61 178.775 1109.22 178.951C1108.63 179.083 1107.54 179.413 1106.49 180.312C1105.01 181.579 1104.57 183.163 1104.44 183.736Z" fill="white"/>
<path opacity="0.7" d="M1113.53 186.151C1113.47 185.987 1113.34 185.677 1113.04 185.389C1112.77 185.129 1112.49 185.008 1112.33 184.955C1112.49 184.902 1112.78 184.781 1113.06 184.506C1113.35 184.223 1113.47 183.918 1113.53 183.759C1113.57 183.916 1113.7 184.261 1114.02 184.562C1114.29 184.806 1114.57 184.91 1114.72 184.955C1114.58 184.988 1114.3 185.071 1114.04 185.296C1113.67 185.611 1113.56 186.008 1113.53 186.151Z" fill="white"/>
</g>
<path opacity="0.53" d="M0.251953 0.559021C44.7491 63.4562 119.137 147.82 233.678 194.326C377.882 252.875 455.644 198.601 672.795 233.112C880.3 266.088 1044.02 352.95 1038.65 374.119C1034.61 390.028 937.08 360.917 779 380.087C683.387 391.683 513.077 427.315 509.133 482.952C507.78 502.013 525.534 529.362 607.558 566.301C405.12 565.975 202.687 565.647 0.251953 565.319C0.251953 377.066 0.251953 188.814 0.251953 0.559021Z" fill="url(#paint0_linear_93_9607)"/>
<path d="M373.799 196.153C373.65 195.711 373.297 194.866 372.492 194.088C371.76 193.384 370.993 193.059 370.559 192.912C370.988 192.769 371.788 192.438 372.542 191.693C373.317 190.926 373.655 190.104 373.799 189.672C373.923 190.096 374.256 191.032 375.142 191.845C375.866 192.511 376.625 192.791 377.039 192.91C376.643 192.998 375.904 193.223 375.192 193.831C374.19 194.692 373.89 195.764 373.799 196.153Z" fill="white"/>
<path d="M379.957 197.788C379.919 197.677 379.831 197.465 379.629 197.273C379.447 197.097 379.253 197.016 379.147 196.981C379.255 196.945 379.455 196.862 379.642 196.675C379.836 196.483 379.919 196.276 379.955 196.17C379.985 196.276 380.068 196.511 380.29 196.713C380.472 196.88 380.661 196.95 380.765 196.981C380.666 197.003 380.479 197.059 380.303 197.21C380.055 197.422 379.98 197.692 379.957 197.788Z" fill="white"/>
<g opacity="0.7">
<path opacity="0.7" d="M404.916 326.121C404.517 324.943 403.573 322.687 401.425 320.615C399.475 318.732 397.423 317.869 396.27 317.475C397.415 317.094 399.553 316.211 401.562 314.225C403.629 312.181 404.532 309.982 404.916 308.829C405.244 309.96 406.135 312.456 408.497 314.631C410.427 316.41 412.454 317.155 413.562 317.475C412.504 317.712 410.528 318.311 408.633 319.933C405.96 322.222 405.155 325.084 404.916 326.121Z" fill="#F79C87"/>
<path opacity="0.7" d="M421.347 330.487C421.246 330.192 421.012 329.629 420.474 329.109C419.987 328.64 419.475 328.423 419.185 328.324C419.47 328.229 420.005 328.009 420.507 327.512C421.024 326.999 421.249 326.452 421.345 326.164C421.426 326.447 421.65 327.07 422.241 327.615C422.723 328.059 423.23 328.246 423.508 328.327C423.243 328.387 422.748 328.536 422.276 328.943C421.607 329.513 421.405 330.227 421.347 330.487Z" fill="#F79C87"/>
</g>
<path opacity="0.9" d="M488.759 241.079C489.702 241.079 490.467 240.314 490.467 239.37C490.467 238.427 489.702 237.662 488.759 237.662C487.815 237.662 487.05 238.427 487.05 239.37C487.05 240.314 487.815 241.079 488.759 241.079Z" fill="#A3A5A8"/>
<path d="M166.718 224.064C168.871 224.064 170.617 222.319 170.617 220.165C170.617 218.012 168.871 216.266 166.718 216.266C164.565 216.266 162.819 218.012 162.819 220.165C162.819 222.319 164.565 224.064 166.718 224.064Z" fill="#FBA922"/>
<path opacity="0.7" d="M550.357 224.231C551.71 224.231 552.807 223.134 552.807 221.781C552.807 220.427 551.71 219.33 550.357 219.33C549.003 219.33 547.906 220.427 547.906 221.781C547.906 223.134 549.003 224.231 550.357 224.231Z" fill="#F79C87"/>
<path opacity="0.7" d="M511.801 250.331C513.42 250.331 514.733 249.018 514.733 247.398C514.733 245.779 513.42 244.466 511.801 244.466C510.181 244.466 508.868 245.779 508.868 247.398C508.868 249.018 510.181 250.331 511.801 250.331Z" fill="#F79C87"/>
<path opacity="0.7" d="M153.619 237.415C154.634 237.415 155.457 236.592 155.457 235.577C155.457 234.563 154.634 233.74 153.619 233.74C152.605 233.74 151.782 234.563 151.782 235.577C151.782 236.592 152.605 237.415 153.619 237.415Z" fill="#AF6B72"/>
<path d="M513.671 360.557C513.881 361.735 513.987 362.914 514.067 364.095C514.141 365.273 514.176 366.452 514.176 367.633C514.176 368.811 514.143 369.99 514.067 371.171C513.987 372.35 513.883 373.528 513.671 374.709C513.459 373.531 513.353 372.352 513.275 371.171C513.202 369.993 513.167 368.814 513.167 367.633C513.167 366.454 513.202 365.276 513.275 364.095C513.356 362.916 513.459 361.738 513.671 360.557Z" fill="#A9ABAE"/>
<path d="M518.688 367.633C517.853 367.842 517.015 367.951 516.18 368.029C515.345 368.102 514.507 368.138 513.671 368.138C512.836 368.138 511.998 368.105 511.163 368.029C510.327 367.951 509.49 367.842 508.654 367.633C509.49 367.423 510.327 367.315 511.163 367.237C511.998 367.164 512.836 367.128 513.671 367.128C514.507 367.128 515.345 367.164 516.18 367.237C517.015 367.315 517.851 367.423 518.688 367.633Z" fill="#A9ABAE"/>
<path d="M547.947 404.885C548.156 406.477 548.265 408.07 548.338 409.662C548.411 411.254 548.452 412.847 548.449 414.439C548.452 416.032 548.411 417.624 548.338 419.217C548.265 420.809 548.154 422.401 547.944 423.994C547.735 422.401 547.624 420.809 547.551 419.217C547.477 417.624 547.437 416.032 547.44 414.439C547.44 412.847 547.477 411.254 547.551 409.662C547.629 408.07 547.737 406.477 547.947 404.885Z" fill="#A9ABAE"/>
<path d="M554.723 414.437C553.595 414.646 552.465 414.752 551.337 414.833C550.208 414.906 549.078 414.941 547.95 414.941C546.822 414.941 545.691 414.909 544.563 414.833C543.435 414.752 542.304 414.649 541.176 414.437C542.304 414.225 543.435 414.119 544.563 414.041C545.691 413.967 546.822 413.932 547.95 413.932C549.078 413.932 550.208 413.967 551.337 414.041C552.465 414.124 553.593 414.227 554.723 414.437Z" fill="#A9ABAE"/>
<path d="M527.325 418.941C527.535 421.876 527.643 424.812 527.717 427.747C527.762 429.215 527.775 430.682 527.8 432.15L527.828 436.554L527.802 440.958C527.775 442.427 527.765 443.893 527.719 445.362C527.646 448.297 527.535 451.232 527.325 454.167C527.116 451.232 527.005 448.297 526.932 445.362C526.884 443.893 526.876 442.427 526.848 440.958L526.823 436.554L526.851 432.15C526.879 430.682 526.889 429.215 526.934 427.747C527.007 424.812 527.116 421.876 527.325 418.941Z" fill="#A9ABAE"/>
<path d="M539.815 436.552C537.733 436.761 535.651 436.87 533.569 436.943C532.529 436.988 531.487 437.001 530.447 437.026L527.326 437.054L524.204 437.029C523.164 437.001 522.122 436.991 521.082 436.945C519 436.872 516.918 436.761 514.836 436.552C516.918 436.342 519 436.231 521.082 436.158C522.122 436.11 523.164 436.102 524.204 436.075L527.326 436.049L530.447 436.077C531.487 436.105 532.529 436.115 533.569 436.16C535.651 436.234 537.733 436.342 539.815 436.552Z" fill="#A9ABAE"/>
<path opacity="0.9" d="M504.378 406.371C505.199 406.371 505.864 405.706 505.864 404.885C505.864 404.064 505.199 403.398 504.378 403.398C503.557 403.398 502.892 404.064 502.892 404.885C502.892 405.706 503.557 406.371 504.378 406.371Z" fill="#FFD89E"/>
<path opacity="0.9" d="M513.62 410.939C513.723 411.219 513.961 411.757 514.488 412.244C514.968 412.685 515.465 412.882 515.745 412.968C515.472 413.066 514.963 413.291 514.491 413.778C514.006 414.28 513.802 414.815 513.716 415.093C513.63 414.823 513.403 414.227 512.822 413.718C512.348 413.301 511.858 413.132 511.588 413.061C511.841 412.998 512.313 412.844 512.759 412.443C513.393 411.883 513.569 411.189 513.62 410.939Z" fill="white"/>
<path opacity="0.9" d="M623.203 277.627C624.024 277.627 624.689 276.961 624.689 276.14C624.689 275.319 624.024 274.654 623.203 274.654C622.382 274.654 621.716 275.319 621.716 276.14C621.716 276.961 622.382 277.627 623.203 277.627Z" fill="#FFD89E"/>
<path opacity="0.7" d="M531.49 305.155C534.566 305.155 537.06 302.661 537.06 299.585C537.06 296.509 534.566 294.015 531.49 294.015C528.414 294.015 525.92 296.509 525.92 299.585C525.92 302.661 528.414 305.155 531.49 305.155Z" fill="#F79C87"/>
<path opacity="0.9" d="M502.877 308.811C503.705 308.811 504.376 308.14 504.376 307.312C504.376 306.485 503.705 305.813 502.877 305.813C502.049 305.813 501.378 306.485 501.378 307.312C501.378 308.14 502.049 308.811 502.877 308.811Z" fill="#FFD89E"/>
<path opacity="0.9" d="M509.073 318.096C510.55 318.096 511.748 316.898 511.748 315.421C511.748 313.944 510.55 312.746 509.073 312.746C507.595 312.746 506.397 313.944 506.397 315.421C506.397 316.898 507.595 318.096 509.073 318.096Z" fill="#722D79"/>
<path opacity="0.9" d="M511.747 306.288C511.652 306.005 511.424 305.463 510.91 304.963C510.44 304.511 509.948 304.302 509.67 304.208C509.945 304.117 510.46 303.905 510.942 303.426C511.44 302.934 511.657 302.406 511.747 302.129C511.826 302.401 512.04 302.999 512.608 303.524C513.072 303.951 513.559 304.13 513.824 304.208C513.569 304.266 513.095 304.41 512.638 304.799C512 305.351 511.805 306.04 511.747 306.288Z" fill="white"/>
<path d="M846.668 281.796C847.072 281.796 847.4 281.468 847.4 281.064C847.4 280.66 847.072 280.332 846.668 280.332C846.264 280.332 845.936 280.66 845.936 281.064C845.936 281.468 846.264 281.796 846.668 281.796Z" fill="#FBA922"/>
<path d="M839.69 292.256C841.231 292.256 842.481 291.007 842.481 289.465C842.481 287.924 841.231 286.674 839.69 286.674C838.148 286.674 836.898 287.924 836.898 289.465C836.898 291.007 838.148 292.256 839.69 292.256Z" fill="#FBA922"/>
<path d="M848.146 287.88C848.061 287.759 847.879 287.534 847.566 287.37C847.281 287.222 847.021 287.191 846.875 287.186C846.993 287.105 847.205 286.934 847.367 286.641C847.533 286.341 847.563 286.061 847.569 285.917C847.644 286.035 847.828 286.288 848.169 286.457C848.447 286.596 848.704 286.611 848.84 286.611C848.729 286.674 848.522 286.808 848.363 287.055C848.136 287.403 848.139 287.754 848.146 287.88Z" fill="#FBA922"/>
<g opacity="0.7">
<path opacity="0.7" d="M820.858 283.81C822.731 283.81 824.249 282.291 824.249 280.418C824.249 278.545 822.731 277.026 820.858 277.026C818.984 277.026 817.466 278.545 817.466 280.418C817.466 282.291 818.984 283.81 820.858 283.81Z" fill="#F79C87"/>
<path opacity="0.7" d="M831.24 285.349C831.718 285.349 832.106 284.961 832.106 284.483C832.106 284.005 831.718 283.618 831.24 283.618C830.762 283.618 830.375 284.005 830.375 284.483C830.375 284.961 830.762 285.349 831.24 285.349Z" fill="#F79C87"/>
</g>
<path d="M829.212 335.09L707.831 335.176" stroke="url(#paint1_linear_93_9607)" stroke-width="2" stroke-miterlimit="10" stroke-linecap="round"/>
<path d="M793 324.347L671.617 324.435" stroke="url(#paint2_linear_93_9607)" stroke-width="2" stroke-miterlimit="10" stroke-linecap="round"/>
<path opacity="0.7" d="M508.303 234.439C508.979 234.439 509.527 233.891 509.527 233.215C509.527 232.539 508.979 231.991 508.303 231.991C507.627 231.991 507.079 232.539 507.079 233.215C507.079 233.891 507.627 234.439 508.303 234.439Z" fill="#361A58"/>
<path opacity="0.9" d="M611.155 295.668C614.284 295.668 616.82 293.132 616.82 290.003C616.82 286.874 614.284 284.337 611.155 284.337C608.026 284.337 605.489 286.874 605.489 290.003C605.489 293.132 608.026 295.668 611.155 295.668Z" fill="#4D317B"/>
<path d="M564.603 308.11C566.757 308.11 568.502 306.364 568.502 304.211C568.502 302.057 566.757 300.312 564.603 300.312C562.45 300.312 560.704 302.057 560.704 304.211C560.704 306.364 562.45 308.11 564.603 308.11Z" fill="#FBA922"/>
<path opacity="0.9" d="M573.009 315.002C574.255 315.002 575.265 313.992 575.265 312.746C575.265 311.5 574.255 310.49 573.009 310.49C571.763 310.49 570.753 311.5 570.753 312.746C570.753 313.992 571.763 315.002 573.009 315.002Z" fill="#4D317B"/>
<path opacity="0.9" d="M566.698 281.68C567.345 281.68 567.869 281.155 567.869 280.509C567.869 279.862 567.345 279.338 566.698 279.338C566.052 279.338 565.527 279.862 565.527 280.509C565.527 281.155 566.052 281.68 566.698 281.68Z" fill="#361A58"/>
<path opacity="0.9" d="M587.48 295.562C588.336 295.562 589.03 294.868 589.03 294.013C589.03 293.157 588.336 292.463 587.48 292.463C586.624 292.463 585.931 293.157 585.931 294.013C585.931 294.868 586.624 295.562 587.48 295.562Z" fill="#FFD89E"/>
<path opacity="0.9" d="M578.29 306.81C579.008 306.81 579.59 306.228 579.59 305.511C579.59 304.793 579.008 304.211 578.29 304.211C577.572 304.211 576.99 304.793 576.99 305.511C576.99 306.228 577.572 306.81 578.29 306.81Z" fill="#F79C87"/>
<path opacity="0.9" d="M555.914 311.401C556.651 311.401 557.249 310.803 557.249 310.066C557.249 309.328 556.651 308.731 555.914 308.731C555.177 308.731 554.579 309.328 554.579 310.066C554.579 310.803 555.177 311.401 555.914 311.401Z" fill="#F79C87"/>
<path opacity="0.9" d="M528.489 282.366C528.821 282.366 529.09 282.097 529.09 281.765C529.09 281.434 528.821 281.165 528.489 281.165C528.158 281.165 527.889 281.434 527.889 281.765C527.889 282.097 528.158 282.366 528.489 282.366Z" fill="#361A58"/>
<path opacity="0.9" d="M628.538 291.752C628.442 291.469 628.215 290.926 627.7 290.427C627.231 289.975 626.739 289.765 626.461 289.672C626.736 289.581 627.251 289.369 627.733 288.89C628.23 288.398 628.447 287.87 628.538 287.593C628.616 287.865 628.831 288.463 629.398 288.988C629.863 289.415 630.35 289.594 630.615 289.672C630.36 289.73 629.886 289.874 629.429 290.263C628.79 290.813 628.596 291.502 628.538 291.752Z" fill="white" stroke="white" stroke-width="0.4" stroke-miterlimit="10"/>
<defs>
<linearGradient id="paint0_linear_93_9607" x1="519.513" y1="566.301" x2="519.513" y2="0.559493" gradientUnits="userSpaceOnUse">
<stop stop-color="#3F305B" stop-opacity="0"/>
<stop offset="0.1059" stop-color="#362952" stop-opacity="0.28"/>
<stop offset="0.2948" stop-color="#2B2046" stop-opacity="0.51"/>
<stop offset="0.4967" stop-color="#22193E"/>
<stop offset="0.7188" stop-color="#1D1439"/>
<stop offset="1" stop-color="#1C1238"/>
</linearGradient>
<linearGradient id="paint1_linear_93_9607" x1="707.83" y1="335.133" x2="829.212" y2="335.133" gradientUnits="userSpaceOnUse">
<stop stop-color="#8F5560"/>
<stop offset="0.17" stop-color="#945C6A"/>
<stop offset="0.4966" stop-color="#9E6F86"/>
<stop offset="0.943" stop-color="#AF91BB"/>
<stop offset="1" stop-color="#B297C7"/>
</linearGradient>
<linearGradient id="paint2_linear_93_9607" x1="671.618" y1="324.391" x2="793" y2="324.391" gradientUnits="userSpaceOnUse">
<stop stop-color="#8F5560"/>
<stop offset="0.17" stop-color="#945C6A"/>
<stop offset="0.4966" stop-color="#9E6F86"/>
<stop offset="0.943" stop-color="#AF91BB"/>
<stop offset="1" stop-color="#B297C7"/>
</linearGradient>
</defs>
</svg>
