<svg width="553" height="700" viewBox="0 0 553 700" fill="none" xmlns="http://www.w3.org/2000/svg">
<path opacity="0.43" d="M553.495 262.729C514.56 269.187 455.232 276.521 383.068 275.007C188.309 270.921 74.0607 206.04 58.7849 232.995C44.2184 258.696 131.565 346.865 228.521 402.383C353.566 473.987 478.611 482.128 553.498 480.13C553.495 407.66 553.495 335.193 553.495 262.729Z" fill="url(#paint0_linear_93_10013)"/>
<path d="M527.872 1.03033C466.116 19.1477 400.965 39.9326 402.128 47.4177C403.418 55.6953 485.031 42.6581 485.714 48.1748C486.096 51.2512 461.283 59.9628 351.539 84.5837" stroke="url(#paint1_linear_93_10013)" stroke-width="2" stroke-miterlimit="10" stroke-linecap="round"/>
<path d="M339.85 86.6935L314.205 91.8065" stroke="url(#paint2_linear_93_10013)" stroke-width="2" stroke-miterlimit="10" stroke-linecap="round"/>
<path opacity="0.9" d="M500.223 142.734C501.469 142.734 502.479 141.724 502.479 140.478C502.479 139.232 501.469 138.222 500.223 138.222C498.977 138.222 497.967 139.232 497.967 140.478C497.967 141.724 498.977 142.734 500.223 142.734Z" fill="#E28EBC"/>
<path opacity="0.7" d="M494.984 131.125C495.63 131.125 496.155 130.601 496.155 129.954C496.155 129.307 495.63 128.783 494.984 128.783C494.337 128.783 493.812 129.307 493.812 129.954C493.812 130.601 494.337 131.125 494.984 131.125Z" fill="#2C0C5C"/>
<path opacity="0.7" d="M499.794 126.812C500.622 126.812 501.293 126.141 501.293 125.313C501.293 124.485 500.622 123.814 499.794 123.814C498.966 123.814 498.295 124.485 498.295 125.313C498.295 126.141 498.966 126.812 499.794 126.812Z" fill="white"/>
<path d="M522.35 132.894C523.206 132.894 523.9 132.2 523.9 131.345C523.9 130.489 523.206 129.795 522.35 129.795C521.494 129.795 520.801 130.489 520.801 131.345C520.801 132.2 521.494 132.894 522.35 132.894Z" fill="#FBA922"/>
<path opacity="0.7" d="M506.574 156.256C507.292 156.256 507.874 155.674 507.874 154.956C507.874 154.238 507.292 153.656 506.574 153.656C505.856 153.656 505.274 154.238 505.274 154.956C505.274 155.674 505.856 156.256 506.574 156.256Z" fill="#F79C87"/>
<path d="M484.2 160.844C484.938 160.844 485.535 160.246 485.535 159.509C485.535 158.771 484.938 158.174 484.2 158.174C483.463 158.174 482.865 158.771 482.865 159.509C482.865 160.246 483.463 160.844 484.2 160.844Z" fill="#FBA922"/>
<path opacity="0.7" d="M456.773 131.812C457.104 131.812 457.373 131.543 457.373 131.211C457.373 130.879 457.104 130.61 456.773 130.61C456.441 130.61 456.172 130.879 456.172 131.211C456.172 131.543 456.441 131.812 456.773 131.812Z" fill="#2C0C5C"/>
<path d="M448.213 132.942C449.152 132.942 449.914 132.181 449.914 131.241C449.914 130.302 449.152 129.54 448.213 129.54C447.273 129.54 446.512 130.302 446.512 131.241C446.512 132.181 447.273 132.942 448.213 132.942Z" fill="#FBA922"/>
<path d="M459.357 109.856C462.433 109.856 464.926 107.362 464.926 104.286C464.926 101.21 462.433 98.7162 459.357 98.7162C456.281 98.7162 453.787 101.21 453.787 104.286C453.787 107.362 456.281 109.856 459.357 109.856Z" fill="#FBA922"/>
<path opacity="0.7" d="M488.21 102.81C488.68 102.81 489.06 102.429 489.06 101.959C489.06 101.489 488.68 101.109 488.21 101.109C487.74 101.109 487.359 101.489 487.359 101.959C487.359 102.429 487.74 102.81 488.21 102.81Z" fill="#2C0C5C"/>
<path opacity="0.7" d="M490.461 112.42C491.801 112.42 492.887 111.334 492.887 109.994C492.887 108.655 491.801 107.569 490.461 107.569C489.122 107.569 488.036 108.655 488.036 109.994C488.036 111.334 489.122 112.42 490.461 112.42Z" fill="#F79C87"/>
<path opacity="0.7" d="M494.033 85.7724C494.295 85.7724 494.507 85.56 494.507 85.298C494.507 85.0359 494.295 84.8235 494.033 84.8235C493.771 84.8235 493.559 85.0359 493.559 85.298C493.559 85.56 493.771 85.7724 494.033 85.7724Z" fill="#2C0C5C"/>
<path opacity="0.9" d="M411.145 152.074C411.669 152.074 412.094 151.649 412.094 151.125C412.094 150.601 411.669 150.176 411.145 150.176C410.621 150.176 410.196 150.601 410.196 151.125C410.196 151.649 410.621 152.074 411.145 152.074Z" fill="#E28EBC"/>
<path opacity="0.7" d="M437.356 167.541C438.833 167.541 440.031 166.344 440.031 164.866C440.031 163.389 438.833 162.191 437.356 162.191C435.878 162.191 434.681 163.389 434.681 164.866C434.681 166.344 435.878 167.541 437.356 167.541Z" fill="#E4ACCE"/>
<path opacity="0.7" d="M416.238 183.784C417.094 183.784 417.787 183.09 417.787 182.234C417.787 181.378 417.094 180.685 416.238 180.685C415.382 180.685 414.688 181.378 414.688 182.234C414.688 183.09 415.382 183.784 416.238 183.784Z" fill="#2C0C5C"/>
<path opacity="0.7" d="M404.483 175.622C404.967 175.622 405.359 175.23 405.359 174.747C405.359 174.263 404.967 173.871 404.483 173.871C404 173.871 403.607 174.263 403.607 174.747C403.607 175.23 404 175.622 404.483 175.622Z" fill="#FFD89E"/>
<path opacity="0.7" d="M507.874 108.442C507.778 108.16 507.551 107.617 507.036 107.117C506.567 106.666 506.074 106.456 505.797 106.363C506.072 106.272 506.587 106.06 507.069 105.581C507.566 105.088 507.783 104.561 507.874 104.283C507.952 104.556 508.167 105.154 508.734 105.679C509.199 106.105 509.686 106.285 509.951 106.363C509.696 106.421 509.221 106.565 508.767 106.953C508.126 107.504 507.932 108.193 507.874 108.442Z" fill="white"/>
<path opacity="0.7" d="M440.031 155.733C439.935 155.451 439.708 154.908 439.193 154.408C438.724 153.957 438.232 153.747 437.954 153.654C438.229 153.563 438.744 153.351 439.226 152.871C439.723 152.379 439.94 151.852 440.031 151.574C440.109 151.847 440.324 152.445 440.892 152.97C441.356 153.396 441.843 153.576 442.108 153.654C441.853 153.712 441.379 153.856 440.924 154.244C440.283 154.797 440.089 155.483 440.031 155.733Z" fill="white"/>
<path opacity="0.9" d="M431.163 158.257C431.991 158.257 432.662 157.586 432.662 156.758C432.662 155.93 431.991 155.259 431.163 155.259C430.335 155.259 429.664 155.93 429.664 156.758C429.664 157.586 430.335 158.257 431.163 158.257Z" fill="black"/>
<path opacity="0.9" d="M371.923 623.284C372.393 623.284 372.774 622.904 372.774 622.434C372.774 621.964 372.393 621.583 371.923 621.583C371.454 621.583 371.073 621.964 371.073 622.434C371.073 622.904 371.454 623.284 371.923 623.284Z" fill="#361A58"/>
<path opacity="0.7" d="M30.3331 296.96C32.1966 296.96 33.7072 295.449 33.7072 293.586C33.7072 291.722 32.1966 290.211 30.3331 290.211C28.4696 290.211 26.959 291.722 26.959 293.586C26.959 295.449 28.4696 296.96 30.3331 296.96Z" fill="#361A58"/>
<path d="M34.5421 312.46C35.5776 312.46 36.4172 311.621 36.4172 310.585C36.4172 309.549 35.5776 308.71 34.5421 308.71C33.5065 308.71 32.667 309.549 32.667 310.585C32.667 311.621 33.5065 312.46 34.5421 312.46Z" fill="#FBA922"/>
<path opacity="0.7" d="M14.4214 308.4C15.457 308.4 16.2966 307.56 16.2966 306.524C16.2966 305.489 15.457 304.649 14.4214 304.649C13.3859 304.649 12.5464 305.489 12.5464 306.524C12.5464 307.56 13.3859 308.4 14.4214 308.4Z" fill="white"/>
<path opacity="0.7" d="M60.8086 324.705C64.9621 324.705 68.3291 321.338 68.3291 317.184C68.3291 313.031 64.9621 309.664 60.8086 309.664C56.6551 309.664 53.2881 313.031 53.2881 317.184C53.2881 321.338 56.6551 324.705 60.8086 324.705Z" fill="#361A58"/>
<path opacity="0.7" d="M8.8842 293.73C8.51575 292.541 7.63247 290.26 5.54035 288.132C3.64004 286.199 1.61352 285.28 0.467773 284.859C1.62361 284.508 3.78388 283.683 5.84318 281.747C7.96306 279.759 8.9246 277.583 9.33848 276.442C9.63627 277.581 10.4615 280.102 12.7656 282.338C14.6483 284.165 16.6571 284.965 17.7548 285.313C16.6924 285.523 14.6987 286.07 12.7631 287.64C10.0325 289.856 9.15171 292.697 8.8842 293.73Z" fill="#F79C87"/>
<path opacity="0.7" d="M45.1821 307.93C45.0155 307.668 44.6496 307.178 44.0035 306.802C43.418 306.461 42.8679 306.376 42.5625 306.35C42.8174 306.189 43.2843 305.846 43.6527 305.242C44.0313 304.622 44.1196 304.034 44.1423 303.731C44.2887 303.986 44.6572 304.538 45.3587 304.924C45.9341 305.24 46.4717 305.298 46.7594 305.311C46.5171 305.432 46.0729 305.697 45.712 306.204C45.2022 306.921 45.177 307.663 45.1821 307.93Z" fill="white"/>
<path opacity="0.7" d="M429.891 621.295C431.024 621.295 431.942 620.377 431.942 619.244C431.942 618.111 431.024 617.192 429.891 617.192C428.758 617.192 427.839 618.111 427.839 619.244C427.839 620.377 428.758 621.295 429.891 621.295Z" fill="#DF7A8A"/>
<path opacity="0.7" d="M383.16 625.005C383.726 625.005 384.184 624.547 384.184 623.981C384.184 623.415 383.726 622.956 383.16 622.956C382.594 622.956 382.135 623.415 382.135 623.981C382.135 624.547 382.594 625.005 383.16 625.005Z" fill="#DF7A8A"/>
<path opacity="0.7" d="M392.662 640.327C394.109 640.327 395.282 639.154 395.282 637.707C395.282 636.26 394.109 635.087 392.662 635.087C391.215 635.087 390.042 636.26 390.042 637.707C390.042 639.154 391.215 640.327 392.662 640.327Z" fill="#F79C87"/>
<g opacity="0.7">
<path opacity="0.7" d="M456.225 699.292C456 698.883 455.503 698.113 454.577 697.49C453.734 696.925 452.921 696.74 452.47 696.67C452.866 696.453 453.598 695.988 454.209 695.123C454.837 694.232 455.026 693.361 455.092 692.912C455.286 693.308 455.781 694.169 456.793 694.817C457.62 695.347 458.418 695.489 458.847 695.534C458.474 695.69 457.782 696.041 457.189 696.766C456.354 697.785 456.245 698.893 456.225 699.292Z" fill="white"/>
<path opacity="0.7" d="M462.574 699.822C462.519 699.721 462.395 699.526 462.163 699.37C461.951 699.229 461.749 699.183 461.635 699.166C461.734 699.113 461.918 698.994 462.069 698.78C462.226 698.557 462.274 698.34 462.289 698.227C462.337 698.325 462.461 698.542 462.715 698.704C462.922 698.835 463.122 698.873 463.23 698.883C463.137 698.923 462.965 699.009 462.816 699.191C462.604 699.446 462.579 699.723 462.574 699.822Z" fill="white"/>
</g>
<path opacity="0.7" d="M446.282 659.68C447.603 659.68 448.674 658.609 448.674 657.288C448.674 655.967 447.603 654.896 446.282 654.896C444.961 654.896 443.89 655.967 443.89 657.288C443.89 658.609 444.961 659.68 446.282 659.68Z" fill="#811C64"/>
<path opacity="0.7" d="M341.664 613.654C342.985 613.654 344.056 612.583 344.056 611.262C344.056 609.94 342.985 608.869 341.664 608.869C340.343 608.869 339.271 609.94 339.271 611.262C339.271 612.583 340.343 613.654 341.664 613.654Z" fill="#811C64"/>
<path opacity="0.7" d="M484.159 677.316C485.513 677.316 486.61 676.219 486.61 674.865C486.61 673.512 485.513 672.415 484.159 672.415C482.806 672.415 481.709 673.512 481.709 674.865C481.709 676.219 482.806 677.316 484.159 677.316Z" fill="#FFD89E"/>
<path opacity="0.7" d="M408.306 635.61C408.982 635.61 409.53 635.062 409.53 634.386C409.53 633.71 408.982 633.162 408.306 633.162C407.63 633.162 407.082 633.71 407.082 634.386C407.082 635.062 407.63 635.61 408.306 635.61Z" fill="#F79C87"/>
<path opacity="0.9" d="M408.306 619.466C410.571 619.466 412.407 617.63 412.407 615.365C412.407 613.1 410.571 611.264 408.306 611.264C406.041 611.264 404.205 613.1 404.205 615.365C404.205 617.63 406.041 619.466 408.306 619.466Z" fill="#BABCBE"/>
<path opacity="0.7" d="M363.156 634.388C364.069 634.388 364.809 633.648 364.809 632.735C364.809 631.822 364.069 631.082 363.156 631.082C362.243 631.082 361.503 631.822 361.503 632.735C361.503 633.648 362.243 634.388 363.156 634.388Z" fill="#F79C87"/>
<path d="M137.818 554.31C139.173 550.938 151.289 522.123 180.839 514.994C195.635 511.425 208.17 514.893 214.247 517.073C215.895 513.434 229.49 484.609 259.034 478.297C288.392 472.026 321.381 490.565 335.375 524.546C336.612 523.938 356.569 514.575 375.476 526.701C392.869 537.856 394.487 557.646 394.618 559.668H456.768" fill="url(#paint3_linear_93_10013)"/>
<path d="M18.7012 630.267C20.0816 626.896 32.4173 598.08 62.5044 590.951C77.5706 587.383 90.3353 590.85 96.5208 593.03C98.199 589.391 112.041 560.566 142.123 554.254C172.014 547.983 205.606 566.522 219.855 600.503C221.114 599.895 241.434 590.532 260.687 602.658C278.398 613.813 280.046 633.603 280.178 635.625" fill="url(#paint4_linear_93_10013)"/>
<path d="M210.584 568.5C210.032 568.5 209.585 568.948 209.585 569.501C209.585 570.053 210.033 570.5 210.586 570.5L210.584 568.5ZM331.965 568.414L210.584 568.5L210.586 570.5L331.966 570.414L331.965 568.414Z" fill="url(#paint5_linear_93_10013)"/>
<path d="M262.62 575.15C262.068 575.15 261.62 575.598 261.621 576.151C261.621 576.703 262.069 577.15 262.621 577.15L262.62 575.15ZM384.003 575.064L262.62 575.15L262.621 577.15L384.004 577.064L384.003 575.064Z" fill="url(#paint6_linear_93_10013)"/>
<path d="M39.7699 240.748C39.2281 240.855 38.8754 241.381 38.9823 241.923C39.0891 242.465 39.615 242.817 40.1568 242.711L39.7699 240.748ZM204.847 213.581L203.891 213.874L203.891 213.874L204.847 213.581ZM156.867 230.633L157.826 230.348L157.825 230.348L156.867 230.633ZM40.1568 242.711C96.9612 231.51 137.97 223.818 164.875 219.255C178.33 216.973 188.243 215.476 194.836 214.714C198.137 214.332 200.577 214.138 202.203 214.117C203.024 214.107 203.589 214.141 203.938 214.203C204.021 214.217 204.083 214.232 204.127 214.245C204.172 214.258 204.187 214.266 204.183 214.263C204.18 214.262 204.135 214.24 204.077 214.184C204.016 214.125 203.936 214.023 203.891 213.874L205.803 213.288C205.66 212.822 205.297 212.583 205.068 212.47C204.824 212.349 204.547 212.279 204.283 212.233C203.749 212.139 203.036 212.106 202.178 212.117C200.446 212.139 197.924 212.343 194.606 212.727C187.959 213.496 178.004 215 164.541 217.283C137.608 221.851 96.5782 229.547 39.7699 240.748L40.1568 242.711ZM203.891 213.874C203.777 213.503 203.962 213.25 203.977 213.23C203.999 213.202 203.98 213.235 203.854 213.322C203.612 213.489 203.189 213.714 202.563 213.991C201.328 214.537 199.496 215.204 197.24 215.958C192.735 217.461 186.661 219.268 180.562 221.087C174.475 222.902 168.364 224.73 163.822 226.268C161.557 227.035 159.649 227.74 158.323 228.344C157.668 228.643 157.103 228.939 156.701 229.23C156.504 229.372 156.288 229.554 156.126 229.78C155.966 230.004 155.76 230.418 155.908 230.918L157.825 230.348C157.926 230.685 157.77 230.919 157.751 230.945C157.731 230.973 157.749 230.94 157.873 230.851C158.11 230.679 158.529 230.448 159.152 230.165C160.382 229.604 162.209 228.926 164.464 228.162C168.963 226.639 175.035 224.822 181.133 223.004C187.219 221.188 193.331 219.371 197.873 217.855C200.14 217.098 202.047 216.407 203.373 215.82C204.028 215.53 204.591 215.244 204.992 214.967C205.187 214.832 205.403 214.659 205.568 214.442C205.727 214.234 205.963 213.81 205.803 213.287L203.891 213.874ZM155.908 230.917C156.082 231.502 156.601 231.737 156.841 231.827C157.14 231.938 157.494 232 157.858 232.039C158.597 232.117 159.61 232.119 160.844 232.063C163.326 231.949 166.869 231.59 171.282 231.029C180.115 229.907 192.525 227.964 207.094 225.502C236.236 220.577 274.068 213.569 309.326 206.881L308.953 204.916C273.697 211.604 235.882 218.608 206.76 223.53C192.197 225.991 179.821 227.928 171.03 229.045C166.63 229.604 163.151 229.955 160.752 230.065C159.546 230.12 158.655 230.112 158.069 230.05C157.77 230.018 157.607 229.978 157.539 229.952C157.411 229.905 157.713 229.97 157.826 230.348L155.908 230.917Z" fill="url(#paint7_linear_93_10013)"/>
<path d="M277.953 663.508C277.401 663.52 276.963 663.977 276.975 664.529C276.987 665.082 277.444 665.52 277.996 665.508L277.953 663.508ZM420.776 663.804L419.835 664.143L419.835 664.144L420.776 663.804ZM361.664 670.459L360.729 670.814L360.729 670.814L361.664 670.459ZM277.996 665.508C327.747 664.449 363.309 663.907 386.496 663.813C398.092 663.766 406.583 663.831 412.204 663.998C415.018 664.082 417.094 664.191 418.475 664.323C419.17 664.389 419.659 664.458 419.966 664.525C420.041 664.541 420.098 664.556 420.141 664.568C420.163 664.574 420.179 664.58 420.19 664.584C420.196 664.586 420.2 664.587 420.203 664.588C420.206 664.589 420.207 664.59 420.207 664.59C420.207 664.59 420.205 664.589 420.201 664.587C420.198 664.586 420.192 664.583 420.185 664.579C420.171 664.571 420.145 664.555 420.113 664.531C420.06 664.49 419.917 664.369 419.835 664.143L421.717 663.465C421.619 663.193 421.439 663.027 421.328 662.942C421.21 662.852 421.09 662.793 420.997 662.753C420.812 662.673 420.599 662.615 420.391 662.57C419.965 662.478 419.383 662.4 418.665 662.332C417.217 662.194 415.088 662.083 412.263 661.999C406.607 661.831 398.089 661.766 386.488 661.813C363.283 661.908 327.707 662.45 277.953 663.508L277.996 665.508ZM419.835 664.144C419.714 663.806 419.814 663.499 419.939 663.319C420.036 663.178 420.141 663.118 420.145 663.116C420.162 663.105 420.111 663.136 419.926 663.19C419.582 663.292 419.017 663.409 418.231 663.537C416.672 663.791 414.392 664.065 411.614 664.352C406.064 664.925 398.607 665.542 391.135 666.16C383.67 666.776 376.191 667.391 370.618 667.959C367.834 668.242 365.507 668.515 363.889 668.773C363.087 668.9 362.422 669.03 361.954 669.164C361.732 669.228 361.483 669.312 361.276 669.432C361.178 669.489 361.004 669.603 360.864 669.798C360.695 670.036 360.576 670.41 360.729 670.814L362.599 670.104C362.732 670.455 362.623 670.776 362.493 670.959C362.392 671.101 362.285 671.159 362.283 671.16C362.267 671.17 362.32 671.14 362.505 671.087C362.851 670.987 363.417 670.873 364.203 670.748C365.762 670.5 368.043 670.231 370.82 669.948C376.37 669.384 383.827 668.77 391.3 668.153C398.765 667.536 406.245 666.917 411.82 666.341C414.604 666.054 416.932 665.775 418.552 665.511C419.355 665.381 420.022 665.247 420.493 665.108C420.715 665.043 420.967 664.955 421.176 664.829C421.275 664.77 421.448 664.653 421.584 664.456C421.747 664.22 421.858 663.857 421.716 663.464L419.835 664.144ZM360.729 670.814C360.826 671.069 360.995 671.227 361.101 671.309C361.213 671.396 361.327 671.454 361.413 671.492C361.585 671.567 361.778 671.62 361.958 671.661C362.327 671.743 362.822 671.811 363.416 671.869C364.614 671.986 366.344 672.076 368.568 672.143C373.022 672.278 379.535 672.319 387.911 672.276C404.668 672.191 428.923 671.768 459.171 671.07L459.125 669.071C428.879 669.768 404.639 670.191 387.901 670.276C379.53 670.319 373.046 670.277 368.628 670.144C366.416 670.078 364.74 669.989 363.611 669.878C363.042 669.822 362.643 669.764 362.394 669.709C362.265 669.68 362.217 669.661 362.219 669.661C362.219 669.662 362.265 669.681 362.326 669.728C362.382 669.772 362.518 669.889 362.599 670.104L360.729 670.814Z" fill="url(#paint8_linear_93_10013)"/>
<path d="M416.576 568.414C416.023 568.414 415.576 568.862 415.576 569.414C415.576 569.966 416.023 570.414 416.576 570.414V568.414ZM416.576 570.414H444.134V568.414H416.576V570.414Z" fill="url(#paint9_linear_93_10013)"/>
<path d="M239.792 357.515C271.931 353.952 278.982 354.61 279.229 355.94C279.908 359.615 229.18 370.943 229.98 375.294C230.654 378.953 267.181 374.388 267.673 377.608C267.883 378.971 261.538 381.164 253.733 383.35" stroke="url(#paint10_linear_93_10013)" stroke-width="2" stroke-miterlimit="10" stroke-linecap="round"/>
<defs>
<linearGradient id="paint0_linear_93_10013" x1="305.341" y1="480.385" x2="305.341" y2="226.458" gradientUnits="userSpaceOnUse">
<stop offset="0.0026455" stop-color="#5C385C"/>
<stop offset="1" stop-color="#66325A"/>
</linearGradient>
<linearGradient id="paint1_linear_93_10013" x1="351.573" y1="42.9827" x2="527.966" y2="43.2647" gradientUnits="userSpaceOnUse">
<stop offset="0.0222" stop-color="#AF625B"/>
<stop offset="0.1624" stop-color="#B56763"/>
<stop offset="0.4317" stop-color="#C47379"/>
<stop offset="0.7992" stop-color="#DF89A2"/>
<stop offset="1" stop-color="#F49AC1"/>
</linearGradient>
<linearGradient id="paint2_linear_93_10013" x1="314.106" y1="89.2497" x2="339.95" y2="89.2497" gradientUnits="userSpaceOnUse">
<stop offset="0.0222" stop-color="#AF625B"/>
<stop offset="0.1624" stop-color="#B56763"/>
<stop offset="0.4317" stop-color="#C47379"/>
<stop offset="0.7992" stop-color="#DF89A2"/>
<stop offset="1" stop-color="#F49AC1"/>
</linearGradient>
<linearGradient id="paint3_linear_93_10013" x1="297.293" y1="559.669" x2="297.293" y2="477.09" gradientUnits="userSpaceOnUse">
<stop offset="0.0557" stop-color="#6C3D5C" stop-opacity="0"/>
<stop offset="0.2009" stop-color="#78455E" stop-opacity="0.14"/>
<stop offset="0.4799" stop-color="#985A63" stop-opacity="0.74"/>
<stop offset="0.8609" stop-color="#D58169"/>
<stop offset="1" stop-color="#F5966B"/>
</linearGradient>
<linearGradient id="paint4_linear_93_10013" x1="149.44" y1="630.661" x2="149.44" y2="548.082" gradientUnits="userSpaceOnUse">
<stop stop-color="#82455C" stop-opacity="0"/>
<stop offset="0.1566" stop-color="#874A5D" stop-opacity="0.28"/>
<stop offset="0.3673" stop-color="#95575F" stop-opacity="0.81"/>
<stop offset="0.6086" stop-color="#B06E61"/>
<stop offset="0.8709" stop-color="#DA9161"/>
<stop offset="1" stop-color="#FAAA5E"/>
</linearGradient>
<linearGradient id="paint5_linear_93_10013" x1="210.584" y1="569.458" x2="331.966" y2="569.458" gradientUnits="userSpaceOnUse">
<stop offset="0.0222" stop-color="#AF625B"/>
<stop offset="0.3056" stop-color="#BD6C5E"/>
<stop offset="0.8475" stop-color="#E48A67"/>
<stop offset="1" stop-color="#F5966B"/>
</linearGradient>
<linearGradient id="paint6_linear_93_10013" x1="262.621" y1="576.108" x2="384.003" y2="576.108" gradientUnits="userSpaceOnUse">
<stop offset="0.0222" stop-color="#AF625B"/>
<stop offset="0.3056" stop-color="#BD6C5E"/>
<stop offset="0.8475" stop-color="#E48A67"/>
<stop offset="1" stop-color="#F5966B"/>
</linearGradient>
<linearGradient id="paint7_linear_93_10013" x1="39.8661" y1="223.814" x2="309.235" y2="223.814" gradientUnits="userSpaceOnUse">
<stop stop-color="#8F5560"/>
<stop offset="0.2092" stop-color="#9C5A64"/>
<stop offset="0.6087" stop-color="#C0676E"/>
<stop offset="1" stop-color="#F2797C"/>
</linearGradient>
<linearGradient id="paint8_linear_93_10013" x1="278.266" y1="659.114" x2="459.112" y2="671.977" gradientUnits="userSpaceOnUse">
<stop offset="0.0222" stop-color="#AF625B"/>
<stop offset="0.3056" stop-color="#BD6C5E"/>
<stop offset="0.8475" stop-color="#E48A67"/>
<stop offset="1" stop-color="#F5966B"/>
</linearGradient>
<linearGradient id="paint9_linear_93_10013" x1="-nan" y1="-nan" x2="-nan" y2="-nan" gradientUnits="userSpaceOnUse">
<stop offset="0.0222" stop-color="#AF625B"/>
<stop offset="0.3056" stop-color="#BD6C5E"/>
<stop offset="0.8475" stop-color="#E48A67"/>
<stop offset="1" stop-color="#F5966B"/>
</linearGradient>
<linearGradient id="paint10_linear_93_10013" x1="229.465" y1="369.11" x2="279.739" y2="369.11" gradientUnits="userSpaceOnUse">
<stop offset="0.0222" stop-color="#AF625B"/>
<stop offset="0.1624" stop-color="#B56763"/>
<stop offset="0.4317" stop-color="#C47379"/>
<stop offset="0.7992" stop-color="#DF89A2"/>
<stop offset="1" stop-color="#F49AC1"/>
</linearGradient>
</defs>
</svg>
