<svg width="2132" height="1525" viewBox="0 0 2132 1525" fill="none" xmlns="http://www.w3.org/2000/svg">
<g id="Starsystem">
<path id="starcloud" d="M1153.2 1119.5C1149.9 1108.6 1117.9 1010.7 1016.4 975.9C947.8 952.4 887.6 971.4 869.1 978.1C867.8 971.1 850.1 885.6 766.7 850.4C704.1 824 629.9 836.7 577.4 882.8C572.3 873.8 490.3 736 329.6 728.3C198.9 722 94.5 805.6 46.7 896C-5.49999 994.9 15.7 1091.4 22.9 1119.5" fill="url(#paint0_linear_9_637)"/>
<path id="starcurve" d="M807.3 1246C924.6 1241.3 1106.3 1235.3 1228.3 1238C1241.4 1238.3 1282.5 1239.3 1284.4 1246C1287.8 1258.2 1157.4 1276.3 1160.1 1285.4C1162.7 1294.3 1288.7 1285.8 1421.3 1282.7C1620.7 1278.1 1717.9 1259.8 1725.5 1285.4C1727.4 1291.8 1724.4 1302.9 1698 1323.3" stroke="url(#paint1_linear_9_637)" stroke-width="4" stroke-miterlimit="10"/>
<path id="starline3" d="M1183.3 640.2L604.1 636.6" stroke="url(#paint2_linear_9_637)" stroke-width="4" stroke-miterlimit="10"/>
<path id="starline2" d="M481 1169.3H1286.4" stroke="url(#paint3_linear_9_637)" stroke-width="4" stroke-miterlimit="10"/>
<path id="starline1" d="M814.2 599.1L421.9 599.3" stroke="url(#paint4_linear_9_637)" stroke-width="4" stroke-miterlimit="10"/>
<g id="starsyst4">
<path id="Vector" opacity="0.7" d="M2040.7 1218.2C2048.43 1218.2 2054.7 1211.93 2054.7 1204.2C2054.7 1196.47 2048.43 1190.2 2040.7 1190.2C2032.97 1190.2 2026.7 1196.47 2026.7 1204.2C2026.7 1211.93 2032.97 1218.2 2040.7 1218.2Z" fill="#361A58"/>
<path id="Vector_2" opacity="0.7" d="M487.7 125.4C493.112 125.4 497.5 121.012 497.5 115.6C497.5 110.188 493.112 105.8 487.7 105.8C482.288 105.8 477.9 110.188 477.9 115.6C477.9 121.012 482.288 125.4 487.7 125.4Z" fill="#F69B86"/>
<path id="Vector_3" opacity="0.7" d="M585 224.7C591.738 224.7 597.2 219.238 597.2 212.5C597.2 205.762 591.738 200.3 585 200.3C578.262 200.3 572.8 205.762 572.8 212.5C572.8 219.238 578.262 224.7 585 224.7Z" fill="#FFD79E"/>
<path id="Vector_4" opacity="0.7" d="M1703.7 945.1C1710.88 945.1 1716.7 939.28 1716.7 932.1C1716.7 924.92 1710.88 919.1 1703.7 919.1C1696.52 919.1 1690.7 924.92 1690.7 932.1C1690.7 939.28 1696.52 945.1 1703.7 945.1Z" fill="#F69B86"/>
<path id="Vector_5" opacity="0.7" d="M1703.7 1007.8C1710.16 1007.8 1715.4 1002.56 1715.4 996.1C1715.4 989.638 1710.16 984.4 1703.7 984.4C1697.24 984.4 1692 989.638 1692 996.1C1692 1002.56 1697.24 1007.8 1703.7 1007.8Z" fill="#2B0A5B"/>
<g id="Vector_6">
<path d="M949.7 1422.3C951.3 1431.6 951.6 1440.9 951.7 1450.3C951.7 1459.7 951.3 1469 949.7 1478.3C948.1 1469 947.7 1459.7 947.7 1450.3C947.7 1440.9 948.1 1431.6 949.7 1422.3Z" fill="#A8ABAD"/>
<path d="M969.6 1450.3C963 1451.9 956.4 1452.2 949.7 1452.3C943 1452.3 936.4 1451.9 929.8 1450.3C936.4 1448.7 943 1448.3 949.7 1448.3C956.4 1448.4 963 1448.7 969.6 1450.3Z" fill="#A8ABAD"/>
</g>
<path id="Vector_7" d="M1197.1 739C1200.86 739 1203.9 735.955 1203.9 732.2C1203.9 728.444 1200.86 725.4 1197.1 725.4C1193.34 725.4 1190.3 728.444 1190.3 732.2C1190.3 735.955 1193.34 739 1197.1 739Z" fill="#FAA822"/>
<path id="Vector_8" opacity="0.7" d="M1540.1 871.9C1545.24 871.9 1549.4 867.736 1549.4 862.6C1549.4 857.464 1545.24 853.3 1540.1 853.3C1534.96 853.3 1530.8 857.464 1530.8 862.6C1530.8 867.736 1534.96 871.9 1540.1 871.9Z" fill="#2B0A5B"/>
<path id="Vector_9" opacity="0.7" d="M1765.6 970.2C1770.4 970.2 1774.3 966.305 1774.3 961.5C1774.3 956.695 1770.4 952.8 1765.6 952.8C1760.8 952.8 1756.9 956.695 1756.9 961.5C1756.9 966.305 1760.8 970.2 1765.6 970.2Z" fill="#F69B86"/>
<path id="Vector_10" opacity="0.7" d="M1771.7 1205.6C1776.01 1205.6 1779.5 1202.11 1779.5 1197.8C1779.5 1193.49 1776.01 1190 1771.7 1190C1767.39 1190 1763.9 1193.49 1763.9 1197.8C1763.9 1202.11 1767.39 1205.6 1771.7 1205.6Z" fill="#C87980"/>
<path id="Vector_11" opacity="0.7" d="M2006.5 1248.6C2010.75 1248.6 2014.2 1245.15 2014.2 1240.9C2014.2 1236.65 2010.75 1233.2 2006.5 1233.2C2002.25 1233.2 1998.8 1236.65 1998.8 1240.9C1998.8 1245.15 2002.25 1248.6 2006.5 1248.6Z" fill="#FFD79E"/>
<path id="Vector_12" opacity="0.9" d="M775.9 1463C775.7 1462.4 775.2 1461.1 774 1460C772.9 1459 771.8 1458.5 771.2 1458.3C771.8 1458.1 773 1457.6 774.1 1456.5C775.2 1455.4 775.7 1454.2 775.9 1453.5C776.1 1454.1 776.6 1455.5 777.9 1456.7C779 1457.7 780.1 1458.1 780.7 1458.3C780.1 1458.4 779 1458.8 778 1459.6C776.4 1460.9 776 1462.5 775.9 1463Z" fill="#F69B86"/>
</g>
<g id="starsyst3">
<path id="Vector_13" d="M1886.7 884.9C1894.98 884.9 1901.7 878.184 1901.7 869.9C1901.7 861.616 1894.98 854.9 1886.7 854.9C1878.42 854.9 1871.7 861.616 1871.7 869.9C1871.7 878.184 1878.42 884.9 1886.7 884.9Z" fill="#FAA822"/>
<path id="Vector_14" opacity="0.7" d="M884.9 1506.3C892.632 1506.3 898.9 1500.03 898.9 1492.3C898.9 1484.57 892.632 1478.3 884.9 1478.3C877.168 1478.3 870.9 1484.57 870.9 1492.3C870.9 1500.03 877.168 1506.3 884.9 1506.3Z" fill="#F69B86"/>
<path id="Vector_15" d="M1428.4 765.4C1433.54 765.4 1437.7 761.236 1437.7 756.1C1437.7 750.964 1433.54 746.8 1428.4 746.8C1423.26 746.8 1419.1 750.964 1419.1 756.1C1419.1 761.236 1423.26 765.4 1428.4 765.4Z" fill="#FAA822"/>
<path id="Vector_16" opacity="0.9" d="M634.8 1439.3C639.991 1439.3 644.2 1435.09 644.2 1429.9C644.2 1424.71 639.991 1420.5 634.8 1420.5C629.609 1420.5 625.4 1424.71 625.4 1429.9C625.4 1435.09 629.609 1439.3 634.8 1439.3Z" fill="#F69B86"/>
<path id="Vector_17" opacity="0.7" d="M1442.9 790.3C1446.66 790.3 1449.7 787.255 1449.7 783.5C1449.7 779.744 1446.66 776.7 1442.9 776.7C1439.14 776.7 1436.1 779.744 1436.1 783.5C1436.1 787.255 1439.14 790.3 1442.9 790.3Z" fill="#F69B86"/>
<path id="Vector_18" opacity="0.9" d="M1796.4 1142C1801.2 1142 1805.1 1138.11 1805.1 1133.3C1805.1 1128.5 1801.2 1124.6 1796.4 1124.6C1791.6 1124.6 1787.7 1128.5 1787.7 1133.3C1787.7 1138.11 1791.6 1142 1796.4 1142Z" fill="#231F20"/>
<path id="Vector_19" opacity="0.7" d="M2085.5 1226.9C2087.65 1226.9 2089.4 1225.15 2089.4 1223C2089.4 1220.85 2087.65 1219.1 2085.5 1219.1C2083.35 1219.1 2081.6 1220.85 2081.6 1223C2081.6 1225.15 2083.35 1226.9 2085.5 1226.9Z" fill="#FFD79E"/>
<path id="Vector_20" opacity="0.7" d="M1464.3 1078C1464 1077.2 1463.4 1075.8 1462.1 1074.5C1460.8 1073.3 1459.5 1072.7 1458.8 1072.5C1459.5 1072.3 1460.9 1071.7 1462.2 1070.4C1463.5 1069.1 1464.1 1067.7 1464.4 1066.9C1464.6 1067.6 1465.2 1069.2 1466.7 1070.6C1467.9 1071.7 1469.2 1072.2 1470 1072.4C1469.3 1072.6 1468 1072.9 1466.8 1074C1465 1075.5 1464.5 1077.3 1464.3 1078Z" fill="white"/>
</g>
<g id="starsyst2">
<g id="Vector_21" opacity="0.7">
<path d="M543.8 19.2C544.6 25.5 545.1 31.7999 545.4 38.0999C545.7 44.3999 545.8 50.7 545.8 57C545.8 63.3 545.7 69.6 545.4 75.9C545.1 82.2 544.7 88.5 543.8 94.8C543 88.5 542.5 82.2 542.2 75.9C541.9 69.6 541.8 63.3 541.8 57C541.8 50.7 542 44.3999 542.2 38.0999C542.5 31.8999 543 25.6 543.8 19.2Z" fill="#A8ABAD"/>
<path d="M570.6 57.0999C566.1 57.8999 561.7 58.3 557.2 58.7C552.7 59 548.3 59.0999 543.8 59.0999C539.3 59.0999 534.9 59 530.4 58.7C525.9 58.4 521.5 57.9999 517 57.0999C521.5 56.2999 525.9 55.8 530.4 55.5C534.9 55.2 539.3 55.0999 543.8 55.0999C548.3 55.0999 552.7 55.2 557.2 55.5C561.7 55.9 566.2 56.2999 570.6 57.0999Z" fill="#A8ABAD"/>
</g>
<path id="Vector_22" opacity="0.7" d="M1217.5 786.6C1225.01 786.6 1231.1 780.511 1231.1 773C1231.1 765.489 1225.01 759.4 1217.5 759.4C1209.99 759.4 1203.9 765.489 1203.9 773C1203.9 780.511 1209.99 786.6 1217.5 786.6Z" fill="#2B0A5B"/>
<path id="Vector_23" opacity="0.7" d="M1855 1107.5C1862.46 1107.5 1868.5 1101.46 1868.5 1094C1868.5 1086.54 1862.46 1080.5 1855 1080.5C1847.54 1080.5 1841.5 1086.54 1841.5 1094C1841.5 1101.46 1847.54 1107.5 1855 1107.5Z" fill="#F69B86"/>
<path id="Vector_24" opacity="0.7" d="M645.9 1298.4C650.76 1298.4 654.7 1294.46 654.7 1289.6C654.7 1284.74 650.76 1280.8 645.9 1280.8C641.04 1280.8 637.1 1284.74 637.1 1289.6C637.1 1294.46 641.04 1298.4 645.9 1298.4Z" fill="#F69B86"/>
<path id="Vector_25" opacity="0.7" d="M681 1344.1C686.744 1344.1 691.4 1339.44 691.4 1333.7C691.4 1327.96 686.744 1323.3 681 1323.3C675.256 1323.3 670.6 1327.96 670.6 1333.7C670.6 1339.44 675.256 1344.1 681 1344.1Z" fill="#361A58"/>
<path id="Vector_26" d="M640 287.8C639.4 286.1 638 282.7 634.8 279.6C631.9 276.8 628.9 275.5 627.1 274.9C628.8 274.3 632 273 635 270.1C638.1 267.1 639.4 263.8 640 262.1C640.5 263.8 641.8 267.5 645.3 270.7C648.2 273.3 651.2 274.4 652.8 274.9C651.2 275.3 648.3 276.1 645.5 278.6C641.5 282 640.3 286.3 640 287.8Z" fill="white"/>
<path id="Vector_27" opacity="0.7" d="M587.6 345.7C590.803 345.7 593.4 343.103 593.4 339.9C593.4 336.697 590.803 334.1 587.6 334.1C584.397 334.1 581.8 336.697 581.8 339.9C581.8 343.103 584.397 345.7 587.6 345.7Z" fill="#BD8A9C"/>
<path id="Vector_28" opacity="0.7" d="M1645 830C1649.58 830 1653.3 826.284 1653.3 821.7C1653.3 817.116 1649.58 813.4 1645 813.4C1640.42 813.4 1636.7 817.116 1636.7 821.7C1636.7 826.284 1640.42 830 1645 830Z" fill="#F69B86"/>
<path id="Vector_29" opacity="0.7" d="M1739.4 1193.9C1742.33 1193.9 1744.7 1191.53 1744.7 1188.6C1744.7 1185.67 1742.33 1183.3 1739.4 1183.3C1736.47 1183.3 1734.1 1185.67 1734.1 1188.6C1734.1 1191.53 1736.47 1193.9 1739.4 1193.9Z" fill="#C87980"/>
<path id="Vector_30" opacity="0.9" d="M663.2 1445.9C665.299 1445.9 667 1444.2 667 1442.1C667 1440 665.299 1438.3 663.2 1438.3C661.101 1438.3 659.4 1440 659.4 1442.1C659.4 1444.2 661.101 1445.9 663.2 1445.9Z" fill="#231F20" stroke="#231F20" stroke-width="0.25" stroke-miterlimit="10"/>
<path id="Vector_31" opacity="0.7" d="M664.4 294.3C664.3 293.9 663.9 293 663.1 292.3C662.4 291.6 661.6 291.3 661.2 291.1C661.6 291 662.4 290.6 663.2 289.9C664 289.1 664.3 288.3 664.4 287.9C664.5 288.3 664.9 289.2 665.7 290.1C666.4 290.8 667.2 291 667.6 291.2C667.2 291.3 666.5 291.5 665.8 292.1C664.8 292.8 664.5 293.9 664.4 294.3Z" fill="white"/>
</g>
<g id="starsyst1">
<path id="Vector_32" opacity="0.7" d="M553.2 334.1C561.926 334.1 569 327.026 569 318.3C569 309.574 561.926 302.5 553.2 302.5C544.474 302.5 537.4 309.574 537.4 318.3C537.4 327.026 544.474 334.1 553.2 334.1Z" fill="#F69B86"/>
<path id="Vector_33" opacity="0.7" d="M1678.5 857C1686.51 857 1693 850.508 1693 842.5C1693 834.492 1686.51 828 1678.5 828C1670.49 828 1664 834.492 1664 842.5C1664 850.508 1670.49 857 1678.5 857Z" fill="#2B0A5B"/>
<path id="Vector_34" d="M1422 1066.8C1421 1063.8 1418.5 1058 1413 1052.6C1408 1047.8 1402.7 1045.5 1399.7 1044.5C1402.6 1043.5 1408.1 1041.2 1413.3 1036.1C1418.6 1030.8 1420.9 1025.2 1421.9 1022.2C1422.7 1025.1 1425 1031.5 1431.1 1037.1C1436.1 1041.7 1441.3 1043.6 1444.1 1044.4C1441.4 1045 1436.3 1046.6 1431.4 1050.7C1424.7 1056.7 1422.7 1064.1 1422 1066.8Z" fill="white"/>
<path id="Vector_35" opacity="0.7" d="M1479.3 896.7C1485.82 896.7 1491.1 891.417 1491.1 884.9C1491.1 878.383 1485.82 873.1 1479.3 873.1C1472.78 873.1 1467.5 878.383 1467.5 884.9C1467.5 891.417 1472.78 896.7 1479.3 896.7Z" fill="#F69B86"/>
<path id="Vector_36" d="M739.8 1453.5C738.9 1450.9 736.9 1446 732.2 1441.4C727.9 1437.3 723.4 1435.4 720.9 1434.5C723.4 1433.7 728.1 1431.7 732.5 1427.4C737 1422.9 739 1418.1 739.9 1415.6C740.6 1418.1 742.6 1423.6 747.7 1428.3C751.9 1432.2 756.4 1433.8 758.8 1434.5C756.5 1435 752.1 1436.3 748 1439.9C742.1 1444.9 740.4 1451.2 739.8 1453.5Z" fill="#F69B86"/>
<path id="Vector_37" opacity="0.7" d="M1400.4 802.6C1404.16 802.6 1407.2 799.556 1407.2 795.8C1407.2 792.044 1404.16 789 1400.4 789C1396.64 789 1393.6 792.044 1393.6 795.8C1393.6 799.556 1396.64 802.6 1400.4 802.6Z" fill="#FFD79E"/>
<path id="Vector_38" opacity="0.9" d="M2108.4 1284.5C2113.48 1284.5 2117.6 1280.38 2117.6 1275.3C2117.6 1270.22 2113.48 1266.1 2108.4 1266.1C2103.32 1266.1 2099.2 1270.22 2099.2 1275.3C2099.2 1280.38 2103.32 1284.5 2108.4 1284.5Z" fill="#231F20"/>
<path id="Vector_39" opacity="0.9" d="M712.7 1503.6C716.897 1503.6 720.3 1500.2 720.3 1496C720.3 1491.8 716.897 1488.4 712.7 1488.4C708.503 1488.4 705.1 1491.8 705.1 1496C705.1 1500.2 708.503 1503.6 712.7 1503.6Z" fill="#231F20" stroke="#231F20" stroke-width="0.25" stroke-miterlimit="10"/>
<path id="Vector_40" opacity="0.7" d="M1557.9 909.6C1557.5 908.4 1556.6 906.2 1554.4 904.1C1552.5 902.2 1550.4 901.4 1549.3 901C1550.4 900.6 1552.6 899.7 1554.5 897.8C1556.5 895.8 1557.4 893.6 1557.8 892.5C1558.1 893.6 1559 896.1 1561.3 898.2C1563.2 900 1565.2 900.7 1566.3 901C1565.3 901.2 1563.3 901.8 1561.4 903.4C1559 905.7 1558.2 908.6 1557.9 909.6Z" fill="white"/>
</g>
</g>
<defs>
<linearGradient id="paint0_linear_9_637" x1="582.827" y1="1119.52" x2="582.827" y2="605.28" gradientUnits="userSpaceOnUse">
<stop offset="0.00297619" stop-color="#51365C"/>
<stop offset="0.1193" stop-color="#5C3C5F"/>
<stop offset="0.3246" stop-color="#7A4E67"/>
<stop offset="0.5947" stop-color="#AA6A73"/>
<stop offset="0.9161" stop-color="#EC9084"/>
<stop offset="0.9528" stop-color="#F49586"/>
</linearGradient>
<linearGradient id="paint1_linear_9_637" x1="807.176" y1="1280.11" x2="1727.88" y2="1280.11" gradientUnits="userSpaceOnUse">
<stop stop-color="#8F5560"/>
<stop offset="0.203" stop-color="#9E5E66"/>
<stop offset="0.5926" stop-color="#C57774"/>
<stop offset="1" stop-color="#F49586"/>
</linearGradient>
<linearGradient id="paint2_linear_9_637" x1="604.073" y1="636.337" x2="1183.25" y2="632.096" gradientUnits="userSpaceOnUse">
<stop stop-color="#8F5560"/>
<stop offset="0.2081" stop-color="#9E5A64"/>
<stop offset="0.6055" stop-color="#C5696F"/>
<stop offset="1" stop-color="#F1797C"/>
</linearGradient>
<linearGradient id="paint3_linear_9_637" x1="481" y1="1169.8" x2="1286.4" y2="1169.8" gradientUnits="userSpaceOnUse">
<stop stop-color="#8F5560"/>
<stop offset="0.203" stop-color="#9E5E66"/>
<stop offset="0.5926" stop-color="#C57774"/>
<stop offset="1" stop-color="#F49586"/>
</linearGradient>
<linearGradient id="paint4_linear_9_637" x1="421.856" y1="599.198" x2="814.212" y2="599.198" gradientUnits="userSpaceOnUse">
<stop stop-color="#8F5560"/>
<stop offset="0.2081" stop-color="#9E5A64"/>
<stop offset="0.6055" stop-color="#C5696F"/>
<stop offset="1" stop-color="#F1797C"/>
</linearGradient>
</defs>
</svg>
