<svg width="1306" height="1262" viewBox="0 0 1306 1262" fill="none" xmlns="http://www.w3.org/2000/svg">
<g id="Sun">
<g id="outsideray">
<path d="M641 856.5C641.8 860.6 642.2 864.7 642.6 868.8C642.9 872.9 643 877 643 881.1C643 885.2 642.9 889.3 642.6 893.4C642.3 897.5 641.9 901.6 641 905.7C640.2 901.6 639.7 897.5 639.4 893.4C639.1 889.3 639 885.2 639 881.1C639 877 639.1 872.9 639.4 868.8C639.8 864.7 640.2 860.6 641 856.5Z" fill="url(#paint0_linear_2_169)"/>
<path d="M641 940.6C641.8 959.2 642.3 977.9 642.6 996.5C642.8 1005.8 642.8 1015.1 642.9 1024.5L643 1052.5L642.9 1080.5C642.8 1089.8 642.8 1099.1 642.6 1108.5C642.3 1127.1 641.9 1145.8 641 1164.4C640.2 1145.8 639.7 1127.1 639.4 1108.5C639.2 1099.2 639.2 1089.9 639.1 1080.5L639 1052.5L639.1 1024.5C639.2 1015.2 639.2 1005.9 639.4 996.5C639.8 977.9 640.2 959.3 641 940.6Z" fill="url(#paint1_linear_2_169)"/>
<path d="M641 372C640.2 360.4 639.7 348.7 639.4 337.1C639.2 331.3 639.2 325.5 639.1 319.7L639 302.3L639.1 284.9C639.2 279.1 639.2 273.3 639.4 267.5C639.7 255.9 640.1 244.2 641 232.6C641.8 244.2 642.3 255.9 642.6 267.5C642.8 273.3 642.8 279.1 642.9 284.9L643 302.3L642.9 319.7C642.8 325.5 642.8 331.3 642.6 337.1C642.3 348.8 641.8 360.4 641 372Z" fill="url(#paint2_linear_2_169)"/>
<path d="M641 77.3C641.8 87.7 642.3 98 642.6 108.4C642.8 113.6 642.8 118.8 642.9 123.9L643 139.4L642.9 154.9C642.8 160.1 642.8 165.3 642.6 170.4C642.3 180.8 641.9 191.1 641 201.5C640.2 191.1 639.7 180.8 639.4 170.4C639.2 165.2 639.2 160 639.1 154.9L639 139.4L639.1 123.9C639.2 118.7 639.2 113.5 639.4 108.4C639.8 98 640.2 87.7 641 77.3Z" fill="url(#paint3_linear_2_169)"/>
<path d="M398.4 582.5C381.3 580.9 364.2 579 347.1 576.9C338.6 575.9 330.1 574.7 321.5 573.6L296 570.1L270.5 566.4C262 565.1 253.5 563.9 245 562.5C228 559.8 211.1 557 194.2 553.8C211.3 555.4 228.4 557.3 245.5 559.4C254 560.4 262.5 561.6 271.1 562.7L296.6 566.2L322.1 569.9C330.6 571.2 339.1 572.4 347.6 573.8C364.5 576.5 381.5 579.3 398.4 582.5Z" fill="url(#paint4_linear_2_169)"/>
<path d="M413.9 521.5C395.6 513.8 377.5 505.6 359.5 497.4C350.5 493.3 341.5 489.1 332.5 485L305.6 472.4L278.8 459.6C269.9 455.3 260.9 451 252.1 446.6C234.3 437.8 216.6 428.9 199 419.7C217.3 427.4 235.4 435.5 253.4 443.8C262.4 447.9 271.4 452.1 280.4 456.2L307.3 468.9L334.1 481.7C343 486 352 490.3 360.8 494.7C378.6 503.3 396.3 512.2 413.9 521.5Z" fill="url(#paint5_linear_2_169)"/>
<path d="M421.7 499.4C403.8 490.6 386.1 481.5 368.5 472.3C359.7 467.7 350.9 463 342.1 458.4L315.8 444.3L289.6 430C280.9 425.2 272.2 420.4 263.5 415.5C246.2 405.8 228.9 395.9 211.8 385.7C229.7 394.5 247.4 403.6 265 412.8C273.8 417.4 282.6 422.1 291.4 426.7L317.7 440.8L343.9 455.1C352.6 459.9 361.3 464.7 370 469.6C387.3 479.3 404.6 489.1 421.7 499.4Z" fill="url(#paint6_linear_2_169)"/>
<path d="M182.2 412.2C177.3 410.8 172.6 409 168 407.2C163.4 405.3 158.8 403.3 154.3 401.2C149.8 399.1 145.3 396.8 140.9 394.4C136.5 392 132.2 389.4 128 386.5C132.9 387.9 137.6 389.7 142.2 391.5C146.8 393.4 151.4 395.4 155.9 397.5C160.4 399.6 164.9 401.9 169.3 404.3C173.7 406.7 178 409.3 182.2 412.2Z" fill="url(#paint7_linear_2_169)"/>
<path d="M103.5 541.1C109.1 541 114.6 541.4 120.1 541.9C125.6 542.4 131.1 543 136.5 543.8C142 544.6 147.4 545.5 152.8 546.5C158.2 547.6 163.6 548.8 169 550.3C163.4 550.4 157.9 550 152.4 549.5C146.9 549 141.4 548.4 136 547.6C130.5 546.8 125.1 545.9 119.7 544.9C114.2 543.9 108.8 542.7 103.5 541.1Z" fill="url(#paint8_linear_2_169)"/>
<path d="M400.7 616.1C395.2 616.9 389.7 617.4 384.2 617.7C378.7 618 373.2 618.1 367.7 618.1C362.2 618.1 356.7 618 351.2 617.7C345.7 617.4 340.2 617 334.7 616.1C340.2 615.3 345.7 614.8 351.2 614.5C356.7 614.2 362.2 614.1 367.7 614.1C373.2 614.1 378.7 614.2 384.2 614.5C389.6 614.9 395.2 615.3 400.7 616.1Z" fill="url(#paint9_linear_2_169)"/>
<path d="M406.5 559L395.7 556.7L385 554.4L363.5 549.7C349.2 546.5 334.9 543.3 320.6 540C306.3 536.8 292 533.4 277.8 530.1L235 519.9L192.3 509.5C178.1 506 163.8 502.5 149.6 498.9C135.4 495.3 121.2 491.7 107 488.1L85.7 482.5L75.1 479.7L64.5 476.8L75.3 479.1L86 481.4L107.5 486.1C121.8 489.3 136.1 492.5 150.4 495.8C164.7 499 179 502.4 193.2 505.7L236 515.9L278.7 526.3C292.9 529.8 307.2 533.3 321.4 536.9C335.6 540.5 349.8 544.1 364 547.7L385.3 553.3L395.9 556.1L406.5 559Z" fill="url(#paint10_linear_2_169)"/>
<path d="M538 401.7C532.2 393.5 526.8 385.1 521.4 376.7C518.7 372.5 516.1 368.2 513.5 364L505.8 351.1L498.3 338.1C495.9 333.7 493.4 329.4 491 325C486.2 316.2 481.5 307.4 477.1 298.4C482.9 306.6 488.3 315 493.7 323.4C496.4 327.6 499 331.9 501.6 336.1L509.3 349L516.8 362C519.2 366.4 521.7 370.7 524.1 375.1C529 383.8 533.7 392.6 538 401.7Z" fill="url(#paint11_linear_2_169)"/>
<path d="M469.1 284.7C460.5 271.7 452.2 258.5 444.1 245.3C440 238.7 436 232 432 225.4L420.1 205.4L408.3 185.2C404.4 178.4 400.5 171.7 396.7 164.9C389.1 151.4 381.5 137.7 374.3 123.9C382.9 136.9 391.2 150.1 399.3 163.3C403.4 169.9 407.4 176.6 411.4 183.2L423.3 203.2L435.1 223.4C439 230.2 442.9 236.9 446.7 243.7C454.4 257.2 461.9 270.9 469.1 284.7Z" fill="url(#paint12_linear_2_169)"/>
<path d="M600.8 377.6C599 371.7 597.6 365.7 596.3 359.7C595 353.7 593.9 347.7 592.9 341.6C591.9 335.5 591 329.5 590.3 323.4C589.6 317.3 589 311.2 588.8 305C590.6 310.9 592.1 316.9 593.3 322.9C594.6 328.9 595.7 334.9 596.7 341C597.7 347.1 598.6 353.1 599.3 359.2C600.1 365.3 600.7 371.4 600.8 377.6Z" fill="url(#paint13_linear_2_169)"/>
<path d="M552.8 87.3C556.4 103.7 559.5 120.3 562.6 136.8C564.2 145.1 565.6 153.3 567 161.6L571.2 186.5L575.2 211.4C576.5 219.7 577.8 228 579 236.3C581.5 252.9 583.8 269.6 585.7 286.3C582.1 269.9 579 253.3 575.9 236.8C574.3 228.5 572.9 220.3 571.5 212L567.3 187.1L563.3 162.2C562 153.9 560.7 145.6 559.5 137.3C557.1 120.7 554.8 104 552.8 87.3Z" fill="url(#paint14_linear_2_169)"/>
<path d="M449.4 459.7C444.3 456.6 439.5 453.2 434.7 449.7C429.9 446.2 425.3 442.5 420.7 438.8C416.1 435.1 411.6 431.2 407.3 427.2C402.9 423.2 398.6 419.1 394.6 414.8C399.7 417.9 404.6 421.3 409.3 424.8C414.1 428.3 418.7 432 423.3 435.7C427.9 439.5 432.4 443.3 436.7 447.3C441 451.2 445.3 455.3 449.4 459.7Z" fill="url(#paint15_linear_2_169)"/>
<path d="M230.1 280.2C243.2 289.8 256 299.7 268.7 309.8C275.1 314.8 281.4 319.9 287.7 324.9L306.6 340.2L325.3 355.7C331.5 360.9 337.7 366.1 343.9 371.3C356.2 381.8 368.5 392.4 380.5 403.3C367.4 393.7 354.6 383.8 341.9 373.7C335.5 368.7 329.2 363.6 322.9 358.6L304 343.3L285.3 327.8C279.1 322.6 272.9 317.4 266.7 312.2C254.3 301.7 242.1 291.1 230.1 280.2Z" fill="url(#paint16_linear_2_169)"/>
<path d="M513.4 413.7C508.9 409.7 504.7 405.4 500.5 401.1C496.4 396.8 492.4 392.3 488.5 387.8C484.6 383.3 480.8 378.6 477.2 373.9C473.5 369.2 470 364.4 466.7 359.3C471.2 363.3 475.4 367.6 479.6 371.9C483.7 376.2 487.7 380.7 491.6 385.2C495.5 389.7 499.3 394.4 502.9 399.1C506.5 403.8 510.1 408.6 513.4 413.7Z" fill="url(#paint17_linear_2_169)"/>
<path d="M326.8 196.2C338.1 208.1 349.1 220.2 360 232.5C365.5 238.6 370.8 244.8 376.2 250.9L392.3 269.5L408.2 288.2C413.4 294.5 418.7 300.7 423.9 307.1C434.3 319.7 444.7 332.4 454.7 345.4C443.4 333.5 432.4 321.4 421.5 309.1C416 303 410.7 296.8 405.3 290.7L389.2 272L373.3 253.3C368.1 247 362.8 240.8 357.6 234.4C347.1 221.8 336.8 209.1 326.8 196.2Z" fill="url(#paint18_linear_2_169)"/>
<path d="M322.1 310.6C334.7 320.9 347.1 331.4 359.3 342.1C365.5 347.4 371.5 352.8 377.6 358.2L395.8 374.4L413.8 390.8C419.8 396.3 425.8 401.8 431.7 407.4C443.6 418.5 455.3 429.7 466.9 441.2C454.3 431 441.9 420.4 429.7 409.8C423.5 404.5 417.5 399.1 411.4 393.7L393.2 377.5L375.2 361.1C369.2 355.6 363.2 350.1 357.3 344.5C345.4 333.3 333.6 322.1 322.1 310.6Z" fill="url(#paint19_linear_2_169)"/>
<path d="M436.7 741.5C422.6 751.9 408.3 762 394 772C386.8 777 379.6 781.9 372.4 786.9L350.7 801.6L328.8 816C321.5 820.8 314.2 825.6 306.8 830.3C292.1 839.8 277.3 849.2 262.3 858.2C276.4 847.8 290.7 837.7 305 827.7C312.2 822.7 319.4 817.8 326.6 812.8L348.3 798.1L370.2 783.6C377.5 778.8 384.8 774 392.2 769.3C406.9 759.9 421.7 750.5 436.7 741.5Z" fill="url(#paint20_linear_2_169)"/>
<path d="M421.8 699.8C406 706.9 390 713.6 374 720.1C366 723.4 358 726.6 350 729.9L325.9 739.5L301.7 748.9C293.6 751.9 285.5 755.1 277.4 758C261.2 764 244.9 769.9 228.5 775.4C244.3 768.3 260.3 761.6 276.3 755C284.3 751.7 292.3 748.5 300.3 745.2L324.4 735.7L348.6 726.4C356.7 723.4 364.8 720.2 372.9 717.3C389.1 711.2 405.4 705.3 421.8 699.8Z" fill="url(#paint21_linear_2_169)"/>
<path d="M204.9 784.6C195.8 789.1 186.5 793.2 177.2 797.1C172.6 799.1 167.9 801 163.2 802.9L149.1 808.5L134.9 813.9C130.1 815.6 125.4 817.5 120.6 819.1C111.1 822.5 101.5 825.8 91.7 828.7C100.8 824.2 110.1 820.1 119.4 816.2C124 814.2 128.8 812.3 133.4 810.4L147.5 804.8L161.7 799.4C166.5 797.7 171.2 795.9 176 794.2C185.6 790.8 195.2 787.5 204.9 784.6Z" fill="url(#paint22_linear_2_169)"/>
<path d="M184.9 910.2C189.1 906.4 193.5 902.9 198 899.5C202.5 896.1 207.1 892.9 211.7 889.8C216.4 886.7 221.1 883.7 225.9 880.8C230.7 877.9 235.6 875.2 240.8 872.7C236.6 876.5 232.2 880 227.7 883.4C223.2 886.8 218.6 890 214 893.1C209.3 896.2 204.6 899.2 199.8 902.1C194.9 905 190 907.8 184.9 910.2Z" fill="url(#paint23_linear_2_169)"/>
<path d="M470.1 1066.9C472.9 1058.2 476.1 1049.7 479.4 1041.3C481 1037.1 482.8 1032.9 484.5 1028.7L489.8 1016.2L495.3 1003.7C497.2 999.6 499 995.4 501 991.3C504.8 983.1 508.8 974.9 513.2 966.9C510.4 975.6 507.2 984.1 503.9 992.5C502.3 996.7 500.5 1000.9 498.8 1005.1L493.5 1017.6L488 1030.1C486.1 1034.2 484.3 1038.4 482.3 1042.5C478.4 1050.7 474.4 1058.9 470.1 1066.9Z" fill="url(#paint24_linear_2_169)"/>
<path d="M398.2 637.9C386.6 640.7 374.9 643.1 363.2 645.3C357.4 646.5 351.5 647.5 345.6 648.6L328 651.7L310.3 654.5C304.4 655.4 298.5 656.3 292.6 657.1C280.8 658.8 269 660.3 257.1 661.5C268.7 658.7 280.4 656.3 292.1 654.1C297.9 652.9 303.8 651.9 309.7 650.8L327.3 647.7L345 644.9C350.9 644 356.8 643.1 362.7 642.3C374.5 640.6 386.3 639 398.2 637.9Z" fill="url(#paint25_linear_2_169)"/>
<path d="M245.8 661.6C234.2 664.4 222.5 666.8 210.8 669C205 670.2 199.1 671.2 193.2 672.3L175.6 675.4L157.9 678.2C152 679.1 146.1 680 140.2 680.8C128.4 682.5 116.6 684 104.7 685.2C116.3 682.4 128 680 139.7 677.8C145.5 676.6 151.4 675.6 157.3 674.5L174.9 671.4L192.6 668.6C198.5 667.7 204.4 666.8 210.3 666C222.1 664.3 233.9 662.7 245.8 661.6Z" fill="url(#paint26_linear_2_169)"/>
<path d="M513.4 817.5C507 826.9 500.3 836 493.4 845.1C490 849.7 486.5 854.1 483.1 858.6L472.6 872L461.9 885.2C458.3 889.6 454.7 894 451.1 898.3C443.8 907 436.4 915.6 428.7 923.9C435.1 914.5 441.8 905.4 448.6 896.3C452 891.7 455.5 887.3 458.9 882.8L469.4 869.4L480.1 856.2C483.7 851.8 487.3 847.4 490.9 843.1C498.3 834.5 505.7 825.9 513.4 817.5Z" fill="url(#paint27_linear_2_169)"/>
<path d="M334.6 1042.4C340.2 1034 346.2 1025.8 352.2 1017.7C355.2 1013.6 358.3 1009.7 361.4 1005.6L370.7 993.7L380.2 981.9C383.4 978 386.6 974.1 389.9 970.3C396.4 962.6 403 954.9 410 947.6C404.4 956 398.4 964.2 392.4 972.3C389.4 976.4 386.3 980.3 383.2 984.4L373.9 996.3L364.4 1008.1C361.2 1012 358 1015.9 354.7 1019.7C348.1 1027.3 341.5 1035 334.6 1042.4Z" fill="url(#paint28_linear_2_169)"/>
<path d="M547.4 841C545.2 846.7 542.7 852.2 540 857.7C537.4 863.2 534.6 868.5 531.7 873.8C528.8 879.1 525.8 884.4 522.6 889.5C519.4 894.7 516.1 899.8 512.5 904.7C514.7 899 517.2 893.5 519.9 888C522.5 882.5 525.3 877.2 528.2 871.9C531.1 866.6 534.1 861.3 537.3 856.2C540.5 851 543.7 845.9 547.4 841Z" fill="url(#paint29_linear_2_169)"/>
<path d="M468.4 781.4C460.2 789.1 451.8 796.4 443.3 803.6C439.1 807.2 434.7 810.8 430.5 814.4L417.5 825L404.4 835.4C400 838.8 395.6 842.3 391.1 845.7C382.2 852.5 373.2 859.2 364 865.5C372.2 857.8 380.6 850.5 389.1 843.2C393.3 839.5 397.7 836 401.9 832.4L414.9 821.8L428 811.4C432.4 808 436.8 804.5 441.3 801.1C450.2 794.5 459.2 787.8 468.4 781.4Z" fill="url(#paint30_linear_2_169)"/>
<path d="M247.8 959.1C255 952.2 262.5 945.6 270.1 939.1C273.9 935.8 277.7 932.7 281.5 929.5L293.1 920L304.8 910.7C308.7 907.7 312.6 904.6 316.6 901.6C324.5 895.6 332.6 889.7 340.8 884.1C333.6 891 326.1 897.6 318.5 904.1C314.7 907.4 310.9 910.5 307.1 913.7L295.5 923.2L283.8 932.5C279.9 935.5 275.9 938.6 272 941.6C264.1 947.6 256.1 953.5 247.8 959.1Z" fill="url(#paint31_linear_2_169)"/>
<path d="M496.8 812.2C493.5 817.2 489.9 822 486.2 826.7C482.5 831.4 478.7 836 474.7 840.5C470.8 845 466.8 849.4 462.6 853.7C458.5 858 454.2 862.2 449.6 866.2C452.9 861.1 456.5 856.4 460.2 851.7C463.9 847 467.7 842.4 471.7 837.9C475.6 833.4 479.7 829 483.8 824.7C488 820.4 492.2 816.2 496.8 812.2Z" fill="url(#paint32_linear_2_169)"/>
<path d="M308.5 1028.1C318.6 1015.2 329.1 1002.6 339.6 990.1C344.8 983.8 350.2 977.6 355.5 971.4L371.6 952.8L387.8 934.4C393.3 928.3 398.7 922.2 404.2 916.1C415.2 904 426.3 891.9 437.6 880.1C427.5 893 417 905.6 406.5 918.1C401.3 924.4 395.9 930.6 390.6 936.8L374.5 955.4L358.3 973.8C352.8 979.9 347.4 986 341.9 992.1C330.9 1004.2 319.9 1016.3 308.5 1028.1Z" fill="url(#paint33_linear_2_169)"/>
<path d="M575.3 855.8C572.1 870 568.5 884.1 564.8 898.2C563 905.2 561 912.3 559.1 919.3L553.2 940.3L547.1 961.3C545 968.3 542.9 975.3 540.8 982.2C536.5 996.1 532.1 1010 527.3 1023.7C530.5 1009.5 534.1 995.4 537.8 981.3C539.6 974.3 541.6 967.2 543.5 960.2L549.4 939.2L555.5 918.2C557.6 911.2 559.7 904.2 561.8 897.3C566 883.4 570.5 869.6 575.3 855.8Z" fill="url(#paint34_linear_2_169)"/>
<path d="M520.8 1036.2C519.7 1043.2 518.2 1050 516.5 1056.8C514.9 1063.6 513.1 1070.4 511.1 1077.1C509.2 1083.8 507.1 1090.5 504.9 1097.2C502.7 1103.8 500.3 1110.4 497.6 1116.9C498.7 1109.9 500.2 1103.1 501.9 1096.3C503.5 1089.5 505.3 1082.7 507.3 1076C509.2 1069.3 511.3 1062.6 513.5 1055.9C515.8 1049.3 518.1 1042.7 520.8 1036.2Z" fill="url(#paint35_linear_2_169)"/>
<path d="M473.8 795.6C470.2 800.1 466.4 804.3 462.5 808.4C458.6 812.5 454.6 816.5 450.4 820.4C446.3 824.3 442.1 828.1 437.7 831.8C433.4 835.5 429 839.1 424.3 842.4C427.8 837.9 431.7 833.7 435.6 829.6C439.5 825.5 443.5 821.5 447.7 817.6C451.8 813.7 456 809.9 460.4 806.2C464.7 802.5 469.1 798.9 473.8 795.6Z" fill="url(#paint36_linear_2_169)"/>
<path d="M388.2 876.6C376.7 888.6 365 900.3 353.1 911.9C347.2 917.7 341.2 923.5 335.3 929.2L317.3 946.4L299.2 963.4C293.1 969 287.1 974.7 280.9 980.3C268.7 991.5 256.3 1002.6 243.7 1013.4C255.2 1001.4 266.9 989.7 278.8 978.1C284.7 972.3 290.7 966.5 296.6 960.8L314.6 943.6L332.7 926.6C338.8 921 344.9 915.3 351 909.7C363.2 898.5 375.6 887.4 388.2 876.6Z" fill="url(#paint37_linear_2_169)"/>
<path d="M665 856.5C665.8 860.6 666.2 864.7 666.6 868.8C666.9 872.9 667 877 667 881.1C667 885.2 666.9 889.3 666.6 893.4C666.3 897.5 665.9 901.6 665 905.7C664.2 901.6 663.7 897.5 663.4 893.4C663.1 889.3 663 885.2 663 881.1C663 877 663.1 872.9 663.4 868.8C663.8 864.7 664.2 860.6 665 856.5Z" fill="url(#paint38_linear_2_169)"/>
<path d="M665 940.6C665.8 959.2 666.3 977.9 666.6 996.5C666.8 1005.8 666.8 1015.1 666.9 1024.5L667 1052.5L666.9 1080.5C666.8 1089.8 666.8 1099.1 666.6 1108.5C666.3 1127.1 665.9 1145.8 665 1164.4C664.2 1145.8 663.7 1127.1 663.4 1108.5C663.2 1099.2 663.2 1089.9 663.1 1080.5L663 1052.5L663.1 1024.5C663.2 1015.2 663.2 1005.9 663.4 996.5C663.8 977.9 664.2 959.3 665 940.6Z" fill="url(#paint39_linear_2_169)"/>
<path d="M665 372C664.2 360.4 663.7 348.7 663.4 337.1C663.2 331.3 663.2 325.5 663.1 319.7L663 302.3L663.1 284.9C663.2 279.1 663.2 273.3 663.4 267.5C663.7 255.9 664.1 244.2 665 232.6C665.8 244.2 666.3 255.9 666.6 267.5C666.8 273.3 666.8 279.1 666.9 284.9L667 302.3L666.9 319.7C666.8 325.5 666.8 331.3 666.6 337.1C666.3 348.8 665.8 360.4 665 372Z" fill="url(#paint40_linear_2_169)"/>
<path d="M665 77.3C665.8 87.7 666.3 98 666.6 108.4C666.8 113.6 666.8 118.8 666.9 123.9L667 139.4L666.9 154.9C666.8 160.1 666.8 165.3 666.6 170.4C666.3 180.8 665.9 191.1 665 201.5C664.2 191.1 663.7 180.8 663.4 170.4C663.2 165.2 663.2 160 663.1 154.9L663 139.4L663.1 123.9C663.2 118.7 663.2 113.5 663.4 108.4C663.8 98 664.2 87.7 665 77.3Z" fill="url(#paint41_linear_2_169)"/>
<path d="M907.7 582.5C924.6 579.3 941.6 576.5 958.5 573.8C967 572.4 975.5 571.2 984 569.9L1009.5 566.2L1035 562.7C1043.5 561.6 1052 560.5 1060.6 559.4C1077.7 557.3 1094.7 555.3 1111.9 553.8C1095 557 1078.1 559.8 1061.1 562.5C1052.6 563.9 1044.1 565.1 1035.6 566.4L1010.1 570.1L984.6 573.6C976.1 574.7 967.6 575.8 959 576.9C941.9 579 924.8 580.9 907.7 582.5Z" fill="url(#paint42_linear_2_169)"/>
<path d="M892.2 521.5C909.8 512.3 927.5 503.4 945.3 494.6C954.2 490.2 963.1 485.9 972 481.6L998.8 468.8L1025.7 456.1C1034.7 452 1043.7 447.7 1052.7 443.7C1070.7 435.5 1088.9 427.4 1107.1 419.6C1089.5 428.8 1071.8 437.7 1054 446.5C1045.1 450.9 1036.2 455.2 1027.3 459.5L1000.5 472.3L973.6 484.9C964.6 489.1 955.6 493.3 946.6 497.3C928.5 505.6 910.4 513.7 892.2 521.5Z" fill="url(#paint43_linear_2_169)"/>
<path d="M884.4 499.4C901.5 489.2 918.8 479.3 936.1 469.6C944.8 464.7 953.5 459.9 962.2 455.1L988.4 440.8L1014.7 426.7C1023.5 422.1 1032.3 417.3 1041.1 412.8C1058.7 403.6 1076.4 394.5 1094.3 385.7C1077.2 395.9 1059.9 405.8 1042.6 415.5C1033.9 420.4 1025.2 425.2 1016.5 430L990.3 444.3L964 458.4C955.2 463 946.4 467.8 937.6 472.3C919.9 481.5 902.2 490.6 884.4 499.4Z" fill="url(#paint44_linear_2_169)"/>
<path d="M1123.8 412.2C1128 409.3 1132.3 406.8 1136.7 404.4C1141.1 402 1145.6 399.7 1150.1 397.6C1154.6 395.5 1159.2 393.4 1163.8 391.6C1168.5 389.7 1173.2 388 1178 386.6C1173.8 389.5 1169.5 392 1165.1 394.5C1160.7 396.9 1156.2 399.2 1151.7 401.3C1147.2 403.4 1142.6 405.5 1138 407.3C1133.4 409 1128.7 410.8 1123.8 412.2Z" fill="url(#paint45_linear_2_169)"/>
<path d="M1202.6 541.1C1197.3 542.7 1191.9 543.9 1186.4 544.9C1181 546 1175.5 546.9 1170.1 547.6C1164.6 548.4 1159.2 549 1153.7 549.5C1148.2 550 1142.7 550.3 1137.1 550.3C1142.4 548.7 1147.8 547.5 1153.3 546.5C1158.7 545.4 1164.2 544.5 1169.6 543.8C1175.1 543 1180.5 542.4 1186 541.9C1191.5 541.4 1197 541 1202.6 541.1Z" fill="url(#paint46_linear_2_169)"/>
<path d="M905.4 616.1C910.9 615.3 916.4 614.8 921.9 614.5C927.4 614.2 932.9 614.1 938.4 614.1C943.9 614.1 949.4 614.2 954.9 614.5C960.4 614.8 965.9 615.2 971.4 616.1C965.9 616.9 960.4 617.4 954.9 617.7C949.4 618 943.9 618.1 938.4 618.1C932.9 618.1 927.4 618 921.9 617.7C916.4 617.4 910.9 617 905.4 616.1Z" fill="url(#paint47_linear_2_169)"/>
<path d="M899.5 559L910.1 556.1L920.7 553.3L942 547.7C956.2 544.1 970.4 540.4 984.6 536.9C998.8 533.3 1013.1 529.8 1027.3 526.3L1070 515.9L1112.8 505.7C1127.1 502.4 1141.3 499 1155.6 495.8C1169.9 492.5 1184.2 489.3 1198.5 486.1L1220 481.4L1230.7 479.1L1241.5 476.8L1230.9 479.7L1220.3 482.5L1199 488.1C1184.8 491.7 1170.6 495.4 1156.4 498.9C1142.2 502.5 1127.9 506 1113.7 509.5L1071 519.9L1028.2 530.1C1013.9 533.4 999.7 536.8 985.4 540C971.1 543.3 956.8 546.5 942.5 549.7L921 554.4L910.3 556.7L899.5 559Z" fill="url(#paint48_linear_2_169)"/>
<path d="M768 401.7C772.4 392.7 777.1 383.8 781.9 375.1C784.3 370.7 786.8 366.4 789.2 362L796.7 349L804.4 336.1C807 331.9 809.6 327.6 812.3 323.4C817.6 314.9 823.1 306.6 828.9 298.4C824.5 307.4 819.8 316.3 815 325C812.6 329.4 810.1 333.7 807.7 338.1L800.2 351.1L792.5 364C789.9 368.2 787.3 372.5 784.6 376.7C779.2 385.1 773.8 393.5 768 401.7Z" fill="url(#paint49_linear_2_169)"/>
<path d="M837 284.7C844.2 270.9 851.7 257.3 859.4 243.7C863.2 236.9 867.1 230.2 871 223.4L882.8 203.2L894.7 183.2C898.7 176.6 902.7 169.9 906.8 163.3C915 150 923.2 136.9 931.8 123.9C924.6 137.7 917.1 151.3 909.4 164.9C905.6 171.7 901.7 178.4 897.8 185.2L886 205.4L874.1 225.4C870.1 232 866.1 238.7 862 245.3C853.8 258.5 845.6 271.7 837 284.7Z" fill="url(#paint50_linear_2_169)"/>
<path d="M705.2 377.6C705.4 371.4 706 365.3 706.7 359.2C707.4 353.1 708.3 347 709.3 341C710.3 334.9 711.4 328.9 712.7 322.9C714 316.9 715.4 310.9 717.2 305C717 311.2 716.4 317.3 715.7 323.4C715 329.5 714.1 335.6 713.1 341.6C712.1 347.7 711 353.7 709.7 359.7C708.5 365.7 707 371.7 705.2 377.6Z" fill="url(#paint51_linear_2_169)"/>
<path d="M753.2 87.3C751.3 104 749 120.7 746.5 137.3C745.3 145.6 744 153.9 742.7 162.2L738.7 187.1L734.5 212C733 220.3 731.6 228.6 730.1 236.8C727.1 253.3 723.9 269.8 720.3 286.3C722.2 269.6 724.5 252.9 727 236.3C728.2 228 729.5 219.7 730.8 211.4L734.8 186.5L739 161.6C740.5 153.3 741.9 145 743.4 136.8C746.5 120.3 749.7 103.8 753.2 87.3Z" fill="url(#paint52_linear_2_169)"/>
<path d="M856.7 459.7C860.8 455.3 865.1 451.2 869.4 447.3C873.8 443.3 878.3 439.5 882.8 435.7C887.4 432 892 428.3 896.8 424.8C901.6 421.3 906.4 417.9 911.5 414.8C907.5 419.2 903.2 423.3 898.8 427.2C894.4 431.2 889.9 435 885.4 438.8C880.8 442.5 876.2 446.2 871.4 449.7C866.6 453.2 861.8 456.6 856.7 459.7Z" fill="url(#paint53_linear_2_169)"/>
<path d="M1076 280.2C1064 291.1 1051.7 301.7 1039.4 312.2C1033.3 317.5 1027 322.6 1020.8 327.8L1002.1 343.3L983.2 358.6C976.9 363.6 970.6 368.7 964.2 373.7C951.5 383.7 938.7 393.6 925.6 403.3C937.6 392.4 949.9 381.8 962.2 371.3C968.3 366 974.6 360.9 980.8 355.7L999.5 340.2L1018.4 324.9C1024.7 319.9 1031 314.8 1037.4 309.8C1050.1 299.7 1062.9 289.8 1076 280.2Z" fill="url(#paint54_linear_2_169)"/>
<path d="M792.7 413.7C796 408.6 799.5 403.8 803.2 399.1C806.9 394.4 810.7 389.7 814.5 385.2C818.4 380.7 822.4 376.2 826.5 371.9C830.6 367.6 834.8 363.3 839.4 359.3C836.1 364.4 832.6 369.2 828.9 373.9C825.2 378.6 821.4 383.3 817.6 387.8C813.7 392.3 809.7 396.8 805.6 401.1C801.4 405.4 797.2 409.7 792.7 413.7Z" fill="url(#paint55_linear_2_169)"/>
<path d="M979.3 196.2C969.3 209.2 958.9 221.9 948.5 234.5C943.3 240.8 938 247.1 932.8 253.4L916.8 272L900.7 290.6C895.3 296.7 889.9 302.9 884.5 309C873.6 321.2 862.6 333.4 851.3 345.3C861.3 332.3 871.7 319.6 882.1 307C887.3 300.7 892.6 294.4 897.8 288.1L913.7 269.4L929.8 250.8C935.2 244.7 940.6 238.5 946 232.4C957 220.2 968 208 979.3 196.2Z" fill="url(#paint56_linear_2_169)"/>
<path d="M984 310.6C972.5 322.1 960.7 333.3 948.8 344.4C942.9 350 936.9 355.4 930.9 361L912.9 377.4L894.7 393.6C888.6 399 882.5 404.4 876.4 409.7C864.1 420.4 851.8 430.9 839.2 441.1C850.7 429.6 862.5 418.4 874.4 407.3C880.3 401.7 886.3 396.3 892.3 390.7L910.3 374.3L928.5 358.1C934.6 352.7 940.7 347.3 946.8 342C959 331.4 971.3 320.9 984 310.6Z" fill="url(#paint57_linear_2_169)"/>
<path d="M869.3 741.5C884.3 750.5 899.1 759.9 913.7 769.4C921.1 774.1 928.4 778.9 935.7 783.7L957.6 798.2L979.3 812.9C986.5 817.9 993.7 822.8 1000.9 827.8C1015.3 837.8 1029.6 847.9 1043.6 858.3C1028.6 849.3 1013.8 839.9 999.1 830.4C991.7 825.7 984.4 820.8 977.1 816.1L955.2 801.6L933.5 786.9C926.3 781.9 919.1 777 911.9 772C897.7 762 883.4 751.9 869.3 741.5Z" fill="url(#paint58_linear_2_169)"/>
<path d="M884.3 699.8C900.7 705.3 917 711.2 933.2 717.3C941.3 720.3 949.4 723.4 957.5 726.4L981.7 735.7L1005.8 745.2C1013.8 748.5 1021.9 751.6 1029.8 755C1045.8 761.6 1061.8 768.3 1077.6 775.4C1061.2 769.9 1044.9 764 1028.7 758C1020.6 755 1012.5 751.9 1004.4 748.9L980.2 739.5L956.1 729.9C948.1 726.6 940 723.5 932.1 720.1C916 713.5 900.1 706.8 884.3 699.8Z" fill="url(#paint59_linear_2_169)"/>
<path d="M1101.1 784.6C1110.8 787.5 1120.4 790.8 1130 794.2C1134.8 795.9 1139.5 797.7 1144.3 799.4L1158.5 804.8L1172.6 810.4C1177.3 812.3 1182 814.2 1186.6 816.2C1195.9 820.2 1205.2 824.3 1214.3 828.7C1204.6 825.8 1195 822.5 1185.4 819.1C1180.6 817.4 1175.9 815.6 1171.1 813.9L1156.9 808.5L1142.8 802.9C1138.1 801 1133.4 799.1 1128.8 797.1C1119.5 793.1 1110.3 789 1101.1 784.6Z" fill="url(#paint60_linear_2_169)"/>
<path d="M1121.2 910.2C1116.1 907.8 1111.2 905 1106.3 902.1C1101.5 899.2 1096.7 896.2 1092.1 893.1C1087.4 890 1082.8 886.7 1078.4 883.4C1073.9 880 1069.5 876.5 1065.3 872.7C1070.4 875.1 1075.3 877.9 1080.2 880.8C1085 883.7 1089.8 886.7 1094.4 889.8C1099.1 892.9 1103.7 896.2 1108.1 899.5C1112.5 902.9 1117 906.4 1121.2 910.2Z" fill="url(#paint61_linear_2_169)"/>
<path d="M877.1 717.8L884.7 721.6L892.3 725.5L907.4 733.2C917.5 738.4 927.5 743.6 937.5 748.9C947.5 754.1 957.5 759.5 967.5 764.8L997.4 780.9L1027.2 797.2C1037.1 802.7 1047 808.1 1056.9 813.7C1066.8 819.2 1076.6 824.8 1086.5 830.4L1101.2 838.9L1108.6 843.2L1115.9 847.5L1100.7 839.9L1085.6 832.2C1075.5 827 1065.5 821.8 1055.5 816.5C1045.5 811.3 1035.5 805.9 1025.5 800.6L995.6 784.5L965.8 768.2C955.9 762.7 946 757.3 936.1 751.7C926.2 746.2 916.4 740.6 906.5 735L891.8 726.5L884.4 722.3L877.1 717.8Z" fill="url(#paint62_linear_2_169)"/>
<path d="M907.8 637.9C919.7 639.1 931.5 640.6 943.3 642.3C949.2 643.1 955.1 644 961 644.9L978.7 647.7L996.3 650.8C1002.2 651.9 1008 652.9 1013.9 654.1C1025.6 656.4 1037.3 658.8 1048.9 661.5C1037 660.4 1025.2 658.8 1013.4 657.1C1007.5 656.3 1001.6 655.3 995.7 654.5L978 651.7L960.4 648.6C954.5 647.5 948.7 646.5 942.8 645.3C931.1 643.1 919.5 640.7 907.8 637.9Z" fill="url(#paint63_linear_2_169)"/>
<path d="M1060.2 661.6C1072.1 662.8 1083.9 664.3 1095.7 666C1101.6 666.8 1107.5 667.7 1113.4 668.6L1131.1 671.4L1148.7 674.5C1154.6 675.6 1160.4 676.6 1166.3 677.8C1178 680.1 1189.7 682.5 1201.3 685.2C1189.4 684.1 1177.6 682.5 1165.8 680.8C1159.9 680 1154 679 1148.1 678.2L1130.4 675.4L1112.8 672.3C1106.9 671.2 1101.1 670.2 1095.2 669C1083.6 666.7 1071.9 664.4 1060.2 661.6Z" fill="url(#paint64_linear_2_169)"/>
<path d="M792.7 817.5C800.4 825.9 807.8 834.5 815.1 843.1C818.8 847.4 822.3 851.8 825.9 856.2L836.6 869.4L847.1 882.8C850.5 887.3 854 891.8 857.4 896.3C864.2 905.4 870.9 914.5 877.3 923.9C869.6 915.5 862.2 906.9 854.9 898.3C851.2 894 847.7 889.6 844.1 885.2L833.4 872L823 858.6C819.6 854.1 816.1 849.6 812.7 845.1C805.8 836.1 799.1 826.9 792.7 817.5Z" fill="url(#paint65_linear_2_169)"/>
<path d="M971.5 1042.4C964.6 1035 957.9 1027.4 951.4 1019.7C948.1 1015.9 944.9 1011.9 941.7 1008.1L932.2 996.3L922.9 984.4C919.8 980.4 916.7 976.4 913.7 972.3C907.6 964.2 901.7 956 896.1 947.6C903 955 909.7 962.6 916.2 970.3C919.5 974.1 922.7 978.1 925.9 981.9L935.4 993.7L944.7 1005.6C947.8 1009.6 950.9 1013.6 953.9 1017.7C959.9 1025.8 965.8 1033.9 971.5 1042.4Z" fill="url(#paint66_linear_2_169)"/>
<path d="M696.1 858.7C697.7 864.4 698.9 870.2 700 875.9C701.1 881.7 702 887.5 702.8 893.3C703.6 899.1 704.2 904.9 704.7 910.8C705.2 916.7 705.5 922.5 705.5 928.5C703.9 922.8 702.7 917 701.6 911.3C700.5 905.5 699.6 899.7 698.8 893.9C698 888.1 697.4 882.3 696.9 876.4C696.5 870.5 696.1 864.6 696.1 858.7Z" fill="url(#paint67_linear_2_169)"/>
<path d="M712.4 979.5C715.5 996.4 718.2 1013.3 720.8 1030.3C722.1 1038.8 723.3 1047.3 724.6 1055.8L728.1 1081.3L731.4 1106.8C732.4 1115.3 733.5 1123.8 734.5 1132.3C736.5 1149.3 738.3 1166.4 739.8 1183.5C736.7 1166.6 734 1149.7 731.4 1132.7C730.1 1124.2 728.9 1115.7 727.6 1107.2L724.1 1081.7L720.8 1056.2C719.8 1047.7 718.7 1039.2 717.7 1030.7C715.7 1013.6 713.8 996.6 712.4 979.5Z" fill="url(#paint68_linear_2_169)"/>
<path d="M758.7 841C762.3 845.9 765.6 851 768.8 856.2C772 861.4 775 866.6 777.9 871.9C780.8 877.2 783.6 882.6 786.2 888C788.9 893.5 791.4 899 793.6 904.7C790 899.8 786.7 894.7 783.5 889.5C780.3 884.3 777.3 879.1 774.4 873.8C771.5 868.5 768.7 863.1 766.1 857.7C763.4 852.2 760.8 846.7 758.7 841Z" fill="url(#paint69_linear_2_169)"/>
<path d="M898.1 1095.5C889.4 1081.4 881.1 1067 872.8 1052.6C868.7 1045.4 864.6 1038.2 860.6 1031L848.6 1009.2L836.7 987.3C832.8 980 828.9 972.7 825 965.3C817.3 950.6 809.7 935.9 802.5 920.9C811.2 935 819.5 949.4 827.8 963.8C831.9 971 836 978.2 840 985.4L852 1007.2L863.9 1029.1C867.8 1036.4 871.7 1043.7 875.6 1051.1C883.3 1065.8 890.9 1080.6 898.1 1095.5Z" fill="url(#paint70_linear_2_169)"/>
<path d="M837.6 781.4C846.8 787.8 855.8 794.4 864.7 801.2C869.2 804.6 873.5 808 878 811.5L891.1 821.9L904.1 832.5C908.4 836.1 912.7 839.6 916.9 843.3C925.4 850.5 933.9 857.9 942 865.6C932.8 859.2 923.8 852.6 914.9 845.8C910.4 842.4 906.1 839 901.6 835.5L888.6 825L875.6 814.4C871.3 810.8 867 807.3 862.8 803.6C854.3 796.4 845.8 789.1 837.6 781.4Z" fill="url(#paint71_linear_2_169)"/>
<path d="M1058.2 959.1C1049.9 953.5 1041.9 947.6 1034 941.6C1030 938.6 1026.1 935.5 1022.2 932.5L1010.5 923.2L998.9 913.7C995.1 910.5 991.2 907.3 987.5 904.1C979.9 897.6 972.4 891 965.2 884.1C973.5 889.7 981.5 895.6 989.4 901.6C993.4 904.6 997.3 907.7 1001.2 910.7L1012.9 920L1024.5 929.5C1028.3 932.7 1032.2 935.9 1035.9 939.1C1043.5 945.6 1051 952.2 1058.2 959.1Z" fill="url(#paint72_linear_2_169)"/>
<path d="M809.3 812.2C813.9 816.2 818.1 820.4 822.3 824.7C826.5 829 830.5 833.4 834.4 837.9C838.3 842.4 842.2 847 845.9 851.7C849.6 856.4 853.2 861.2 856.5 866.2C851.9 862.2 847.7 858 843.5 853.7C839.3 849.4 835.3 845 831.4 840.5C827.5 836 823.6 831.4 819.9 826.7C816.2 822.1 812.6 817.3 809.3 812.2Z" fill="url(#paint73_linear_2_169)"/>
<path d="M997.6 1028.1C986.2 1016.3 975.1 1004.3 964.2 992.1C958.7 986.1 953.3 979.9 947.8 973.8L931.6 955.4L915.5 936.8C910.2 930.6 904.9 924.4 899.6 918.1C889.1 905.6 878.6 893 868.5 880.1C879.9 891.9 891 903.9 901.9 916.1C907.4 922.1 912.8 928.3 918.3 934.4L934.5 952.8L950.6 971.4C955.9 977.6 961.2 983.8 966.5 990.1C977 1002.6 987.4 1015.2 997.6 1028.1Z" fill="url(#paint74_linear_2_169)"/>
<path d="M730.8 855.8C735.6 869.6 740 883.4 744.3 897.4C746.5 904.3 748.5 911.3 750.6 918.3L756.7 939.3L762.6 960.3C764.5 967.3 766.5 974.3 768.3 981.4C772 995.5 775.6 1009.6 778.8 1023.8C774 1010 769.6 996.2 765.3 982.3C763.1 975.4 761.1 968.4 759 961.4L752.9 940.4L747 919.4C745.1 912.4 743.1 905.4 741.3 898.3C737.6 884.1 734 870 730.8 855.8Z" fill="url(#paint75_linear_2_169)"/>
<path d="M785.2 1036.2C787.9 1042.7 790.3 1049.3 792.5 1055.9C794.7 1062.5 796.8 1069.2 798.7 1076C800.6 1082.7 802.4 1089.5 804.1 1096.3C805.7 1103.1 807.3 1109.9 808.4 1116.9C805.7 1110.4 803.3 1103.8 801.1 1097.2C798.9 1090.6 796.8 1083.9 794.9 1077.1C793 1070.4 791.2 1063.6 789.5 1056.8C787.8 1050 786.3 1043.2 785.2 1036.2Z" fill="url(#paint76_linear_2_169)"/>
<path d="M832.3 795.6C837 798.9 841.4 802.5 845.7 806.2C850 809.9 854.2 813.7 858.4 817.6C862.5 821.5 866.6 825.5 870.5 829.6C874.4 833.7 878.2 837.9 881.8 842.4C877.1 839.1 872.7 835.5 868.4 831.8C864.1 828.1 859.9 824.3 855.7 820.4C851.6 816.5 847.5 812.5 843.6 808.4C839.6 804.3 835.8 800.1 832.3 795.6Z" fill="url(#paint77_linear_2_169)"/>
<path d="M917.9 876.6C930.5 887.4 942.9 898.5 955.1 909.7C961.3 915.3 967.3 920.9 973.4 926.6L991.5 943.6L1009.5 960.8C1015.4 966.6 1021.4 972.3 1027.3 978.1C1039.1 989.7 1050.9 1001.4 1062.4 1013.4C1049.8 1002.6 1037.4 991.5 1025.2 980.3C1019 974.7 1013 969.1 1006.9 963.4L988.8 946.4L970.8 929.2C964.9 923.4 958.9 917.7 953 911.9C941.1 900.3 929.4 888.6 917.9 876.6Z" fill="url(#paint78_linear_2_169)"/>
</g>
<g id="insideray">
<path d="M411.8 540.3C395.3 535 379 529.3 362.7 523.4C354.5 520.5 346.4 517.5 338.3 514.5L314 505.4L289.8 496.1C281.8 492.9 273.7 489.9 265.7 486.6C249.6 480.2 233.6 473.7 217.7 466.8C234.2 472.1 250.5 477.8 266.8 483.7C275 486.6 283.1 489.6 291.2 492.6L315.5 501.7L339.7 511C347.7 514.2 355.8 517.3 363.8 520.5C379.9 526.9 395.9 533.4 411.8 540.3Z" fill="url(#paint79_linear_2_169)"/>
<path d="M286.3 616.1C270.2 616.9 254.1 617.4 238 617.7C229.9 617.9 221.9 617.9 213.8 618L189.6 618.1L165.4 618C157.3 617.9 149.3 617.9 141.2 617.7C125.1 617.4 109 617 92.8999 616.1C109 615.3 125.1 614.8 141.2 614.5C149.3 614.3 157.3 614.3 165.4 614.2L189.6 614.1L213.8 614.2C221.9 614.3 229.9 614.3 238 614.5C254.1 614.9 270.2 615.3 286.3 616.1Z" fill="url(#paint80_linear_2_169)"/>
<path d="M570.6 385.5C564.4 372.4 558.6 359.1 552.9 345.8C550 339.1 547.3 332.4 544.4 325.8L536.2 305.7L528.2 285.5C525.6 278.7 522.9 272 520.4 265.2C515.2 251.7 510.2 238 505.6 224.3C511.8 237.4 517.6 250.7 523.3 264C526.2 270.7 528.9 277.4 531.8 284L540 304.1L548 324.3C550.6 331.1 553.3 337.8 555.8 344.6C560.9 358.2 565.9 371.8 570.6 385.5Z" fill="url(#paint81_linear_2_169)"/>
<path d="M490.5 425.3C481 418 471.7 410.4 462.6 402.6C458 398.8 453.5 394.8 448.9 390.9L435.4 379.1L422 367.1C417.6 363 413.1 359 408.8 354.9C400 346.7 391.4 338.5 382.9 329.9C392.4 337.2 401.7 344.8 410.8 352.6C415.4 356.4 419.9 360.4 424.5 364.3L438 376.1L451.4 388.1C455.8 392.2 460.3 396.2 464.6 400.3C473.4 408.4 482.1 416.7 490.5 425.3Z" fill="url(#paint82_linear_2_169)"/>
<path d="M430.7 476.6C420 470.8 409.6 464.7 399.2 458.5C394 455.4 388.8 452.2 383.7 449.1L368.3 439.5L353 429.7C347.9 426.4 342.8 423.1 337.8 419.7C327.7 413 317.7 406.1 307.9 398.9C318.6 404.7 329 410.8 339.4 417C344.6 420.1 349.8 423.3 354.9 426.4L370.3 436L385.6 445.8C390.7 449.1 395.8 452.4 400.8 455.8C411 462.6 421 469.4 430.7 476.6Z" fill="url(#paint83_linear_2_169)"/>
<path d="M412.1 683.9C393.5 690.3 374.7 696.4 355.9 702.3C346.5 705.3 337.1 708.2 327.7 711.1L299.4 719.7L271 728.1C261.5 730.8 252.1 733.6 242.6 736.3C223.6 741.7 204.6 746.9 185.5 751.8C204.1 745.4 222.9 739.3 241.7 733.3C251.1 730.3 260.5 727.4 269.9 724.5L298.2 715.9L326.6 707.5C336.1 704.8 345.5 702 355 699.3C374 694 393 688.8 412.1 683.9Z" fill="url(#paint84_linear_2_169)"/>
<path d="M404.9 661.6C386 667 366.9 672 347.9 676.9C338.4 679.4 328.8 681.7 319.3 684.1L290.6 691.1L261.9 697.9C252.3 700.1 242.7 702.3 233.1 704.5C213.9 708.8 194.7 713 175.3 716.8C194.2 711.4 213.3 706.4 232.3 701.5C241.8 699 251.4 696.7 260.9 694.3L289.6 687.3L318.3 680.5C327.9 678.3 337.5 676.1 347.1 673.9C366.3 669.5 385.5 665.4 404.9 661.6Z" fill="url(#paint85_linear_2_169)"/>
<path d="M428.9 717.8L421.6 722.1L414.2 726.3L399.5 734.8C389.7 740.4 379.8 746 369.9 751.5C360 757.1 350.1 762.5 340.2 768L310.4 784.3L280.5 800.4C270.5 805.7 260.5 811.1 250.5 816.3C240.5 821.6 230.4 826.8 220.4 832L205.3 839.7L190.1 847.3L197.4 843L204.8 838.7L219.5 830.2C229.3 824.6 239.2 819 249.1 813.5C259 807.9 268.9 802.5 278.8 797L308.6 780.7L338.5 764.6C348.5 759.3 358.5 753.9 368.5 748.7C378.5 743.4 388.6 738.2 398.6 733L413.7 725.3L421.3 721.4L428.9 717.8Z" fill="url(#paint86_linear_2_169)"/>
<path d="M609.9 858.7C609.9 864.6 609.6 870.5 609.1 876.4C608.6 882.3 608 888.1 607.2 893.9C606.4 899.7 605.5 905.5 604.4 911.3C603.3 917.1 602.1 922.8 600.5 928.5C600.5 922.6 600.8 916.7 601.3 910.8C601.8 904.9 602.4 899.1 603.2 893.3C604 887.5 604.9 881.7 606 875.9C607.1 870.2 608.3 864.4 609.9 858.7Z" fill="url(#paint87_linear_2_169)"/>
<path d="M593.7 979.5C592.2 996.6 590.4 1013.7 588.4 1030.7C587.4 1039.2 586.3 1047.7 585.3 1056.2L582 1081.7L578.5 1107.2C577.2 1115.7 576.1 1124.2 574.7 1132.7C572.1 1149.7 569.4 1166.6 566.3 1183.5C567.8 1166.4 569.6 1149.3 571.6 1132.3C572.6 1123.8 573.7 1115.3 574.7 1106.8L578 1081.3L581.5 1055.8C582.7 1047.3 583.9 1038.8 585.3 1030.3C587.9 1013.3 590.6 996.4 593.7 979.5Z" fill="url(#paint88_linear_2_169)"/>
<path d="M407.9 1095.5C415.1 1080.6 422.7 1065.8 430.4 1051.1C434.2 1043.7 438.2 1036.5 442.1 1029.1L454 1007.2L466 985.4C470.1 978.2 474.1 970.9 478.2 963.8C486.4 949.4 494.8 935.1 503.5 920.9C496.3 935.8 488.7 950.6 481 965.3C477.2 972.7 473.2 979.9 469.3 987.3L457.4 1009.2L445.4 1031C441.3 1038.2 437.3 1045.5 433.2 1052.6C425 1067 416.6 1081.4 407.9 1095.5Z" fill="url(#paint89_linear_2_169)"/>
<path d="M449.1 769.5C438 778.1 426.7 786.4 415.3 794.5C409.6 798.6 403.9 802.6 398.2 806.6L380.9 818.6L363.5 830.4C357.7 834.3 351.9 838.2 346 842C334.3 849.7 322.5 857.2 310.5 864.5C321.6 855.9 332.9 847.6 344.3 839.5C350 835.4 355.7 831.4 361.4 827.4L378.7 815.4L396.1 803.6C401.9 799.7 407.7 795.8 413.6 792C425.3 784.3 437.1 776.8 449.1 769.5Z" fill="url(#paint90_linear_2_169)"/>
<path d="M894.2 540.3C910.1 533.4 926.1 526.9 942.2 520.5C950.2 517.3 958.3 514.2 966.3 511L990.5 501.7L1014.8 492.6C1022.9 489.6 1031 486.6 1039.2 483.7C1055.5 477.9 1071.8 472.2 1088.3 466.8C1072.4 473.7 1056.4 480.2 1040.3 486.6C1032.3 489.8 1024.2 492.9 1016.2 496.1L992 505.4L967.7 514.5C959.6 517.5 951.5 520.5 943.3 523.4C927 529.2 910.7 534.9 894.2 540.3Z" fill="url(#paint91_linear_2_169)"/>
<path d="M1019.8 616.1C1035.9 615.3 1052 614.8 1068.1 614.5C1076.2 614.3 1084.2 614.3 1092.3 614.2L1116.5 614.1L1140.7 614.2C1148.8 614.3 1156.8 614.3 1164.9 614.5C1181 614.8 1197.1 615.2 1213.2 616.1C1197.1 616.9 1181 617.4 1164.9 617.7C1156.8 617.9 1148.8 617.9 1140.7 618L1116.5 618.1L1092.3 618C1084.2 617.9 1076.2 617.9 1068.1 617.7C1052 617.4 1035.9 617 1019.8 616.1Z" fill="url(#paint92_linear_2_169)"/>
<path d="M735.4 385.5C740.1 371.8 745.1 358.1 750.2 344.6C752.7 337.8 755.4 331.1 758 324.3L766 304.1L774.2 284C777 277.3 779.8 270.6 782.7 264C788.4 250.7 794.2 237.4 800.4 224.3C795.7 238.1 790.7 251.7 785.6 265.2C783.1 272 780.4 278.7 777.8 285.5L769.8 305.7L761.6 325.8C758.8 332.5 756 339.2 753.1 345.8C747.5 359.1 741.6 372.4 735.4 385.5Z" fill="url(#paint93_linear_2_169)"/>
<path d="M815.5 425.3C823.9 416.7 832.6 408.5 841.4 400.3C845.8 396.2 850.2 392.2 854.6 388.1L868 376.1L881.5 364.3C886.1 360.4 890.6 356.5 895.2 352.6C904.4 344.9 913.6 337.3 923.1 329.9C914.7 338.5 906 346.7 897.2 354.9C892.8 359 888.4 363 884 367.1L870.6 379.1L857.1 390.9C852.5 394.8 848 398.7 843.4 402.6C834.3 410.3 825.1 417.9 815.5 425.3Z" fill="url(#paint94_linear_2_169)"/>
<path d="M875.3 476.6C885.1 469.4 895.1 462.6 905.2 455.8C910.2 452.4 915.3 449.1 920.4 445.8L935.7 436L951.1 426.4C956.3 423.3 961.4 420 966.6 417C977 410.8 987.5 404.6 998.1 398.9C988.3 406.1 978.3 412.9 968.2 419.7C963.2 423.1 958.1 426.4 953 429.7L937.7 439.5L922.3 449.1C917.1 452.3 912 455.5 906.8 458.5C896.4 464.7 886 470.8 875.3 476.6Z" fill="url(#paint95_linear_2_169)"/>
<path d="M893.9 683.9C913 688.8 932 694 951 699.4C960.5 702 969.9 704.8 979.4 707.6L1007.8 716L1036.1 724.6C1045.5 727.5 1054.9 730.4 1064.3 733.4C1083.1 739.3 1101.9 745.4 1120.5 751.9C1101.4 747 1082.4 741.8 1063.4 736.4C1053.9 733.8 1044.5 731 1035 728.2L1006.6 719.8L978.3 711.2C968.9 708.3 959.5 705.4 950.1 702.4C931.3 696.4 912.6 690.3 893.9 683.9Z" fill="url(#paint96_linear_2_169)"/>
<path d="M901.2 661.6C920.5 665.4 939.8 669.6 959 673.9C968.6 676 978.2 678.3 987.8 680.5L1016.5 687.3L1045.2 694.3C1054.7 696.7 1064.3 699 1073.8 701.5C1092.9 706.4 1111.9 711.4 1130.8 716.8C1111.5 713 1092.2 708.8 1073 704.5C1063.4 702.4 1053.8 700.1 1044.2 697.9L1015.5 691.1L986.8 684.1C977.3 681.7 967.7 679.4 958.2 676.9C939.2 672 920.1 667 901.2 661.6Z" fill="url(#paint97_linear_2_169)"/>
<path d="M835.9 1066.9C831.6 1058.9 827.6 1050.7 823.7 1042.5C821.7 1038.4 819.9 1034.3 818 1030.1L812.5 1017.6L807.2 1005.1C805.5 1000.9 803.8 996.7 802.1 992.5C798.8 984.1 795.6 975.5 792.8 966.9C797.1 974.9 801.1 983.1 805 991.3C807 995.4 808.8 999.5 810.7 1003.7L816.2 1016.2L821.5 1028.7C823.2 1032.9 824.9 1037.1 826.6 1041.3C829.9 1049.7 833.1 1058.2 835.9 1066.9Z" fill="url(#paint98_linear_2_169)"/>
<path d="M856.9 769.5C868.9 776.7 880.7 784.3 892.4 792C898.3 795.8 904.1 799.7 909.9 803.6L927.3 815.4L944.6 827.4C950.3 831.4 956.1 835.4 961.7 839.5C973.1 847.7 984.4 855.9 995.5 864.5C983.5 857.3 971.7 849.7 960 842C954.1 838.2 948.3 834.3 942.5 830.4L925.1 818.6L907.8 806.6C902.1 802.6 896.3 798.6 890.7 794.5C879.3 786.4 868 778.1 856.9 769.5Z" fill="url(#paint99_linear_2_169)"/>
</g>
<path id="Circle" opacity="0.92" d="M653 811.2C760.751 811.2 848.1 723.851 848.1 616.1C848.1 508.349 760.751 421 653 421C545.249 421 457.9 508.349 457.9 616.1C457.9 723.851 545.249 811.2 653 811.2Z" fill="url(#paint100_linear_2_169)"/>
</g>
<defs>
<linearGradient id="paint0_linear_2_169" x1="71.1206" y1="630.753" x2="1247.8" y2="630.753" gradientUnits="userSpaceOnUse">
<stop stop-color="#8F5560"/>
<stop offset="0.2013" stop-color="#945E6F"/>
<stop offset="0.5878" stop-color="#A17796"/>
<stop offset="1" stop-color="#B196C6"/>
</linearGradient>
<linearGradient id="paint1_linear_2_169" x1="71.2972" y1="630.49" x2="1247.62" y2="630.49" gradientUnits="userSpaceOnUse">
<stop stop-color="#8F5560"/>
<stop offset="0.2013" stop-color="#945E6F"/>
<stop offset="0.5878" stop-color="#A17796"/>
<stop offset="1" stop-color="#B196C6"/>
</linearGradient>
<linearGradient id="paint2_linear_2_169" x1="71.2972" y1="629.979" x2="1247.62" y2="629.979" gradientUnits="userSpaceOnUse">
<stop stop-color="#8F5560"/>
<stop offset="0.2013" stop-color="#945E6F"/>
<stop offset="0.5878" stop-color="#A17796"/>
<stop offset="1" stop-color="#B196C6"/>
</linearGradient>
<linearGradient id="paint3_linear_2_169" x1="71.2972" y1="631.13" x2="1247.62" y2="631.13" gradientUnits="userSpaceOnUse">
<stop stop-color="#8F5560"/>
<stop offset="0.2013" stop-color="#945E6F"/>
<stop offset="0.5878" stop-color="#A17796"/>
<stop offset="1" stop-color="#B196C6"/>
</linearGradient>
<linearGradient id="paint4_linear_2_169" x1="62.9432" y1="631.198" x2="1242.88" y2="631.198" gradientUnits="userSpaceOnUse">
<stop stop-color="#8F5560"/>
<stop offset="0.2013" stop-color="#945E6F"/>
<stop offset="0.5878" stop-color="#A17796"/>
<stop offset="1" stop-color="#B196C6"/>
</linearGradient>
<linearGradient id="paint5_linear_2_169" x1="58.8374" y1="629.241" x2="1246.1" y2="629.241" gradientUnits="userSpaceOnUse">
<stop stop-color="#8F5560"/>
<stop offset="0.2013" stop-color="#945E6F"/>
<stop offset="0.5878" stop-color="#A17796"/>
<stop offset="1" stop-color="#B196C6"/>
</linearGradient>
<linearGradient id="paint6_linear_2_169" x1="59.7808" y1="629.462" x2="1246.74" y2="629.462" gradientUnits="userSpaceOnUse">
<stop stop-color="#8F5560"/>
<stop offset="0.2013" stop-color="#945E6F"/>
<stop offset="0.5878" stop-color="#A17796"/>
<stop offset="1" stop-color="#B196C6"/>
</linearGradient>
<linearGradient id="paint7_linear_2_169" x1="44.795" y1="628.041" x2="1260.19" y2="628.041" gradientUnits="userSpaceOnUse">
<stop stop-color="#8F5560"/>
<stop offset="0.2013" stop-color="#945E6F"/>
<stop offset="0.5878" stop-color="#A17796"/>
<stop offset="1" stop-color="#B196C6"/>
</linearGradient>
<linearGradient id="paint8_linear_2_169" x1="59.0229" y1="627.979" x2="1246.58" y2="627.979" gradientUnits="userSpaceOnUse">
<stop stop-color="#8F5560"/>
<stop offset="0.2013" stop-color="#945E6F"/>
<stop offset="0.5878" stop-color="#A17796"/>
<stop offset="1" stop-color="#B196C6"/>
</linearGradient>
<linearGradient id="paint9_linear_2_169" x1="62.0836" y1="643.896" x2="1240.82" y2="643.896" gradientUnits="userSpaceOnUse">
<stop stop-color="#8F5560"/>
<stop offset="0.2013" stop-color="#945E6F"/>
<stop offset="0.5878" stop-color="#A17796"/>
<stop offset="1" stop-color="#B196C6"/>
</linearGradient>
<linearGradient id="paint10_linear_2_169" x1="62.6595" y1="630.953" x2="1243.2" y2="630.953" gradientUnits="userSpaceOnUse">
<stop stop-color="#8F5560"/>
<stop offset="0.2013" stop-color="#945E6F"/>
<stop offset="0.5878" stop-color="#A17796"/>
<stop offset="1" stop-color="#B196C6"/>
</linearGradient>
<linearGradient id="paint11_linear_2_169" x1="31.8358" y1="629.982" x2="1275.37" y2="629.982" gradientUnits="userSpaceOnUse">
<stop stop-color="#8F5560"/>
<stop offset="0.2013" stop-color="#945E6F"/>
<stop offset="0.5878" stop-color="#A17796"/>
<stop offset="1" stop-color="#B196C6"/>
</linearGradient>
<linearGradient id="paint12_linear_2_169" x1="42.9279" y1="630.294" x2="1262.62" y2="630.294" gradientUnits="userSpaceOnUse">
<stop stop-color="#8F5560"/>
<stop offset="0.2013" stop-color="#945E6F"/>
<stop offset="0.5878" stop-color="#A17796"/>
<stop offset="1" stop-color="#B196C6"/>
</linearGradient>
<linearGradient id="paint13_linear_2_169" x1="-127.194" y1="629.614" x2="1438.93" y2="629.614" gradientUnits="userSpaceOnUse">
<stop stop-color="#8F5560"/>
<stop offset="0.2013" stop-color="#945E6F"/>
<stop offset="0.5878" stop-color="#A17796"/>
<stop offset="1" stop-color="#B196C6"/>
</linearGradient>
<linearGradient id="paint14_linear_2_169" x1="-5.10399" y1="630.511" x2="1313.63" y2="630.511" gradientUnits="userSpaceOnUse">
<stop stop-color="#8F5560"/>
<stop offset="0.2013" stop-color="#945E6F"/>
<stop offset="0.5878" stop-color="#A17796"/>
<stop offset="1" stop-color="#B196C6"/>
</linearGradient>
<linearGradient id="paint15_linear_2_169" x1="34.4951" y1="629.769" x2="1268.18" y2="629.769" gradientUnits="userSpaceOnUse">
<stop stop-color="#8F5560"/>
<stop offset="0.2013" stop-color="#945E6F"/>
<stop offset="0.5878" stop-color="#A17796"/>
<stop offset="1" stop-color="#B196C6"/>
</linearGradient>
<linearGradient id="paint16_linear_2_169" x1="54.4259" y1="630.133" x2="1250.79" y2="630.133" gradientUnits="userSpaceOnUse">
<stop stop-color="#8F5560"/>
<stop offset="0.2013" stop-color="#945E6F"/>
<stop offset="0.5878" stop-color="#A17796"/>
<stop offset="1" stop-color="#B196C6"/>
</linearGradient>
<linearGradient id="paint17_linear_2_169" x1="25.0088" y1="629.031" x2="1278.99" y2="629.031" gradientUnits="userSpaceOnUse">
<stop stop-color="#8F5560"/>
<stop offset="0.2013" stop-color="#945E6F"/>
<stop offset="0.5878" stop-color="#A17796"/>
<stop offset="1" stop-color="#B196C6"/>
</linearGradient>
<linearGradient id="paint18_linear_2_169" x1="50.2785" y1="629.787" x2="1255.44" y2="629.787" gradientUnits="userSpaceOnUse">
<stop stop-color="#8F5560"/>
<stop offset="0.2013" stop-color="#945E6F"/>
<stop offset="0.5878" stop-color="#A17796"/>
<stop offset="1" stop-color="#B196C6"/>
</linearGradient>
<linearGradient id="paint19_linear_2_169" x1="53.4551" y1="629.648" x2="1252.05" y2="629.648" gradientUnits="userSpaceOnUse">
<stop stop-color="#8F5560"/>
<stop offset="0.2013" stop-color="#945E6F"/>
<stop offset="0.5878" stop-color="#A17796"/>
<stop offset="1" stop-color="#B196C6"/>
</linearGradient>
<linearGradient id="paint20_linear_2_169" x1="57.434" y1="630.504" x2="1249.04" y2="630.504" gradientUnits="userSpaceOnUse">
<stop stop-color="#8F5560"/>
<stop offset="0.2013" stop-color="#945E6F"/>
<stop offset="0.5878" stop-color="#A17796"/>
<stop offset="1" stop-color="#B196C6"/>
</linearGradient>
<linearGradient id="paint21_linear_2_169" x1="59.7457" y1="629.935" x2="1245.73" y2="629.935" gradientUnits="userSpaceOnUse">
<stop stop-color="#8F5560"/>
<stop offset="0.2013" stop-color="#945E6F"/>
<stop offset="0.5878" stop-color="#A17796"/>
<stop offset="1" stop-color="#B196C6"/>
</linearGradient>
<linearGradient id="paint22_linear_2_169" x1="57.1261" y1="632.005" x2="1249.08" y2="632.005" gradientUnits="userSpaceOnUse">
<stop stop-color="#8F5560"/>
<stop offset="0.2013" stop-color="#945E6F"/>
<stop offset="0.5878" stop-color="#A17796"/>
<stop offset="1" stop-color="#B196C6"/>
</linearGradient>
<linearGradient id="paint23_linear_2_169" x1="40.6968" y1="630.14" x2="1265.85" y2="630.14" gradientUnits="userSpaceOnUse">
<stop stop-color="#8F5560"/>
<stop offset="0.2013" stop-color="#945E6F"/>
<stop offset="0.5878" stop-color="#A17796"/>
<stop offset="1" stop-color="#B196C6"/>
</linearGradient>
<linearGradient id="paint24_linear_2_169" x1="14.5062" y1="630.161" x2="1288" y2="630.161" gradientUnits="userSpaceOnUse">
<stop stop-color="#8F5560"/>
<stop offset="0.2013" stop-color="#945E6F"/>
<stop offset="0.5878" stop-color="#A17796"/>
<stop offset="1" stop-color="#B196C6"/>
</linearGradient>
<linearGradient id="paint25_linear_2_169" x1="61.7414" y1="629.875" x2="1244.38" y2="629.875" gradientUnits="userSpaceOnUse">
<stop stop-color="#8F5560"/>
<stop offset="0.2013" stop-color="#945E6F"/>
<stop offset="0.5878" stop-color="#A17796"/>
<stop offset="1" stop-color="#B196C6"/>
</linearGradient>
<linearGradient id="paint26_linear_2_169" x1="61.5938" y1="629.453" x2="1244.23" y2="629.453" gradientUnits="userSpaceOnUse">
<stop stop-color="#8F5560"/>
<stop offset="0.2013" stop-color="#945E6F"/>
<stop offset="0.5878" stop-color="#A17796"/>
<stop offset="1" stop-color="#B196C6"/>
</linearGradient>
<linearGradient id="paint27_linear_2_169" x1="42.6011" y1="631.228" x2="1262.83" y2="631.228" gradientUnits="userSpaceOnUse">
<stop stop-color="#8F5560"/>
<stop offset="0.2013" stop-color="#945E6F"/>
<stop offset="0.5878" stop-color="#A17796"/>
<stop offset="1" stop-color="#B196C6"/>
</linearGradient>
<linearGradient id="paint28_linear_2_169" x1="39.5114" y1="629.566" x2="1266.09" y2="629.566" gradientUnits="userSpaceOnUse">
<stop stop-color="#8F5560"/>
<stop offset="0.2013" stop-color="#945E6F"/>
<stop offset="0.5878" stop-color="#A17796"/>
<stop offset="1" stop-color="#B196C6"/>
</linearGradient>
<linearGradient id="paint29_linear_2_169" x1="4.13575" y1="630.843" x2="1300.07" y2="630.843" gradientUnits="userSpaceOnUse">
<stop stop-color="#8F5560"/>
<stop offset="0.2013" stop-color="#945E6F"/>
<stop offset="0.5878" stop-color="#A17796"/>
<stop offset="1" stop-color="#B196C6"/>
</linearGradient>
<linearGradient id="paint30_linear_2_169" x1="49.5169" y1="630.827" x2="1255.61" y2="630.827" gradientUnits="userSpaceOnUse">
<stop stop-color="#8F5560"/>
<stop offset="0.2013" stop-color="#945E6F"/>
<stop offset="0.5878" stop-color="#A17796"/>
<stop offset="1" stop-color="#B196C6"/>
</linearGradient>
<linearGradient id="paint31_linear_2_169" x1="48.651" y1="630.537" x2="1258.4" y2="630.537" gradientUnits="userSpaceOnUse">
<stop stop-color="#8F5560"/>
<stop offset="0.2013" stop-color="#945E6F"/>
<stop offset="0.5878" stop-color="#A17796"/>
<stop offset="1" stop-color="#B196C6"/>
</linearGradient>
<linearGradient id="paint32_linear_2_169" x1="27.6065" y1="631.551" x2="1278.38" y2="631.551" gradientUnits="userSpaceOnUse">
<stop stop-color="#8F5560"/>
<stop offset="0.2013" stop-color="#945E6F"/>
<stop offset="0.5878" stop-color="#A17796"/>
<stop offset="1" stop-color="#B196C6"/>
</linearGradient>
<linearGradient id="paint33_linear_2_169" x1="50.5237" y1="630.265" x2="1254.91" y2="630.265" gradientUnits="userSpaceOnUse">
<stop stop-color="#8F5560"/>
<stop offset="0.2013" stop-color="#945E6F"/>
<stop offset="0.5878" stop-color="#A17796"/>
<stop offset="1" stop-color="#B196C6"/>
</linearGradient>
<linearGradient id="paint34_linear_2_169" x1="13.097" y1="630.384" x2="1288.17" y2="630.384" gradientUnits="userSpaceOnUse">
<stop stop-color="#8F5560"/>
<stop offset="0.2013" stop-color="#945E6F"/>
<stop offset="0.5878" stop-color="#A17796"/>
<stop offset="1" stop-color="#B196C6"/>
</linearGradient>
<linearGradient id="paint35_linear_2_169" x1="-27.4734" y1="630.629" x2="1341.54" y2="630.629" gradientUnits="userSpaceOnUse">
<stop stop-color="#8F5560"/>
<stop offset="0.2013" stop-color="#945E6F"/>
<stop offset="0.5878" stop-color="#A17796"/>
<stop offset="1" stop-color="#B196C6"/>
</linearGradient>
<linearGradient id="paint36_linear_2_169" x1="32.186" y1="630.152" x2="1273.66" y2="630.152" gradientUnits="userSpaceOnUse">
<stop stop-color="#8F5560"/>
<stop offset="0.2013" stop-color="#945E6F"/>
<stop offset="0.5878" stop-color="#A17796"/>
<stop offset="1" stop-color="#B196C6"/>
</linearGradient>
<linearGradient id="paint37_linear_2_169" x1="52.3757" y1="630.135" x2="1252.45" y2="630.135" gradientUnits="userSpaceOnUse">
<stop stop-color="#8F5560"/>
<stop offset="0.2013" stop-color="#945E6F"/>
<stop offset="0.5878" stop-color="#A17796"/>
<stop offset="1" stop-color="#B196C6"/>
</linearGradient>
<linearGradient id="paint38_linear_2_169" x1="70.7087" y1="630.753" x2="1247.41" y2="630.753" gradientUnits="userSpaceOnUse">
<stop stop-color="#8F5560"/>
<stop offset="0.2013" stop-color="#945E6F"/>
<stop offset="0.5878" stop-color="#A17796"/>
<stop offset="1" stop-color="#B196C6"/>
</linearGradient>
<linearGradient id="paint39_linear_2_169" x1="70.9146" y1="630.49" x2="1247.21" y2="630.49" gradientUnits="userSpaceOnUse">
<stop stop-color="#8F5560"/>
<stop offset="0.2013" stop-color="#945E6F"/>
<stop offset="0.5878" stop-color="#A17796"/>
<stop offset="1" stop-color="#B196C6"/>
</linearGradient>
<linearGradient id="paint40_linear_2_169" x1="70.9146" y1="629.979" x2="1247.21" y2="629.979" gradientUnits="userSpaceOnUse">
<stop stop-color="#8F5560"/>
<stop offset="0.2013" stop-color="#945E6F"/>
<stop offset="0.5878" stop-color="#A17796"/>
<stop offset="1" stop-color="#B196C6"/>
</linearGradient>
<linearGradient id="paint41_linear_2_169" x1="70.9146" y1="631.13" x2="1247.21" y2="631.13" gradientUnits="userSpaceOnUse">
<stop stop-color="#8F5560"/>
<stop offset="0.2013" stop-color="#945E6F"/>
<stop offset="0.5878" stop-color="#A17796"/>
<stop offset="1" stop-color="#B196C6"/>
</linearGradient>
<linearGradient id="paint42_linear_2_169" x1="62.7881" y1="631.198" x2="1242.73" y2="631.198" gradientUnits="userSpaceOnUse">
<stop stop-color="#8F5560"/>
<stop offset="0.2013" stop-color="#945E6F"/>
<stop offset="0.5878" stop-color="#A17796"/>
<stop offset="1" stop-color="#B196C6"/>
</linearGradient>
<linearGradient id="paint43_linear_2_169" x1="59.5872" y1="629.784" x2="1246.85" y2="629.784" gradientUnits="userSpaceOnUse">
<stop stop-color="#8F5560"/>
<stop offset="0.2013" stop-color="#945E6F"/>
<stop offset="0.5878" stop-color="#A17796"/>
<stop offset="1" stop-color="#B196C6"/>
</linearGradient>
<linearGradient id="paint44_linear_2_169" x1="58.9329" y1="629.462" x2="1245.9" y2="629.462" gradientUnits="userSpaceOnUse">
<stop stop-color="#8F5560"/>
<stop offset="0.2013" stop-color="#945E6F"/>
<stop offset="0.5878" stop-color="#A17796"/>
<stop offset="1" stop-color="#B196C6"/>
</linearGradient>
<linearGradient id="paint45_linear_2_169" x1="46.7342" y1="625.871" x2="1262.13" y2="625.871" gradientUnits="userSpaceOnUse">
<stop stop-color="#8F5560"/>
<stop offset="0.2013" stop-color="#945E6F"/>
<stop offset="0.5878" stop-color="#A17796"/>
<stop offset="1" stop-color="#B196C6"/>
</linearGradient>
<linearGradient id="paint46_linear_2_169" x1="58.3922" y1="628.901" x2="1245.94" y2="628.901" gradientUnits="userSpaceOnUse">
<stop stop-color="#8F5560"/>
<stop offset="0.2013" stop-color="#945E6F"/>
<stop offset="0.5878" stop-color="#A17796"/>
<stop offset="1" stop-color="#B196C6"/>
</linearGradient>
<linearGradient id="paint47_linear_2_169" x1="64.1523" y1="643.895" x2="1242.89" y2="643.895" gradientUnits="userSpaceOnUse">
<stop stop-color="#8F5560"/>
<stop offset="0.2013" stop-color="#945E6F"/>
<stop offset="0.5878" stop-color="#A17796"/>
<stop offset="1" stop-color="#B196C6"/>
</linearGradient>
<linearGradient id="paint48_linear_2_169" x1="62.9479" y1="630.953" x2="1243.49" y2="630.953" gradientUnits="userSpaceOnUse">
<stop stop-color="#8F5560"/>
<stop offset="0.2013" stop-color="#945E6F"/>
<stop offset="0.5878" stop-color="#A17796"/>
<stop offset="1" stop-color="#B196C6"/>
</linearGradient>
<linearGradient id="paint49_linear_2_169" x1="31.4551" y1="629.982" x2="1274.99" y2="629.982" gradientUnits="userSpaceOnUse">
<stop stop-color="#8F5560"/>
<stop offset="0.2013" stop-color="#945E6F"/>
<stop offset="0.5878" stop-color="#A17796"/>
<stop offset="1" stop-color="#B196C6"/>
</linearGradient>
<linearGradient id="paint50_linear_2_169" x1="42.6721" y1="630.294" x2="1262.36" y2="630.294" gradientUnits="userSpaceOnUse">
<stop stop-color="#8F5560"/>
<stop offset="0.2013" stop-color="#945E6F"/>
<stop offset="0.5878" stop-color="#A17796"/>
<stop offset="1" stop-color="#B196C6"/>
</linearGradient>
<linearGradient id="paint51_linear_2_169" x1="-128.754" y1="629.614" x2="1437.37" y2="629.614" gradientUnits="userSpaceOnUse">
<stop stop-color="#8F5560"/>
<stop offset="0.2013" stop-color="#945E6F"/>
<stop offset="0.5878" stop-color="#A17796"/>
<stop offset="1" stop-color="#B196C6"/>
</linearGradient>
<linearGradient id="paint52_linear_2_169" x1="-6.10569" y1="630.511" x2="1312.63" y2="630.511" gradientUnits="userSpaceOnUse">
<stop stop-color="#8F5560"/>
<stop offset="0.2013" stop-color="#945E6F"/>
<stop offset="0.5878" stop-color="#A17796"/>
<stop offset="1" stop-color="#B196C6"/>
</linearGradient>
<linearGradient id="paint53_linear_2_169" x1="36.5892" y1="629.769" x2="1270.27" y2="629.769" gradientUnits="userSpaceOnUse">
<stop stop-color="#8F5560"/>
<stop offset="0.2013" stop-color="#945E6F"/>
<stop offset="0.5878" stop-color="#A17796"/>
<stop offset="1" stop-color="#B196C6"/>
</linearGradient>
<linearGradient id="paint54_linear_2_169" x1="54.7561" y1="630.133" x2="1251.12" y2="630.133" gradientUnits="userSpaceOnUse">
<stop stop-color="#8F5560"/>
<stop offset="0.2013" stop-color="#945E6F"/>
<stop offset="0.5878" stop-color="#A17796"/>
<stop offset="1" stop-color="#B196C6"/>
</linearGradient>
<linearGradient id="paint55_linear_2_169" x1="25.5607" y1="629.031" x2="1279.54" y2="629.031" gradientUnits="userSpaceOnUse">
<stop stop-color="#8F5560"/>
<stop offset="0.2013" stop-color="#945E6F"/>
<stop offset="0.5878" stop-color="#A17796"/>
<stop offset="1" stop-color="#B196C6"/>
</linearGradient>
<linearGradient id="paint56_linear_2_169" x1="50.9636" y1="630.157" x2="1255.18" y2="630.157" gradientUnits="userSpaceOnUse">
<stop stop-color="#8F5560"/>
<stop offset="0.2013" stop-color="#945E6F"/>
<stop offset="0.5878" stop-color="#A17796"/>
<stop offset="1" stop-color="#B196C6"/>
</linearGradient>
<linearGradient id="paint57_linear_2_169" x1="53.4786" y1="630.071" x2="1252.08" y2="630.071" gradientUnits="userSpaceOnUse">
<stop stop-color="#8F5560"/>
<stop offset="0.2013" stop-color="#945E6F"/>
<stop offset="0.5878" stop-color="#A17796"/>
<stop offset="1" stop-color="#B196C6"/>
</linearGradient>
<linearGradient id="paint58_linear_2_169" x1="57.2428" y1="630.031" x2="1249.53" y2="630.031" gradientUnits="userSpaceOnUse">
<stop stop-color="#8F5560"/>
<stop offset="0.2013" stop-color="#945E6F"/>
<stop offset="0.5878" stop-color="#A17796"/>
<stop offset="1" stop-color="#B196C6"/>
</linearGradient>
<linearGradient id="paint59_linear_2_169" x1="59.9174" y1="629.935" x2="1245.9" y2="629.935" gradientUnits="userSpaceOnUse">
<stop stop-color="#8F5560"/>
<stop offset="0.2013" stop-color="#945E6F"/>
<stop offset="0.5878" stop-color="#A17796"/>
<stop offset="1" stop-color="#B196C6"/>
</linearGradient>
<linearGradient id="paint60_linear_2_169" x1="57.3652" y1="632.005" x2="1249.32" y2="632.005" gradientUnits="userSpaceOnUse">
<stop stop-color="#8F5560"/>
<stop offset="0.2013" stop-color="#945E6F"/>
<stop offset="0.5878" stop-color="#A17796"/>
<stop offset="1" stop-color="#B196C6"/>
</linearGradient>
<linearGradient id="paint61_linear_2_169" x1="38.9429" y1="630.14" x2="1264.09" y2="630.14" gradientUnits="userSpaceOnUse">
<stop stop-color="#8F5560"/>
<stop offset="0.2013" stop-color="#945E6F"/>
<stop offset="0.5878" stop-color="#A17796"/>
<stop offset="1" stop-color="#B196C6"/>
</linearGradient>
<linearGradient id="paint62_linear_2_169" x1="59.9359" y1="629.985" x2="1246.93" y2="629.985" gradientUnits="userSpaceOnUse">
<stop stop-color="#8F5560"/>
<stop offset="0.2013" stop-color="#945E6F"/>
<stop offset="0.5878" stop-color="#A17796"/>
<stop offset="1" stop-color="#B196C6"/>
</linearGradient>
<linearGradient id="paint63_linear_2_169" x1="61.9775" y1="629.875" x2="1244.61" y2="629.875" gradientUnits="userSpaceOnUse">
<stop stop-color="#8F5560"/>
<stop offset="0.2013" stop-color="#945E6F"/>
<stop offset="0.5878" stop-color="#A17796"/>
<stop offset="1" stop-color="#B196C6"/>
</linearGradient>
<linearGradient id="paint64_linear_2_169" x1="62.1251" y1="629.453" x2="1244.76" y2="629.453" gradientUnits="userSpaceOnUse">
<stop stop-color="#8F5560"/>
<stop offset="0.2013" stop-color="#945E6F"/>
<stop offset="0.5878" stop-color="#A17796"/>
<stop offset="1" stop-color="#B196C6"/>
</linearGradient>
<linearGradient id="paint65_linear_2_169" x1="42.3471" y1="631.228" x2="1264.02" y2="631.228" gradientUnits="userSpaceOnUse">
<stop stop-color="#8F5560"/>
<stop offset="0.2013" stop-color="#945E6F"/>
<stop offset="0.5878" stop-color="#A17796"/>
<stop offset="1" stop-color="#B196C6"/>
</linearGradient>
<linearGradient id="paint66_linear_2_169" x1="39.015" y1="629.566" x2="1265.59" y2="629.566" gradientUnits="userSpaceOnUse">
<stop stop-color="#8F5560"/>
<stop offset="0.2013" stop-color="#945E6F"/>
<stop offset="0.5878" stop-color="#A17796"/>
<stop offset="1" stop-color="#B196C6"/>
</linearGradient>
<linearGradient id="paint67_linear_2_169" x1="-178.35" y1="630.132" x2="1491.8" y2="630.132" gradientUnits="userSpaceOnUse">
<stop stop-color="#8F5560"/>
<stop offset="0.2013" stop-color="#945E6F"/>
<stop offset="0.5878" stop-color="#A17796"/>
<stop offset="1" stop-color="#B196C6"/>
</linearGradient>
<linearGradient id="paint68_linear_2_169" x1="-22.0611" y1="630.197" x2="1325.29" y2="630.197" gradientUnits="userSpaceOnUse">
<stop stop-color="#8F5560"/>
<stop offset="0.2013" stop-color="#945E6F"/>
<stop offset="0.5878" stop-color="#A17796"/>
<stop offset="1" stop-color="#B196C6"/>
</linearGradient>
<linearGradient id="paint69_linear_2_169" x1="3.99748" y1="630.843" x2="1299.93" y2="630.843" gradientUnits="userSpaceOnUse">
<stop stop-color="#8F5560"/>
<stop offset="0.2013" stop-color="#945E6F"/>
<stop offset="0.5878" stop-color="#A17796"/>
<stop offset="1" stop-color="#B196C6"/>
</linearGradient>
<linearGradient id="paint70_linear_2_169" x1="43.0727" y1="630.875" x2="1263.43" y2="630.875" gradientUnits="userSpaceOnUse">
<stop stop-color="#8F5560"/>
<stop offset="0.2013" stop-color="#945E6F"/>
<stop offset="0.5878" stop-color="#A17796"/>
<stop offset="1" stop-color="#B196C6"/>
</linearGradient>
<linearGradient id="paint71_linear_2_169" x1="50.8698" y1="630.17" x2="1256.96" y2="630.17" gradientUnits="userSpaceOnUse">
<stop stop-color="#8F5560"/>
<stop offset="0.2013" stop-color="#945E6F"/>
<stop offset="0.5878" stop-color="#A17796"/>
<stop offset="1" stop-color="#B196C6"/>
</linearGradient>
<linearGradient id="paint72_linear_2_169" x1="48.1422" y1="630.537" x2="1257.89" y2="630.537" gradientUnits="userSpaceOnUse">
<stop stop-color="#8F5560"/>
<stop offset="0.2013" stop-color="#945E6F"/>
<stop offset="0.5878" stop-color="#A17796"/>
<stop offset="1" stop-color="#B196C6"/>
</linearGradient>
<linearGradient id="paint73_linear_2_169" x1="26.1827" y1="631.551" x2="1276.96" y2="631.551" gradientUnits="userSpaceOnUse">
<stop stop-color="#8F5560"/>
<stop offset="0.2013" stop-color="#945E6F"/>
<stop offset="0.5878" stop-color="#A17796"/>
<stop offset="1" stop-color="#B196C6"/>
</linearGradient>
<linearGradient id="paint74_linear_2_169" x1="50.5611" y1="630.265" x2="1254.95" y2="630.265" gradientUnits="userSpaceOnUse">
<stop stop-color="#8F5560"/>
<stop offset="0.2013" stop-color="#945E6F"/>
<stop offset="0.5878" stop-color="#A17796"/>
<stop offset="1" stop-color="#B196C6"/>
</linearGradient>
<linearGradient id="paint75_linear_2_169" x1="16.4196" y1="630.055" x2="1291.49" y2="630.055" gradientUnits="userSpaceOnUse">
<stop stop-color="#8F5560"/>
<stop offset="0.2013" stop-color="#945E6F"/>
<stop offset="0.5878" stop-color="#A17796"/>
<stop offset="1" stop-color="#B196C6"/>
</linearGradient>
<linearGradient id="paint76_linear_2_169" x1="-33.3838" y1="630.629" x2="1335.63" y2="630.629" gradientUnits="userSpaceOnUse">
<stop stop-color="#8F5560"/>
<stop offset="0.2013" stop-color="#945E6F"/>
<stop offset="0.5878" stop-color="#A17796"/>
<stop offset="1" stop-color="#B196C6"/>
</linearGradient>
<linearGradient id="paint77_linear_2_169" x1="30.9686" y1="630.152" x2="1272.45" y2="630.152" gradientUnits="userSpaceOnUse">
<stop stop-color="#8F5560"/>
<stop offset="0.2013" stop-color="#945E6F"/>
<stop offset="0.5878" stop-color="#A17796"/>
<stop offset="1" stop-color="#B196C6"/>
</linearGradient>
<linearGradient id="paint78_linear_2_169" x1="53.0843" y1="630.135" x2="1253.16" y2="630.135" gradientUnits="userSpaceOnUse">
<stop stop-color="#8F5560"/>
<stop offset="0.2013" stop-color="#945E6F"/>
<stop offset="0.5878" stop-color="#A17796"/>
<stop offset="1" stop-color="#B196C6"/>
</linearGradient>
<linearGradient id="paint79_linear_2_169" x1="89.0097" y1="704.504" x2="1217.41" y2="704.504" gradientUnits="userSpaceOnUse">
<stop stop-color="#8F5560"/>
<stop offset="0.2013" stop-color="#945E6F"/>
<stop offset="0.5878" stop-color="#A17796"/>
<stop offset="1" stop-color="#B196C6"/>
</linearGradient>
<linearGradient id="paint80_linear_2_169" x1="93.7931" y1="715.603" x2="1212.98" y2="715.603" gradientUnits="userSpaceOnUse">
<stop stop-color="#8F5560"/>
<stop offset="0.2013" stop-color="#945E6F"/>
<stop offset="0.5878" stop-color="#A17796"/>
<stop offset="1" stop-color="#B196C6"/>
</linearGradient>
<linearGradient id="paint81_linear_2_169" x1="58.5257" y1="703.97" x2="1245.14" y2="703.97" gradientUnits="userSpaceOnUse">
<stop stop-color="#8F5560"/>
<stop offset="0.2013" stop-color="#945E6F"/>
<stop offset="0.5878" stop-color="#A17796"/>
<stop offset="1" stop-color="#B196C6"/>
</linearGradient>
<linearGradient id="paint82_linear_2_169" x1="79.2241" y1="703.749" x2="1226.96" y2="703.749" gradientUnits="userSpaceOnUse">
<stop stop-color="#8F5560"/>
<stop offset="0.2013" stop-color="#945E6F"/>
<stop offset="0.5878" stop-color="#A17796"/>
<stop offset="1" stop-color="#B196C6"/>
</linearGradient>
<linearGradient id="paint83_linear_2_169" x1="83.7724" y1="703.042" x2="1223.4" y2="703.042" gradientUnits="userSpaceOnUse">
<stop stop-color="#8F5560"/>
<stop offset="0.2013" stop-color="#945E6F"/>
<stop offset="0.5878" stop-color="#A17796"/>
<stop offset="1" stop-color="#B196C6"/>
</linearGradient>
<linearGradient id="paint84_linear_2_169" x1="90.0418" y1="703.439" x2="1216.07" y2="703.439" gradientUnits="userSpaceOnUse">
<stop stop-color="#8F5560"/>
<stop offset="0.2013" stop-color="#945E6F"/>
<stop offset="0.5878" stop-color="#A17796"/>
<stop offset="1" stop-color="#B196C6"/>
</linearGradient>
<linearGradient id="paint85_linear_2_169" x1="90.3265" y1="702.614" x2="1215.31" y2="702.614" gradientUnits="userSpaceOnUse">
<stop stop-color="#8F5560"/>
<stop offset="0.2013" stop-color="#945E6F"/>
<stop offset="0.5878" stop-color="#A17796"/>
<stop offset="1" stop-color="#B196C6"/>
</linearGradient>
<linearGradient id="paint86_linear_2_169" x1="87.9294" y1="704.28" x2="1217.74" y2="704.28" gradientUnits="userSpaceOnUse">
<stop stop-color="#8F5560"/>
<stop offset="0.2013" stop-color="#945E6F"/>
<stop offset="0.5878" stop-color="#A17796"/>
<stop offset="1" stop-color="#B196C6"/>
</linearGradient>
<linearGradient id="paint87_linear_2_169" x1="-140.277" y1="703.668" x2="1449.42" y2="703.668" gradientUnits="userSpaceOnUse">
<stop stop-color="#8F5560"/>
<stop offset="0.2013" stop-color="#945E6F"/>
<stop offset="0.5878" stop-color="#A17796"/>
<stop offset="1" stop-color="#B196C6"/>
</linearGradient>
<linearGradient id="paint88_linear_2_169" x1="10.7991" y1="703.724" x2="1293.24" y2="703.724" gradientUnits="userSpaceOnUse">
<stop stop-color="#8F5560"/>
<stop offset="0.2013" stop-color="#945E6F"/>
<stop offset="0.5878" stop-color="#A17796"/>
<stop offset="1" stop-color="#B196C6"/>
</linearGradient>
<linearGradient id="paint89_linear_2_169" x1="72.5259" y1="704.312" x2="1234.09" y2="704.312" gradientUnits="userSpaceOnUse">
<stop stop-color="#8F5560"/>
<stop offset="0.2013" stop-color="#945E6F"/>
<stop offset="0.5878" stop-color="#A17796"/>
<stop offset="1" stop-color="#B196C6"/>
</linearGradient>
<linearGradient id="paint90_linear_2_169" x1="84.3077" y1="703.958" x2="1222.51" y2="703.958" gradientUnits="userSpaceOnUse">
<stop stop-color="#8F5560"/>
<stop offset="0.2013" stop-color="#945E6F"/>
<stop offset="0.5878" stop-color="#A17796"/>
<stop offset="1" stop-color="#B196C6"/>
</linearGradient>
<linearGradient id="paint91_linear_2_169" x1="88.9359" y1="704.504" x2="1217.34" y2="704.504" gradientUnits="userSpaceOnUse">
<stop stop-color="#8F5560"/>
<stop offset="0.2013" stop-color="#945E6F"/>
<stop offset="0.5878" stop-color="#A17796"/>
<stop offset="1" stop-color="#B196C6"/>
</linearGradient>
<linearGradient id="paint92_linear_2_169" x1="92.7852" y1="715.603" x2="1211.97" y2="715.603" gradientUnits="userSpaceOnUse">
<stop stop-color="#8F5560"/>
<stop offset="0.2013" stop-color="#945E6F"/>
<stop offset="0.5878" stop-color="#A17796"/>
<stop offset="1" stop-color="#B196C6"/>
</linearGradient>
<linearGradient id="paint93_linear_2_169" x1="61.6935" y1="703.97" x2="1248.31" y2="703.97" gradientUnits="userSpaceOnUse">
<stop stop-color="#8F5560"/>
<stop offset="0.2013" stop-color="#945E6F"/>
<stop offset="0.5878" stop-color="#A17796"/>
<stop offset="1" stop-color="#B196C6"/>
</linearGradient>
<linearGradient id="paint94_linear_2_169" x1="79.5844" y1="703.749" x2="1227.32" y2="703.749" gradientUnits="userSpaceOnUse">
<stop stop-color="#8F5560"/>
<stop offset="0.2013" stop-color="#945E6F"/>
<stop offset="0.5878" stop-color="#A17796"/>
<stop offset="1" stop-color="#B196C6"/>
</linearGradient>
<linearGradient id="paint95_linear_2_169" x1="83.09" y1="703.042" x2="1222.72" y2="703.042" gradientUnits="userSpaceOnUse">
<stop stop-color="#8F5560"/>
<stop offset="0.2013" stop-color="#945E6F"/>
<stop offset="0.5878" stop-color="#A17796"/>
<stop offset="1" stop-color="#B196C6"/>
</linearGradient>
<linearGradient id="paint96_linear_2_169" x1="90.2405" y1="702.735" x2="1216.27" y2="702.735" gradientUnits="userSpaceOnUse">
<stop stop-color="#8F5560"/>
<stop offset="0.2013" stop-color="#945E6F"/>
<stop offset="0.5878" stop-color="#A17796"/>
<stop offset="1" stop-color="#B196C6"/>
</linearGradient>
<linearGradient id="paint97_linear_2_169" x1="90.5119" y1="702.614" x2="1215.49" y2="702.614" gradientUnits="userSpaceOnUse">
<stop stop-color="#8F5560"/>
<stop offset="0.2013" stop-color="#945E6F"/>
<stop offset="0.5878" stop-color="#A17796"/>
<stop offset="1" stop-color="#B196C6"/>
</linearGradient>
<linearGradient id="paint98_linear_2_169" x1="49.7463" y1="703.693" x2="1261.89" y2="703.693" gradientUnits="userSpaceOnUse">
<stop stop-color="#8F5560"/>
<stop offset="0.2013" stop-color="#945E6F"/>
<stop offset="0.5878" stop-color="#A17796"/>
<stop offset="1" stop-color="#B196C6"/>
</linearGradient>
<linearGradient id="paint99_linear_2_169" x1="83.9318" y1="703.958" x2="1222.14" y2="703.958" gradientUnits="userSpaceOnUse">
<stop stop-color="#8F5560"/>
<stop offset="0.2013" stop-color="#945E6F"/>
<stop offset="0.5878" stop-color="#A17796"/>
<stop offset="1" stop-color="#B196C6"/>
</linearGradient>
<linearGradient id="paint100_linear_2_169" x1="653.021" y1="811.211" x2="653.021" y2="257.764" gradientUnits="userSpaceOnUse">
<stop stop-color="#FAAF57"/>
<stop offset="0.5694" stop-color="#F27567"/>
<stop offset="0.8742" stop-color="#EF5B6E"/>
</linearGradient>
</defs>
</svg>
