<svg xmlns="http://www.w3.org/2000/svg" xmlns:xlink="http://www.w3.org/1999/xlink" id="Layer_3" data-name="Layer 3" viewBox="0 0 440.07 37.26"><defs><style>.cls-1{fill:none;}.cls-2{clip-path:url(#clip-path);}.cls-3{fill:#fff;}</style><clipPath id="clip-path" transform="translate(-1.81 -4.4)"><rect class="cls-1" y="4.45" width="203.07" height="36.59"></rect></clipPath></defs><g class="cls-2"><polygon class="cls-3" points="52.68 9.02 43.36 9.02 43.36 3.52 68.83 3.52 68.83 9.02 59.51 9.02 59.51 33.28 52.68 33.28 52.68 9.02"></polygon><path class="cls-3" d="M79.72,21.38h7.49c3.09,0,4.71-1.25,4.71-4.25S90.3,13,87.21,13H79.72ZM72.89,7.92H89.65c5.58,0,9.1,3.71,9.1,8.21,0,3.5-1.44,6.13-4.92,7.46v.09c3.35.87,4.31,3.91,4.53,7,.13,1.87,0,5.41,1.31,7H92.83c-.78-1.88-.74-4.75-1.09-7.13-.48-3.12-1.74-4.5-5.18-4.5H79.72V37.68H72.89Z" transform="translate(-1.81 -4.4)"></path><rect class="cls-3" x="100.31" y="3.52" width="6.84" height="29.76"></rect><path class="cls-3" d="M139.59,26.43c0,8-5,12-13.28,12s-13.24-3.84-13.24-12V7.92h6.84V26.43c0,3.25.87,6.45,6.4,6.45,4.87,0,6.44-2,6.44-6.45V7.92h6.84Z" transform="translate(-1.81 -4.4)"></path><polygon class="cls-3" points="141.76 3.52 151.38 3.52 158.65 23.98 158.74 23.98 165.62 3.52 175.24 3.52 175.24 33.28 168.84 33.28 168.84 12.19 168.75 12.19 161.13 33.28 155.87 33.28 148.25 12.4 148.16 12.4 148.16 33.28 141.76 33.28 141.76 3.52"></polygon><polygon class="cls-3" points="179.4 3.52 179.4 33.28 186.24 33.28 186.24 20.98 199.26 20.98 199.26 15.9 186.24 15.9 186.24 9.02 201.26 9.02 201.26 3.52 179.4 3.52"></polygon></g><path class="cls-3" d="M19,36.18c-1.14-2.11.14-9.11.62-11.48l-.3-.08C17.69,26.39,11.66,34,13.7,38.38s10.47,2.27,13.7,1.34a1.58,1.58,0,0,1-.09-.31c-3,.08-6.79-.44-8.28-3.23" transform="translate(-1.81 -4.4)"></path><path class="cls-3" d="M31.3,30.44c-2.4-.08-7.83-4.68-9.64-6.28a2.34,2.34,0,0,1-.23.22c.71,2.31,4.32,11.36,9.11,11.77s7.21-7.93,8-11.18l-.32-.08c-1.45,2.66-3.78,5.65-6.94,5.55" transform="translate(-1.81 -4.4)"></path><path class="cls-3" d="M32.46,17c-1.27,2-8,4.42-10.28,5.19a1.29,1.29,0,0,1,.08.31c2.37.54,12,1.95,14.76-2S33.76,10.27,31.34,7.94a1.75,1.75,0,0,1-.23.24c1.59,2.58,3,6.09,1.35,8.78" transform="translate(-1.81 -4.4)"></path><path class="cls-3" d="M21.34,9.21c1.13,2.11-.15,9.11-.63,11.48a1.58,1.58,0,0,1,.31.09C22.67,19,28.71,11.37,26.67,7S16.19,4.75,13,5.67a1.68,1.68,0,0,1,.09.32c3-.08,6.79.44,8.29,3.22" transform="translate(-1.81 -4.4)"></path><path class="cls-3" d="M9.06,15c2.4.07,7.83,4.68,9.65,6.28a1.58,1.58,0,0,1,.23-.22C18.22,18.7,14.62,9.66,9.83,9.25s-7.21,7.92-8,11.18a1.87,1.87,0,0,1,.32.08C3.57,17.85,5.9,14.86,9.06,15" transform="translate(-1.81 -4.4)"></path><path class="cls-3" d="M7.91,28.44c1.26-2,8-4.42,10.27-5.2a1.92,1.92,0,0,1-.08-.3c-2.36-.54-12-2-14.76,2S6.61,35.12,9,37.45a1.58,1.58,0,0,1,.22-.23c-1.58-2.58-3-6.09-1.34-8.78" transform="translate(-1.81 -4.4)"></path><path class="cls-3" d="M235.5,9.33h5.06c3.05,0,5.33,1.92,5.33,5.81,0,3.4-1.74,5.93-5.33,5.93H235.5Zm2.58,9.57h2.3c1.5,0,2.93-.92,2.93-3.52,0-2.37-.84-3.88-3.39-3.88h-1.84Z" transform="translate(-1.81 -4.4)"></path><path class="cls-3" d="M249.84,11.25h-2.33V9.33h2.33Zm-2.33,1.32h2.33v8.5h-2.33Z" transform="translate(-1.81 -4.4)"></path><path class="cls-3" d="M253.49,18.31c0,1,.89,1.43,1.8,1.43.65,0,1.53-.26,1.53-1.08s-1-1-2.65-1.32c-1.37-.31-2.7-.76-2.7-2.27,0-2.17,1.88-2.73,3.7-2.73s3.57.62,3.75,2.71H256.7c-.06-.9-.76-1.15-1.59-1.15-.53,0-1.3.08-1.3.79s1.33,1,2.64,1.27,2.7.8,2.7,2.38c0,2.24-2,3-3.88,3s-3.91-.74-4-3Z" transform="translate(-1.81 -4.4)"></path><path class="cls-3" d="M266.31,15.56a1.57,1.57,0,0,0-1.73-1.46c-1.5,0-2,1.51-2,2.76s.48,2.68,1.94,2.68a1.78,1.78,0,0,0,1.86-1.72h2.25a3.79,3.79,0,0,1-4.09,3.48,4.13,4.13,0,0,1-4.3-4.35c0-2.65,1.58-4.61,4.35-4.61,2,0,3.86,1.05,4,3.22Z" transform="translate(-1.81 -4.4)"></path><path class="cls-3" d="M274.09,12.34a4.18,4.18,0,0,1,4.41,4.49,4.4,4.4,0,1,1-8.8,0A4.17,4.17,0,0,1,274.09,12.34Zm0,7.2c1.59,0,2.07-1.34,2.07-2.71s-.48-2.73-2.07-2.73S272,15.47,272,16.83,272.51,19.54,274.09,19.54Z" transform="translate(-1.81 -4.4)"></path><path class="cls-3" d="M284.71,21.07h-2.6l-2.91-8.5h2.45l1.8,5.81h0l1.79-5.81h2.32Z" transform="translate(-1.81 -4.4)"></path><path class="cls-3" d="M290.49,17.39c.06,1.5.77,2.15,2.09,2.15a1.92,1.92,0,0,0,1.84-1.1h2.05a3.79,3.79,0,0,1-4,2.86,4.15,4.15,0,0,1-4.34-4.47,4.26,4.26,0,0,1,4.34-4.49c2.9,0,4.31,2.43,4.13,5.05Zm3.8-1.48c-.22-1.19-.73-1.81-1.86-1.81a1.82,1.82,0,0,0-1.94,1.81Z" transform="translate(-1.81 -4.4)"></path><path class="cls-3" d="M298,12.57h2.22v1.58h0A3,3,0,0,1,303,12.34a1.7,1.7,0,0,1,.51.08v2.17a4.2,4.2,0,0,0-.84-.08c-1.72,0-2.3,1.22-2.3,2.73v3.83H298Z" transform="translate(-1.81 -4.4)"></path><path class="cls-3" d="M317.05,13.28a2.56,2.56,0,0,0-2.56-2.06c-2.32,0-3.2,2-3.2,4s.88,3.93,3.2,3.93a2.64,2.64,0,0,0,2.66-2.63h2.5a4.94,4.94,0,0,1-5.16,4.8c-3.62,0-5.78-2.71-5.78-6.1s2.16-6.2,5.78-6.2a4.77,4.77,0,0,1,5.06,4.23Z" transform="translate(-1.81 -4.4)"></path><path class="cls-3" d="M321.07,15.19c.13-2.18,2.08-2.85,4-2.85,1.7,0,3.74.38,3.74,2.42v4.42a4.39,4.39,0,0,0,.29,1.89h-2.37a3.72,3.72,0,0,1-.16-.82,3.88,3.88,0,0,1-2.86,1.05c-1.63,0-2.9-.8-2.9-2.55,0-3.86,5.76-1.79,5.66-3.7,0-1-.69-1.15-1.51-1.15s-1.47.36-1.55,1.29Zm5.39,1.72a4.69,4.69,0,0,1-1.94.5c-.72.13-1.38.39-1.38,1.25s.67,1.08,1.43,1.08a1.73,1.73,0,0,0,1.89-2Z" transform="translate(-1.81 -4.4)"></path><path class="cls-3" d="M330.61,12.57h2.22v1.18h.05a3,3,0,0,1,2.59-1.41c2.49,0,3.11,1.4,3.11,3.5v5.23h-2.33v-4.8c0-1.4-.4-2.09-1.5-2.09-1.27,0-1.81.71-1.81,2.44v4.45h-2.33Z" transform="translate(-1.81 -4.4)"></path><path class="cls-3" d="M340.26,15.19c.13-2.18,2.09-2.85,4-2.85,1.69,0,3.73.38,3.73,2.42v4.42a4.22,4.22,0,0,0,.3,1.89h-2.37a3.73,3.73,0,0,1-.17-.82,3.87,3.87,0,0,1-2.86,1.05c-1.63,0-2.89-.8-2.89-2.55,0-3.86,5.75-1.79,5.66-3.7,0-1-.69-1.15-1.52-1.15s-1.46.36-1.54,1.29Zm5.4,1.72a4.73,4.73,0,0,1-1.94.5c-.73.13-1.39.39-1.39,1.25s.68,1.08,1.43,1.08a1.74,1.74,0,0,0,1.9-2Z" transform="translate(-1.81 -4.4)"></path><path class="cls-3" d="M355.87,20h0a2.8,2.8,0,0,1-2.58,1.31c-2.57,0-3.82-2.18-3.82-4.55s1.27-4.41,3.77-4.41a2.91,2.91,0,0,1,2.51,1.27h0V9.33h2.33V21.07h-2.22Zm-2-5.89c-1.53,0-2.06,1.33-2.06,2.71s.61,2.73,2.06,2.73,2-1.34,2-2.74S355.34,14.1,353.83,14.1Z" transform="translate(-1.81 -4.4)"></path><path class="cls-3" d="M359.75,15.19c.13-2.18,2.09-2.85,4-2.85,1.69,0,3.73.38,3.73,2.42v4.42a4.36,4.36,0,0,0,.3,1.89h-2.37a3.22,3.22,0,0,1-.16-.82,3.89,3.89,0,0,1-2.87,1.05c-1.62,0-2.89-.8-2.89-2.55,0-3.86,5.76-1.79,5.66-3.7,0-1-.69-1.15-1.52-1.15s-1.46.36-1.54,1.29Zm5.4,1.72a4.73,4.73,0,0,1-1.94.5c-.73.13-1.38.39-1.38,1.25s.67,1.08,1.43,1.08a1.73,1.73,0,0,0,1.89-2Z" transform="translate(-1.81 -4.4)"></path><path class="cls-3" d="M369.52,9.33h2.34v2.52a2.66,2.66,0,0,1-2.34,2.76V13.52a1.51,1.51,0,0,0,1.09-1.66h-1.09Z" transform="translate(-1.81 -4.4)"></path><path class="cls-3" d="M375.68,18.31c0,1,.88,1.43,1.79,1.43.66,0,1.53-.26,1.53-1.08s-1-1-2.65-1.32c-1.37-.31-2.7-.76-2.7-2.27,0-2.17,1.88-2.73,3.7-2.73s3.57.62,3.75,2.71h-2.22c-.06-.9-.75-1.15-1.59-1.15-.53,0-1.3.08-1.3.79s1.33,1,2.65,1.27,2.69.8,2.69,2.38c0,2.24-1.95,3-3.88,3s-3.91-.74-4-3Z" transform="translate(-1.81 -4.4)"></path><path class="cls-3" d="M235.25,30.17h2.22v1.08h0A2.8,2.8,0,0,1,240,29.94c2.66,0,3.86,2.15,3.86,4.57s-1.23,4.39-3.73,4.39a3,3,0,0,1-2.55-1.28h0v4h-2.34Zm6.32,4.27c0-1.36-.54-2.74-2-2.74s-2,1.36-2,2.74.52,2.7,2,2.7S241.57,35.83,241.57,34.44Z" transform="translate(-1.81 -4.4)"></path><path class="cls-3" d="M245.2,32.78c.13-2.17,2.09-2.84,4-2.84,1.69,0,3.73.37,3.73,2.41v4.43a4.39,4.39,0,0,0,.3,1.89h-2.37a3.22,3.22,0,0,1-.16-.82,3.88,3.88,0,0,1-2.86,1c-1.63,0-2.9-.8-2.9-2.55,0-3.86,5.76-1.79,5.66-3.7,0-1-.69-1.15-1.51-1.15s-1.47.36-1.55,1.28Zm5.4,1.73a4.74,4.74,0,0,1-1.94.49c-.73.13-1.38.4-1.38,1.25s.67,1.09,1.43,1.09a1.73,1.73,0,0,0,1.89-2Z" transform="translate(-1.81 -4.4)"></path><path class="cls-3" d="M254.74,30.17H257v1.58h0a3,3,0,0,1,2.71-1.81,1.7,1.7,0,0,1,.51.08v2.17a4.2,4.2,0,0,0-.84-.08c-1.73,0-2.3,1.21-2.3,2.73v3.83h-2.34Z" transform="translate(-1.81 -4.4)"></path><path class="cls-3" d="M264.1,30.17h1.71v1.56H264.1v4.21c0,.79.2,1,1,1a3.2,3.2,0,0,0,.72-.07v1.83a9.66,9.66,0,0,1-1.36.08c-1.45,0-2.68-.31-2.68-2v-5h-1.42V30.17h1.42V27.62h2.33Z" transform="translate(-1.81 -4.4)"></path><path class="cls-3" d="M269.33,28.85H267V26.93h2.33ZM267,30.17h2.33v8.5H267Z" transform="translate(-1.81 -4.4)"></path><path class="cls-3" d="M277,33.16a1.57,1.57,0,0,0-1.73-1.46c-1.5,0-2,1.51-2,2.76s.48,2.68,1.94,2.68a1.78,1.78,0,0,0,1.86-1.73h2.25a3.79,3.79,0,0,1-4.09,3.49,4.13,4.13,0,0,1-4.3-4.36c0-2.65,1.58-4.6,4.34-4.6,2,0,3.87,1,4,3.22Z" transform="translate(-1.81 -4.4)"></path><path class="cls-3" d="M280.68,26.93H283V38.67h-2.34Z" transform="translate(-1.81 -4.4)"></path><path class="cls-3" d="M286.79,35c.06,1.49.77,2.15,2.08,2.15a1.93,1.93,0,0,0,1.85-1.1h2a3.81,3.81,0,0,1-4,2.86,4.15,4.15,0,0,1-4.34-4.47,4.26,4.26,0,0,1,4.34-4.49c2.9,0,4.31,2.43,4.13,5.05Zm3.8-1.48c-.22-1.19-.73-1.81-1.86-1.81a1.82,1.82,0,0,0-1.94,1.81Z" transform="translate(-1.81 -4.4)"></path><path class="cls-3" d="M298.78,32.78c.13-2.17,2.09-2.84,4-2.84,1.7,0,3.74.37,3.74,2.41v4.43a4.42,4.42,0,0,0,.29,1.89h-2.36a3.23,3.23,0,0,1-.17-.82,3.88,3.88,0,0,1-2.86,1c-1.63,0-2.9-.8-2.9-2.55,0-3.86,5.76-1.79,5.66-3.7,0-1-.69-1.15-1.51-1.15s-1.47.36-1.55,1.28Zm5.39,1.73a4.7,4.7,0,0,1-1.94.49c-.72.13-1.38.4-1.38,1.25s.67,1.09,1.43,1.09a1.73,1.73,0,0,0,1.89-2Z" transform="translate(-1.81 -4.4)"></path><path class="cls-3" d="M314.11,33.16a1.57,1.57,0,0,0-1.73-1.46c-1.5,0-2,1.51-2,2.76s.48,2.68,1.94,2.68a1.78,1.78,0,0,0,1.86-1.73h2.25a3.79,3.79,0,0,1-4.09,3.49,4.13,4.13,0,0,1-4.3-4.36c0-2.65,1.58-4.6,4.35-4.6,2,0,3.86,1,4,3.22Z" transform="translate(-1.81 -4.4)"></path><path class="cls-3" d="M323.55,33.16a1.57,1.57,0,0,0-1.73-1.46c-1.5,0-2,1.51-2,2.76s.48,2.68,1.94,2.68a1.78,1.78,0,0,0,1.86-1.73h2.25a3.79,3.79,0,0,1-4.09,3.49,4.12,4.12,0,0,1-4.29-4.36c0-2.65,1.57-4.6,4.34-4.6,2,0,3.86,1,4,3.22Z" transform="translate(-1.81 -4.4)"></path><path class="cls-3" d="M329.12,35c.07,1.49.78,2.15,2.09,2.15a1.93,1.93,0,0,0,1.85-1.1h2.05a3.81,3.81,0,0,1-4,2.86,4.15,4.15,0,0,1-4.34-4.47,4.26,4.26,0,0,1,4.34-4.49c2.9,0,4.31,2.43,4.13,5.05Zm3.8-1.48c-.21-1.19-.72-1.81-1.85-1.81a1.83,1.83,0,0,0-1.95,1.81Z" transform="translate(-1.81 -4.4)"></path><path class="cls-3" d="M336.71,26.93H339V38.67h-2.33Z" transform="translate(-1.81 -4.4)"></path><path class="cls-3" d="M342.81,35c.07,1.49.77,2.15,2.09,2.15a1.91,1.91,0,0,0,1.84-1.1h2.06a3.81,3.81,0,0,1-4,2.86,4.16,4.16,0,0,1-4.35-4.47,4.27,4.27,0,0,1,4.35-4.49c2.89,0,4.31,2.43,4.13,5.05Zm3.8-1.48c-.21-1.19-.72-1.81-1.86-1.81a1.83,1.83,0,0,0-1.94,1.81Z" transform="translate(-1.81 -4.4)"></path><path class="cls-3" d="M350.33,30.17h2.22v1.58h0a3,3,0,0,1,2.71-1.81,1.65,1.65,0,0,1,.51.08v2.17a4.1,4.1,0,0,0-.83-.08c-1.73,0-2.31,1.21-2.31,2.73v3.83h-2.33Z" transform="translate(-1.81 -4.4)"></path><path class="cls-3" d="M356.63,32.78c.13-2.17,2.09-2.84,4-2.84,1.7,0,3.74.37,3.74,2.41v4.43a4.42,4.42,0,0,0,.29,1.89h-2.36a3.23,3.23,0,0,1-.17-.82,3.88,3.88,0,0,1-2.86,1c-1.63,0-2.9-.8-2.9-2.55,0-3.86,5.76-1.79,5.66-3.7,0-1-.69-1.15-1.51-1.15s-1.47.36-1.55,1.28ZM362,34.51a4.7,4.7,0,0,1-1.94.49c-.72.13-1.38.4-1.38,1.25s.67,1.09,1.43,1.09a1.73,1.73,0,0,0,1.89-2Z" transform="translate(-1.81 -4.4)"></path><path class="cls-3" d="M369.13,30.17h1.71v1.56h-1.71v4.21c0,.79.2,1,1,1a3.29,3.29,0,0,0,.73-.07v1.83a9.9,9.9,0,0,1-1.37.08c-1.44,0-2.68-.31-2.68-2v-5h-1.41V30.17h1.41V27.62h2.34Z" transform="translate(-1.81 -4.4)"></path><path class="cls-3" d="M376.09,29.94a4.17,4.17,0,0,1,4.4,4.49,4.4,4.4,0,1,1-8.8,0A4.17,4.17,0,0,1,376.09,29.94Zm0,7.2c1.59,0,2.07-1.35,2.07-2.71s-.48-2.73-2.07-2.73S374,33.06,374,34.43,374.51,37.14,376.09,37.14Z" transform="translate(-1.81 -4.4)"></path><path class="cls-3" d="M382,30.17h2.22v1.58h0A3,3,0,0,1,387,29.94a1.65,1.65,0,0,1,.51.08v2.17a4.1,4.1,0,0,0-.83-.08c-1.73,0-2.31,1.21-2.31,2.73v3.83H382Z" transform="translate(-1.81 -4.4)"></path><path class="cls-3" d="M398.77,33.16A1.57,1.57,0,0,0,397,31.7c-1.5,0-2,1.51-2,2.76s.48,2.68,1.94,2.68a1.78,1.78,0,0,0,1.86-1.73h2.25A3.79,3.79,0,0,1,397,38.9a4.12,4.12,0,0,1-4.29-4.36c0-2.65,1.57-4.6,4.34-4.6,2,0,3.86,1,4,3.22Z" transform="translate(-1.81 -4.4)"></path><path class="cls-3" d="M404.34,35c.07,1.49.78,2.15,2.09,2.15a1.93,1.93,0,0,0,1.85-1.1h2.05a3.81,3.81,0,0,1-4,2.86A4.15,4.15,0,0,1,402,34.43a4.26,4.26,0,0,1,4.34-4.49c2.9,0,4.31,2.43,4.13,5.05Zm3.8-1.48c-.21-1.19-.72-1.81-1.85-1.81a1.83,1.83,0,0,0-2,1.81Z" transform="translate(-1.81 -4.4)"></path><path class="cls-3" d="M411.86,30.17h2.22v1.18h.05a3,3,0,0,1,2.6-1.41c2.48,0,3.11,1.39,3.11,3.5v5.23H417.5v-4.8c0-1.4-.39-2.09-1.49-2.09-1.27,0-1.81.71-1.81,2.43v4.46h-2.34Z" transform="translate(-1.81 -4.4)"></path><path class="cls-3" d="M424.58,30.17h1.71v1.56h-1.71v4.21c0,.79.19,1,1,1a3.29,3.29,0,0,0,.73-.07v1.83a9.9,9.9,0,0,1-1.37.08c-1.45,0-2.68-.31-2.68-2v-5h-1.41V30.17h1.41V27.62h2.34Z" transform="translate(-1.81 -4.4)"></path><path class="cls-3" d="M427.41,30.17h2.22v1.58h0a3,3,0,0,1,2.71-1.81,1.7,1.7,0,0,1,.51.08v2.17a4.2,4.2,0,0,0-.84-.08c-1.72,0-2.3,1.21-2.3,2.73v3.83h-2.33Z" transform="translate(-1.81 -4.4)"></path><path class="cls-3" d="M435.73,35c.06,1.49.77,2.15,2.09,2.15a1.91,1.91,0,0,0,1.84-1.1h2.06a3.81,3.81,0,0,1-4,2.86,4.15,4.15,0,0,1-4.35-4.47,4.27,4.27,0,0,1,4.35-4.49c2.89,0,4.31,2.43,4.12,5.05Zm3.8-1.48c-.22-1.19-.73-1.81-1.86-1.81a1.83,1.83,0,0,0-1.94,1.81Z" transform="translate(-1.81 -4.4)"></path></svg>