<?xml version="1.0" encoding="UTF-8"?><svg id="Layer_2" xmlns="http://www.w3.org/2000/svg" xmlns:xlink="http://www.w3.org/1999/xlink" viewBox="0 0 179.7 23.05"><defs><style>.cls-1{fill:none;}.cls-2{clip-path:url(#clippath);}.cls-3,.cls-4{fill:#fff;}.cls-5{clip-path:url(#clippath-1);}.cls-4{font-family:HelveticaNeue-Light, 'Helvetica Neue';font-size:10.91px;}</style><clipPath id="clippath"><rect class="cls-1" width="117.83" height="21.26"/></clipPath><clipPath id="clippath-1"><rect class="cls-1" width="117.83" height="21.26"/></clipPath></defs><g id="Logo"><g><polygon class="cls-3" points="31.62 5.23 26.21 5.23 26.21 2.04 40.99 2.04 40.99 5.23 35.58 5.23 35.58 19.31 31.62 19.31 31.62 5.23 31.62 5.23"/><path class="cls-3" d="M42.29,2.04h9.73c3.23,0,5.28,2.15,5.28,4.76,0,2.03-.83,3.55-2.86,4.33v.05c1.95,.51,2.5,2.27,2.63,4.04,.07,1.09,.02,3.14,.76,4.09h-3.97c-.45-1.09-.43-2.76-.63-4.14-.28-1.81-1.01-2.61-3.01-2.61h-3.97v6.75h-3.97V2.04h0Zm3.97,7.81h4.35c1.79,0,2.73-.73,2.73-2.47s-.94-2.39-2.73-2.39h-4.35v4.86h0Z"/><polygon class="cls-3" points="59.25 2.04 63.22 2.04 63.22 19.31 59.25 19.31 59.25 2.04 59.25 2.04"/><path class="cls-3" d="M81,12.78c0,4.67-2.88,6.94-7.71,6.94s-7.68-2.23-7.68-6.94V2.04h3.97V12.78c0,1.89,.5,3.75,3.71,3.75,2.83,0,3.74-1.16,3.74-3.75V2.04h3.97V12.78h0Z"/><polygon class="cls-3" points="83.31 2.04 88.89 2.04 93.11 13.92 93.16 13.92 97.15 2.04 102.74 2.04 102.74 19.31 99.02 19.31 99.02 7.07 98.97 7.07 94.55 19.31 91.49 19.31 87.07 7.19 87.02 7.19 87.02 19.31 83.31 19.31 83.31 2.04 83.31 2.04"/><polygon class="cls-3" points="105.15 2.04 105.15 19.31 109.12 19.31 109.12 12.18 116.67 12.18 116.67 9.23 109.12 9.23 109.12 5.23 117.83 5.23 117.83 2.04 105.15 2.04 105.15 2.04"/><g class="cls-2"><path class="cls-3" d="M11.04,18.44c-.66-1.23,.09-5.29,.36-6.66-.06-.01-.12-.03-.18-.05-.96,1.03-4.46,5.46-3.28,7.99,1.15,2.46,6.08,1.32,7.95,.78-.02-.06-.04-.12-.05-.18-1.76,.05-3.94-.25-4.81-1.87"/></g><path class="cls-3" d="M18.16,15.11c-1.39-.04-4.54-2.71-5.59-3.65-.04,.05-.09,.09-.13,.13,.41,1.34,2.51,6.59,5.29,6.83,2.71,.23,4.18-4.6,4.65-6.49-.06,0-.13-.02-.19-.04-.84,1.54-2.19,3.28-4.03,3.22"/><g class="cls-5"><path class="cls-3" d="M18.83,7.29c-.73,1.18-4.63,2.57-5.96,3.01,.02,.06,.04,.12,.04,.18,1.37,.31,6.97,1.13,8.57-1.16,1.56-2.23-1.9-5.91-3.3-7.27-.04,.05-.08,.1-.13,.14,.92,1.5,1.75,3.53,.78,5.09"/><path class="cls-3" d="M12.38,2.79c.66,1.22-.09,5.29-.36,6.66,.06,.01,.12,.03,.18,.05,.96-1.03,4.46-5.46,3.28-7.99C14.32-.94,9.4,.2,7.52,.74c.02,.06,.04,.12,.05,.18,1.76-.05,3.94,.25,4.81,1.87"/></g><path class="cls-3" d="M5.26,6.12c1.39,.04,4.54,2.72,5.6,3.65,.04-.05,.09-.09,.13-.13-.41-1.34-2.51-6.59-5.29-6.83-2.71-.23-4.18,4.6-4.65,6.49,.06,0,.13,.02,.19,.05,.84-1.55,2.19-3.28,4.03-3.22"/><path class="cls-3" d="M4.59,13.95c.73-1.18,4.63-2.57,5.96-3.01-.02-.06-.04-.12-.04-.18-1.37-.31-6.97-1.13-8.57,1.16-1.56,2.23,1.9,5.91,3.3,7.27,.04-.05,.08-.1,.13-.14-.92-1.5-1.75-3.53-.78-5.09"/></g></g><g id="Text"><text class="cls-4" transform="translate(126.01 19.72) scale(1.22 1)"><tspan x="0" y="0">PIF &amp; NIF</tspan></text></g></svg>